<svg width="394" height="394" viewBox="0 0 394 394" fill="none" xmlns="http://www.w3.org/2000/svg">
<path d="M0.94751 347.828C7.03604 377.382 32.082 394 57.1741 394H324.511C349.628 394 374.65 377.374 380.737 347.828H0.94751Z" fill="#546DFE"/>
<path d="M88.123 139.285C92.6179 179.236 119.52 212.163 156.214 225.247V220.086C156.214 213.706 161.377 208.543 167.757 208.543H213.929C220.309 208.543 225.472 213.706 225.472 220.086V225.247C262.166 212.163 289.068 179.236 293.563 139.285H88.123Z" fill="#546DFE"/>
<path d="M368.092 191.251C365.34 163.85 343.943 142.92 317.201 139.896C312.177 192.496 274.922 235.738 225.473 249.792V266.258C225.473 272.638 220.31 277.801 213.93 277.801H167.758C161.378 277.801 156.215 272.638 156.215 266.258V249.793C106.766 235.738 69.5103 192.497 64.4868 139.897C37.7441 142.92 16.348 163.851 13.5962 191.252L0.321777 324.742H381.367L368.092 191.251Z" fill="#546DFE"/>
<path d="M190.843 0C146.218 0 110.042 36.1757 110.042 80.8008V116.199H156.214V80.8008C156.214 61.6756 171.718 46.1719 190.843 46.1719C209.968 46.1719 225.472 61.6756 225.472 80.8008V116.199H271.644V80.8008C271.644 36.1757 235.468 0 190.843 0Z" fill="#546DFE"/>
</svg>
