<svg width="394" height="394" viewBox="0 0 394 394" fill="none" xmlns="http://www.w3.org/2000/svg">
<path d="M207.482 120.279C207.803 82.4895 197.433 45.3794 177.568 13.2304C176.818 12.0362 175.677 11.1387 174.34 10.6905C173.002 10.2423 171.551 10.2709 170.232 10.7716L152.256 17.6047C151.342 17.9475 150.525 18.5052 149.872 19.2307C149.219 19.9561 148.751 20.828 148.506 21.7727C148.261 22.7173 148.247 23.707 148.466 24.6581C148.684 25.6092 149.128 26.4938 149.76 27.2372C161.581 41.0628 187.036 75.9392 186.168 120.54C107.81 75.8213 25.9906 126.166 29.8281 209.439C34.045 300.949 108.901 418.288 181.316 389.592C191.127 385.693 202.056 385.693 211.867 389.591C284.283 418.289 359.139 300.949 363.356 209.439C367.186 126.331 285.698 76.0249 207.482 120.279Z" fill="#546DFE"/>
<path d="M285.621 72.0205C322.469 53.4365 327.132 21.0184 348.076 6.26719C298.764 -3.31025 271.12 -2.8849 246.598 14.386C225.56 29.203 224.667 67.4914 221.823 72.8589C231.833 77.5367 242.77 79.8909 253.818 79.7457C264.866 79.6005 275.738 76.9596 285.621 72.0205Z" fill="#546DFE"/>
</svg>
