<svg width="394" height="394" viewBox="0 0 394 394" fill="none" xmlns="http://www.w3.org/2000/svg">
<g clip-path="url(#clip0_273_12)">
<path d="M54.7614 120.711C50.3874 115.841 41.9556 115.841 37.5824 120.711C31.3038 127.7 0 163.726 0 186.137C0 211.601 20.7073 232.308 46.1719 232.308C71.6364 232.308 92.3438 211.601 92.3438 186.137C92.3438 163.726 61.04 127.7 54.7614 120.711Z" fill="#546DFE"/>
<path d="M147.105 3.74228C142.731 -1.12731 134.299 -1.12731 129.926 3.74228C123.648 10.7312 92.3438 48.2974 92.3438 70.7069C92.3438 96.1714 113.051 116.879 138.516 116.879C163.98 116.879 184.688 96.1714 184.688 70.7069C184.688 48.2966 153.384 10.7312 147.105 3.74228Z" fill="#546DFE"/>
<path d="M264.074 3.74228C259.701 -1.12731 251.268 -1.12731 246.895 3.74228C240.616 10.7312 209.312 48.2974 209.312 70.7069C209.312 96.1714 230.02 116.879 255.484 116.879C280.949 116.879 301.656 96.1714 301.656 70.7069C301.656 48.2966 270.352 10.7312 264.074 3.74228Z" fill="#546DFE"/>
<path d="M356.418 120.711C352.044 115.841 343.612 115.841 339.239 120.711C332.96 127.7 301.656 163.726 301.656 186.137C301.656 211.601 322.364 232.308 347.828 232.308C373.293 232.308 394 211.601 394 186.137C394 163.726 362.696 127.7 356.418 120.711Z" fill="#546DFE"/>
<path d="M346.487 298.207C341.031 267.862 317.246 242.386 287.284 234.8C282.155 233.504 278.57 228.916 278.57 223.629V220.766C278.57 176.217 241.549 139.965 197 139.965C152.451 139.965 115.43 176.217 115.43 220.766V223.629C115.43 228.916 111.845 233.504 106.716 234.8C76.7538 242.385 52.9691 267.861 47.5132 298.207C43.1961 322.172 49.5532 346.486 64.9631 364.906C91.9605 397.178 143.115 402.736 176.346 377.069C186.942 368.885 207.058 368.885 217.654 377.069C231.914 388.082 248.98 393.91 267.027 393.91C291.027 393.91 313.628 383.337 329.037 364.906C344.446 346.488 350.804 322.173 346.487 298.207Z" fill="#546DFE"/>
</g>
<defs>
<clipPath id="clip0_273_12">
<rect width="394" height="394" fill="white"/>
</clipPath>
</defs>
</svg>
