<svg width="394" height="394" viewBox="0 0 394 394" fill="none" xmlns="http://www.w3.org/2000/svg">
<path fill-rule="evenodd" clip-rule="evenodd" d="M84.4285 0H330.679C332.544 0 334.334 0.74126 335.654 2.06071C336.973 3.38016 337.714 5.16973 337.714 7.03571V330.679C337.714 332.545 336.973 334.334 335.654 335.654C334.334 336.973 332.544 337.714 330.679 337.714H84.4285V0ZM60.184 8.97265C62.7029 5.42617 66.2559 2.74451 70.3571 1.29457V338.488C65.2602 339.506 60.4536 341.645 56.2856 344.75V21.1071C56.3037 16.7572 57.6652 12.5191 60.184 8.97265ZM62.4678 387.818C66.4261 391.776 71.7948 394 77.3928 394H316.607C318.473 394 320.263 393.259 321.582 391.939C322.902 390.62 323.643 388.83 323.643 386.964V351.786H77.3928C71.7948 351.786 66.4261 354.01 62.4678 357.968C58.5094 361.926 56.2856 367.295 56.2856 372.893C56.2856 378.491 58.5094 383.859 62.4678 387.818ZM246.25 365.857H281.429C283.295 365.857 285.084 366.598 286.404 367.918C287.723 369.237 288.464 371.027 288.464 372.893C288.464 374.759 287.723 376.548 286.404 377.868C285.084 379.187 283.295 379.929 281.429 379.929H246.25C244.384 379.929 242.594 379.187 241.275 377.868C239.955 376.548 239.214 374.759 239.214 372.893C239.214 371.027 239.955 369.237 241.275 367.918C242.594 366.598 244.384 365.857 246.25 365.857ZM218.107 365.857C219.973 365.857 221.763 366.598 223.082 367.918C224.402 369.237 225.143 371.027 225.143 372.893C225.143 374.759 224.402 376.548 223.082 377.868C221.763 379.187 219.973 379.929 218.107 379.929H105.536C103.67 379.929 101.88 379.187 100.561 377.868C99.2412 376.548 98.4999 374.759 98.4999 372.893C98.4999 371.027 99.2412 369.237 100.561 367.918C101.88 366.598 103.67 365.857 105.536 365.857H218.107ZM159.646 258.962L253.101 109.382L234.831 99.6549L141.376 249.235L159.646 258.962ZM167.927 186.538V83.0933H165.43L116.534 98.8663V119.24L141.245 113.588V186.538H167.927ZM298.843 274.472V253.441H252.707L267.297 241.217C273.781 236.223 279.127 231.71 283.333 227.679C287.539 223.648 290.694 219.573 292.797 215.455C294.9 211.336 295.951 206.736 295.951 201.654C295.951 194.819 294.33 188.991 291.088 184.172C287.933 179.352 283.333 175.672 277.287 173.131C271.24 170.502 263.923 169.187 255.336 169.187C247.099 169.187 240.001 170.852 234.042 174.182C228.084 177.424 223.483 181.762 220.241 187.195C216.999 192.628 215.378 198.63 215.378 205.202H242.06C242.06 201.172 243.243 197.71 245.609 194.819C248.063 191.839 251.699 190.35 256.519 190.35C260.725 190.35 263.88 191.401 265.983 193.504C268.173 195.607 269.269 198.367 269.269 201.785C269.269 203.187 268.743 204.983 267.691 207.174C266.727 209.277 265.238 211.687 263.222 214.403C261.207 217.032 258.578 219.836 255.336 222.816L217.744 256.859V274.472H298.843Z" fill="#546DFE"/>
</svg>
