<svg width="394" height="394" viewBox="0 0 394 394" fill="none" xmlns="http://www.w3.org/2000/svg">
<g clip-path="url(#clip0_288_731)">
<path d="M308.411 258.661L345.25 19.7H266.45V0H187.65V19.7H89.15C67.48 19.7 49.75 37.43 49.75 59.1V137.9C49.75 159.57 67.48 177.3 89.15 177.3H133.081L145.689 258.661C123.428 276.785 108.85 303.971 108.85 334.9V354.6C108.85 376.27 126.58 394 148.25 394H305.85C327.52 394 345.25 376.27 345.25 354.6V334.9C345.25 303.971 330.672 276.785 308.411 258.661ZM89.15 137.9V59.1H114.957L127.171 137.9H89.15ZM227.05 334.9C216.215 334.9 207.35 326.035 207.35 315.2C207.35 304.365 216.215 295.5 227.05 295.5C237.885 295.5 246.75 304.365 246.75 315.2C246.75 326.035 237.885 334.9 227.05 334.9ZM272.163 236.4H182.134L154.751 59.1H299.349L272.163 236.4Z" fill="#546DFE"/>
</g>
<defs>
<clipPath id="clip0_288_731">
<rect width="394" height="394" fill="white"/>
</clipPath>
</defs>
</svg>
