<svg width="394" height="394" viewBox="0 0 394 394" fill="none" xmlns="http://www.w3.org/2000/svg">
<path d="M241.949 16C235.258 16 229.833 21.1153 229.833 27.4257V130.917H394C378.474 65.2438 316.199 16 241.949 16Z" fill="#546DFE"/>
<path d="M114.917 278.667C87.7604 278.667 65.6666 300.759 65.6666 327.917C65.6666 355.074 87.7593 377.167 114.917 377.167C142.073 377.167 164.167 355.074 164.167 327.917C164.167 300.759 142.073 278.667 114.917 278.667ZM106.834 360.75C93.1866 360.75 82.0833 347.438 82.0833 331.076C82.0833 323.579 84.4179 316.729 88.2562 311.5C100.48 323.422 115.206 331.79 131.333 335.266C129.629 349.651 119.294 360.75 106.834 360.75Z" fill="#546DFE"/>
<path d="M393.552 151.585H233.121H210.517H81.5749V136.112C81.5749 97.0396 50.1888 65.25 11.6094 65.25C5.19755 65.25 0 70.5142 0 77.0083C0 83.5024 5.19755 88.7665 11.6094 88.7665C37.3859 88.7665 58.356 110.005 58.356 136.112V163.343V215.616C58.356 238.347 65.0814 259.507 76.5921 277.204C88.053 265.927 103.672 258.963 120.875 258.963C155.946 258.963 184.479 287.861 184.479 323.382C184.479 324.908 184.407 326.416 184.303 327.917H244.674C244.57 326.416 244.498 324.908 244.498 323.382C244.498 287.861 273.031 258.963 308.102 258.963C332.121 258.963 353.067 272.52 363.887 292.473C382.55 272.368 393.999 245.321 393.999 215.615V163.343C393.999 159.387 393.848 155.466 393.552 151.585Z" fill="#546DFE"/>
<path d="M311.917 278.667C284.76 278.667 262.667 300.759 262.667 327.917C262.667 355.074 284.76 377.167 311.917 377.167C339.073 377.167 361.167 355.074 361.167 327.917C361.167 300.759 339.073 278.667 311.917 278.667ZM303.454 344.333C291.455 344.333 281.413 335.376 279.083 323.503H282.155C298.548 323.503 313.989 319.153 327.489 311.5C328.037 313.65 328.333 315.906 328.333 318.236C328.333 332.626 317.172 344.333 303.454 344.333Z" fill="#546DFE"/>
</svg>
