<svg width="394" height="394" viewBox="0 0 394 394" fill="none" xmlns="http://www.w3.org/2000/svg">
<g clip-path="url(#clip0_288_707)">
<path d="M395.147 357.399L366.591 123.214C364.582 106.856 350.233 94.3715 333.157 94.3715H321.39C321.609 97.448 321.523 105.456 321.533 108.721V178.603C321.533 184.547 316.715 189.366 310.771 189.366C304.827 189.366 300.009 184.547 300.009 178.603V108.721C304.845 -30.2624 100.448 -38.8212 93.3745 99.3947C93.3711 101.354 93.3758 155.052 93.3761 178.65C93.3761 184.596 88.5565 189.365 82.6111 189.365C76.6697 189.365 71.8515 184.632 71.8455 178.691C71.8207 154.564 71.745 101.329 71.9941 94.3715C71.9946 94.3715 60.2278 94.3715 60.2278 94.3715C43.1518 94.3715 28.8023 106.856 26.7931 123.214L-1.7624 357.399C-2.76701 366.438 0.103038 375.622 6.12971 382.654C12.5871 389.828 21.9148 393.99 31.6723 393.99H361.712C381.013 394.478 397.738 376.563 395.147 357.399ZM196.692 28.0767C236.153 28.0767 268.44 57.3495 271.023 94.3716C258.505 94.355 158.967 94.3837 143.886 94.3716H122.362C124.944 57.3495 157.231 28.0767 196.692 28.0767Z" fill="#546DFE"/>
</g>
<defs>
<clipPath id="clip0_288_707">
<rect width="394" height="394" fill="white"/>
</clipPath>
</defs>
</svg>
