<svg width="394" height="394" viewBox="0 0 394 394" fill="none" xmlns="http://www.w3.org/2000/svg">
<path fill-rule="evenodd" clip-rule="evenodd" d="M84.4285 0H330.679C332.544 0 334.334 0.74126 335.654 2.06071C336.973 3.38016 337.714 5.16973 337.714 7.03571V330.679C337.714 332.545 336.973 334.334 335.654 335.654C334.334 336.973 332.544 337.714 330.679 337.714H84.4285V0ZM60.184 8.97265C62.7029 5.42617 66.2559 2.74451 70.3571 1.29457V338.488C65.2602 339.506 60.4536 341.645 56.2856 344.75V21.1071C56.3037 16.7572 57.6652 12.5191 60.184 8.97265ZM62.4678 387.818C66.4261 391.776 71.7948 394 77.3928 394H316.607C318.473 394 320.263 393.259 321.582 391.939C322.902 390.62 323.643 388.83 323.643 386.964V351.786H77.3928C71.7948 351.786 66.4261 354.01 62.4678 357.968C58.5094 361.926 56.2856 367.295 56.2856 372.893C56.2856 378.491 58.5094 383.859 62.4678 387.818ZM246.25 365.857H281.429C283.295 365.857 285.084 366.598 286.404 367.918C287.723 369.237 288.464 371.027 288.464 372.893C288.464 374.759 287.723 376.548 286.404 377.868C285.084 379.187 283.295 379.929 281.429 379.929H246.25C244.384 379.929 242.594 379.187 241.275 377.868C239.955 376.548 239.214 374.759 239.214 372.893C239.214 371.027 239.955 369.237 241.275 367.918C242.594 366.598 244.384 365.857 246.25 365.857ZM218.107 365.857C219.973 365.857 221.763 366.598 223.082 367.918C224.402 369.237 225.143 371.027 225.143 372.893C225.143 374.759 224.402 376.548 223.082 377.868C221.763 379.187 219.973 379.929 218.107 379.929H105.536C103.67 379.929 101.88 379.187 100.561 377.868C99.2412 376.548 98.4999 374.759 98.4999 372.893C98.4999 371.027 99.2412 369.237 100.561 367.918C101.88 366.598 103.67 365.857 105.536 365.857H218.107ZM252.062 214.13C261.591 214.13 269.621 220.447 272.404 229.012C286.323 213.809 294.888 193.574 294.888 171.304C294.888 135.33 272.725 104.603 241.355 91.9689V96.3586C241.355 102.038 239.099 107.484 235.084 111.5C231.068 115.516 225.622 117.772 219.942 117.772H198.529V139.185C198.529 142.024 197.401 144.747 195.394 146.755C193.386 148.763 190.662 149.891 187.823 149.891H166.41V171.304H230.649C233.488 171.304 236.212 172.432 238.22 174.44C240.227 176.448 241.355 179.171 241.355 182.011V214.13H252.062ZM123.584 171.304C123.584 214.987 156.239 250.961 198.529 256.207V235.543C192.85 235.543 187.404 233.287 183.388 229.271C179.372 225.256 177.116 219.809 177.116 214.13V203.424L125.832 152.139C124.44 158.242 123.584 164.666 123.584 171.304ZM168.264 72.3889C181.254 67.0084 195.176 64.2391 209.236 64.2391C223.296 64.2391 237.218 67.0084 250.208 72.3889C263.198 77.7694 275 85.6558 284.942 95.5977C294.884 105.54 302.771 117.342 308.151 130.332C313.532 143.322 316.301 157.244 316.301 171.304C316.301 199.7 305.021 226.932 284.942 247.011C264.864 267.089 237.631 278.369 209.236 278.369C195.176 278.369 181.254 275.6 168.264 270.219C155.274 264.839 143.471 256.952 133.529 247.011C113.451 226.932 102.171 199.7 102.171 171.304C102.171 142.909 113.451 115.676 133.529 95.5977C143.471 85.6558 155.274 77.7694 168.264 72.3889Z" fill="#546DFE"/>
</svg>
