<svg width="394" height="394" viewBox="0 0 394 394" fill="none" xmlns="http://www.w3.org/2000/svg">
<path fill-rule="evenodd" clip-rule="evenodd" d="M331.515 0H83.725V337.714H331.515C333.392 337.714 335.193 336.973 336.521 335.654C337.848 334.334 338.594 332.545 338.594 330.679V7.03571C338.594 5.16973 337.848 3.38016 336.521 2.06071C335.193 0.74126 333.392 0 331.515 0ZM69.5656 1.29457C65.4388 2.74451 61.8636 5.42617 59.329 8.97265C56.7945 12.5191 55.4244 16.7572 55.4062 21.1071V344.75C59.6003 341.645 64.4369 339.506 69.5656 338.488V1.29457ZM317.355 394H76.6453C71.0124 394 65.6101 391.776 61.627 387.818C57.6439 383.859 55.4062 378.491 55.4062 372.893C55.4062 367.295 57.6439 361.926 61.627 357.968C65.6101 354.01 71.0124 351.786 76.6453 351.786H324.435V386.964C324.435 388.83 323.689 390.62 322.361 391.939C321.034 393.259 319.233 394 317.355 394ZM281.957 365.857H246.558C244.68 365.857 242.88 366.598 241.552 367.918C240.224 369.237 239.478 371.027 239.478 372.893C239.478 374.759 240.224 376.548 241.552 377.868C242.88 379.187 244.68 379.929 246.558 379.929H281.957C283.834 379.929 285.635 379.187 286.963 377.868C288.29 376.548 289.036 374.759 289.036 372.893C289.036 371.027 288.29 369.237 286.963 367.918C285.635 366.598 283.834 365.857 281.957 365.857ZM218.239 365.857H104.964C103.086 365.857 101.286 366.598 99.958 367.918C98.6303 369.237 97.8844 371.027 97.8844 372.893C97.8844 374.759 98.6303 376.548 99.958 377.868C101.286 379.187 103.086 379.929 104.964 379.929H218.239C220.117 379.929 221.918 379.187 223.245 377.868C224.573 376.548 225.319 374.759 225.319 372.893C225.319 371.027 224.573 369.237 223.245 367.918C221.918 366.598 220.117 365.857 218.239 365.857ZM282.263 251.443C280.441 244.838 276.058 239.214 270.067 235.829L256.453 228.112C258.939 221.63 260.31 214.559 260.31 207.158C260.31 202.001 259.636 197.013 258.403 192.261L264.512 190.607C269.398 189.282 273.558 186.091 276.077 181.725C278.572 177.36 279.251 172.179 277.927 167.314C275.148 157.202 264.655 151.244 254.489 153.997L237.967 158.466C249.603 150.136 257.051 137.328 257.051 122.964C257.051 122.709 257.046 122.459 257.041 122.204L257.041 122.19C268.483 118.683 276.822 108.076 276.822 95.5745C276.822 80.2159 264.256 67.7234 248.802 67.7234C238.826 67.7234 230.064 72.9278 225.098 80.7439C219.258 78.6555 212.893 77.5053 206.232 77.5053C199.568 77.5053 193.202 78.6555 187.367 80.7391C182.401 72.9231 173.63 67.7187 163.663 67.7187C148.209 67.7187 135.638 80.2112 135.638 95.5698C135.638 108.076 143.977 118.678 155.419 122.186L155.419 122.199C155.414 122.454 155.41 122.704 155.41 122.959C155.41 137.323 162.862 150.131 174.498 158.461L157.981 153.992C147.806 151.239 137.322 157.202 134.547 167.309C133.224 172.165 133.883 177.346 136.392 181.716C138.907 186.081 143.067 189.277 147.953 190.602L154.062 192.257C152.815 197.004 152.151 201.991 152.151 207.158C152.151 214.559 153.526 221.63 156.012 228.112L142.398 235.829C136.407 239.223 132.024 244.843 130.207 251.443C128.381 258.052 129.282 265.109 132.692 271.053C139.798 283.456 155.67 287.774 168.141 280.703L199.269 263.082C201.551 263.383 203.88 263.548 206.242 263.548C208.604 263.548 210.929 263.388 213.21 263.082L244.338 280.703C256.818 287.774 272.686 283.456 279.782 271.053C283.193 265.109 284.084 258.052 282.263 251.443ZM185.209 115.605C188.169 115.605 190.579 117.995 190.579 120.937C190.579 123.878 188.169 126.273 185.209 126.273C182.244 126.273 179.839 123.883 179.839 120.937C179.839 117.99 182.244 115.605 185.209 115.605ZM227.256 115.996C230.221 115.996 232.626 118.386 232.626 121.333C232.626 124.279 230.221 126.664 227.256 126.664C224.291 126.664 221.886 124.279 221.886 121.333C221.886 118.386 224.291 115.996 227.256 115.996ZM203.998 242.09C200.536 238.668 193.715 231.92 188.386 226.648C184.304 222.609 181.097 219.437 180.949 219.292C173.952 212.334 173.952 201.067 180.949 194.114C187.936 187.179 199.231 187.161 206.232 194.067C213.234 187.161 224.529 187.179 231.516 194.114C238.517 201.067 238.517 212.334 231.516 219.292C231.265 219.534 222.497 228.209 215.358 235.272C212.637 237.964 210.153 240.422 208.467 242.09C207.229 243.311 205.232 243.311 203.998 242.09ZM248.797 81.781C256.439 81.781 262.672 87.9706 262.672 95.5698C262.672 101.222 259.219 106.087 254.318 108.213C251.116 99.8785 245.296 92.6376 237.725 87.2871C240.254 83.9448 244.276 81.781 248.797 81.781ZM206.232 126.806C215.573 126.806 223.139 133.58 223.139 141.929C223.139 150.277 215.563 157.051 206.232 157.051C196.897 157.051 189.326 150.282 189.326 141.929C189.326 133.58 196.888 126.806 206.232 126.806ZM149.793 95.5698C149.793 87.9706 156.021 81.781 163.668 81.781C168.189 81.781 172.211 83.9448 174.74 87.2824C167.169 92.6376 161.344 99.8785 158.147 108.204C153.237 106.087 149.793 101.222 149.793 95.5698ZM213.794 136.059C213.794 139.796 210.409 142.824 206.233 142.824C202.057 142.824 198.671 139.796 198.671 136.059C198.671 132.323 202.057 129.295 206.233 129.295C210.409 129.295 213.794 132.323 213.794 136.059Z" fill="#546DFE"/>
</svg>
