<svg width="394" height="394" viewBox="0 0 394 394" fill="none" xmlns="http://www.w3.org/2000/svg">
<g clip-path="url(#clip0_273_99)">
<path d="M240.35 9.32142C262.415 11.3146 277.675 12.5544 277.675 12.5544L278.424 3.45702C278.414 3.45702 263.181 2.20807 241.161 0.22401C231.67 -0.672016 224.322 1.12918 219.211 5.40999C213.681 10.0702 213.048 15.9246 213.048 16.144L209.205 37.4959H115.847L118.113 43.641C143.367 112.311 144.036 146.551 120.231 212.929L119.803 212.696L117.128 221.456L117.449 221.642L117.404 221.794L117.44 221.812C116.196 227.378 115.575 232.943 115.575 238.392C115.575 273.408 139.759 299.201 176.134 305.248C171.104 309.823 167.881 316.369 167.881 323.71C167.881 334.055 174.155 342.929 183.096 346.747C188.911 354.372 188.701 359.037 182.458 366.885C159.105 368.169 141.552 373.69 141.552 380.299C141.552 387.861 164.544 393.998 192.924 393.998C221.3 393.998 244.293 387.861 244.293 380.299C244.293 373.69 226.741 368.169 203.391 366.885C197.144 359.037 196.935 354.363 202.75 346.747C211.704 342.929 217.966 334.064 217.966 323.71C217.966 316.369 214.755 309.831 209.707 305.248C246.086 299.21 270.265 273.408 270.265 238.392C270.265 232.943 269.65 227.378 268.41 221.821L268.481 221.786L268.446 221.625L268.731 221.447L266.056 212.688L265.627 212.92C241.823 146.542 242.491 112.303 267.741 43.6328L270.005 37.4868H218.499L222.102 17.4149C222.208 16.4256 223.724 7.82377 240.35 9.32142ZM256.939 46.6199C232.742 114.532 233.339 151.528 258.642 220.502L259.097 222.143C260.452 227.61 261.131 233.068 261.131 238.384C261.131 279.197 226.883 297.462 192.924 297.462C158.965 297.462 124.709 279.196 124.709 238.393C124.709 233.087 125.386 227.646 126.737 222.196L127.193 220.539C152.5 151.538 153.102 114.542 128.91 46.6208H207.564L198.583 96.4773C190.017 96.4773 187.551 96.4773 160.281 96.4773C167.443 149.254 161.057 173.366 142.234 224.561C141.066 228.913 140.379 233.461 140.379 238.188C140.379 267.2 163.899 284.12 192.911 284.12C221.924 284.12 245.452 267.2 245.452 238.188C245.452 233.461 244.756 228.904 243.597 224.561C224.769 173.366 218.383 148.888 225.545 96.4773C217.768 96.4773 212.167 96.4773 207.85 96.4773L216.822 46.6208H256.939V46.6199ZM194.641 200.854C194.641 202.049 193.669 203.012 192.474 203.012C191.278 203.012 190.31 202.048 190.31 200.854C190.31 199.65 191.278 198.686 192.474 198.686C193.668 198.686 194.641 199.649 194.641 200.854ZM185.433 154.609C186.244 154.609 186.904 155.265 186.904 156.077C186.904 156.893 186.244 157.557 185.433 157.557C184.622 157.557 183.951 156.901 183.951 156.077C183.951 155.265 184.621 154.609 185.433 154.609ZM184.968 127.639C184.968 126.827 185.624 126.167 186.436 126.167C187.252 126.167 187.916 126.827 187.916 127.639C187.916 128.451 187.26 129.119 186.436 129.119C185.624 129.119 184.968 128.451 184.968 127.639ZM184.968 181.531C186.164 181.531 187.131 182.499 187.131 183.698C187.131 184.893 186.164 185.861 184.968 185.861C183.769 185.861 182.792 184.893 182.792 183.698C182.792 182.499 183.769 181.531 184.968 181.531ZM185.433 216.916C185.433 218.754 183.943 220.243 182.11 220.243C180.272 220.243 178.775 218.754 178.775 216.916C178.775 215.079 180.264 213.59 182.102 213.59C183.933 213.59 185.433 215.079 185.433 216.916ZM180.482 169.878C179.67 169.878 179.01 169.218 179.01 168.407C179.01 167.596 179.671 166.927 180.482 166.927C181.293 166.927 181.962 167.587 181.962 168.407C181.954 169.218 181.293 169.878 180.482 169.878ZM179.768 146.818C178.956 146.818 178.302 146.158 178.302 145.338C178.302 144.526 178.957 143.867 179.768 143.867C180.585 143.867 181.249 144.527 181.249 145.338C181.24 146.158 180.585 146.818 179.768 146.818ZM183.167 246.009C186.155 246.009 188.577 248.435 188.577 251.414C188.577 254.402 186.156 256.828 183.167 256.828C180.183 256.828 177.771 254.393 177.771 251.405C177.771 248.427 180.192 246.009 183.167 246.009ZM173.45 187.979C173.45 189.157 172.49 190.115 171.314 190.115C170.128 190.115 169.178 189.156 169.178 187.979C169.178 186.793 170.137 185.843 171.314 185.843C172.49 185.843 173.45 186.802 173.45 187.979ZM164.901 228.885C167.26 228.885 169.168 230.794 169.168 233.149C169.168 235.512 167.26 237.421 164.901 237.421C162.546 237.421 160.637 235.512 160.637 233.149C160.646 230.785 162.556 228.885 164.901 228.885ZM163.603 207.231C163.603 205.821 164.754 204.671 166.173 204.671C167.586 204.671 168.737 205.821 168.737 207.231C168.737 208.649 167.586 209.799 166.173 209.799C164.754 209.799 163.603 208.649 163.603 207.231Z" fill="#546DFE"/>
</g>
<defs>
<clipPath id="clip0_273_99">
<rect width="394" height="394" fill="white"/>
</clipPath>
</defs>
</svg>
