<svg width="394" height="394" viewBox="0 0 394 394" fill="none" xmlns="http://www.w3.org/2000/svg">
<g clip-path="url(#clip0_288_258)">
<path fill-rule="evenodd" clip-rule="evenodd" d="M330.679 0H84.4285V337.714H330.679C332.544 337.714 334.334 336.973 335.654 335.654C336.973 334.334 337.714 332.545 337.714 330.679V7.03571C337.714 5.16973 336.973 3.38016 335.654 2.06071C334.334 0.74126 332.544 0 330.679 0ZM70.3571 1.29457C66.2559 2.74451 62.7029 5.42617 60.184 8.97265C57.6652 12.5191 56.3037 16.7572 56.2856 21.1071V344.75C60.4536 341.645 65.2602 339.506 70.3571 338.488V1.29457ZM77.3928 394C71.7948 394 66.4261 391.776 62.4678 387.818C58.5094 383.859 56.2856 378.491 56.2856 372.893C56.2856 367.295 58.5094 361.926 62.4678 357.968C66.4261 354.01 71.7948 351.786 77.3928 351.786H323.643V386.964C323.643 388.83 322.902 390.62 321.582 391.939C320.263 393.259 318.473 394 316.607 394H77.3928ZM281.429 365.857H246.25C244.384 365.857 242.594 366.598 241.275 367.918C239.955 369.237 239.214 371.027 239.214 372.893C239.214 374.759 239.955 376.548 241.275 377.868C242.594 379.187 244.384 379.929 246.25 379.929H281.429C283.295 379.929 285.084 379.187 286.404 377.868C287.723 376.548 288.464 374.759 288.464 372.893C288.464 371.027 287.723 369.237 286.404 367.918C285.084 366.598 283.295 365.857 281.429 365.857ZM223.082 367.918C221.763 366.598 219.973 365.857 218.107 365.857H105.536C103.67 365.857 101.88 366.598 100.561 367.918C99.2412 369.237 98.4999 371.027 98.4999 372.893C98.4999 374.759 99.2412 376.548 100.561 377.868C101.88 379.187 103.67 379.929 105.536 379.929H218.107C219.973 379.929 221.763 379.187 223.082 377.868C224.402 376.548 225.143 374.759 225.143 372.893C225.143 371.027 224.402 369.237 223.082 367.918ZM169.571 117.931V219.769C165.853 218.555 161.679 217.903 157.192 217.903C153.451 217.903 149.64 218.372 145.864 219.3C134.987 221.974 125.665 228.259 120.934 236.132C117.661 241.574 116.68 247.416 118.095 253.006C120.899 264.074 132.331 271.244 147.209 271.244C150.959 271.244 154.761 270.775 158.537 269.846C169.414 267.173 178.737 260.888 183.468 253.015C185.865 249.039 187.029 244.85 186.931 240.701V164.243L273.736 128.054V193.73C270.017 192.515 265.844 191.863 261.356 191.863C257.615 191.863 253.804 192.331 250.028 193.26C239.152 195.934 229.829 202.218 225.098 210.092C221.826 215.534 220.845 221.376 222.26 226.966C225.063 238.034 236.496 245.204 251.374 245.204C255.124 245.204 258.926 244.735 262.702 243.806C273.578 241.133 282.901 234.848 287.632 226.975C290.023 223.008 291.188 218.829 291.096 214.69V67.2978L169.571 117.931ZM186.931 145.434V129.51L273.736 93.339V109.245L186.931 145.434Z" fill="#546DFE"/>
</g>
<defs>
<clipPath id="clip0_288_258">
<rect width="394" height="394" fill="white"/>
</clipPath>
</defs>
</svg>
