<svg width="394" height="394" viewBox="0 0 394 394" fill="none" xmlns="http://www.w3.org/2000/svg">
<path d="M379.929 264.959H323.643C320.598 264.959 317.636 265.755 315.2 267.228L267.357 296.165L219.514 267.228C217.079 265.755 214.116 264.959 211.071 264.959H14.0714C10.3395 264.959 6.76033 266.154 4.12143 268.282C1.48252 270.41 0 273.297 0 276.306V299.002C0.0223434 314.045 7.44212 328.467 20.6318 339.103C33.8215 349.74 51.7041 355.724 70.3571 355.742H323.643C342.296 355.724 360.178 349.74 373.368 339.103C386.558 328.467 393.978 314.045 394 299.002V276.306C394 273.297 392.518 270.41 389.879 268.282C387.24 266.154 383.661 264.959 379.929 264.959Z" fill="#546DFE"/>
<path d="M379.929 219.567H14.0714C10.3395 219.567 6.76033 220.762 4.12143 222.891C1.48252 225.019 0 227.905 0 230.915C0 233.924 1.48252 236.811 4.12143 238.939C6.76033 241.067 10.3395 242.263 14.0714 242.263H379.929C383.661 242.263 387.24 241.067 389.879 238.939C392.518 236.811 394 233.924 394 230.915C394 227.905 392.518 225.019 389.879 222.891C387.24 220.762 383.661 219.567 379.929 219.567Z" fill="#546DFE"/>
<path d="M211.071 38H182.929C134.43 38.0451 87.9339 53.6021 53.6402 81.2583C19.3466 108.914 0.0558632 146.411 0 185.523C0 188.533 1.48252 191.419 4.12143 193.547C6.76033 195.675 10.3395 196.871 14.0714 196.871H379.929C383.661 196.871 387.24 195.675 389.879 193.547C392.518 191.419 394 188.533 394 185.523C393.944 146.411 374.653 108.914 340.36 81.2583C306.066 53.6021 259.57 38.0451 211.071 38ZM140.714 128.783C140.714 131.793 139.232 134.679 136.593 136.808C133.954 138.936 130.375 140.131 126.643 140.131C122.911 140.131 119.332 138.936 116.693 136.808C114.054 134.679 112.571 131.793 112.571 128.783V117.435C112.571 114.426 114.054 111.539 116.693 109.411C119.332 107.283 122.911 106.088 126.643 106.088C130.375 106.088 133.954 107.283 136.593 109.411C139.232 111.539 140.714 114.426 140.714 117.435V128.783ZM211.071 128.783C211.071 131.793 209.589 134.679 206.95 136.808C204.311 138.936 200.732 140.131 197 140.131C193.268 140.131 189.689 138.936 187.05 136.808C184.411 134.679 182.929 131.793 182.929 128.783V117.435C182.929 114.426 184.411 111.539 187.05 109.411C189.689 107.283 193.268 106.088 197 106.088C200.732 106.088 204.311 107.283 206.95 109.411C209.589 111.539 211.071 114.426 211.071 117.435V128.783ZM281.429 128.783C281.429 131.793 279.946 134.679 277.307 136.808C274.668 138.936 271.089 140.131 267.357 140.131C263.625 140.131 260.046 138.936 257.407 136.808C254.768 134.679 253.286 131.793 253.286 128.783V117.435C253.286 114.426 254.768 111.539 257.407 109.411C260.046 107.283 263.625 106.088 267.357 106.088C271.089 106.088 274.668 107.283 277.307 109.411C279.946 111.539 281.429 114.426 281.429 117.435V128.783Z" fill="#546DFE"/>
</svg>
