<svg width="394" height="394" viewBox="0 0 394 394" fill="none" xmlns="http://www.w3.org/2000/svg">
<path fill-rule="evenodd" clip-rule="evenodd" d="M83.725 0H331.514C333.392 0 335.193 0.74126 336.521 2.06071C337.848 3.38016 338.594 5.16973 338.594 7.03571V330.679C338.594 332.545 337.848 334.334 336.521 335.654C335.193 336.973 333.392 337.714 331.514 337.714H83.725V0ZM59.329 8.97265C61.8636 5.42617 65.4388 2.74451 69.5656 1.29457V338.488C64.4369 339.506 59.6003 341.645 55.4062 344.75V21.1071C55.4244 16.7572 56.7945 12.5191 59.329 8.97265ZM76.6453 394H317.355C319.233 394 321.033 393.259 322.361 391.939C323.689 390.62 324.435 388.83 324.435 386.964V351.786H76.6453C71.0124 351.786 65.6101 354.01 61.627 357.968C57.6439 361.926 55.4062 367.295 55.4062 372.893C55.4062 378.491 57.6439 383.859 61.627 387.818C65.6101 391.776 71.0124 394 76.6453 394ZM246.558 365.857H281.957C283.834 365.857 285.635 366.598 286.963 367.918C288.29 369.237 289.036 371.027 289.036 372.893C289.036 374.759 288.29 376.548 286.963 377.868C285.635 379.187 283.834 379.929 281.957 379.929H246.558C244.68 379.929 242.88 379.187 241.552 377.868C240.224 376.548 239.478 374.759 239.478 372.893C239.478 371.027 240.224 369.237 241.552 367.918C242.88 366.598 244.68 365.857 246.558 365.857ZM104.964 365.857H218.239C220.117 365.857 221.918 366.598 223.245 367.918C224.573 369.237 225.319 371.027 225.319 372.893C225.319 374.759 224.573 376.548 223.245 377.868C221.918 379.187 220.117 379.929 218.239 379.929H104.964C103.086 379.929 101.286 379.187 99.958 377.868C98.6303 376.548 97.8844 374.759 97.8844 372.893C97.8844 371.027 98.6303 369.237 99.958 367.918C101.286 366.598 103.086 365.857 104.964 365.857ZM225.094 157.568L304.319 235.106C311.246 241.885 311.246 252.915 304.319 259.694C297.279 266.584 285.841 266.198 279.196 259.694L212.393 186.588L202.862 195.916L130.603 125.197C123.868 118.605 119.857 109.66 119.005 99.3282C118.257 90.2643 119.923 80.348 123.821 70.6527L125.298 66.9794H132.532L225.094 157.568ZM169.48 182.326L115.495 236.001C108.888 242.57 108.888 253.259 115.495 259.828C121.772 266.069 132.63 266.62 139.461 259.828L193.446 206.154L169.48 182.326ZM270.065 130.517L301.352 99.4244L309.515 107.536L268.705 148.092C263.712 153.053 257.083 156.017 250.038 156.434C248.254 156.54 246.498 156.942 244.828 157.61L218.318 131.264C218.989 129.605 219.394 127.86 219.5 126.086C219.922 119.085 222.903 112.497 227.895 107.536L268.705 66.9794L276.866 75.0903L245.579 106.183L253.741 114.294L285.028 83.2015L293.19 91.3128L261.902 122.406L270.065 130.517Z" fill="#546DFE"/>
</svg>
