<svg width="394" height="394" viewBox="0 0 394 394" fill="none" xmlns="http://www.w3.org/2000/svg">
<g clip-path="url(#clip0_288_719)">
<path d="M105.156 336.747V309.044H289.844V336.747H105.156Z" fill="#546DFE"/>
<path d="M317.547 376.762C326.781 373.069 331.09 362.603 327.397 353.984L259.062 186.534L226.434 200.078L294.153 366.912C297.847 376.147 308.312 380.456 317.547 376.762Z" fill="#546DFE"/>
<path d="M77.453 376.763C68.2186 373.069 63.9093 362.603 67.603 353.984L135.322 187.15L167.95 200.694L100.231 367.528C97.153 376.147 86.6874 380.456 77.453 376.763Z" fill="#546DFE"/>
<path d="M41.1313 154.522H69.45C70.0656 154.522 70.6813 153.906 70.6813 153.291V134.822C70.6813 134.206 70.0656 133.591 69.45 133.591H41.1313C25.7406 133.591 12.8125 146.519 12.8125 161.909C12.8125 177.3 25.7406 190.228 41.1313 190.228H69.45C70.0656 190.228 70.6813 189.613 70.6813 188.997V170.528C70.6813 169.913 70.0656 169.297 69.45 169.297H41.1313C37.4375 169.297 33.7438 166.219 33.7438 161.909C33.7438 158.216 37.4375 154.522 41.1313 154.522Z" fill="#546DFE"/>
<path d="M353.869 154.522H325.55C324.934 154.522 324.319 153.906 324.319 153.291V134.822C324.319 134.206 324.934 133.591 325.55 133.591H353.869C369.259 133.591 382.187 146.519 382.187 161.909C382.187 177.3 369.259 190.228 353.869 190.228H325.55C324.934 190.228 324.319 189.613 324.319 188.997V170.528C324.319 169.913 324.934 169.297 325.55 169.297H353.869C357.562 169.297 361.256 166.219 361.256 161.909C361.256 158.216 357.562 154.522 353.869 154.522Z" fill="#546DFE"/>
<path d="M327.397 107.119H67.6032C55.2907 107.119 45.4407 116.969 45.4407 129.281V134.206C45.4407 217.931 113.159 285.65 196.884 285.65C280.609 285.65 348.328 217.931 348.328 134.206V129.281C348.944 116.969 339.094 107.119 327.397 107.119Z" fill="#546DFE"/>
<path d="M348.944 128.666V133.591H46.0563V128.666C46.0563 116.353 55.9063 106.503 68.2188 106.503H328.013C339.094 107.119 348.944 116.969 348.944 128.666Z" fill="#546DFE"/>
<path d="M109.622 73.2179L109.471 73.3943L109.342 73.5876C107.196 76.8069 107.168 81.3287 110.439 84.5989L113.159 81.8782L110.439 84.5989C111.127 85.2873 111.969 85.8158 112.67 86.1661C113.249 86.4556 114.38 86.9571 115.622 86.9571C117.949 86.9571 120.463 85.8446 121.884 83.455C133.224 69.86 130.551 55.5871 129.225 50.2475C128.808 48.2308 128.016 46.5046 127.297 45.0668C127.082 44.6372 126.88 44.2429 126.688 43.8695C126.176 42.8729 125.741 42.0246 125.35 41.0492L125.26 40.8227L125.141 40.6096C123.562 37.7662 122.35 35.5236 121.867 32.9248C121.414 30.4907 121.564 27.4463 123.423 23.1641C124.469 21.0025 124.555 18.5865 123.579 16.4716C122.655 14.4697 120.912 13.0277 118.813 12.3874C116.722 11.4627 114.42 11.4237 112.393 12.3589C110.371 13.292 108.921 15.0602 108.29 17.1874C105.052 24.7407 104.465 30.9544 105.362 36.3388C106.245 41.6339 108.532 45.8274 110.354 49.167L110.397 49.2456L110.662 49.7321L111.054 50.1239C112.337 51.4067 113.296 53.2459 113.792 54.6992C114.831 58.3966 115.785 66.0277 109.622 73.2179Z" fill="#546DFE" stroke="#546DFE" stroke-width="7.69531"/>
<path d="M189.038 73.2179L188.887 73.3943L188.758 73.5876C186.612 76.8069 186.585 81.3288 189.855 84.5989L192.575 81.8782L189.855 84.5989C190.543 85.2873 191.385 85.8158 192.086 86.1661C192.665 86.4556 193.796 86.9571 195.038 86.9571C197.365 86.9571 199.879 85.8446 201.3 83.455C212.64 69.86 209.967 55.5871 208.642 50.2475C208.225 48.2308 207.432 46.5046 206.713 45.0668C206.498 44.6372 206.296 44.243 206.104 43.8695C205.592 42.8729 205.157 42.0246 204.767 41.0492L204.676 40.8227L204.558 40.6096C202.978 37.7662 201.767 35.5236 201.283 32.9248C200.83 30.4907 200.98 27.4463 202.84 23.1641C203.886 21.0025 203.971 18.5865 202.995 16.4716C202.071 14.4697 200.328 13.0277 198.229 12.3874C196.138 11.4627 193.836 11.4237 191.809 12.3589C189.788 13.292 188.337 15.0602 187.706 17.1874C184.469 24.7407 183.881 30.9544 184.778 36.3388C185.661 41.6339 187.949 45.8274 189.77 49.167L189.813 49.2456L190.078 49.7321L190.47 50.1239C191.753 51.4067 192.712 53.2459 193.209 54.6992C194.247 58.3966 195.201 66.0277 189.038 73.2179Z" fill="#546DFE" stroke="#546DFE" stroke-width="7.69531"/>
<path d="M268.454 73.2178L268.303 73.3942L268.174 73.5876C266.028 76.8068 266 81.3287 269.27 84.5988L271.991 81.8781L269.27 84.5988C269.959 85.2873 270.801 85.8158 271.501 86.166C272.08 86.4555 273.212 86.957 274.453 86.957C276.781 86.957 279.295 85.8446 280.715 83.455C292.056 69.86 289.383 55.5871 288.057 50.2475C287.639 48.2241 286.845 46.4936 286.088 45.0642C285.753 44.4317 285.402 43.8157 285.09 43.2683C285.047 43.1931 285.005 43.1192 284.964 43.0468C284.607 42.421 284.308 41.8861 284.051 41.373L284.014 41.2982L283.973 41.2251C282.393 38.3817 281.182 36.1391 280.699 33.5403C280.246 31.1063 280.395 28.0619 282.255 23.7797C283.301 21.618 283.386 19.2021 282.41 17.0872C281.486 15.0852 279.744 13.6433 277.644 13.003C275.554 12.0782 273.251 12.0392 271.225 12.9744C269.203 13.9076 267.753 15.6758 267.122 17.803C263.884 25.3563 263.297 31.5699 264.194 36.9544C265.077 42.2494 267.364 46.443 269.186 49.7825L269.229 49.8612L269.683 50.694L270.472 51.2202C270.773 51.4206 271.192 51.8488 271.638 52.5747C272.054 53.2502 272.391 54.0158 272.624 54.6992C273.663 58.3967 274.617 66.0277 268.454 73.2178Z" fill="#546DFE" stroke="#546DFE" stroke-width="7.69531"/>
</g>
<defs>
<radialGradient id="paint0_radial_288_719" cx="0" cy="0" r="1" gradientUnits="userSpaceOnUse" gradientTransform="translate(197.5 322.861) scale(95.5142 111.904)">
<stop stop-color="white"/>
</radialGradient>
<radialGradient id="paint1_radial_288_719" cx="0" cy="0" r="1" gradientUnits="userSpaceOnUse" gradientTransform="translate(356.081 304.988) rotate(162.77) scale(95.321 126.738)">
<stop offset="0.784" stop-color="white"/>
</radialGradient>
<radialGradient id="paint2_radial_288_719" cx="0" cy="0" r="1" gradientUnits="userSpaceOnUse" gradientTransform="translate(38.9216 304.979) rotate(17.2299) scale(95.321 126.738)">
<stop offset="0.665" stop-color="white"/>
</radialGradient>
<radialGradient id="paint3_radial_288_719" cx="0" cy="0" r="1" gradientUnits="userSpaceOnUse" gradientTransform="translate(50.2212 118.443) rotate(22.8728) scale(283.228 284.827)">
<stop offset="1" stop-color="white"/>
</radialGradient>
<radialGradient id="paint4_radial_288_719" cx="0" cy="0" r="1" gradientUnits="userSpaceOnUse" gradientTransform="translate(50.2118 118.446) scale(283.218 283.218)">
<stop offset="1" stop-color="white"/>
</radialGradient>
<clipPath id="clip0_288_719">
<rect width="394" height="394" fill="#546DFE"/>
</clipPath>
</defs>
</svg>
