<svg width="394" height="394" viewBox="0 0 394 394" fill="none" xmlns="http://www.w3.org/2000/svg">
<g clip-path="url(#clip0_288_243)">
<path fill-rule="evenodd" clip-rule="evenodd" d="M84.0107 0H331.8C333.678 0 335.479 0.74126 336.806 2.06071C338.134 3.38016 338.88 5.16973 338.88 7.03571V330.679C338.88 332.545 338.134 334.334 336.806 335.654C335.479 336.973 333.678 337.714 331.8 337.714H84.0107V0ZM59.6147 8.97265C62.1492 5.42617 65.7245 2.74451 69.8513 1.29457V338.488C64.7226 339.506 59.8859 341.645 55.6919 344.75V21.1071C55.71 16.7572 57.0801 12.5191 59.6147 8.97265ZM76.931 394H317.641C319.518 394 321.319 393.259 322.647 391.939C323.975 390.62 324.72 388.83 324.72 386.964V351.786H76.931C71.298 351.786 65.8958 354.01 61.9127 357.968C57.9296 361.926 55.6919 367.295 55.6919 372.893C55.6919 378.491 57.9296 383.859 61.9127 387.818C65.8958 391.776 71.298 394 76.931 394ZM246.844 365.857H282.242C284.12 365.857 285.921 366.598 287.248 367.918C288.576 369.237 289.322 371.027 289.322 372.893C289.322 374.759 288.576 376.548 287.248 377.868C285.921 379.187 284.12 379.929 282.242 379.929H246.844C244.966 379.929 243.165 379.187 241.838 377.868C240.51 376.548 239.764 374.759 239.764 372.893C239.764 371.027 240.51 369.237 241.838 367.918C243.165 366.598 244.966 365.857 246.844 365.857ZM105.25 365.857H218.525C220.403 365.857 222.203 366.598 223.531 367.918C224.859 369.237 225.605 371.027 225.605 372.893C225.605 374.759 224.859 376.548 223.531 377.868C222.203 379.187 220.403 379.929 218.525 379.929H105.25C103.372 379.929 101.571 379.187 100.244 377.868C98.916 376.548 98.1701 374.759 98.1701 372.893C98.1701 371.027 98.916 369.237 100.244 367.918C101.571 366.598 103.372 365.857 105.25 365.857ZM133.095 122.983C135.208 120.645 139.28 120.645 141.393 122.983C144.425 126.337 159.545 143.63 159.545 154.387C159.545 166.61 149.544 176.55 137.244 176.55C124.945 176.55 114.943 166.61 114.943 154.387C114.943 143.63 130.063 126.337 133.095 122.983ZM186.213 68.7758C184.1 66.4384 180.028 66.4384 177.915 68.7758C174.883 72.1304 159.763 90.1622 159.763 100.919C159.763 113.142 169.765 123.081 182.064 123.081C194.363 123.081 204.365 113.142 204.365 100.919C204.365 90.1618 189.245 72.1304 186.213 68.7758ZM234.411 68.7758C236.523 66.4384 240.596 66.4384 242.709 68.7758C245.741 72.1304 260.861 90.1618 260.861 100.919C260.861 113.142 250.859 123.081 238.56 123.081C226.261 123.081 216.259 113.142 216.259 100.919C216.259 90.1622 231.379 72.1304 234.411 68.7758ZM287.311 124.92C285.198 122.583 281.126 122.583 279.013 124.92C275.981 128.275 260.861 145.567 260.861 156.324C260.861 168.547 270.863 178.487 283.162 178.487C295.461 178.487 305.463 168.547 305.463 156.324C305.463 145.567 290.343 128.275 287.311 124.92ZM253.919 179.684C268.391 183.325 279.879 195.554 282.514 210.119C284.599 221.623 281.529 233.294 274.086 242.135C266.643 250.982 255.727 256.057 244.135 256.057C235.419 256.057 227.175 253.26 220.288 247.973C215.17 244.045 205.454 244.045 200.336 247.973C184.286 260.293 159.578 257.626 146.538 242.135C139.095 233.293 136.025 221.623 138.11 210.119C140.745 195.553 152.233 183.325 166.705 179.684C169.182 179.062 170.914 176.859 170.914 174.322V172.947C170.914 151.564 188.795 134.163 210.312 134.163C231.829 134.163 249.711 151.564 249.711 172.947V174.322C249.711 176.86 251.442 179.062 253.919 179.684Z" fill="#546DFE"/>
</g>
<defs>
<clipPath id="clip0_288_243">
<rect width="394" height="394" fill="white"/>
</clipPath>
</defs>
</svg>
