<svg width="394" height="394" viewBox="0 0 394 394" fill="none" xmlns="http://www.w3.org/2000/svg">
<g clip-path="url(#clip0_288_228)">
<path d="M378.631 304.37C377.564 303.303 376.415 302.236 375.266 301.251L287.851 228.036L287.277 227.543L267.332 207.598C283.756 168.427 276.556 123.175 248.879 91.1611L91.1552 248.888C123.229 276.504 168.407 283.776 207.578 267.352L227.606 287.297L301.312 375.286C310.67 386.531 324.541 393.343 339.151 394H341.449C355.321 394 368.781 388.501 378.631 378.651C399.068 358.131 399.151 324.89 378.713 304.452L378.631 304.37ZM342.705 364.928C329.126 364.928 318.081 353.882 318.081 340.304C318.081 326.726 329.126 315.68 342.705 315.68C356.283 315.68 367.328 326.726 367.328 340.304C367.328 353.882 356.283 364.928 342.705 364.928Z" fill="#546DFE"/>
<path d="M342.705 348.512C347.238 348.512 350.913 344.837 350.913 340.304C350.913 335.771 347.238 332.096 342.705 332.096C338.172 332.096 334.497 335.771 334.497 340.304C334.497 344.837 338.172 348.512 342.705 348.512Z" fill="white"/>
<path d="M79.3247 237.506L237.487 79.3406L160.547 2.40053C157.346 -0.800176 152.175 -0.800176 148.974 2.40053L129.726 21.6594L186.257 78.1879C189.464 81.3941 189.464 86.5882 186.257 89.7944C184.654 91.3975 182.554 92.1991 180.454 92.1991C178.354 92.1991 176.254 91.3975 174.651 89.7944L118.122 33.2694L105.621 45.7771L141.298 81.4542C144.505 84.6605 144.505 89.8545 141.298 93.0607C139.695 94.6638 137.595 95.4654 135.495 95.4654C133.395 95.4654 131.295 94.6638 129.692 93.0607L94.0182 57.3871L81.517 69.8953L138.028 126.409C141.234 129.616 141.234 134.81 138.028 138.016C136.425 139.619 134.325 140.421 132.225 140.421C130.125 140.421 128.025 139.619 126.422 138.016L69.914 81.5048L57.4113 94.0146L94.4235 131.03C97.6297 134.237 97.6297 139.431 94.4235 142.637C92.8204 144.24 90.7203 145.041 88.6203 145.041C86.5202 145.041 84.4201 144.24 82.817 142.637L45.8078 105.625L33.3071 118.132L89.8066 174.635C93.0128 177.841 93.0128 183.035 89.8066 186.241C88.2034 187.844 86.1034 188.646 84.0033 188.646C81.9032 188.646 79.8032 187.844 78.2001 186.241L21.7041 129.742L2.46277 148.994C0.903251 150.471 0 152.606 0 154.739C0 156.956 0.903251 159.008 2.46277 160.567L79.3247 237.506Z" fill="#546DFE"/>
</g>
<defs>
<clipPath id="clip0_288_228">
<rect width="394" height="394" fill="white"/>
</clipPath>
</defs>
</svg>
