<svg width="394" height="394" viewBox="0 0 394 394" fill="none" xmlns="http://www.w3.org/2000/svg">
<g clip-path="url(#clip0_273_78)">
<path d="M329.949 131.627C329.833 131.56 329.741 131.485 329.633 131.419C327.219 129.829 324.107 129.737 321.61 131.202C319.105 132.667 317.657 135.422 317.89 138.31C319.638 162.087 317.823 183.443 316.017 197.092C315.842 198.349 314.794 199.298 313.512 199.348C312.247 199.389 311.14 198.49 310.882 197.259C303.633 160.539 289.377 128.905 280.455 111.494C279.489 109.613 277.792 108.224 275.761 107.649C252.225 101.049 230.394 98.7441 216.82 98.0117C214.432 97.8785 212.126 98.8855 210.578 100.733C209.047 102.572 208.481 105.036 209.03 107.366C217.311 141.863 215.106 179.939 213.108 199.273C212.975 200.513 211.985 201.495 210.753 201.595C209.521 201.711 208.373 200.921 208.032 199.73C201.507 177.101 186.717 129.038 172.078 104.021C170.588 101.474 167.75 100.017 164.821 100.292C144.946 102.148 125.838 105.003 108.81 112.718H108.793C105.422 112.718 103.417 116.338 103.974 119.9C108.934 151.21 106.637 180.347 104.349 197.633C104.174 198.89 103.134 199.564 101.852 199.606C100.587 199.647 99.4716 198.632 99.222 197.375C94.5364 173.639 86.9045 151.95 79.6805 134.906C78.6319 132.426 76.5679 130.486 74.0045 129.638C71.4495 128.78 68.6531 129.055 66.3228 130.412C20.4653 157.044 0 188.17 0 219.954C0 287.567 88.2029 295.582 197.004 295.582C305.805 295.582 394 287.567 394 219.954C394.025 190.817 375.84 162.146 329.949 131.627Z" fill="#546DFE"/>
</g>
<defs>
<clipPath id="clip0_273_78">
<rect width="394" height="394" fill="white"/>
</clipPath>
</defs>
</svg>
