<svg width="394" height="394" viewBox="0 0 394 394" fill="none" xmlns="http://www.w3.org/2000/svg">
<g clip-path="url(#clip0_288_112)">
<path d="M308.721 82.4445V36.9375C308.721 30.1656 314.262 24.625 321.034 24.625H333.346C340.143 24.625 345.659 19.109 345.659 12.3125C345.659 5.516 340.143 0 333.346 0H321.034C300.669 0 284.096 16.5972 284.096 36.9375V81.9766C263.854 109.803 224.824 167.278 223.223 197H172.742C171.634 168.878 136.198 115.713 111.721 82.2229V36.9375C111.721 16.5972 95.1731 0 74.7836 0H62.4711C55.6746 0 50.1586 5.516 50.1586 12.3125C50.1586 19.109 55.6746 24.625 62.4711 24.625H74.7836C81.5801 24.625 87.0961 30.1656 87.0961 36.9375V82.1982C64.7859 112.807 19.5005 179.171 26.3709 205.126C32.5025 228.298 56.635 243.96 89.3616 246.028C91.6025 246.176 93.868 246.25 96.1827 246.25C119.847 246.25 146.221 238.592 161.784 221.625H231.768C242.751 235.538 262.18 244.502 286.337 246.028C288.578 246.176 290.843 246.25 293.183 246.25C322.979 246.25 357.405 234.356 368.634 206.604C378.139 183.087 336.375 120.219 308.721 82.4445Z" fill="#546DFE"/>
<path d="M333.346 270.875H62.4714C56.6599 270.875 51.6364 274.938 50.4298 280.626C49.2231 286.315 52.1781 292.077 57.4971 294.441C58.4821 294.884 155.357 338.224 187.566 388.336C189.807 391.858 193.723 394 197.909 394C202.095 394 206.011 391.858 208.251 388.361C240.461 338.249 337.36 294.884 338.321 294.466C343.664 292.102 346.595 286.364 345.388 280.651C344.181 274.938 339.158 270.875 333.346 270.875Z" fill="#546DFE"/>
</g>
<defs>
<clipPath id="clip0_288_112">
<rect width="394" height="394" fill="white"/>
</clipPath>
</defs>
</svg>
