<svg width="394" height="394" viewBox="0 0 394 394" fill="none" xmlns="http://www.w3.org/2000/svg">
<path fill-rule="evenodd" clip-rule="evenodd" d="M330.679 0H84.4285V337.714H330.679C332.544 337.714 334.334 336.973 335.654 335.654C336.973 334.334 337.714 332.545 337.714 330.679V7.03571C337.714 5.16973 336.973 3.38016 335.654 2.06071C334.334 0.74126 332.544 0 330.679 0ZM70.3571 1.29457C66.2559 2.74451 62.7029 5.42617 60.184 8.97265C57.6652 12.5191 56.3037 16.7572 56.2856 21.1071V344.75C60.4536 341.645 65.2602 339.506 70.3571 338.488V1.29457ZM77.3928 394C71.7948 394 66.4261 391.776 62.4678 387.818C58.5094 383.859 56.2856 378.491 56.2856 372.893C56.2856 367.295 58.5094 361.926 62.4678 357.968C66.4261 354.01 71.7948 351.786 77.3928 351.786H323.643V386.964C323.643 388.83 322.902 390.62 321.582 391.939C320.263 393.259 318.473 394 316.607 394H77.3928ZM281.429 365.857H246.25C244.384 365.857 242.594 366.598 241.275 367.918C239.955 369.237 239.214 371.027 239.214 372.893C239.214 374.759 239.955 376.548 241.275 377.868C242.594 379.187 244.384 379.929 246.25 379.929H281.429C283.295 379.929 285.084 379.187 286.404 377.868C287.723 376.548 288.464 374.759 288.464 372.893C288.464 371.027 287.723 369.237 286.404 367.918C285.084 366.598 283.295 365.857 281.429 365.857ZM223.082 367.918C221.763 366.598 219.973 365.857 218.107 365.857H105.536C103.67 365.857 101.88 366.598 100.561 367.918C99.2412 369.237 98.4999 371.027 98.4999 372.893C98.4999 374.759 99.2412 376.548 100.561 377.868C101.88 379.187 103.67 379.929 105.536 379.929H218.107C219.973 379.929 221.763 379.187 223.082 377.868C224.402 376.548 225.143 374.759 225.143 372.893C225.143 371.027 224.402 369.237 223.082 367.918ZM106.316 150.674C108.776 122.558 122.304 96.5703 143.925 78.4285C165.545 60.2867 193.487 51.4767 221.603 53.9366C249.72 56.3964 275.707 69.9246 293.849 91.5452C301.62 100.806 305.398 112.773 304.353 124.817C303.308 136.861 297.526 147.998 288.276 155.782L253.324 185.11C251.789 186.387 250.521 187.955 249.593 189.723C248.665 191.492 248.095 193.426 247.917 195.415C247.738 197.404 247.955 199.409 248.553 201.314C249.152 203.219 250.12 204.988 251.404 206.517C254.02 209.581 257.735 211.495 261.749 211.846C265.763 212.197 269.754 210.958 272.862 208.395L284.479 198.647C286.019 197.355 288.01 196.727 290.013 196.902C292.017 197.077 293.868 198.041 295.161 199.582C299.047 204.222 300.949 210.206 300.455 216.238C300.192 219.215 299.346 222.11 297.964 224.76C296.581 227.409 294.691 229.76 292.4 231.679L280.732 241.469C259.112 259.611 231.17 268.421 203.054 265.961C174.937 263.501 148.95 249.973 130.808 228.353C112.666 206.732 103.856 178.79 106.316 150.674ZM172.028 217.693C177.258 217.12 182.202 215.009 186.232 211.627C191.638 207.091 195.02 200.594 195.635 193.565C196.25 186.536 194.047 179.551 189.512 174.146C186.129 170.115 181.628 167.178 176.576 165.705C171.525 164.233 166.15 164.291 161.131 165.874C156.113 167.456 151.677 170.491 148.383 174.594C145.09 178.698 143.087 183.686 142.628 188.928C142.17 194.17 143.276 199.43 145.807 204.043C148.338 208.656 152.18 212.415 156.847 214.845C161.514 217.275 166.797 218.266 172.028 217.693ZM181.023 145.635C186.254 145.062 191.197 142.951 195.228 139.569C200.633 135.033 204.015 128.536 204.63 121.507C205.245 114.478 203.042 107.493 198.507 102.088C195.125 98.057 190.623 95.1196 185.571 93.6472C180.52 92.1748 175.145 92.2334 170.127 93.8157C165.108 95.398 160.672 98.4328 157.378 102.536C154.085 106.64 152.082 111.628 151.624 116.87C151.165 122.112 152.271 127.372 154.802 131.985C157.333 136.598 161.175 140.357 165.842 142.787C170.509 145.217 175.792 146.208 181.023 145.635ZM253.548 149.289C258.779 148.716 263.722 146.605 267.753 143.223C273.158 138.688 276.54 132.191 277.155 125.162C277.77 118.133 275.567 111.147 271.032 105.742C267.65 101.711 263.148 98.7738 258.097 97.3014C253.045 95.829 247.67 95.8876 242.652 97.4699C237.633 99.0521 233.197 102.087 229.904 106.191C226.61 110.294 224.607 115.282 224.149 120.524C223.69 125.766 224.796 131.026 227.327 135.639C229.858 140.252 233.7 144.012 238.367 146.441C243.035 148.871 248.318 149.862 253.548 149.289Z" fill="#546DFE"/>
</svg>
