<svg width="394" height="394" viewBox="0 0 394 394" fill="none" xmlns="http://www.w3.org/2000/svg">
<path d="M337.076 128.157C335.599 125.612 332.89 124.053 329.935 124.053H218.222C215.267 124.053 212.559 125.612 211.163 128.157L155.266 224.931C153.788 227.475 153.788 230.594 155.266 233.139L211.163 329.913C212.559 332.458 215.267 334.017 218.222 334.017H329.935C332.89 334.017 335.599 332.458 337.076 329.913L392.892 233.139C394.369 230.594 394.369 227.475 392.892 224.931L337.076 128.157ZM274.12 291.827C239.482 291.827 211.327 263.674 211.327 229.035C211.327 194.397 239.482 166.243 274.12 166.243C308.676 166.243 336.83 194.397 336.83 229.035C336.83 263.674 308.676 291.827 274.12 291.827Z" fill="#546DFE"/>
<path d="M167.414 69.1403L187.277 34.5838C188.427 32.0393 188.262 29.0845 186.785 26.7043C185.225 24.3236 182.681 22.9283 179.808 22.9283H8.17543C5.38494 22.9283 2.84044 24.3236 1.28087 26.7043C-0.196541 29.0845 -0.443025 32.0393 0.788398 34.5838L20.652 69.1403C22.0472 72.0951 24.9204 73.9011 28.1217 73.9011H159.945C163.145 73.9011 166.019 72.0951 167.414 69.1403Z" fill="#546DFE"/>
<path d="M37.2326 237.728L150.833 278.17V249.525L37.2326 209.03V237.728Z" fill="#546DFE"/>
<path d="M37.2326 191.593L150.833 232.089V203.395L37.2326 162.961V191.593Z" fill="#546DFE"/>
<path d="M150.833 157.331L37.2326 116.835V145.534L150.833 185.968V157.331Z" fill="#546DFE"/>
<path d="M37.2326 99.4284L150.833 139.895V90.3175H37.2326V99.4284Z" fill="#546DFE"/>
<path d="M37.2326 307.587C37.2326 309.557 37.9711 311.527 39.2846 313.004L87.8768 368.328C89.4363 370.133 91.6527 371.118 94.0329 371.118C96.4131 371.118 98.6294 370.133 100.189 368.328L148.781 313.004C150.095 311.527 150.833 309.557 150.833 307.587V295.592L37.2326 255.151V307.587Z" fill="#546DFE"/>
</svg>
