<svg width="394" height="394" viewBox="0 0 394 394" fill="none" xmlns="http://www.w3.org/2000/svg">
<path d="M319.548 14.0714V0H258.084V14.0714H319.548Z" fill="#546DFE"/>
<path d="M42.96 208.327V386.964C42.96 390.841 46.4096 394 50.643 394H158.205C162.438 394 165.888 390.841 165.888 386.964V208.327C165.888 189.092 158.359 170.454 144.691 155.848C128.633 138.695 119.79 116.807 119.79 94.2082V28.1429H89.058V94.2082C89.058 116.807 80.2148 138.695 64.1574 155.848C50.4893 170.454 42.96 189.085 42.96 208.327ZM142.839 211.071C147.08 211.071 150.522 214.223 150.522 218.107V358.821C150.522 362.705 147.08 365.857 142.839 365.857H66.009C61.7679 365.857 58.326 362.705 58.326 358.821V218.107C58.326 214.223 61.7679 211.071 66.009 211.071H142.839Z" fill="#546DFE"/>
<path d="M135.156 225.143H73.692V351.786H135.156V225.143Z" fill="#546DFE"/>
<path d="M135.156 14.0714V0H73.692V14.0714H135.156Z" fill="#546DFE"/>
<path d="M235.035 394H342.597C346.83 394 350.28 390.841 350.28 386.964V218.853L309.176 43.2204C308.023 38.2602 307.055 33.2086 306.287 28.1429H271.337C270.576 33.2086 269.608 38.2602 268.448 43.2204L227.352 218.853V386.964C227.352 390.841 230.802 394 235.035 394ZM288.816 218.107C314.662 218.107 334.914 252.104 334.914 295.5C334.914 338.896 314.662 372.893 288.816 372.893C262.97 372.893 242.718 338.896 242.718 295.5C242.718 252.104 262.97 218.107 288.816 218.107Z" fill="#546DFE"/>
<path d="M288.816 358.821C303.352 358.821 319.548 332.817 319.548 295.5C319.548 258.183 303.352 232.179 288.816 232.179C274.28 232.179 258.084 258.183 258.084 295.5C258.084 332.817 274.28 358.821 288.816 358.821Z" fill="#546DFE"/>
</svg>
