<svg width="394" height="394" viewBox="0 0 394 394" fill="none" xmlns="http://www.w3.org/2000/svg">
<path d="M221.577 360.082C221.816 361.514 222.056 362.948 222.295 364.381C224.855 379.726 237.378 392.107 253.603 393.805C256.982 394.158 260.299 394.025 263.487 393.462C278.679 390.777 290.894 378.319 292.578 362.211C292.635 361.667 292.783 360.188 292.97 357.877L221.577 360.082Z" fill="#546DFE"/>
<path d="M42.4726 153.474C31.3544 169.608 35.4183 191.7 51.5515 202.818C55.8763 205.799 60.632 207.689 65.4862 208.547C78.4174 210.832 92.0665 205.801 100.281 194.594L41.8977 154.356C42.0878 154.061 42.2725 153.765 42.4726 153.474Z" fill="#546DFE"/>
<path d="M101.485 357.876L101.877 362.211C103.562 378.318 115.777 390.777 130.969 393.461C134.156 394.025 137.474 394.158 140.853 393.804C157.077 392.107 169.599 379.726 172.16 364.38C172.399 362.946 172.639 361.514 172.878 360.081L101.485 357.876Z" fill="#546DFE"/>
<path d="M281.059 175.597L339.481 135.334L285.607 57.1585C279.998 49.0199 272.344 42.7221 263.594 38.7621C260.626 28.9467 253.7 19.9555 243.607 13.1413C231.056 4.66644 214.585 0 197.228 0C179.87 0 163.399 4.66644 150.848 13.1413C140.756 19.9547 133.831 28.9475 130.862 38.7621C122.112 42.7221 114.457 49.0199 108.849 57.1585L54.9761 135.332L113.398 175.596L117.662 169.408L100.28 334.743L176.922 337.109L185.686 297.782V98.6124C189.467 99.0749 193.323 99.3242 197.229 99.3242C204.499 99.3242 211.61 98.4946 218.345 96.9202L226.114 101.714C231.54 105.062 233.223 112.173 229.877 117.599C227.694 121.135 223.913 123.082 220.042 123.082C217.974 123.082 215.881 122.526 213.992 121.361L208.772 118.141V297.782C208.772 297.782 216.511 331.757 217.537 337.12L294.176 334.744C294.959 307.176 276.795 169.41 276.795 169.41L281.059 175.597ZM197.228 76.2375C173.302 76.2375 152.315 63.8188 152.315 49.6617C152.315 35.5046 173.302 23.0859 197.228 23.0859C221.153 23.0859 242.141 35.5046 242.141 49.6617C242.141 63.8188 221.153 76.2375 197.228 76.2375Z" fill="#546DFE"/>
<path d="M352.558 154.356L294.105 194.507C302.313 205.777 316.003 210.838 328.968 208.546C333.823 207.688 338.578 205.799 342.904 202.817C358.745 191.9 362.939 170.404 352.558 154.356Z" fill="#546DFE"/>
</svg>
