<svg width="394" height="394" viewBox="0 0 394 394" fill="none" xmlns="http://www.w3.org/2000/svg">
<g clip-path="url(#clip0_288_671)">
<path d="M37.7556 269.657C21.1238 265.961 8.18788 258.569 3.25993 249.329C-4.132 237.009 1.41194 214.833 16.1958 194.505C31.5957 173.561 58.6994 153.234 88.8831 160.01C103.051 163.09 114.139 171.098 120.915 182.801C122.763 185.881 126.459 187.113 130.155 185.265C133.235 183.417 134.467 179.721 132.619 176.025C125.227 163.09 113.523 153.85 99.355 148.922C118.451 108.882 178.202 100.874 199.146 137.834C200.994 140.914 205.306 142.146 208.386 140.298C211.466 138.45 212.698 134.754 210.85 131.058C203.458 118.122 191.754 108.882 177.586 104.57C189.29 79.9304 218.242 65.1465 245.346 70.6905C259.514 73.7704 270.601 81.7784 277.377 93.4823C279.225 96.5622 283.537 97.7942 286.617 95.9462C289.697 94.0983 290.929 90.4023 289.081 86.7063C281.689 73.7705 269.985 64.5305 255.818 59.6026C268.137 34.9628 296.473 23.2589 319.881 21.4109C344.521 18.947 366.697 26.3389 373.472 38.6588C382.096 54.0586 375.936 84.2424 358.689 108.882C319.265 104.57 276.145 121.202 260.129 157.546C228.714 153.234 194.834 172.329 181.898 201.897C150.483 197.585 116.603 216.681 103.667 246.249C78.4112 243.169 55.6194 253.025 37.7556 269.657Z" fill="#546DFE"/>
<path d="M387.024 187.113C379.016 206.209 366.081 222.841 352.529 230.849L118.451 364.519C89.4991 380.535 33.4437 373.143 20.5078 349.735C10.0359 330.64 26.6677 299.84 43.9156 282.592L44.5316 281.976C81.4912 246.248 123.379 257.336 137.547 283.208C139.395 286.288 143.707 287.52 146.787 285.672C149.867 283.824 151.099 280.128 149.251 276.432C141.859 263.496 130.155 254.256 115.987 249.328C135.699 208.057 195.45 202.513 215.778 238.24C217.626 241.32 221.322 242.552 225.018 240.704C228.098 238.856 229.33 235.16 227.482 231.465C220.09 218.529 208.386 209.289 194.218 204.361C205.922 179.721 234.874 164.937 261.978 170.481C262.594 171.097 282.921 173.561 294.009 193.273C295.857 196.353 300.169 197.585 303.249 195.737C306.329 193.889 307.561 190.193 305.713 186.497C298.321 173.561 286.617 164.321 272.449 159.393C295.241 113.194 374.704 110.73 390.104 137.833C396.264 149.537 395.032 167.401 387.024 187.113Z" fill="#546DFE"/>
</g>
<defs>
<clipPath id="clip0_288_671">
<rect width="394" height="394" fill="white"/>
</clipPath>
</defs>
</svg>
