<svg width="394" height="394" viewBox="0 0 394 394" fill="none" xmlns="http://www.w3.org/2000/svg">
<path d="M83.725 0H331.515C333.392 0 335.193 0.741211 336.521 2.06067C337.848 3.38013 338.594 5.16968 338.594 7.03577V330.679C338.594 332.545 337.848 334.334 336.521 335.654C335.193 336.973 333.392 337.714 331.515 337.714H83.725V0Z" fill="#546DFE"/>
<path d="M59.329 8.97266C61.8636 5.42615 65.4388 2.74451 69.5657 1.29456V338.488C64.437 339.506 59.6003 341.645 55.4062 344.75V21.1072C55.4244 16.7572 56.7945 12.5192 59.329 8.97266Z" fill="#546DFE"/>
<path fill-rule="evenodd" clip-rule="evenodd" d="M61.627 387.818C65.6102 391.776 71.0124 394 76.6453 394H317.355C319.233 394 321.034 393.259 322.361 391.939C323.689 390.62 324.435 388.83 324.435 386.964V351.786H76.6453C71.0124 351.786 65.6102 354.01 61.627 357.968C57.6439 361.926 55.4062 367.295 55.4062 372.893C55.4062 378.491 57.6439 383.859 61.627 387.818ZM246.558 365.857H281.957C283.834 365.857 285.635 366.598 286.963 367.918C288.29 369.237 289.036 371.027 289.036 372.893C289.036 374.759 288.29 376.548 286.963 377.868C285.635 379.187 283.834 379.929 281.957 379.929H246.558C244.68 379.929 242.88 379.187 241.552 377.868C240.224 376.548 239.478 374.759 239.478 372.893C239.478 371.027 240.224 369.237 241.552 367.918C242.88 366.598 244.68 365.857 246.558 365.857ZM218.239 365.857C220.117 365.857 221.918 366.598 223.245 367.918C224.573 369.237 225.319 371.027 225.319 372.893C225.319 374.759 224.573 376.548 223.245 377.868C221.918 379.187 220.117 379.929 218.239 379.929H104.964C103.086 379.929 101.286 379.187 99.958 377.868C98.6303 376.548 97.8845 374.759 97.8845 372.893C97.8845 371.027 98.6303 369.237 99.958 367.918C101.286 366.598 103.086 365.857 104.964 365.857H218.239Z" fill="#546DFE"/>
</svg>
