<svg width="394" height="394" viewBox="0 0 394 394" fill="none" xmlns="http://www.w3.org/2000/svg">
<path fill-rule="evenodd" clip-rule="evenodd" d="M330.679 0H84.4285V337.714H330.679C332.544 337.714 334.334 336.973 335.654 335.654C336.973 334.334 337.714 332.545 337.714 330.679V7.03571C337.714 5.16973 336.973 3.38016 335.654 2.06071C334.334 0.74126 332.544 0 330.679 0ZM70.3571 1.29457C66.2559 2.74451 62.7029 5.42617 60.184 8.97265C57.6652 12.5191 56.3037 16.7572 56.2856 21.1071V344.75C60.4536 341.645 65.2602 339.506 70.3571 338.488V1.29457ZM77.3928 394C71.7948 394 66.4261 391.776 62.4678 387.818C58.5094 383.859 56.2856 378.491 56.2856 372.893C56.2856 367.295 58.5094 361.926 62.4678 357.968C66.4261 354.01 71.7948 351.786 77.3928 351.786H323.643V386.964C323.643 388.83 322.902 390.62 321.582 391.939C320.263 393.259 318.473 394 316.607 394H77.3928ZM281.429 365.857H246.25C244.384 365.857 242.594 366.598 241.275 367.918C239.955 369.237 239.214 371.027 239.214 372.893C239.214 374.759 239.955 376.548 241.275 377.868C242.594 379.187 244.384 379.929 246.25 379.929H281.429C283.295 379.929 285.084 379.187 286.404 377.868C287.723 376.548 288.464 374.759 288.464 372.893C288.464 371.027 287.723 369.237 286.404 367.918C285.084 366.598 283.295 365.857 281.429 365.857ZM223.082 367.918C221.763 366.598 219.973 365.857 218.107 365.857H105.536C103.67 365.857 101.88 366.598 100.561 367.918C99.2412 369.237 98.4999 371.027 98.4999 372.893C98.4999 374.759 99.2412 376.548 100.561 377.868C101.88 379.187 103.67 379.929 105.536 379.929H218.107C219.973 379.929 221.763 379.187 223.082 377.868C224.402 376.548 225.143 374.759 225.143 372.893C225.143 371.027 224.402 369.237 223.082 367.918ZM203.883 180.099V97.1235C203.883 94.2649 201.634 91.9095 198.778 91.7756C168.95 90.3891 146.228 86.061 131.244 78.9091C129.59 78.1195 127.639 78.2292 126.084 79.2116C124.526 80.1939 123.584 81.9016 123.584 83.7404V206.865C123.584 247.534 156.177 283.96 197.788 289.784C198.034 289.819 198.283 289.838 198.529 289.838C199.812 289.838 201.062 289.375 202.041 288.524C203.211 287.507 203.883 286.034 203.883 284.485V217.491C188.326 218.492 173.87 223.798 162.735 232.754C161.932 233.396 160.832 233.522 159.9 233.083C158.972 232.636 158.38 231.696 158.38 230.668C158.38 204.435 178.348 182.784 203.883 180.099ZM152.35 149.476C150.045 147.623 149.678 144.254 151.533 141.949C153.385 139.647 156.755 139.283 159.06 141.133C165.947 146.671 177.582 146.671 184.469 141.133C186.776 139.283 190.144 139.647 191.996 141.949C193.848 144.254 193.484 147.623 191.179 149.476C185.735 153.852 178.749 156.041 171.763 156.041C164.777 156.041 157.791 153.852 152.35 149.476ZM287.227 49.4696C288.884 48.6747 290.833 48.7871 292.39 49.7721C293.943 50.7517 294.888 52.4621 294.888 54.2983V180.1C294.888 220.792 262.292 257.216 220.681 263.022C220.437 263.059 220.188 263.075 219.942 263.075C218.66 263.075 217.41 262.615 216.43 261.764C215.261 260.744 214.589 259.274 214.589 257.722V190.52C240.124 187.838 260.092 166.184 260.092 139.953C260.092 138.922 259.5 137.986 258.571 137.536C257.645 137.089 256.542 137.223 255.737 137.865C244.602 146.821 230.145 152.126 214.589 153.13V67.6814C214.589 64.8228 216.837 62.4673 219.693 62.3362C249.524 60.9497 272.246 56.6189 287.227 49.4696ZM262.766 121.214C264.331 121.214 265.881 120.531 266.941 119.214C268.793 116.913 268.427 113.543 266.122 111.69C255.236 102.935 238.178 102.935 227.295 111.69C224.988 113.543 224.624 116.913 226.476 119.217C228.333 121.524 231.706 121.883 234.003 120.034C240.892 114.496 252.525 114.496 259.414 120.034C260.402 120.826 261.588 121.214 262.766 121.214Z" fill="#546DFE"/>
</svg>
