<svg width="394" height="394" viewBox="0 0 394 394" fill="none" xmlns="http://www.w3.org/2000/svg">
<path fill-rule="evenodd" clip-rule="evenodd" d="M83.725 0H331.515C333.392 0 335.193 0.74126 336.521 2.06071C337.848 3.38016 338.594 5.16973 338.594 7.03571V330.679C338.594 332.545 337.848 334.334 336.521 335.654C335.193 336.973 333.392 337.714 331.515 337.714H83.725V0ZM59.329 8.97265C61.8636 5.42617 65.4388 2.74451 69.5656 1.29457V338.488C64.4369 339.506 59.6003 341.645 55.4062 344.75V21.1071C55.4244 16.7572 56.7945 12.5191 59.329 8.97265ZM76.6453 394H317.355C319.233 394 321.034 393.259 322.361 391.939C323.689 390.62 324.435 388.83 324.435 386.964V351.786H76.6453C71.0124 351.786 65.6101 354.01 61.627 357.968C57.6439 361.926 55.4062 367.295 55.4062 372.893C55.4062 378.491 57.6439 383.859 61.627 387.818C65.6101 391.776 71.0124 394 76.6453 394ZM246.558 365.857H281.957C283.834 365.857 285.635 366.598 286.963 367.918C288.29 369.237 289.036 371.027 289.036 372.893C289.036 374.759 288.29 376.548 286.963 377.868C285.635 379.187 283.834 379.929 281.957 379.929H246.558C244.68 379.929 242.88 379.187 241.552 377.868C240.224 376.548 239.478 374.759 239.478 372.893C239.478 371.027 240.224 369.237 241.552 367.918C242.88 366.598 244.68 365.857 246.558 365.857ZM104.964 365.857H218.239C220.117 365.857 221.918 366.598 223.245 367.918C224.573 369.237 225.319 371.027 225.319 372.893C225.319 374.759 224.573 376.548 223.245 377.868C221.918 379.187 220.117 379.929 218.239 379.929H104.964C103.086 379.929 101.286 379.187 99.958 377.868C98.6303 376.548 97.8844 374.759 97.8844 372.893C97.8844 371.027 98.6303 369.237 99.958 367.918C101.286 366.598 103.086 365.857 104.964 365.857ZM297.307 97.1822C299.16 97.563 300.696 98.8448 301.393 100.593C309.286 120.372 304.607 142.872 289.47 157.914C282.184 165.155 273.032 170.128 263.004 172.294C254.425 174.147 245.561 173.887 237.156 171.559L159.792 248.442C154.823 253.381 148.215 256.101 141.187 256.101C134.159 256.101 127.552 253.381 122.582 248.442C117.612 243.503 114.875 236.937 114.875 229.953C114.875 222.968 117.612 216.402 122.582 211.463L199.946 134.58C197.603 126.227 197.341 117.418 199.206 108.892C201.386 98.9268 206.389 89.8316 213.676 82.5904C228.812 67.5487 251.453 62.8979 271.356 70.7412C273.115 71.4349 274.405 72.9608 274.788 74.8025C275.171 76.6439 274.596 78.5535 273.258 79.8833L244.269 108.693L247.62 124.181L263.205 127.512L292.194 98.7026C293.533 97.3728 295.452 96.8006 297.307 97.1822Z" fill="#546DFE"/>
</svg>
