<svg width="394" height="394" viewBox="0 0 394 394" fill="none" xmlns="http://www.w3.org/2000/svg">
<g clip-path="url(#clip0_273_56)">
<path d="M250.179 150.385C250.179 130.325 235.804 113.265 215.649 106.61V30.0422H178.355V106.61C158.196 113.261 143.821 130.325 143.821 150.385C143.821 151.98 143.916 153.559 144.095 155.113C143.95 155.996 143.821 156.887 143.821 157.806V377.425C143.821 386.579 151.243 394 160.396 394H233.604C242.757 394 250.179 386.579 250.179 377.425V157.806C250.179 156.882 250.054 155.991 249.909 155.113C250.088 153.559 250.179 151.98 250.179 150.385ZM196.998 273.67C174.261 273.67 155.83 258.354 155.83 239.459C155.83 220.563 174.261 205.248 196.998 205.248C219.735 205.248 238.166 220.563 238.166 239.459C238.166 258.354 219.735 273.67 196.998 273.67Z" fill="#546DFE"/>
<path d="M215.645 8.2875C215.645 3.70865 211.932 0 207.357 0H186.639C182.06 0 178.351 3.70865 178.351 8.2875V22.7906H215.645V8.2875Z" fill="#546DFE"/>
</g>
<defs>
<clipPath id="clip0_273_56">
<rect width="394" height="394" fill="white"/>
</clipPath>
</defs>
</svg>
