<svg width="394" height="394" viewBox="0 0 394 394" fill="none" xmlns="http://www.w3.org/2000/svg">
<g clip-path="url(#clip0_273_40)">
<path d="M306.719 125.036H161.486C151.137 125.036 142.742 116.642 142.742 106.293C142.742 95.9437 151.137 87.5493 161.486 87.5493H280.156L306.662 12.5178C310.112 2.74357 320.806 -2.37353 330.58 1.0762C340.354 4.52593 345.471 15.2201 342.021 24.9943L306.719 125.036Z" fill="#546DFE"/>
<path d="M186.726 377.671L215.302 139.928H177.527L149.469 373.359C148.262 383.479 155.621 392.678 165.913 393.885C166.66 393.943 167.408 394 168.098 394H168.155C177.527 393.943 185.634 387.043 186.726 377.671Z" fill="#546DFE"/>
<path d="M316.781 373.301L288.723 139.87H250.949L279.524 377.614C280.674 386.985 288.723 393.885 298.095 393.885H298.152C298.9 393.885 299.647 393.827 300.337 393.77C310.629 392.62 317.988 383.421 316.781 373.301Z" fill="#546DFE"/>
<path d="M179.137 59.9516H69.5506C59.2015 59.9516 50.8071 51.5573 50.8071 41.2081C50.8071 30.8589 59.2015 22.4646 69.5506 22.4646H179.079C189.429 22.4646 197.823 30.8589 197.823 41.2081C197.823 51.5573 189.486 59.9516 179.137 59.9516Z" fill="#546DFE"/>
<path d="M107.095 69.2083V375.141C107.095 385.491 98.7008 393.885 88.3517 393.885C78.0025 393.885 69.6082 385.491 69.6082 375.141V69.2083H107.095Z" fill="#546DFE"/>
<path d="M257.446 300.972H210.012L213.404 263.485H252.904L257.446 300.972Z" fill="#546DFE"/>
</g>
<defs>
<clipPath id="clip0_273_40">
<rect width="394" height="394" fill="white"/>
</clipPath>
</defs>
</svg>
