<svg width="394" height="394" viewBox="0 0 394 394" fill="none" xmlns="http://www.w3.org/2000/svg">
<g clip-path="url(#clip0_273_236)">
<path d="M197.185 64.0242L197 64.0165L196.815 64.0242C194.068 64.0704 133.868 65.3247 101.166 88.3599L166.915 268.66H227.084L292.833 88.3599C260.132 65.3247 199.933 64.0704 197.185 64.0242Z" fill="#546DFE"/>
<path d="M143.104 268.66L86.867 116.551C63.9704 126.41 46.6621 140.263 35.2561 151.376C27.5908 158.849 23.3191 169.285 23.5423 179.991C23.5807 182.046 23.7885 184.086 24.1502 186.087L123.27 279.265L143.223 268.66H143.104Z" fill="#546DFE"/>
<path d="M358.745 151.377C347.339 140.263 330.03 126.41 307.134 116.552L250.897 268.66L270.73 279.266L369.819 186.109L369.851 186.087V186.08C370.212 184.079 370.42 182.046 370.459 179.992C370.681 169.286 366.41 158.85 358.745 151.377Z" fill="#546DFE"/>
<path d="M384.827 225.954C382.465 220.389 379.848 215.317 377.239 210.831L303.031 280.59C319.063 292.704 331.669 308.865 338.912 319.348C343.568 326.09 351.249 329.984 359.73 329.984C360.345 329.984 360.961 329.961 361.577 329.923C370.65 329.322 378.416 324.389 382.341 316.716C396.995 288.062 397.849 256.676 384.827 225.954Z" fill="#546DFE"/>
<path d="M16.7619 210.83C14.1532 215.317 11.536 220.389 9.17358 225.953C-3.84843 256.676 -2.99425 288.062 11.6592 316.714C15.5845 324.387 23.3499 329.321 32.4234 329.921C33.0391 329.96 33.6547 329.983 34.2703 329.983C42.7513 329.983 50.4328 326.088 55.0884 319.346C62.3305 308.864 74.9369 292.702 90.9686 280.588L16.7619 210.83Z" fill="#546DFE"/>
</g>
<defs>
<clipPath id="clip0_273_236">
<rect width="394" height="394" fill="white"/>
</clipPath>
</defs>
</svg>
