<svg width="394" height="394" viewBox="0 0 394 394" fill="none" xmlns="http://www.w3.org/2000/svg">
<path d="M197.426 0C159.243 0 126.814 23.6105 115.31 56.2466C109.407 55.0626 103.446 54.2848 97.2015 54.2848C49.2549 54.2848 10.4298 91.0779 10.4298 136.517C10.4298 181.955 49.2928 218.749 97.2015 218.749C100.646 218.749 103.851 218.443 107.181 218.048L118.858 346.159H276.291L287.968 218.048C291.185 218.443 294.502 218.749 297.945 218.749C345.741 218.749 384.57 181.955 384.57 136.517C384.57 91.0779 345.741 54.2848 297.945 54.2848C291.664 54.2848 285.593 55.0626 279.689 56.2466C268.148 23.6105 235.761 0 197.426 0ZM197.426 190.941C201.021 190.941 203.856 193.665 203.856 196.964V289.844C203.856 293.251 201.021 295.937 197.426 295.937C193.982 295.937 191.07 293.251 191.07 289.844V196.964C191.07 193.665 193.982 190.941 197.426 190.941ZM136.227 191.501C139.823 190.999 143.015 193.351 143.544 196.614L157.439 288.512C157.894 291.884 155.414 294.944 151.971 295.447H151.083C147.904 295.447 145.219 293.238 144.727 290.334L130.832 198.296C130.34 194.996 132.746 191.968 136.227 191.501ZM258.625 191.501C262.22 192.003 264.661 195.033 264.169 198.296L250.273 290.194C249.895 293.207 247.094 295.447 243.99 295.447H243.029C239.586 294.944 237.068 291.884 237.561 288.512L251.455 196.614C251.947 193.351 255.332 191.035 258.625 191.501ZM120.633 367.242L123.144 394H271.855L274.294 367.242H120.633Z" fill="#546DFE"/>
</svg>
