<svg width="394" height="394" viewBox="0 0 394 394" fill="none" xmlns="http://www.w3.org/2000/svg">
<g clip-path="url(#clip0_288_6)">
<path d="M142.014 280.783C150.222 283.245 160.072 284.066 172.384 284.887L199.47 169.154C201.112 163.408 202.754 157.663 206.037 151.917C203.574 147.813 201.933 143.709 201.933 138.784C201.933 124.831 213.424 113.339 227.378 113.339C233.123 113.339 238.048 114.981 242.152 118.264C245.435 116.623 248.718 115.802 252.002 114.981L353.781 88.7155C324.232 50.1379 281.55 22.2307 230.661 22.2307C140.373 22.2307 79.6337 113.339 68.1425 199.523C63.2177 249.592 93.5873 268.471 142.014 280.783Z" fill="#546DFE"/>
<path d="M184.696 301.303H181.413H169.921V300.482C156.789 299.662 146.118 298.02 137.91 296.378C91.1246 284.066 44.3391 262.726 53.3678 197.062C53.3678 197.062 53.3678 197.062 53.3678 196.241C30.3855 215.94 -0.804929 245.489 0.0158704 266.009C0.0158704 271.754 0.83667 289.812 59.1134 330.031C79.6334 344.806 101.795 355.476 124.777 362.042C144.477 367.788 163.355 371.071 181.413 371.892C182.233 371.892 183.054 371.892 183.875 371.892C224.094 371.892 279.909 321.002 310.278 290.633C282.371 294.737 233.123 301.303 191.262 301.303H184.696Z" fill="#546DFE"/>
<path d="M364.451 101.849C363.63 102.67 361.989 103.491 360.347 104.311L256.926 131.398C255.285 131.398 254.464 132.219 252.822 133.039C253.643 134.681 253.643 137.143 253.643 139.606C253.643 153.559 242.152 165.051 228.198 165.051C225.736 165.051 222.453 164.23 219.99 163.409C218.349 166.692 217.528 169.975 216.707 173.259L190.441 285.708C248.718 285.708 321.769 273.396 325.053 272.575C326.694 272.575 328.336 271.755 329.157 270.113L391.537 206.091C393.179 204.449 394 202.807 394 200.345C394 166.692 383.329 132.219 364.451 101.849Z" fill="#546DFE"/>
</g>
<defs>
<clipPath id="clip0_288_6">
<rect width="394" height="394" fill="white"/>
</clipPath>
</defs>
</svg>
