<svg width="394" height="394" viewBox="0 0 394 394" fill="none" xmlns="http://www.w3.org/2000/svg">
<g clip-path="url(#clip0_288_659)">
<path d="M394 332.43V338.587C394 341.852 392.703 344.984 390.394 347.293C388.085 349.602 384.953 350.899 381.688 350.899H12.3125C9.04702 350.899 5.91529 349.602 3.60625 347.293C1.29721 344.984 0 341.852 0 338.587V332.43C0 329.165 1.29721 326.033 3.60625 323.724C5.91529 321.415 9.04702 320.118 12.3125 320.118H381.688C384.953 320.118 388.085 321.415 390.394 323.724C392.703 326.033 394 329.165 394 332.43ZM40.385 384.697C42.001 387.516 44.3313 389.86 47.1413 391.492C49.9513 393.124 53.1417 393.986 56.3913 393.993H337.609C340.858 393.986 344.049 393.124 346.859 391.492C349.669 389.86 351.999 387.516 353.615 384.697L365.927 363.212H28.0725L40.385 384.697ZM220.086 80.0242H251.914C256.28 72.5529 258.575 64.0526 258.562 55.3992V36.9304C258.558 35.2992 257.907 33.7361 256.754 32.5827C255.601 31.4292 254.037 30.779 252.406 30.7742H233.938C225.771 30.7804 217.733 32.811 210.544 36.6842C217.702 45.4408 221.617 56.4013 221.625 67.7117C221.618 71.8633 221.101 75.9984 220.086 80.0242ZM207.158 80.0242C208.594 76.0785 209.323 71.9106 209.312 67.7117C209.307 59.1984 206.364 50.9478 200.98 44.3529C195.597 37.758 188.102 33.2228 179.763 31.5129C181.968 23.2298 187.109 16.0311 194.23 11.2589C194.906 10.8186 195.487 10.2482 195.941 9.58092C196.394 8.91363 196.711 8.16277 196.871 7.37209C197.031 6.58141 197.033 5.76671 196.875 4.97544C196.718 4.18418 196.404 3.43217 195.953 2.76323C195.512 2.08832 194.941 1.50774 194.274 1.05512C193.607 0.602515 192.856 0.286888 192.066 0.126545C191.275 -0.0337985 190.461 -0.0356678 189.67 0.121045C188.879 0.277758 188.127 0.589935 187.458 1.03948C176.992 8.00142 169.709 18.8256 167.204 31.1435C166.392 35.0699 166.061 39.0804 166.219 43.0867C166.219 44.7194 165.57 46.2853 164.416 47.4398C163.261 48.5943 161.695 49.2429 160.062 49.2429C158.43 49.2429 156.864 48.5943 155.709 47.4398C154.555 46.2853 153.906 44.7194 153.906 43.0867C153.842 40.5805 153.925 38.0727 154.153 35.576C148.476 38.8066 143.756 43.4808 140.469 49.1245C137.182 54.7682 135.446 61.1807 135.438 67.7117C135.427 71.9106 136.156 76.0785 137.592 80.0242H207.158ZM227.781 147.743V189.791C227.687 193.071 228.833 196.267 230.991 198.74C233.149 201.213 236.16 202.781 239.423 203.131C241.094 203.221 242.765 202.97 244.336 202.393C245.906 201.816 247.342 200.925 248.557 199.774C249.772 198.624 250.74 197.238 251.402 195.702C252.063 194.165 252.405 192.51 252.406 190.837V157.308C252.438 151.683 254.656 146.29 258.591 142.271C262.526 138.251 267.87 135.919 273.493 135.767C279.268 135.743 284.83 137.944 289.025 141.911C291.083 143.912 292.716 146.306 293.828 148.951C294.941 151.596 295.509 154.438 295.5 157.308V169.29C295.494 172.309 296.377 175.263 298.04 177.783C299.703 180.302 302.072 182.276 304.851 183.457C307.629 184.638 310.694 184.974 313.663 184.422C316.631 183.871 319.371 182.457 321.54 180.357L309.442 107.769C308.735 103.452 306.513 99.5271 303.175 96.699C299.837 93.871 295.601 92.3244 291.225 92.3367H102.775C98.3994 92.3244 94.1631 93.8709 90.8249 96.699C87.4867 99.5271 85.265 103.452 84.5582 107.769L80.974 129.274H209.312C214.209 129.28 218.904 131.227 222.366 134.689C225.828 138.152 227.776 142.846 227.781 147.743ZM323.757 193.669C319.556 195.949 314.832 197.093 310.053 196.988C305.274 196.883 300.605 195.532 296.507 193.07C292.41 190.608 289.026 187.119 286.69 182.949C284.354 178.778 283.147 174.07 283.188 169.29V157.285C283.184 156.058 282.938 154.845 282.462 153.714C281.987 152.583 281.292 151.558 280.417 150.698C278.602 149.028 276.235 148.085 273.768 148.051C271.357 148.117 269.066 149.117 267.378 150.84C265.69 152.562 264.736 154.873 264.719 157.285V190.837C264.705 197.363 262.106 203.619 257.491 208.234C252.876 212.849 246.62 215.448 240.094 215.462H238.801C232.368 214.973 226.367 212.041 222.028 207.268C217.689 202.494 215.342 196.24 215.469 189.79V147.743C215.464 146.112 214.814 144.549 213.66 143.395C212.507 142.242 210.944 141.592 209.312 141.587H78.9231L62.4859 240.087H331.514L323.757 193.669ZM333.546 252.399H60.4544L57.3762 270.868H336.624L333.546 252.399ZM338.717 283.18H55.2831L51.22 307.805H342.78L338.717 283.18Z" fill="#546DFE"/>
</g>
<defs>
<clipPath id="clip0_288_659">
<rect width="394" height="394" fill="white"/>
</clipPath>
</defs>
</svg>
