<svg width="394" height="394" viewBox="0 0 394 394" fill="none" xmlns="http://www.w3.org/2000/svg">
<g clip-path="url(#clip0_288_213)">
<path d="M261.729 0H35.0145C18.2692 0 4.64355 13.6261 4.64355 30.3709V363.547C4.64355 380.374 18.2692 394 35.0145 394H261.729C278.473 394 292.181 380.374 292.181 363.547V30.3709C292.181 13.6261 278.473 0 261.729 0ZM97.6256 344.741C97.6256 349.278 93.9543 352.949 89.4173 352.949H47.3014C42.7644 352.949 39.0931 349.278 39.0931 344.741V302.625C39.0931 298.088 42.7644 294.417 47.3014 294.417H89.4173C93.9543 294.417 97.6256 298.088 97.6256 302.625V344.741ZM97.6256 266.169C97.6256 270.706 93.9543 274.377 89.4173 274.377H47.3014C42.7644 274.377 39.0931 270.706 39.0931 266.169V224.053C39.0931 219.516 42.7644 215.844 47.3014 215.844H89.4173C93.9543 215.844 97.6256 219.516 97.6256 224.053V266.169ZM97.6256 187.588C97.6256 192.125 93.9543 195.797 89.4173 195.797H47.3014C42.7644 195.797 39.0931 192.125 39.0931 187.588V145.472C39.0931 140.935 42.7644 137.264 47.3014 137.264H89.4173C93.9543 137.264 97.6256 140.935 97.6256 145.472V187.588ZM177.633 344.741C177.633 349.278 173.961 352.949 169.424 352.949H127.317C122.78 352.949 119.108 349.278 119.108 344.741V302.625C119.108 298.088 122.78 294.417 127.317 294.417H169.424C173.961 294.417 177.633 298.088 177.633 302.625V344.741ZM177.633 266.169C177.633 270.706 173.961 274.377 169.424 274.377H127.317C122.78 274.377 119.108 270.706 119.108 266.169V224.053C119.108 219.516 122.78 215.844 127.317 215.844H169.424C173.961 215.844 177.633 219.516 177.633 224.053V266.169ZM177.633 187.588C177.633 192.125 173.961 195.797 169.424 195.797H127.317C122.78 195.797 119.108 192.125 119.108 187.588V145.472C119.108 140.935 122.78 137.264 127.317 137.264H169.424C173.961 137.264 177.633 140.935 177.633 145.472V187.588ZM257.624 344.741C257.624 349.278 253.953 352.949 249.416 352.949H207.308C202.771 352.949 199.1 349.278 199.1 344.741V224.077C199.1 219.54 202.771 215.869 207.308 215.869H249.416C253.953 215.869 257.624 219.54 257.624 224.077V344.741ZM257.656 187.588C257.656 192.125 253.985 195.797 249.448 195.797H207.332C202.795 195.797 199.124 192.125 199.124 187.588V145.472C199.124 140.935 202.795 137.264 207.332 137.264H249.448C253.985 137.264 257.656 140.935 257.656 145.472V187.588ZM257.656 110.01C257.656 114.547 253.985 118.218 249.448 118.218H47.3014C42.7644 118.218 39.0931 114.547 39.0931 110.01V45.1368C39.0931 40.5998 42.7644 36.9285 47.3014 36.9285H249.448C253.985 36.9285 257.656 40.5998 257.656 45.1368V110.01Z" fill="#546DFE"/>
<path d="M353.087 20.1105C332.73 20.1105 316.15 36.6915 316.15 57.048V295.491H389.943V57.048C389.943 47.1158 386.167 37.8408 379.19 30.8634C372.212 23.8865 362.937 20.1105 353.087 20.1105Z" fill="#546DFE"/>
<path d="M345.782 364.861C347.177 367.569 349.968 369.375 353.087 369.375C356.206 369.375 359.079 367.569 360.475 364.861L386.875 311.908H319.306L345.782 364.861Z" fill="#546DFE"/>
</g>
<defs>
<clipPath id="clip0_288_213">
<rect width="394" height="394" fill="white"/>
</clipPath>
</defs>
</svg>
