<svg width="394" height="394" viewBox="0 0 394 394" fill="none" xmlns="http://www.w3.org/2000/svg">
<g clip-path="url(#clip0_273_225)">
<path d="M77.3929 197C85.1643 197 91.4643 190.7 91.4643 182.929C91.4643 175.157 85.1643 168.857 77.3929 168.857C69.6215 168.857 63.3215 175.157 63.3215 182.929C63.3215 190.7 69.6215 197 77.3929 197Z" fill="#546DFE"/>
<path d="M274.393 239.214H288.464V253.286H274.393V239.214Z" fill="#546DFE"/>
<path d="M246.25 358.821C254.021 358.821 260.321 352.521 260.321 344.75C260.321 336.979 254.021 330.679 246.25 330.679C238.479 330.679 232.179 336.979 232.179 344.75C232.179 352.521 238.479 358.821 246.25 358.821Z" fill="#546DFE"/>
<path d="M393.81 253.286C370.719 253.194 350.941 237.012 345.981 214.85C321.194 206.688 303.929 184.153 302.613 158.008C293.98 153.055 288.457 143.81 288.457 133.679C288.457 132.377 288.549 131.096 288.739 129.809C283.49 128.648 278.248 127.881 273.021 127.353C273.014 127.353 273.007 127.353 273 127.353C268.75 126.931 264.515 126.643 260.328 126.643C186.615 126.643 126.65 186.608 126.65 260.321C126.65 264.613 126.896 268.849 127.297 273.035V273.063C133.742 340.817 190.914 394 260.328 394C334.042 394 394.007 334.035 394.007 260.321C394 258 393.937 255.643 393.81 253.286ZM246.25 168.857C257.887 168.857 267.357 178.327 267.357 189.964C267.357 193.855 264.205 197 260.321 197C256.438 197 253.286 193.855 253.286 189.964C253.286 186.081 250.134 182.929 246.25 182.929C242.366 182.929 239.214 179.784 239.214 175.893C239.214 172.002 242.366 168.857 246.25 168.857ZM189.964 316.607C186.081 316.607 182.929 313.462 182.929 309.571C182.929 305.688 179.777 302.536 175.893 302.536C172.009 302.536 168.857 299.391 168.857 295.5C168.857 291.609 172.009 288.464 175.893 288.464C187.53 288.464 197 297.934 197 309.571C197 313.462 193.848 316.607 189.964 316.607ZM197 253.286C181.479 253.286 168.857 240.664 168.857 225.143C168.857 209.622 181.479 197 197 197C212.521 197 225.143 209.622 225.143 225.143C225.143 240.664 212.514 253.286 197 253.286ZM246.25 372.893C230.729 372.893 218.107 360.271 218.107 344.75C218.107 329.229 230.729 316.607 246.25 316.607C261.771 316.607 274.393 329.229 274.393 344.75C274.393 360.271 261.764 372.893 246.25 372.893ZM295.5 267.357H267.357C263.473 267.357 260.321 264.212 260.321 260.321V232.179C260.321 228.288 263.473 225.143 267.357 225.143H295.5C299.384 225.143 302.536 228.288 302.536 232.179V260.321C302.536 264.212 299.384 267.357 295.5 267.357ZM323.643 337.714C319.766 337.714 316.607 340.866 316.607 344.75C316.607 348.641 313.455 351.786 309.571 351.786C305.688 351.786 302.536 348.641 302.536 344.75C302.536 333.113 312.006 323.643 323.643 323.643C327.527 323.643 330.679 326.788 330.679 330.679C330.679 334.569 327.527 337.714 323.643 337.714ZM344.75 295.5C340.866 295.5 337.714 292.355 337.714 288.464C337.714 284.581 334.562 281.429 330.679 281.429C326.795 281.429 323.643 278.284 323.643 274.393C323.643 270.502 326.795 267.357 330.679 267.357C342.316 267.357 351.786 276.827 351.786 288.464C351.786 292.355 348.634 295.5 344.75 295.5Z" fill="#546DFE"/>
<path d="M197 239.214C204.771 239.214 211.071 232.914 211.071 225.143C211.071 217.371 204.771 211.071 197 211.071C189.229 211.071 182.929 217.371 182.929 225.143C182.929 232.914 189.229 239.214 197 239.214Z" fill="#546DFE"/>
<path d="M112.677 265.683C112.607 263.853 112.564 262.073 112.564 260.321C112.564 178.855 178.848 112.571 260.314 112.571C262.052 112.571 263.818 112.614 265.669 112.698C255.558 47.8851 200.215 0 133.672 0C59.9584 0 -0.00701904 59.9654 -0.00701904 133.679C1.66721e-05 200.201 47.878 255.558 112.677 265.683ZM77.3929 211.071C61.8721 211.071 49.25 198.449 49.25 182.929C49.25 167.408 61.8721 154.786 77.3929 154.786C92.9137 154.786 105.536 167.408 105.536 182.929C105.536 198.449 92.9066 211.071 77.3929 211.071ZM182.929 63.3214C182.929 59.4307 186.081 56.2857 189.964 56.2857H218.107C221.991 56.2857 225.143 59.4307 225.143 63.3214V91.4643C225.143 95.355 221.991 98.5 218.107 98.5H189.964C186.081 98.5 182.929 95.355 182.929 91.4643V63.3214ZM140.714 56.2857C152.351 56.2857 161.821 65.7558 161.821 77.3929C161.821 81.2836 158.669 84.4286 154.786 84.4286C150.902 84.4286 147.75 81.2836 147.75 77.3929C147.75 73.5091 144.598 70.3571 140.714 70.3571C136.831 70.3571 133.679 67.2122 133.679 63.3214C133.679 59.4307 136.831 56.2857 140.714 56.2857ZM140.714 112.571C144.598 112.571 147.75 115.716 147.75 119.607C147.75 123.498 144.598 126.643 140.714 126.643C136.838 126.643 133.679 129.795 133.679 133.679C133.679 137.569 130.527 140.714 126.643 140.714C122.759 140.714 119.607 137.569 119.607 133.679C119.607 122.041 129.07 112.571 140.714 112.571ZM70.3572 35.1786C70.3572 31.2878 73.5092 28.1429 77.3929 28.1429H105.536C109.419 28.1429 112.571 31.2878 112.571 35.1786V63.3214C112.571 67.2122 109.419 70.3571 105.536 70.3571H77.3929C73.5092 70.3571 70.3572 67.2122 70.3572 63.3214V35.1786ZM42.2143 84.4286C53.8514 84.4286 63.3214 93.8986 63.3214 105.536C63.3214 109.426 60.1695 112.571 56.2857 112.571C52.402 112.571 49.25 109.426 49.25 105.536C49.25 101.652 46.098 98.5 42.2143 98.5C38.3306 98.5 35.1786 95.355 35.1786 91.4643C35.1786 87.5735 38.3306 84.4286 42.2143 84.4286Z" fill="#546DFE"/>
<path d="M197 70.3571H211.071V84.4285H197V70.3571Z" fill="#546DFE"/>
<path d="M84.4286 42.2143H98.5V56.2857H84.4286V42.2143Z" fill="#546DFE"/>
</g>
<defs>
<clipPath id="clip0_273_225">
<rect width="394" height="394" fill="white"/>
</clipPath>
</defs>
</svg>
