<svg width="394" height="394" viewBox="0 0 394 394" fill="none" xmlns="http://www.w3.org/2000/svg">
<g clip-path="url(#clip0_273_205)">
<path d="M72.4537 357.001C54.2481 324.888 66.6327 274.528 104.301 236.856C147.08 194.084 206.223 183.889 236.42 214.082C236.452 214.12 236.489 214.163 236.535 214.204C230.491 231.789 211.242 269.196 153.555 289.423C100.704 307.959 80.3207 337.439 72.4537 357.001ZM218.641 263.419C204.844 277.227 185.235 290.778 157.457 300.526C101.083 320.292 85.3334 352.66 80.9381 368.333C81.1509 368.546 81.3229 368.768 81.5227 368.964C111.716 399.16 170.868 388.962 213.636 346.191C251.695 308.132 263.938 257.125 244.911 225.066C240.332 235.744 232.366 249.692 218.641 263.419ZM101.984 124.313C162.884 129.65 195.83 103.487 208.576 89.9575C208.555 89.9038 208.539 89.8431 208.522 89.7944C193.45 49.8468 135.353 34.7719 78.7598 56.1251C28.919 74.9322 -3.11877 115.717 0.240603 152.477C15.4706 137.897 46.1891 119.432 101.984 124.313ZM133.344 200.797C183.708 181.8 215.866 140.361 211.738 103.308C203.166 111.154 190.16 120.587 172 127.44C153.743 134.328 130.289 138.604 100.966 136.036C41.4598 130.819 13.7656 153.825 3.29774 166.305C3.40412 166.583 3.47868 166.855 3.57512 167.116C18.65 207.074 76.7486 222.155 133.344 200.797ZM309.595 117.492C346.134 68.469 341.176 26.6881 336.357 8.73601C336.301 8.73004 336.246 8.70916 336.195 8.69723C294.282 0.536912 250.934 42.0573 239.372 101.426C229.191 153.728 247.072 202.403 280.113 218.859C275.708 198.24 276.138 162.405 309.595 117.492ZM349.38 13.0607C351.555 24.48 352.748 40.5014 349.039 59.5481C345.312 78.7082 336.622 100.909 319.039 124.516C283.341 172.411 288.367 208.054 293.488 223.516C293.781 223.577 294.054 223.651 294.324 223.711C336.241 231.871 379.584 190.358 391.144 130.983C401.439 78.1475 383.071 29.0056 349.38 13.0607Z" fill="#546DFE"/>
</g>
<defs>
<clipPath id="clip0_273_205">
<rect width="394" height="394" fill="white"/>
</clipPath>
</defs>
</svg>
