<svg width="394" height="394" viewBox="0 0 394 394" fill="none" xmlns="http://www.w3.org/2000/svg">
<g clip-path="url(#clip0_288_737)">
<path d="M71.2923 124.082L82.0769 113.09C94.1058 101.061 114.016 101.061 126.46 113.92L126.874 114.542C137.037 124.911 150.517 129.889 165.243 131.341C185.36 133.207 204.855 143.992 217.714 163.487C231.817 185.886 231.609 215.751 216.884 237.942C191.997 276.31 139.94 280.458 109.453 249.349C97.8389 237.942 91.2023 223.217 89.5431 207.87C87.8839 192.73 81.8695 178.42 71.2923 167.842C59.2633 156.021 59.2633 136.111 71.2923 124.082ZM158.398 290.828C134.133 290.828 111.527 281.495 94.728 264.281C80.2103 249.349 71.0849 230.683 68.8035 210.359C68.1814 204.137 66.3148 196.048 61.3373 188.582C48.8935 205.796 41.4273 226.535 41.4273 249.349C41.4273 283.362 58.019 313.434 83.5286 332.307H352.521V311.568C352.521 236.905 302.953 173.649 235.135 152.91C253.593 181.945 253.178 220.728 234.305 249.349C217.714 275.273 189.093 290.828 158.398 290.828ZM265 115.786H291.339C309.383 115.786 325.145 128.437 325.145 151.043V166.391H351.069V145.651C351.069 114.542 323.485 90.8986 291.339 90.8986H265C247.786 90.8986 233.061 73.8921 233.061 56.4709C233.061 39.0497 247.786 26.1911 265 26.1911V0.47406C233.061 0.47406 207.344 26.1911 207.344 58.1301C207.344 90.069 233.061 115.786 265 115.786ZM51.7971 115.579C53.0415 113.505 54.7006 111.431 56.5672 109.357L67.3518 98.5722C69.2183 96.7057 71.2923 95.2539 73.3662 93.8021L44.1234 64.1445C47.027 58.5449 45.99 51.286 41.4273 46.5159C35.2054 40.5014 25.2504 40.5014 19.236 46.5159C16.3324 49.4194 14.8806 52.9452 14.6732 56.6783C10.9401 56.8857 7.4144 58.3375 4.51086 61.241C-1.50362 67.2555 -1.50362 77.2105 4.51086 83.4323C9.28096 87.995 16.3324 89.032 22.1395 86.1285L51.7971 115.579ZM339.87 50.0416C350.447 39.4645 357.084 25.1542 357.084 9.18468H331.159C331.159 26.3985 316.641 40.9162 299.428 40.9162V66.6333C338.003 66.6333 368.283 98.1574 368.283 136.733V187.13H394V136.733C394 98.3648 372.016 65.3889 339.87 50.0416ZM62.1669 394.526H352.521C375.542 394.526 394 376.068 394 353.047H20.6877C20.6877 376.068 39.3533 394.526 62.1669 394.526Z" fill="#546DFE"/>
</g>
<defs>
<clipPath id="clip0_288_737">
<rect width="394" height="394" fill="white"/>
</clipPath>
</defs>
</svg>
