<svg width="394" height="394" viewBox="0 0 394 394" fill="none" xmlns="http://www.w3.org/2000/svg">
<g clip-path="url(#clip0_273_120)">
<path d="M196.911 107.017C216.7 107.017 232.729 90.989 232.729 71.1989C232.729 64.483 230.849 58.1255 227.625 52.7528L196.911 -0.437256L166.196 52.7528C162.973 58.1255 161.092 64.483 161.092 71.1989C161.092 90.989 177.121 107.017 196.911 107.017Z" fill="#546DFE"/>
<path d="M304.365 160.745H214.819V124.926H179.001V160.745H89.4559C59.8161 160.745 35.7286 184.832 35.7286 214.472V242.052C35.7286 261.394 51.4884 277.153 70.8302 277.153C80.2325 277.153 89.0077 273.482 95.6346 266.855L133.96 228.619L172.196 266.766C185.449 280.019 208.552 280.019 221.804 266.766L260.129 228.619L298.365 266.766C304.991 273.392 313.767 277.064 323.17 277.064C342.512 277.064 358.271 261.304 358.271 241.962V214.472C358.092 184.832 334.005 160.745 304.365 160.745Z" fill="#546DFE"/>
<path d="M279.203 285.839L259.951 266.587L240.609 285.839C217.238 309.211 176.405 309.211 153.034 285.839L133.781 266.587L114.439 285.839C102.888 297.57 87.3967 304.017 70.8302 304.017C57.8458 304.017 45.7572 299.897 35.7286 293.003V375.654C35.7286 385.504 43.7877 393.563 53.6375 393.563H340.183C350.033 393.563 358.092 385.504 358.092 375.654V293.004C348.062 299.898 336.063 304.018 322.99 304.018C306.424 304.018 290.933 297.57 279.203 285.839Z" fill="#546DFE"/>
</g>
<defs>
<clipPath id="clip0_273_120">
<rect width="394" height="394" fill="white"/>
</clipPath>
</defs>
</svg>
