<svg width="394" height="394" viewBox="0 0 394 394" fill="none" xmlns="http://www.w3.org/2000/svg">
<path d="M291.339 354.366C291.168 353.433 291.207 351.693 291.207 350.245V321.721H102.802V350.245C102.802 351.693 102.841 353.433 102.669 354.366H291.339Z" fill="#546DFE"/>
<path d="M282.564 255.615C229.742 243.383 164.445 244.083 112.212 257.446L105.487 259.162C104.713 259.36 103.857 259.453 103.091 259.453C103.02 259.453 102.801 259.444 102.801 259.444V303.067H291.207V257.6L282.564 255.615Z" fill="#546DFE"/>
<path d="M250.332 27.9208H143.677C102.019 27.9208 68.2913 62.2557 68.2913 103.914V157.121C73.8873 159.962 79.4772 163.771 84.306 168.503C96.156 180.118 102.802 196.302 102.802 212.904V240.553L107.487 239.373C162.436 225.317 231.185 224.577 286.739 237.442L291.208 238.453V212.905C291.208 196.301 297.853 180.118 309.703 168.503C314.532 163.77 320.122 159.961 325.718 157.119V103.914C325.717 62.255 291.989 27.9208 250.332 27.9208ZM162.494 142.643C162.494 150.37 156.23 156.634 148.503 156.634C140.776 156.634 134.512 150.37 134.512 142.643V128.652C134.512 120.926 140.776 114.662 148.503 114.662C156.23 114.662 162.494 120.926 162.494 128.652V142.643ZM258.562 142.643C258.562 150.37 252.298 156.634 244.572 156.634C236.845 156.634 230.581 150.37 230.581 142.643V128.652C230.581 120.926 236.845 114.662 244.572 114.662C252.298 114.662 258.562 120.926 258.562 128.652V142.643Z" fill="#546DFE"/>
<path d="M71.1662 181.824C63.2493 174.065 52.9738 169.821 42.0887 169.821C41.8086 169.821 41.547 169.824 41.2669 169.829C18.5072 170.284 0 189.185 0 211.96C0 235.195 18.922 254.098 42.1572 254.098C47.3085 254.098 51.5032 258.275 51.5032 263.425V350.247C51.5032 359.292 58.7791 366.651 67.8257 366.651C76.8723 366.651 84.1482 359.291 84.1482 350.245V212.905C84.1475 201.11 79.5818 190.073 71.1662 181.824Z" fill="#546DFE"/>
<path d="M352.724 169.829C352.445 169.824 352.165 169.821 351.885 169.821C340.999 169.821 330.758 174.064 322.842 181.824C314.426 190.073 309.86 201.111 309.86 212.905V350.246C309.86 359.291 317.136 366.651 326.183 366.651C335.229 366.651 342.505 359.291 342.505 350.246V263.424C342.505 258.274 346.696 254.098 351.847 254.098C375.082 254.098 394 235.196 394 211.96C394 189.185 375.484 170.284 352.724 169.829Z" fill="#546DFE"/>
</svg>
