<svg width="394" height="394" viewBox="0 0 394 394" fill="none" xmlns="http://www.w3.org/2000/svg">
<g clip-path="url(#clip0_273_153)">
<path d="M107.314 109.677H134.665C140.185 109.677 144.661 105.202 144.661 99.6817C144.661 94.1613 140.185 89.6864 134.665 89.6864H117.309V54.9745H152.021V72.3304C152.021 77.8508 156.497 82.3258 162.017 82.3258C167.537 82.3258 172.012 77.8508 172.012 72.3304V44.9791C172.012 39.4587 167.537 34.9838 162.017 34.9838H107.314C101.795 34.9838 97.3187 39.4587 97.3187 44.9791V99.6817C97.3187 105.201 101.794 109.677 107.314 109.677Z" fill="#546DFE"/>
<path d="M162.016 159.653H107.313C101.794 159.653 97.3177 164.128 97.3177 169.648V224.351C97.3177 229.871 101.794 234.346 107.313 234.346H134.664C140.184 234.346 144.66 229.871 144.66 224.351C144.66 218.83 140.184 214.355 134.664 214.355H117.308V179.644H152.02V196.999C152.02 202.52 156.496 206.995 162.016 206.995C167.536 206.995 172.011 202.52 172.011 196.999V169.648C172.011 164.129 167.536 159.653 162.016 159.653Z" fill="#546DFE"/>
<path d="M286.686 159.653H231.984C226.465 159.653 221.989 164.128 221.989 169.648V224.351C221.989 229.871 226.465 234.346 231.984 234.346H259.334C264.854 234.346 269.33 229.871 269.33 224.351C269.33 218.83 264.854 214.355 259.334 214.355H241.979V179.644H276.69V196.999C276.69 202.52 281.166 206.995 286.686 206.995C292.206 206.995 296.681 202.52 296.681 196.999V169.648C296.681 164.129 292.205 159.653 286.686 159.653Z" fill="#546DFE"/>
<path d="M162.016 284.323H107.313C101.794 284.323 97.3177 288.798 97.3177 294.318V349.021C97.3177 354.541 101.794 359.016 107.313 359.016H134.664C140.184 359.016 144.66 354.541 144.66 349.021C144.66 343.5 140.184 339.025 134.664 339.025H117.308V304.314H152.02V321.67C152.02 327.19 156.496 331.665 162.016 331.665C167.536 331.665 172.011 327.19 172.011 321.67V294.318C172.011 288.798 167.536 284.323 162.016 284.323Z" fill="#546DFE"/>
<path d="M286.686 284.323H231.984C226.465 284.323 221.989 288.798 221.989 294.318V349.021C221.989 354.541 226.465 359.016 231.984 359.016H259.334C264.854 359.016 269.33 354.541 269.33 349.021C269.33 343.5 264.854 339.025 259.334 339.025H241.979V304.314H276.69V321.67C276.69 327.19 281.166 331.665 286.686 331.665C292.206 331.665 296.681 327.19 296.681 321.67V294.318C296.681 288.798 292.205 284.323 286.686 284.323Z" fill="#546DFE"/>
<path d="M321.67 69.9675C288.601 69.9675 261.697 43.064 261.697 9.99536C261.697 4.47492 257.222 0 251.702 0H72.3303C66.8109 0 62.335 4.47492 62.335 9.99536V384.005C62.335 389.525 66.8099 394 72.3303 394H321.67C327.19 394 331.665 389.525 331.665 384.005V79.9629C331.665 74.4424 327.189 69.9675 321.67 69.9675ZM82.3257 144.66H187.005V249.339H82.3257V144.66ZM206.995 144.66H311.673V249.339H206.995V144.66ZM245.723 34.9837H231.983C226.464 34.9837 221.988 39.4587 221.988 44.9791V99.6817C221.988 105.202 226.464 109.677 231.983 109.677H259.333C264.853 109.677 269.329 105.202 269.329 99.6817C269.329 94.1613 264.853 89.6863 259.333 89.6863H241.979V54.9745H255.607C268.24 73.4689 288.414 86.4229 311.673 89.3365V124.669H206.995V19.9907H242.328C242.976 25.1583 244.135 30.168 245.723 34.9837ZM187.004 19.9907V124.669H82.3257V19.9907H187.004ZM82.3257 269.33H187.005V374.009H82.3257V269.33ZM206.995 374.009V269.33H311.673V374.009H206.995Z" fill="#546DFE"/>
</g>
<defs>
<clipPath id="clip0_273_153">
<rect width="394" height="394" fill="white"/>
</clipPath>
</defs>
</svg>
