<svg width="394" height="394" viewBox="0 0 394 394" fill="none" xmlns="http://www.w3.org/2000/svg">
<g clip-path="url(#clip0_288_617)">
<path fill-rule="evenodd" clip-rule="evenodd" d="M66.6989 23.3971C70.4514 26.3306 73.2379 29.7051 75.4012 33.0656C68.0081 35.8241 61.315 40.0177 55.7491 45.5766L49.3501 51.9756C25.4484 75.8843 28.3189 117.653 55.7491 145.083C68.1901 157.517 84.7197 164.371 102.306 164.371C119.893 164.371 136.423 157.517 148.857 145.083C161.298 132.656 168.145 116.12 168.145 98.5329C168.145 80.9461 161.298 64.4165 148.857 51.9756C134.448 37.5673 115.349 29.306 96.4605 29.306C94.1712 29.306 91.9238 29.4601 89.6974 29.7051C86.638 23.9082 82.1503 17.7472 75.5062 12.5104C61.448 1.42769 42.104 -2.32489 18.0203 1.38569C14.1977 1.97378 11.5722 5.53733 12.1603 9.35993C12.7414 13.1895 16.361 15.8149 20.1346 15.2198C40.1437 12.1674 55.8122 14.9048 66.6989 23.3971ZM80.0359 59.7328C86.1269 65.8167 96.0474 65.8167 102.138 59.7328C104.876 56.9954 109.308 56.9954 112.045 59.7328C114.775 62.4632 114.775 66.9019 112.038 69.6324C106.262 75.4083 98.6729 78.2927 91.0907 78.2927C83.5015 78.2927 75.9123 75.4083 70.1364 69.6324C67.399 66.8949 67.399 62.4632 70.1364 59.7328C72.8668 56.9954 77.2985 56.9954 80.0359 59.7328Z" fill="#546DFE"/>
<path fill-rule="evenodd" clip-rule="evenodd" d="M356.769 174.053C357.252 171.421 357.497 168.781 357.497 166.163C357.497 145.552 343.187 126.355 317.087 111.792C316.485 97.9931 312.424 54.5584 285.54 27.5131C268.702 10.5845 246.138 3.30335 218.749 6.01977C216.341 6.25781 214.234 7.71403 213.162 9.87737C212.091 12.0477 212.21 14.6031 213.477 16.6614C217.916 23.8516 225.694 41.2073 221.396 48.9925C219.561 52.339 214.899 54.0683 207.54 54.1453C194.897 54.2713 182.491 55.4755 170.708 57.4778C178.108 69.7577 182.148 83.8159 182.148 98.5322C182.148 119.858 173.837 139.916 158.757 154.989C143.684 170.062 123.632 178.373 102.307 178.373C86.2255 178.373 70.8721 173.633 57.8221 164.84C57.8081 165.281 57.7381 165.722 57.7381 166.163C57.7381 168.788 57.9761 171.428 58.4522 174.053C41.8316 187.495 33.0802 203.052 33.0802 219.28C33.0802 220.533 33.1642 221.772 33.2692 223.019L33.3392 222.949C41.9226 214.484 52.8793 209.997 65.0192 209.997C83.6631 209.997 101.656 220.624 115.238 231.56C134.029 224.279 157.735 229.089 178.612 243.658C197.648 233.499 221.928 233.492 240.964 243.623C261.624 229.11 285.092 224.3 303.743 231.518C317.255 220.596 335.156 209.997 353.723 209.997C364.358 209.997 374.083 213.462 382.099 220.043C382.106 219.791 382.148 219.532 382.148 219.28C382.148 203.052 373.396 187.495 356.769 174.053ZM112.081 199.159C111.044 201.994 108.356 203.759 105.5 203.759C104.708 203.759 103.896 203.619 103.105 203.332C95.3269 200.503 87.8358 197.206 80.8347 193.544C77.4041 191.752 76.0809 187.523 77.8732 184.093C79.6655 180.676 83.8941 179.339 87.3247 181.138C93.7727 184.513 100.697 187.551 107.894 190.177C111.534 191.507 113.404 195.518 112.081 199.159ZM209.347 127.041C238.282 127.041 265.72 123.372 288.704 116.434C292.401 115.328 296.314 117.414 297.435 121.111C298.548 124.814 296.454 128.721 292.751 129.834C268.471 137.164 239.627 141.043 209.347 141.043C205.482 141.043 202.346 137.913 202.346 134.042C202.346 130.17 205.482 127.041 209.347 127.041ZM254.105 217.166C238.59 219.182 223.048 220.197 207.596 220.197C193.3 220.197 179.081 219.329 165.03 217.6C161.193 217.131 158.463 213.644 158.932 209.801C159.408 205.964 162.958 203.234 166.738 203.71C194.82 207.154 223.608 207.014 252.298 203.283C256.149 202.793 259.65 205.488 260.147 209.325C260.644 213.161 257.941 216.676 254.105 217.166ZM335.191 193.495C323.325 199.761 309.455 205.075 293.976 209.304C293.36 209.472 292.737 209.549 292.135 209.549C289.047 209.549 286.233 207.504 285.379 204.389C284.364 200.657 286.562 196.814 290.293 195.791C304.786 191.843 317.689 186.9 328.659 181.103C332.076 179.318 336.312 180.613 338.118 184.03C339.924 187.453 338.615 191.682 335.191 193.495Z" fill="#546DFE"/>
<path fill-rule="evenodd" clip-rule="evenodd" d="M353.723 223.999C335.751 223.999 317.31 237.687 305.738 248.265C299.752 244.205 292.709 242.083 285.042 242.083C271.159 242.083 255.344 248.979 241.769 260.748C232.646 253.733 221.521 249.931 209.823 249.931C198.103 249.931 186.971 253.74 177.849 260.762C164.133 248.986 148.171 242.083 134.155 242.083C126.412 242.083 119.298 244.212 113.257 248.293C101.628 237.708 83.0888 223.999 65.019 223.999C56.5197 223.999 49.1615 227.003 43.1546 232.933L39.8151 236.216L73.0773 318.157L73.4203 318.864C95.7118 359.856 114.503 370.287 155.221 385.893C168.649 391.045 188.399 394 209.403 394C230.42 394 250.128 391.045 263.458 385.886C304.239 370.133 323.023 359.716 344.881 319.529L378.836 236.23L375.517 232.94C369.532 227.01 362.194 223.999 353.723 223.999ZM141.338 343.018C140.379 343.473 139.371 343.683 138.376 343.683C135.744 343.683 133.224 342.192 132.033 339.65L112.682 298.316C111.044 294.815 112.556 290.643 116.057 289.012C119.565 287.373 123.73 288.879 125.368 292.379L144.712 333.714C146.351 337.214 144.845 341.387 141.338 343.018ZM184.612 358.273C184.241 358.329 183.877 358.357 183.52 358.357C180.131 358.357 177.149 355.886 176.609 352.434L170.161 311.1C169.566 307.277 172.178 303.693 176 303.098C179.823 302.531 183.4 305.114 183.996 308.937L190.444 350.278C191.039 354.094 188.427 357.678 184.612 358.273ZM242.049 352.434C241.51 355.886 238.527 358.357 235.139 358.357C234.782 358.357 234.417 358.329 234.053 358.273C230.231 357.678 227.619 354.094 228.214 350.278L234.663 308.937C235.258 305.114 238.835 302.531 242.658 303.098C246.48 303.693 249.092 307.277 248.497 311.1L242.049 352.434ZM305.983 298.316L286.625 339.65C285.434 342.192 282.914 343.683 280.282 343.683C279.287 343.683 278.279 343.473 277.32 343.018C273.813 341.387 272.307 337.214 273.946 333.714L293.297 292.379C294.928 288.872 299.108 287.359 302.608 289.012C306.109 290.643 307.614 294.815 305.983 298.316Z" fill="#546DFE"/>
</g>
<defs>
<clipPath id="clip0_288_617">
<rect width="394" height="394" fill="white"/>
</clipPath>
</defs>
</svg>
