<svg width="394" height="394" viewBox="0 0 394 394" fill="none" xmlns="http://www.w3.org/2000/svg">
<g clip-path="url(#clip0_273_185)">
<path d="M351.777 97.4773C354.739 94.3778 355.572 89.8023 353.885 85.8699C352.198 81.9269 348.319 79.3651 344.038 79.3651H262.501L274.9 52.787C286.728 56.5191 299.432 51.7328 304.461 40.9898C309.469 30.2468 304.967 17.4481 294.509 10.7746L297.166 5.08153C297.999 3.28928 297.229 1.1702 295.437 0.337333C293.644 -0.495536 291.525 0.274077 290.692 2.06633L288.036 7.75936C276.196 4.02726 263.503 8.81363 258.485 19.5566C253.466 30.2996 257.979 43.0983 268.437 49.7718L254.615 79.3545H49.9405C45.6496 79.3545 41.7804 81.9164 40.0936 85.8593C38.4068 89.8023 39.2397 94.3778 42.2021 97.4668L187.216 248.975V375.255H146.933C141.756 375.255 137.56 379.451 137.56 384.628C137.56 389.804 141.746 394.011 146.933 394.011H247.056C252.233 394.011 256.429 389.815 256.429 384.628C256.429 379.462 252.243 375.255 247.056 375.255H206.762V248.986L351.777 97.4773ZM244.621 100.788L230.757 130.529H119.164L197 211.844L274.836 130.529H238.643L252.507 100.788H318.957L197 228.206L75.0214 100.788H244.621Z" fill="#546DFE"/>
</g>
<defs>
<clipPath id="clip0_273_185">
<rect width="394" height="394" fill="white"/>
</clipPath>
</defs>
</svg>
