<svg width="394" height="394" viewBox="0 0 394 394" fill="none" xmlns="http://www.w3.org/2000/svg">
<g clip-path="url(#clip0_288_755)">
<path d="M366.962 73.3428V112.297C366.962 115.436 365.713 118.468 363.484 120.698C361.254 122.927 358.222 124.176 355.065 124.176H38.9696C32.3881 124.176 27.0728 118.86 27.0728 112.297V73.3425C27.0906 49.2638 46.6032 29.7507 70.6824 29.7151H185.117V24.5426C185.153 10.9691 196.158 0 209.713 0H283.574C297.148 0 308.152 10.9691 308.17 24.5426V29.9114H323.349C347.338 29.9292 366.837 49.3354 366.962 73.3428ZM325.814 240.287H72.0226L76.3568 277.012L322.354 276.995L325.814 240.287ZM328.043 216.512L334.482 148.144H61.1804L69.2244 216.69L328.043 216.512ZM79.1561 300.966L86.2371 361.092C88.431 379.856 104.341 394.017 123.247 394H277.444C296.707 394.089 312.813 379.41 314.543 360.236L320.108 300.968L79.1561 300.966Z" fill="#546DFE"/>
</g>
<defs>
<clipPath id="clip0_288_755">
<rect width="394" height="394" fill="white"/>
</clipPath>
</defs>
</svg>
