<svg width="394" height="394" viewBox="0 0 394 394" fill="none" xmlns="http://www.w3.org/2000/svg">
<g clip-path="url(#clip0_288_131)">
<path d="M356.164 104.696C341.154 85.3091 319.578 70.6123 295.5 61.5441C262.354 49.0361 225.768 47.1599 190.121 49.6615C169.795 51.225 146.343 53.1012 131.333 40.2806C121.014 31.525 117.887 18.3917 117.887 4.94565C117.887 0.567873 111.946 -1.30832 109.132 2.44406C90.9953 26.2091 57.5366 42.1568 43.7778 69.6742C38.462 80.6187 36.5858 92.8139 38.462 104.696H356.164Z" fill="#546DFE"/>
<path d="M361.792 120.644H32.2075V164.109H361.792V120.644Z" fill="#546DFE"/>
<path d="M390.248 200.382L362.73 180.057H31.5825L4.06508 200.382C1.56349 201.946 0 204.76 0 207.574V367.989C0 382.685 12.8206 394.568 28.4556 394.568H365.544C381.179 394.568 394 382.685 394 367.989V207.574C394 204.76 392.437 201.946 390.248 200.382ZM317.389 357.67H76.6111C71.2952 357.67 67.2302 353.292 67.2302 348.289V226.336C67.2302 221.02 71.6079 216.955 76.6111 216.955H317.389C322.705 216.955 326.77 221.333 326.77 226.336V347.976C326.77 353.292 322.705 357.67 317.389 357.67Z" fill="#546DFE"/>
</g>
<defs>
<clipPath id="clip0_288_131">
<rect width="394" height="394" fill="white"/>
</clipPath>
</defs>
</svg>
