<svg width="394" height="394" viewBox="0 0 394 394" fill="none" xmlns="http://www.w3.org/2000/svg">
<g clip-path="url(#clip0_273_178)">
<path d="M111.906 374.59C101.047 374.558 92.2609 365.748 92.2609 354.893V178.603L81.2855 189.643C77.6209 193.355 72.6209 195.445 67.4035 195.444C62.1804 195.435 57.1765 193.344 53.5019 189.633L5.74776 141.562C-1.91592 133.828 -1.91592 121.365 5.74776 113.631L93.0787 25.7814C97.3702 21.484 103.405 19.4055 109.434 20.148C110.255 20.0556 111.08 20.0063 111.906 20.0002H136.173C142.841 20.0113 149.049 23.4049 152.656 29.0117C163.349 42.4026 179.879 49.7722 196.991 48.7779C214.126 49.7782 230.683 42.4099 241.405 29.0117C245 23.4068 251.198 20.0122 257.859 20.0002H282.154C282.981 19.9999 283.807 20.0525 284.627 20.1578C285.438 20.0619 286.254 20.0093 287.071 20.0002C292.288 20.0062 297.287 22.0903 300.962 25.7912L388.254 113.651C395.915 121.378 395.915 133.834 388.254 141.562L340.5 189.653C336.839 193.372 331.838 195.469 326.618 195.473C321.403 195.471 316.405 193.386 312.736 189.682L301.731 178.612V354.903C301.731 365.751 292.957 374.557 282.105 374.6L111.906 374.59Z" fill="#546DFE"/>
</g>
<defs>
<clipPath id="clip0_273_178">
<rect width="394" height="394" fill="white"/>
</clipPath>
</defs>
</svg>
