<svg width="394" height="394" viewBox="0 0 394 394" fill="none" xmlns="http://www.w3.org/2000/svg">
<g clip-path="url(#clip0_273_289)">
<path d="M311.374 164.367H293.861C290.247 164.367 286.748 164.732 283.326 165.367V125.822C283.326 123.669 283.076 121.574 282.692 119.536C294.207 111.02 301.743 97.4667 301.743 82.0873C301.743 53.4433 275.367 30.4704 246.32 36.2184C236.708 26.1065 223.001 20.3969 208.909 21.1082C199.912 8.07417 184.937 0 168.961 0C155.985 0 143.72 5.15209 134.685 14.1106C132.282 13.1301 129.821 12.3419 127.322 11.7652L124.169 11.15C121.747 10.7656 119.325 10.5541 116.845 10.5156C113.211 10.2273 109.712 10.2465 106.271 10.5349H105.329V10.6118C84.6826 12.688 67.2847 24.9146 60.4601 41.9664C40.1786 45.8113 24.7992 63.6706 24.7992 85.0094C24.7992 99.9082 32.2966 113.038 43.6774 120.959C43.4467 122.554 43.1968 124.15 43.1968 125.822V362.453C43.1968 379.851 57.3458 394.019 74.7437 394.019H251.76C269.158 394.019 283.326 379.87 283.326 362.453V314.123C286.748 314.758 290.247 315.142 293.861 315.142H311.374C343.267 315.142 369.22 289.17 369.22 257.277V222.251C369.22 190.339 343.267 164.367 311.374 164.367ZM262.276 362.453C262.276 368.259 257.585 372.969 251.76 372.969H74.7437C68.938 372.969 64.228 368.259 64.228 362.453V125.822C64.228 120.017 68.938 115.307 74.7437 115.307H251.76C257.585 115.307 262.276 120.017 262.276 125.822V362.453ZM271.638 101.504C266.217 97.0438 259.334 94.2563 251.76 94.2563H74.7437C66.7272 94.2563 59.4989 97.3514 53.9239 102.273C49.0025 98.1011 45.8305 91.9494 45.8305 85.0094C45.8305 72.4945 56.0001 62.2864 68.5342 62.248L77.1467 62.2095L78.8192 53.7701C80.7801 43.8889 91.0266 33.4501 106.733 31.6238H118.325C123.035 31.9506 127.572 33.4886 131.57 36.1223L140.26 41.8703L146.085 33.2386C151.237 25.6066 159.792 21.0313 168.981 21.0313C179.669 21.0313 189.166 27.0869 193.818 36.8528L197.356 44.2926L205.43 42.6393C216.407 40.4285 227.614 45.0231 233.843 54.1161L238.438 60.883L246.127 58.0571C249.223 56.9229 252.125 56.3654 254.99 56.3654C269.158 56.3654 280.712 67.8999 280.712 82.0873C280.712 89.8731 277.136 96.7939 271.638 101.504ZM337.673 257.277C337.673 271.773 325.889 283.576 311.374 283.576H293.861C290.112 283.576 286.556 282.769 283.326 281.346V198.182C286.556 196.76 290.112 195.952 293.861 195.952H311.374C325.869 195.952 337.673 207.737 337.673 222.251V257.277Z" fill="#546DFE"/>
<path d="M251.799 153.851H74.7437V362.453H251.799V153.851Z" fill="#546DFE"/>
</g>
<defs>
<clipPath id="clip0_273_289">
<rect width="394" height="394" fill="white"/>
</clipPath>
</defs>
</svg>
