<svg width="394" height="394" viewBox="0 0 394 394" fill="none" xmlns="http://www.w3.org/2000/svg">
<g clip-path="url(#clip0_288_129)">
<path d="M80.7264 132.028L50.5527 162.977V373.68C50.5527 384.934 62.0663 394 76.3591 394H239.535C253.828 394 265.341 384.934 265.341 373.68V162.977L235.168 132.028H80.7264Z" fill="#546DFE"/>
<path d="M318.543 51.061C320.925 51.061 323.307 50.4358 324.895 49.1853C329.262 46.3718 330.056 41.3699 326.483 37.9312L298.692 11.3589H103.357L74.3745 0.729942C69.2132 -1.14575 63.2579 0.729942 60.8758 4.79394C58.4936 8.85794 60.8758 13.5472 66.037 15.4229L98.9898 27.6149H121.223V59.8142H194.275V27.3022H289.163L310.602 47.9349C312.984 50.1232 315.764 51.061 318.543 51.061Z" fill="#546DFE"/>
<path d="M318.542 58.2509C318.542 58.2509 293.53 93.889 293.53 104.831C293.53 115.772 304.646 124.525 318.542 124.525C332.438 124.525 343.554 115.772 343.554 104.831C343.554 93.889 318.542 58.2509 318.542 58.2509Z" fill="#546DFE"/>
<path d="M220.875 76.0703H94.2251V115.772H220.875V76.0703Z" fill="#546DFE"/>
</g>
<defs>
<clipPath id="clip0_288_129">
<rect width="394" height="394" fill="white"/>
</clipPath>
</defs>
</svg>
