<svg width="394" height="394" viewBox="0 0 394 394" fill="none" xmlns="http://www.w3.org/2000/svg">
<g clip-path="url(#clip0_273_269)">
<path d="M151.422 85.6467C168.136 85.6467 181.686 70.5151 181.686 51.8494C181.686 33.1837 168.136 18.0522 151.422 18.0522C134.708 18.0522 121.158 33.1837 121.158 51.8494C121.158 70.5151 134.708 85.6467 151.422 85.6467Z" fill="#546DFE"/>
<path d="M198.072 38.6378H163.609C160.691 38.6378 158.284 36.231 158.284 33.3122C158.284 30.3933 160.691 27.9865 163.609 27.9865H198.021C200.94 27.9865 203.347 30.3933 203.347 33.3122C203.398 36.2822 200.991 38.6378 198.072 38.6378Z" fill="#546DFE"/>
<path d="M393.533 305.431C392.253 298.723 383.957 265.591 326.911 265.898L282.616 161.332L298.542 162.305C298.542 162.305 310.986 155.289 306.838 135.216C302.69 115.142 295.06 118.932 285.484 118.625C275.908 118.317 272.733 118.932 261.877 129.788C251.021 140.644 243.698 139.978 240.831 138.391C240.831 138.391 241.138 131.683 225.827 131.683C210.516 131.683 201.913 130.402 194.897 121.185C187.882 111.916 176.616 92.7133 155.774 92.7133H134.933C134.933 92.7133 122.592 95.6834 120.031 114.374C117.471 133.065 111.121 195.59 111.121 195.59C111.121 195.59 112.401 214.742 126.842 214.742H184.656V289.966C184.656 289.966 186.397 302.307 200.633 304.816C194.129 304.56 187.011 304.202 179.125 303.587C128.941 298.467 158.284 259.395 169.754 255.554C169.754 255.554 172.519 255.452 172.212 250.024C171.905 244.596 172.212 236.454 172.212 236.454C172.212 236.454 172.366 229.899 162.79 229.899C153.214 229.899 96.9366 229.899 96.9366 229.899V173.724C96.9366 173.724 96.6293 155.853 81.3182 155.853C66.007 155.853 18.1788 155.853 18.1788 155.853C18.1788 155.853 0 155.853 0 174.339C0 192.825 0 233.637 0 233.637C0 233.637 0.614494 250.229 17.8716 250.229H44.9605C44.9605 250.229 13.058 261.699 13.058 303.792C13.058 303.792 11.1633 314.648 26.4745 314.648H114.142C114.142 314.648 123.718 313.675 123.718 326.785V338.562H287.02C287.02 338.562 304.226 314.034 350.467 314.034C396.708 314.034 394.813 312.088 393.533 305.431ZM83.5201 233.996H13.7749V172.137L38.7644 171.727V200.967L47.4697 192.261L56.2775 201.069V173.007H83.4689L83.5201 233.996ZM262.492 237.171C266.742 255.452 272.682 283.104 268.432 290.734C265.769 295.497 260.597 301.488 238.936 303.895C241.445 302.205 245.03 298.62 245.03 292.014C245.03 281.824 233.559 282.643 233.559 282.643H220.399V205.729C220.399 205.729 220.808 181.917 202.988 181.917C185.168 181.917 162.175 181.917 162.175 181.917L167.706 133.014L184.707 152.166C184.707 152.166 185.987 156.416 203.398 157.696C220.808 158.976 235.3 167.477 242.06 155.545L253.94 154.265L270.07 208.699C270.122 208.699 258.241 218.89 262.492 237.171Z" fill="#546DFE"/>
<path d="M87.3606 333.544C87.3606 344.042 78.8601 352.542 68.3625 352.542C57.8649 352.542 49.3643 344.042 49.3643 333.544C49.3643 331.496 49.6716 329.55 50.2861 327.706H25.8599C25.6039 329.601 25.399 331.547 25.399 333.544C25.399 357.253 44.602 376.456 68.3113 376.456C92.0205 376.456 111.223 357.253 111.223 333.544C111.223 331.547 111.019 329.601 110.763 327.706H86.3364C87.0534 329.55 87.3606 331.547 87.3606 333.544Z" fill="#546DFE"/>
<path d="M298.593 336.156C299.822 358.738 318.513 376.712 341.403 376.712C365.112 376.712 384.315 357.509 384.315 333.8C384.315 329.345 383.65 325.044 382.369 320.998C376.071 320.896 366.853 322.125 357.534 323.763C359.326 326.682 360.401 330.113 360.401 333.8C360.401 344.298 351.901 352.798 341.403 352.798C330.905 352.798 322.405 344.298 322.405 333.8C322.405 332.776 322.507 331.803 322.661 330.83C315.492 332.059 301.819 335.388 298.593 336.156Z" fill="#546DFE"/>
</g>
<defs>
<clipPath id="clip0_273_269">
<rect width="394" height="394" fill="white"/>
</clipPath>
</defs>
</svg>
