<svg width="394" height="394" viewBox="0 0 394 394" fill="none" xmlns="http://www.w3.org/2000/svg">
<path d="M308.693 13.89C308.098 22.6455 304.201 30.8486 297.79 36.8412C291.379 42.8337 282.932 46.1687 274.156 46.1719C273.14 46.1858 272.17 46.5957 271.451 47.3142C270.732 48.0328 270.323 49.0034 270.309 50.0195V223.164C270.292 236.425 265.017 249.138 255.64 258.515C246.263 267.892 233.55 273.167 220.289 273.184H147.184V382.457C147.184 385.518 148.4 388.454 150.564 390.619C152.729 392.784 155.665 394 158.727 394C161.788 394 164.724 392.784 166.889 390.619C169.053 388.454 170.27 385.518 170.27 382.457V346.289H198.488V382.457C198.488 385.518 199.704 388.454 201.869 390.619C204.034 392.784 206.97 394 210.031 394C213.093 394 216.029 392.784 218.193 390.619C220.358 388.454 221.574 385.518 221.574 382.457V346.289H249.785V382.457C249.785 385.518 251.001 388.454 253.166 390.619C255.331 392.784 258.267 394 261.328 394C264.39 394 267.326 392.784 269.49 390.619C271.655 388.454 272.871 385.518 272.871 382.457V346.289H301.09V382.457C301.09 385.518 302.306 388.454 304.471 390.619C306.635 392.784 309.571 394 312.633 394C315.694 394 318.63 392.784 320.795 390.619C322.96 388.454 324.176 385.518 324.176 382.457V50.0195C324.178 43.2624 322.807 36.5752 320.146 30.3643C317.484 24.1534 313.588 18.5485 308.693 13.89Z" fill="#546DFE"/>
<path d="M247.223 50.0195C247.223 42.8763 250.06 36.0256 255.111 30.9746C260.162 25.9236 267.013 23.0859 274.156 23.0859C277.218 23.0859 280.154 21.8698 282.318 19.7051C284.483 17.5404 285.699 14.6044 285.699 11.543C285.699 8.48158 284.483 5.54558 282.318 3.38086C280.154 1.21613 277.218 0 274.156 0H127.945C112.644 0.0183286 97.9747 6.10487 87.155 16.9245C76.3353 27.7442 70.2488 42.4135 70.2305 57.7148V150.059H247.223V50.0195Z" fill="#546DFE"/>
<path d="M247.223 223.164V173.145H70.2305V223.164C70.2305 230.307 73.0681 237.158 78.1191 242.209C83.1702 247.26 90.0208 250.098 97.1641 250.098H220.289C227.432 250.098 234.283 247.26 239.334 242.209C244.385 237.158 247.223 230.307 247.223 223.164Z" fill="#546DFE"/>
</svg>
