<svg width="394" height="394" viewBox="0 0 394 394" fill="none" xmlns="http://www.w3.org/2000/svg">
<path d="M243.677 0C240.391 1.15814 237.076 2.17777 233.738 3.07428C233.799 3.55523 233.841 4.04158 233.841 4.53947V21.0059C233.841 27.5723 231.375 33.6508 227.14 38.2257L241.04 96.5092C242.498 89.0963 243.557 81.5973 244.198 74.0343L250.151 3.86613L243.677 0Z" fill="#546DFE"/>
<path d="M164.01 21.0051V4.53947C164.01 4.04235 164.052 3.55524 164.113 3.07428C160.786 2.18086 157.479 1.16431 154.204 0.0100098L147.705 3.92692L153.654 74.0335C154.296 81.5965 155.354 89.0956 156.812 96.5085L170.712 38.2249C166.477 33.6501 164.01 27.5715 164.01 21.0051Z" fill="#546DFE"/>
<path d="M130.695 75.981L125.564 15.5059L69.1069 31.5583C61.2016 33.8061 55.0876 40.087 53.053 48.0493L44.6836 80.809C23.4014 164.115 21.2867 252.668 38.5681 336.894L50.285 394H96.0605L79.9396 214.236C79.371 207.898 84.0482 202.3 90.3853 201.732C96.7316 201.16 102.321 205.84 102.889 212.177L119.196 394H187.405V210.195C154.426 171.12 134.838 124.809 130.695 75.981Z" fill="#546DFE"/>
<path d="M206.041 49.0833C203.714 49.7651 201.32 50.1083 198.926 50.1083C196.531 50.1083 194.138 49.7643 191.811 49.0833L170.236 139.552C177.58 156.504 187.184 172.699 198.926 187.823C210.668 172.699 220.272 156.504 227.617 139.552L206.041 49.0833Z" fill="#546DFE"/>
<path d="M349.992 68.3737L344.803 48.0643C342.768 40.0965 336.648 33.8133 328.736 31.5694L272.285 15.5554L267.157 75.9821C263.014 124.809 243.426 171.121 210.448 210.196V394H278.657L294.963 212.178C295.531 205.84 301.132 201.156 307.467 201.732C313.804 202.3 318.481 207.898 317.913 214.236L301.792 394H339.303L350.845 347.645C373.607 256.225 373.312 159.654 349.992 68.3737ZM326.542 156.854H277.708C271.344 156.854 266.186 151.696 266.186 145.333C266.186 140.335 269.375 136.092 273.825 134.496V116.465C273.825 113.668 274.843 110.966 276.688 108.864L293.467 89.7513C295.654 87.2596 298.809 85.8313 302.125 85.8313C305.441 85.8313 308.596 87.2596 310.783 89.7513L327.562 108.864C329.407 110.967 330.425 113.668 330.425 116.465V134.496C334.875 136.092 338.064 140.334 338.064 145.333C338.064 151.696 332.905 156.854 326.542 156.854Z" fill="#546DFE"/>
<path d="M302.125 111.779L295.377 119.466V134.497H308.873V119.466L302.125 111.779Z" fill="#546DFE"/>
<path d="M187.053 4.53955V21.006C187.053 21.971 187.634 22.8221 188.533 23.173L198.08 26.9029C198.625 27.1161 199.227 27.1161 199.774 26.9029L209.319 23.1737C210.218 22.8221 210.799 21.9717 210.799 21.0067V4.53955H187.053Z" fill="#546DFE"/>
</svg>
