<svg width="394" height="394" viewBox="0 0 394 394" fill="none" xmlns="http://www.w3.org/2000/svg">
<g clip-path="url(#clip0_288_154)">
<path d="M101.897 16.8857V31.2698H292.956V16.8857C292.956 7.50476 285.451 0 276.07 0H118.47C109.402 0 101.897 7.50476 101.897 16.8857Z" fill="#546DFE"/>
<path d="M240.423 362.105H154.431V394H240.423V362.105Z" fill="#546DFE"/>
<path d="M132.542 346.157H261.686L291.08 46.9047H103.461L132.542 346.157ZM197.27 118.825C225.413 118.825 248.24 150.095 248.24 188.557C248.24 227.019 225.413 258.289 197.27 258.289C169.128 258.289 146.301 227.019 146.301 188.557C146.301 150.095 169.128 118.825 197.27 118.825Z" fill="#546DFE"/>
</g>
<defs>
<clipPath id="clip0_288_154">
<rect width="394" height="394" fill="white"/>
</clipPath>
</defs>
</svg>
