<svg width="394" height="394" viewBox="0 0 394 394" fill="none" xmlns="http://www.w3.org/2000/svg">
<path d="M261.078 157.6C260.519 156.474 260.519 155.911 260.519 154.786L273.366 6.19143C273.925 2.81429 271.132 0 267.781 0H253.817C250.465 0 248.231 2.25143 248.231 5.62857C245.438 52.3457 210.249 75.4229 200.195 81.0514C198.519 82.1771 196.285 82.1771 194.609 81.0514C184.555 75.4229 148.808 51.7829 146.573 5.62857C146.573 2.25143 143.781 0 140.988 0H127.024C123.673 0 120.88 2.81429 121.438 6.19143L134.285 154.786C134.285 155.911 134.285 157.037 133.727 157.6C126.465 172.797 62.7898 309.571 72.2853 388.934C72.8439 391.749 75.0781 394 77.8709 394H197.402H316.934C319.726 394 322.519 391.749 322.519 388.934C332.015 309.571 268.339 172.797 261.078 157.6ZM197.402 163.229C190.7 163.229 185.673 158.163 185.673 151.409C185.673 144.654 190.7 139.589 197.402 139.589C204.105 139.589 209.132 144.654 209.132 151.409C209.132 158.163 204.105 163.229 197.402 163.229ZM197.402 126.08C190.7 126.08 185.673 121.014 185.673 114.26C185.673 107.506 190.7 102.44 197.402 102.44C204.105 102.44 209.132 107.506 209.132 114.26C209.132 121.014 204.105 126.08 197.402 126.08Z" fill="white"/>
</svg>
