<svg width="394" height="394" viewBox="0 0 394 394" fill="none" xmlns="http://www.w3.org/2000/svg">
<g clip-path="url(#clip0_288_635)">
<path d="M197 0.25C88.3742 0.25 0 88.6242 0 197.25C0 305.876 88.3742 394.25 197 394.25C305.626 394.25 394 305.876 394 197.25C394 88.6242 305.626 0.25 197 0.25ZM197 33.0833H197.02C230.792 33.0833 259.094 41.8039 286.103 60.5189C289.084 62.5808 289.826 66.6784 287.764 69.6597C286.491 71.4983 284.442 72.4833 282.354 72.4833C281.066 72.4833 279.76 72.1025 278.624 71.3145C253.913 54.1952 227.988 46.2167 197.013 46.2167H196.993C193.369 46.2167 190.427 43.2748 190.427 39.65C190.427 36.0252 193.369 33.0833 197 33.0833ZM254.176 83.6926L247.609 90.2593C246.329 91.5398 244.648 92.1833 242.967 92.1833C241.286 92.1833 239.605 91.5398 238.324 90.2593C235.756 87.6917 235.756 83.5416 238.324 80.974L244.891 74.4074C247.452 71.8398 251.615 71.8398 254.176 74.4074C256.737 76.9749 256.737 81.1251 254.176 83.6926ZM179.224 87.5407C181.785 84.9731 185.948 84.9731 188.509 87.5407L195.076 94.1074C197.644 96.6749 197.644 100.825 195.076 103.393C193.795 104.673 192.114 105.317 190.433 105.317C188.752 105.317 187.071 104.673 185.791 103.393L179.224 96.826C176.656 94.2584 176.656 90.1083 179.224 87.5407ZM113.557 74.4074L120.124 67.8407C122.685 65.2731 126.848 65.2731 129.409 67.8407C131.977 70.4083 131.977 74.5584 129.409 77.126L122.843 83.6926C121.562 84.9731 119.881 85.6167 118.2 85.6167C116.519 85.6167 114.838 84.9731 113.557 83.6926C110.99 81.1251 110.99 76.9749 113.557 74.4074ZM87.2907 192.607C89.8517 190.04 94.015 190.04 96.576 192.607C99.1435 195.175 99.1435 199.325 96.576 201.893L90.0093 208.459C88.7288 209.74 87.0477 210.383 85.3667 210.383C83.6856 210.383 82.0045 209.74 80.724 208.459C78.1565 205.892 78.1565 201.742 80.724 199.174L87.2907 192.607ZM61.024 120.374C63.585 117.806 67.7483 117.806 70.3093 120.374L76.876 126.941C79.4435 129.508 79.4435 133.658 76.876 136.226C75.5955 137.506 73.9144 138.15 72.2333 138.15C70.5523 138.15 68.8712 137.506 67.5907 136.226L61.024 129.659C58.4565 127.092 58.4565 122.942 61.024 120.374ZM45.4216 241.056C44.9029 241.181 44.3775 241.24 43.8653 241.24C40.9103 241.24 38.2246 239.231 37.4891 236.23C34.4028 223.563 32.8399 210.449 32.8333 197.25C32.8333 193.625 35.7686 190.683 39.4 190.683C43.0248 190.683 45.9667 193.619 45.9667 197.25C45.9732 209.405 47.4113 221.468 50.2481 233.124C51.1084 236.643 48.9479 240.196 45.4216 241.056ZM123.887 338.427C122.672 340.541 120.465 341.717 118.187 341.717C117.077 341.717 115.948 341.434 114.917 340.843C90.5281 326.81 68.116 304.405 53.433 279.373C51.5943 276.247 52.645 272.222 55.7707 270.39C58.903 268.551 62.9218 269.602 64.7539 272.727C78.3206 295.848 98.9925 316.527 121.47 329.457C124.616 331.269 125.699 335.281 123.887 338.427ZM122.843 287.259C121.562 288.54 119.881 289.183 118.2 289.183C116.519 289.183 114.838 288.54 113.557 287.259L106.991 280.693C104.423 278.125 104.423 273.975 106.991 271.407C109.552 268.84 113.715 268.84 116.276 271.407L122.843 277.974C125.404 280.542 125.404 284.692 122.843 287.259ZM118.2 197.25C118.2 153.798 153.548 118.45 197 118.45C240.452 118.45 275.8 153.798 275.8 197.25C275.8 240.702 240.452 276.05 197 276.05C153.548 276.05 118.2 240.702 118.2 197.25ZM197 361.417C183.315 361.417 167.542 357.509 156.024 354.66C152.504 353.786 150.357 350.227 151.23 346.707C152.104 343.188 155.669 341.04 159.183 341.914C170.044 344.606 184.924 348.283 197.007 348.29C200.638 348.29 203.573 351.232 203.573 354.857C203.567 358.475 200.625 361.417 197 361.417ZM260.743 333.226L254.176 339.793C252.895 341.073 251.214 341.717 249.533 341.717C247.852 341.717 246.171 341.073 244.891 339.793C242.323 337.225 242.323 333.075 244.891 330.507L251.457 323.941C254.018 321.373 258.182 321.373 260.743 323.941C263.304 326.508 263.304 330.658 260.743 333.226ZM293.576 287.259C292.295 288.54 290.614 289.183 288.933 289.183C287.252 289.183 285.571 288.54 284.291 287.259L277.724 280.693C275.156 278.125 275.156 273.975 277.724 271.407C280.285 268.84 284.448 268.84 287.009 271.407L293.576 277.974C296.137 280.542 296.137 284.692 293.576 287.259ZM293.576 129.659C292.295 130.94 290.614 131.583 288.933 131.583C287.252 131.583 285.571 130.94 284.291 129.659L277.724 123.093C275.156 120.525 275.156 116.375 277.724 113.807C280.285 111.24 284.448 111.24 287.009 113.807L293.576 120.374C296.137 122.942 296.137 127.092 293.576 129.659ZM319.843 182.193L313.276 188.759C311.995 190.04 310.314 190.683 308.633 190.683C306.952 190.683 305.271 190.04 303.991 188.759C301.423 186.192 301.423 182.042 303.991 179.474L310.557 172.907C313.118 170.34 317.282 170.34 319.843 172.907C322.404 175.475 322.404 179.625 319.843 182.193ZM352.676 241.293L346.109 247.859C344.829 249.14 343.148 249.783 341.467 249.783C339.786 249.783 338.105 249.14 336.824 247.859C334.256 245.292 334.256 241.142 336.824 238.574L343.391 232.007C345.952 229.44 350.115 229.44 352.676 232.007C355.237 234.575 355.237 238.725 352.676 241.293ZM354.6 203.817C350.969 203.817 348.033 200.875 348.033 197.25C348.046 166.288 340.068 140.35 322.936 115.626C320.874 112.645 321.616 108.554 324.597 106.492C327.578 104.424 331.669 105.172 333.738 108.147C352.472 135.175 361.186 163.491 361.173 197.257C361.167 200.881 358.225 203.817 354.6 203.817Z" fill="#546DFE"/>
</g>
<defs>
<clipPath id="clip0_288_635">
<rect width="394" height="394" fill="white"/>
</clipPath>
</defs>
</svg>
