<svg width="394" height="394" viewBox="0 0 394 394" fill="none" xmlns="http://www.w3.org/2000/svg">
<path d="M223.818 111.853L278.236 62.332H115.399L169.818 111.853C104.186 124.505 54.4543 182.367 54.4543 251.637C54.4543 330.137 118.319 394 196.818 394C275.317 394 339.181 330.137 339.181 251.637C339.181 182.367 289.449 124.505 223.818 111.853ZM196.818 355.523C139.534 355.523 92.9309 308.92 92.9309 251.637C92.9309 194.354 139.534 147.75 196.818 147.75C254.101 147.75 300.704 194.354 300.704 251.637C300.704 308.92 254.101 355.523 196.818 355.523Z" fill="#546DFE"/>
<path d="M268.148 7.11893C266.359 2.80879 262.152 0 257.486 0H136.149C131.484 0 127.276 2.80879 125.488 7.11893L112.157 39.2461H281.478L268.148 7.11893Z" fill="#546DFE"/>
</svg>
