<svg width="109" height="111" viewBox="0 0 109 111" fill="none" xmlns="http://www.w3.org/2000/svg">
<path d="M53.6164 0.134316C1.39669 3.06468 -9.81339 72.5739 7.67466 93.8305C21.2487 110.332 45.4472 107.609 58.2235 91.4582C68.7405 78.1596 85.7691 87.9859 99.8053 73.6064C118.088 54.8731 112.213 -3.15459 53.6164 0.134316Z" fill="#FDEDEF"/>
<path d="M92.5698 16.344L92.5697 16.344V16.35V106.842C92.5697 106.951 92.5268 107.054 92.4506 107.131L92.8044 107.484L92.4506 107.131C92.3744 107.207 92.2713 107.25 92.164 107.25H37.9468C37.8395 107.25 37.7364 107.207 37.6602 107.131C37.584 107.054 37.5411 106.951 37.5411 106.842V16.35H37.5411L37.541 16.344C37.5404 16.2896 37.5505 16.2356 37.5707 16.1853C37.591 16.1349 37.621 16.089 37.6589 16.0504C37.6969 16.0118 37.742 15.9811 37.7918 15.9601C37.8413 15.9392 37.8944 15.9283 37.948 15.928H52.5161L52.9018 17.237L53.0075 17.5957H53.3814H76.7331H77.1078L77.213 17.2361L77.5955 15.928H92.1628C92.2164 15.9283 92.2695 15.9392 92.319 15.9601C92.3688 15.9811 92.4139 16.0118 92.4519 16.0504C92.4898 16.089 92.5198 16.1348 92.5401 16.1852L93.004 15.9989L92.5401 16.1853C92.5603 16.2357 92.5704 16.2896 92.5698 16.344Z" fill="#FF4B65" stroke="#4C4C4C"/>
<mask id="mask0_789_360591" style="mask-type:luminance" maskUnits="userSpaceOnUse" x="37" y="15" width="57" height="93">
<path d="M92.5698 16.3439L92.5697 16.3439V16.3499V106.842C92.5697 106.95 92.5268 107.054 92.4506 107.13L92.8044 107.484L92.4506 107.13C92.3744 107.207 92.2713 107.249 92.164 107.249H37.9468C37.8395 107.249 37.7364 107.207 37.6602 107.13C37.584 107.054 37.5411 106.95 37.5411 106.842V16.3499H37.5411L37.541 16.3439C37.5404 16.2895 37.5505 16.2355 37.5707 16.1851C37.591 16.1347 37.621 16.0889 37.6589 16.0503C37.6969 16.0116 37.742 15.981 37.7918 15.96C37.8413 15.9391 37.8944 15.9282 37.948 15.9279H52.5161L52.9018 17.2369L53.0075 17.5956H53.3814H76.7331H77.1078L77.213 17.236L77.5955 15.9279H92.1628C92.2164 15.9282 92.2695 15.9391 92.319 15.96C92.3688 15.981 92.4139 16.0116 92.4519 16.0503C92.4898 16.0889 92.5198 16.1347 92.5401 16.1851L93.004 15.9987L92.5401 16.1851C92.5603 16.2355 92.5704 16.2895 92.5698 16.3439Z" fill="white" stroke="white"/>
</mask>
<g mask="url(#mask0_789_360591)">
<path opacity="0.5" d="M37.541 106.846V24.6927H92.5697V106.846C92.5697 106.899 92.5591 106.952 92.5387 107.002C92.5182 107.051 92.4882 107.096 92.4505 107.134C92.4128 107.172 92.3681 107.202 92.3189 107.222C92.2697 107.243 92.2171 107.253 92.1639 107.253H37.9468C37.8936 107.253 37.841 107.243 37.7918 107.222C37.7426 107.202 37.6979 107.172 37.6602 107.134L37.6602 107.134C37.6225 107.096 37.5925 107.051 37.572 107.002C37.5516 106.952 37.541 106.899 37.541 106.846Z" fill="white" stroke="#4C4C4C"/>
<g opacity="0.2">
<path d="M37.457 52.3972V33.094H83.5614C83.7193 33.094 83.8709 33.1564 83.9833 33.2679C84.0953 33.3789 84.1593 33.5297 84.1615 33.6878V51.7952C84.1615 51.9552 84.0981 52.1084 83.9854 52.2212C83.8728 52.334 83.7203 52.3972 83.5614 52.3972H37.457Z" fill="black" stroke="#4C4C4C"/>
<path d="M37.457 75.0882V54.749H78.7392C78.8237 54.749 78.9074 54.7657 78.9854 54.7981L79.1769 54.3366L78.9854 54.7981C79.0635 54.8305 79.1345 54.878 79.1944 54.938C79.2542 54.9979 79.3018 55.0691 79.3342 55.1476C79.3666 55.2261 79.3833 55.3102 79.3833 55.3951V74.4421C79.3833 74.6137 79.3153 74.7782 79.1944 74.8993C79.0735 75.0203 78.9098 75.0882 78.7392 75.0882H37.457Z" fill="black" stroke="#4C4C4C"/>
<path d="M37.457 94.9764V75.6694H83.5614C83.7193 75.6694 83.8709 75.7318 83.9833 75.8433C84.0953 75.9543 84.1593 76.1051 84.1615 76.2632V94.3743C84.1615 94.5343 84.0981 94.6875 83.9854 94.8003C83.8728 94.9131 83.7203 94.9764 83.5614 94.9764H37.457Z" fill="black" stroke="#4C4C4C"/>
<path d="M84.1501 97.5476V107.25H37.9468C37.8394 107.25 37.7363 107.207 37.6602 107.131C37.584 107.054 37.541 106.95 37.541 106.842V96.9536H83.5582C83.7142 96.9557 83.8635 97.0187 83.9741 97.1296C84.0848 97.2405 84.1481 97.3905 84.1501 97.5476Z" fill="black" stroke="#4C4C4C"/>
<path d="M87.9087 40.1099V107.249H87.6766V40.1099V39.8209L87.4262 39.6767C87.3153 39.6128 87.2231 39.5207 87.1589 39.4097C87.0947 39.2987 87.0607 39.1727 87.0605 39.0443V33.8283C87.0605 33.6332 87.1379 33.4464 87.2753 33.3087C87.4126 33.1711 87.5988 33.094 87.7927 33.094C87.9866 33.094 88.1727 33.1711 88.31 33.3087C88.4474 33.4464 88.5248 33.6333 88.5248 33.8283V39.0443C88.5246 39.1726 88.4907 39.2987 88.4265 39.4097C88.3622 39.5207 88.27 39.6128 88.1591 39.6767L87.9087 39.8209V40.1099Z" fill="black" stroke="#4C4C4C"/>
</g>
</g>
<path d="M93.0697 16.35V106.842C93.0697 107.083 92.9743 107.314 92.8044 107.484C92.6346 107.654 92.4042 107.75 92.164 107.75H37.9468C37.7066 107.75 37.4762 107.654 37.3064 107.484C37.1365 107.314 37.0411 107.083 37.0411 106.842V16.35C37.0396 16.2298 37.062 16.1104 37.1068 15.9989C37.1516 15.8873 37.218 15.7857 37.3022 15.7C37.3864 15.6143 37.4868 15.5461 37.5974 15.4994C37.708 15.4527 37.8268 15.4285 37.9468 15.428H52.89L53.3814 17.0957H76.7331L77.2208 15.428H92.164C92.284 15.4285 92.4028 15.4527 92.5134 15.4994C92.624 15.5461 92.7244 15.6143 92.8086 15.7C92.8928 15.7857 92.9592 15.8873 93.004 15.9989C93.0488 16.1104 93.0712 16.2298 93.0697 16.35Z" stroke="#4C4C4C" stroke-linecap="round" stroke-linejoin="round"/>
<path d="M37.0371 24.2737H93.0694" stroke="#4C4C4C" stroke-linecap="round" stroke-linejoin="round"/>
<path d="M31.7141 30.5226H77.6951C78.0196 30.5226 78.2842 30.7864 78.2842 31.1136V48.254C78.2842 48.5812 78.0196 48.845 77.6951 48.845H31.7141C31.3896 48.845 31.125 48.5812 31.125 48.254V31.1136C31.125 30.7864 31.3896 30.5226 31.7141 30.5226Z" fill="white" stroke="#4C4C4C"/>
<mask id="mask1_789_360591" style="mask-type:luminance" maskUnits="userSpaceOnUse" x="30" y="30" width="49" height="20">
<path d="M31.7141 30.5226H77.6951C78.0196 30.5226 78.2842 30.7864 78.2842 31.1136V48.254C78.2842 48.5812 78.0196 48.845 77.6951 48.845H31.7141C31.3896 48.845 31.125 48.5812 31.125 48.254V31.1136C31.125 30.7864 31.3896 30.5226 31.7141 30.5226Z" fill="white" stroke="white"/>
</mask>
<g mask="url(#mask1_789_360591)">
<path d="M48.6268 32.2744H32.9648V47.0932H48.6268V32.2744Z" fill="white" stroke="#4C4C4C" stroke-linecap="round" stroke-linejoin="round"/>
<path d="M51.877 32.9283V32.9283C51.877 32.8873 51.8931 32.8482 51.9217 32.8195C51.95 32.791 51.9882 32.7749 52.0279 32.7744H66.0395C66.0793 32.7749 66.1174 32.791 66.1458 32.8195C66.1743 32.8482 66.1905 32.8873 66.1905 32.9283C66.1905 32.9684 66.1746 33.0067 66.1465 33.0348C66.1185 33.0629 66.0807 33.0785 66.0414 33.0785H52.026C52.0066 33.0785 51.9873 33.0747 51.9693 33.0672C51.9512 33.0597 51.9348 33.0487 51.9209 33.0348C51.907 33.0209 51.896 33.0043 51.8884 32.9861C51.8809 32.9678 51.877 32.9481 51.877 32.9283Z" fill="#263238" stroke="#4C4C4C"/>
<path d="M51.877 35.8046V35.8046C51.877 35.8245 51.8809 35.8441 51.8884 35.8624C51.896 35.8807 51.907 35.8972 51.9209 35.9112C51.9348 35.9251 51.9512 35.936 51.9693 35.9435M51.877 35.8046L51.9693 35.9435M51.877 35.8046C51.877 35.7637 51.8931 35.7246 51.9217 35.6958C51.95 35.6673 51.9882 35.6512 52.0279 35.6508H57.7924C57.8321 35.6512 57.8703 35.6673 57.8986 35.6958C57.9272 35.7246 57.9433 35.7637 57.9433 35.8046C57.9433 35.8447 57.9274 35.883 57.8994 35.9112C57.8713 35.9392 57.8335 35.9548 57.7943 35.9548H52.026M51.877 35.8046L52.026 35.9548M51.9693 35.9435C51.9693 35.9435 51.9693 35.9435 51.9693 35.9435M51.9693 35.9435L51.9693 35.9435M52.026 35.9548C52.0066 35.9548 51.9873 35.951 51.9693 35.9435M52.026 35.9548L51.9693 35.9435" fill="#263238" stroke="#4C4C4C"/>
<path d="M75.9007 47.038C75.9007 47.0969 75.8833 47.1544 75.8506 47.2033C75.818 47.2523 75.7716 47.2904 75.7173 47.3129C75.6631 47.3355 75.6033 47.3413 75.5457 47.3299C75.4881 47.3184 75.4352 47.29 75.3936 47.2484C75.3521 47.2068 75.3238 47.1538 75.3123 47.0961C75.3009 47.0384 75.3068 46.9785 75.3292 46.9242C75.3517 46.8698 75.3898 46.8233 75.4386 46.7906C75.4875 46.7579 75.5449 46.7405 75.6037 46.7405C75.6824 46.7405 75.758 46.7718 75.8137 46.8276C75.8694 46.8834 75.9007 46.9591 75.9007 47.038Z" fill="white" stroke="#4C4C4C" stroke-linecap="round" stroke-linejoin="round"/>
<path d="M72.8655 47.038C72.8655 47.0969 72.8481 47.1544 72.8155 47.2033C72.7828 47.2523 72.7365 47.2904 72.6822 47.3129C72.6279 47.3355 72.5682 47.3413 72.5106 47.3299C72.453 47.3184 72.4 47.29 72.3585 47.2484C72.3169 47.2068 72.2887 47.1538 72.2772 47.0961C72.2657 47.0384 72.2716 46.9785 72.2941 46.9242C72.3166 46.8698 72.3546 46.8233 72.4035 46.7906C72.4523 46.7579 72.5098 46.7405 72.5685 46.7405C72.6473 46.7405 72.7228 46.7718 72.7785 46.8276C72.8342 46.8834 72.8655 46.9591 72.8655 47.038Z" fill="white" stroke="#4C4C4C" stroke-linecap="round" stroke-linejoin="round"/>
<path d="M72.6445 46.3291H75.6038" stroke="#4C4C4C" stroke-linecap="round" stroke-linejoin="round"/>
<path d="M36.5605 38.6258L37.525 44.1103H43.9203L45.1634 38.6258C45.1634 38.6258 44.0633 37.5238 44.1036 34.8936L43.3226 34.618C43.3226 34.618 43.5536 36.8736 40.7923 36.8736C38.031 36.8736 37.9467 34.8458 37.9467 34.8458L37.1656 35.1507C37.1656 35.1507 37.6643 37.3842 36.5605 38.6258Z" fill="#FF4B65" stroke="#4C4C4C" stroke-linecap="round" stroke-linejoin="round"/>
<path d="M42.7142 38.9601C42.2262 38.9171 41.7354 38.9171 41.2474 38.9601L40.8807 38.1299L40.5946 38.9895L39.2012 39.0629L40.327 39.7976C40.1326 40.3597 39.9419 40.8997 39.8576 41.0833C39.8576 41.0833 40.4186 40.694 41.042 40.2531L42.1421 40.9474L41.6398 39.8454C42.0243 39.584 42.384 39.2876 42.7142 38.9601Z" fill="#FF4B65" stroke="#4C4C4C" stroke-linecap="round" stroke-linejoin="round"/>
<path opacity="0.2" d="M76.9303 46.9778V46.983V48.8524H31.7134C31.5545 48.8524 31.402 48.7892 31.2894 48.6764C31.1767 48.5636 31.1133 48.4103 31.1133 48.2504V46.4177H76.3779C76.4508 46.4177 76.523 46.4322 76.5904 46.4603C76.6577 46.4885 76.7189 46.5298 76.7703 46.5818C76.8217 46.6338 76.8624 46.6956 76.8899 46.7636C76.9174 46.8316 76.9311 46.9044 76.9303 46.9778Z" fill="black" stroke="#4C4C4C"/>
</g>
<path d="M77.6951 30.0226H31.7141C31.1126 30.0226 30.625 30.511 30.625 31.1136V48.254C30.625 48.8566 31.1126 49.345 31.7141 49.345H77.6951C78.2966 49.345 78.7842 48.8566 78.7842 48.254V31.1136C78.7842 30.511 78.2966 30.0226 77.6951 30.0226Z" stroke="#4C4C4C" stroke-linecap="round" stroke-linejoin="round"/>
<path d="M78.2835 71.6319V88.776C78.2835 88.936 78.22 89.0892 78.1074 89.202C77.9948 89.3148 77.8422 89.3781 77.6833 89.3781H31.7134C31.5545 89.3781 31.402 89.3148 31.2894 89.202C31.1767 89.0892 31.1133 88.936 31.1133 88.776V71.6319C31.1133 71.472 31.1767 71.3188 31.2894 71.2059C31.402 71.0931 31.5545 71.0299 31.7134 71.0299H77.6915C77.8485 71.032 77.9987 71.0959 78.1095 71.208C78.2209 71.3207 78.2835 71.473 78.2835 71.6319Z" fill="white" stroke="#4C4C4C"/>
<mask id="mask2_789_360591" style="mask-type:luminance" maskUnits="userSpaceOnUse" x="30" y="70" width="49" height="20">
<path d="M78.2815 71.6319V88.776C78.2815 88.936 78.2181 89.0892 78.1054 89.202C77.9928 89.3148 77.8403 89.3781 77.6814 89.3781H31.7114C31.5526 89.3781 31.4 89.3148 31.2874 89.202C31.1748 89.0892 31.1113 88.936 31.1113 88.776V71.6319C31.1113 71.472 31.1748 71.3188 31.2874 71.2059C31.4 71.0931 31.5526 71.0299 31.7114 71.0299H77.6895C77.8466 71.032 77.9967 71.0959 78.1076 71.208C78.2189 71.3207 78.2815 71.473 78.2815 71.6319Z" fill="white" stroke="white"/>
</mask>
<g mask="url(#mask2_789_360591)">
<path d="M48.6248 72.7817H32.9629V87.6005H48.6248V72.7817Z" fill="white" stroke="#4C4C4C" stroke-linecap="round" stroke-linejoin="round"/>
<path d="M51.875 73.4319V73.4319C51.875 73.4121 51.8789 73.3925 51.8865 73.3742C51.894 73.3559 51.9051 73.3393 51.919 73.3254C51.9329 73.3115 51.9493 73.3005 51.9673 73.2931C51.9853 73.2856 52.0046 73.2817 52.0241 73.2817H66.0395C66.0787 73.2817 66.1166 73.2974 66.1446 73.3254L66.4984 72.9722L66.1446 73.3254C66.1726 73.3535 66.1885 73.3918 66.1885 73.4319C66.1885 73.4729 66.1724 73.512 66.1438 73.5408C66.1155 73.5693 66.0773 73.5854 66.0376 73.5858H52.026C51.9862 73.5854 51.948 73.5693 51.9197 73.5408C51.8912 73.512 51.875 73.4729 51.875 73.4319Z" fill="#263238" stroke="#4C4C4C"/>
<path d="M52.0241 76.1581H57.796C57.8775 76.1581 57.945 76.2245 57.945 76.3083V76.312C57.945 76.3957 57.8775 76.4622 57.796 76.4622H52.0241C51.9426 76.4622 51.875 76.3957 51.875 76.312V76.3083C51.875 76.2245 51.9426 76.1581 52.0241 76.1581Z" fill="#263238" stroke="#4C4C4C"/>
<path d="M36.9746 84.6581V85.2752H40.6416C40.6416 85.2752 41.7601 83.9564 42.3798 84.1181C42.9995 84.2797 42.9299 85.2752 42.9299 85.2752H43.865L44.173 84.6581L43.931 81.2711L36.9746 84.6581Z" fill="white" stroke="#4C4C4C" stroke-linecap="round" stroke-linejoin="round"/>
<path d="M36.9746 84.6581H40.4436C40.4436 84.6581 41.5437 83.6552 42.3542 83.3797C43.1646 83.1042 43.3919 84.6581 43.3919 84.6581H44.1803C44.1803 84.6581 44.8367 82.9316 44.8367 82.7222C44.8367 82.5128 44.217 79.541 44.217 77.605C44.217 77.605 42.1121 77.572 41.8334 77.9173C41.8334 77.9173 41.3861 77.2597 41.1 77.3295C41.2557 78.114 41.3136 78.9148 41.2724 79.7136C41.1697 80.7532 39.7542 82.4099 38.4084 82.8948C37.5393 83.2144 37.18 83.5524 36.9746 84.6581Z" fill="#FF4B65" stroke="#4C4C4C" stroke-linecap="round" stroke-linejoin="round"/>
<path d="M41.8358 77.9172C41.8358 77.9172 41.9055 79.956 41.8358 80.3711C41.7661 80.7862 39.9399 82.825 39.7676 82.8948" stroke="#4C4C4C" stroke-linecap="round" stroke-linejoin="round"/>
<path d="M41.2891 78.707H42.1802" stroke="#4C4C4C" stroke-linecap="round" stroke-linejoin="round"/>
<path d="M41.2871 79.7136L42.1819 79.5776" stroke="#4C4C4C" stroke-linecap="round" stroke-linejoin="round"/>
<path d="M41.0332 80.4078L42.181 80.5438" stroke="#4C4C4C" stroke-linecap="round" stroke-linejoin="round"/>
<path d="M40.6523 80.9919L41.7378 81.2711" stroke="#4C4C4C" stroke-linecap="round" stroke-linejoin="round"/>
<path d="M40.168 81.598L41.0334 82.1013" stroke="#4C4C4C" stroke-linecap="round" stroke-linejoin="round"/>
<path d="M38.4231 82.8948C38.7421 83.0662 39.0094 83.3203 39.1971 83.6304C39.3848 83.9405 39.486 84.2954 39.4902 84.658H36.9746C37.0368 84.2613 37.204 83.8885 37.4587 83.5785C37.7135 83.2684 38.0464 83.0323 38.4231 82.8948Z" fill="white" stroke="#4C4C4C" stroke-linecap="round" stroke-linejoin="round"/>
<path d="M43.6735 82.0352C43.6735 82.1218 43.6478 82.2065 43.5997 82.2784C43.5516 82.3504 43.4832 82.4064 43.4033 82.4394C43.3233 82.4724 43.2354 82.4808 43.1507 82.4636C43.0659 82.4465 42.9882 82.4045 42.9273 82.343C42.8664 82.2815 42.8251 82.2032 42.8087 82.1182C42.7923 82.0331 42.8015 81.9451 42.8351 81.8653C42.8687 81.7855 42.9252 81.7175 42.9974 81.6699C43.0696 81.6223 43.1544 81.5973 43.2408 81.598C43.298 81.598 43.3545 81.6094 43.4073 81.6314C43.46 81.6534 43.5079 81.6857 43.5481 81.7263C43.5883 81.7669 43.6201 81.8152 43.6417 81.8682C43.6632 81.9212 43.674 81.9779 43.6735 82.0352Z" fill="white" stroke="#4C4C4C" stroke-linecap="round" stroke-linejoin="round"/>
<path opacity="0.2" d="M31.1113 77.634V78.134H76.3759C76.514 78.1345 76.6507 78.1076 76.7784 78.0551C76.9061 78.0025 77.0221 77.9252 77.1199 77.8276M31.1113 77.634H76.3759H76.3777C76.4498 77.6342 76.5213 77.6202 76.588 77.5927C76.6547 77.5653 76.7155 77.5248 76.7667 77.4737L77.1199 77.8276M31.1113 77.634V71.6319C31.1113 71.472 31.1748 71.3188 31.2874 71.2059C31.4 71.0931 31.5526 71.0299 31.7114 71.0299H76.9284M31.1113 77.634H30.6113V71.6319C30.6113 71.3397 30.7272 71.0594 30.9335 70.8527C31.1399 70.646 31.4197 70.5299 31.7114 70.5299H76.9284V71.0299M77.1199 77.8276L76.7667 77.4737C76.8179 77.4226 76.8585 77.3618 76.8863 77.2948C76.9141 77.2278 76.9284 77.156 76.9284 77.0834V71.0299M77.1199 77.8276C77.2177 77.73 77.2953 77.614 77.3482 77.4863C77.4011 77.3586 77.4284 77.2216 77.4284 77.0834V71.0299H76.9284" fill="black" stroke="#4C4C4C"/>
</g>
<path d="M78.7835 71.6319V88.776C78.7835 89.0683 78.6676 89.3486 78.4612 89.5553C78.2549 89.762 77.9751 89.8781 77.6833 89.8781H31.7134C31.4216 89.8781 31.1418 89.762 30.9355 89.5553C30.7292 89.3486 30.6133 89.0683 30.6133 88.776V71.6319C30.6133 71.3397 30.7292 71.0594 30.9355 70.8527C31.1418 70.646 31.4216 70.5299 31.7134 70.5299H77.6944C77.9842 70.5328 78.2612 70.6502 78.4651 70.8566C78.6691 71.0629 78.7835 71.3416 78.7835 71.6319Z" stroke="#4C4C4C" stroke-linecap="round" stroke-linejoin="round"/>
<path d="M77.6951 90.7817H31.7141C31.1126 90.7817 30.625 91.2702 30.625 91.8728V109.013C30.625 109.616 31.1126 110.104 31.7141 110.104H77.6951C78.2966 110.104 78.7842 109.616 78.7842 109.013V91.8728C78.7842 91.2702 78.2966 90.7817 77.6951 90.7817Z" fill="white" stroke="#4C4C4C" stroke-linecap="round" stroke-linejoin="round"/>
<path d="M48.6248 93.0336H32.9629V107.852H48.6248V93.0336Z" fill="white" stroke="#4C4C4C" stroke-linecap="round" stroke-linejoin="round"/>
<path d="M51.875 93.6874V93.6874C51.875 93.6465 51.8912 93.6074 51.9197 93.5786C51.948 93.5501 51.9862 93.534 52.026 93.5336H66.0376C66.0773 93.534 66.1155 93.5501 66.1438 93.5786C66.1724 93.6074 66.1885 93.6465 66.1885 93.6874C66.1885 93.7276 66.1726 93.7659 66.1446 93.794L66.4984 94.1472L66.1446 93.794C66.1165 93.822 66.0787 93.8377 66.0395 93.8377H52.0241C52.0046 93.8377 51.9853 93.8338 51.9673 93.8263C51.9493 93.8189 51.9329 93.8079 51.919 93.794C51.9051 93.78 51.894 93.7635 51.8865 93.7452C51.8789 93.7269 51.875 93.7073 51.875 93.6874Z" fill="#263238" stroke="#4C4C4C"/>
<path d="M51.875 96.5638V96.5638C51.875 96.5228 51.8912 96.4837 51.9197 96.455C51.948 96.4265 51.9862 96.4104 52.026 96.4099H57.7904C57.8302 96.4104 57.8683 96.4264 57.8966 96.455C57.9252 96.4837 57.9414 96.5228 57.9414 96.5638C57.9414 96.6039 57.9255 96.6422 57.8974 96.6703C57.8694 96.6984 57.8316 96.714 57.7923 96.714H52.0241C51.9848 96.714 51.947 96.6984 51.919 96.6703L51.5651 97.0236L51.919 96.6703C51.8909 96.6422 51.875 96.6039 51.875 96.5638Z" fill="#263238" stroke="#4C4C4C"/>
<path d="M42.1836 97.7577C42.1836 97.7577 42.7447 94.8189 44.0868 95.921C46.3603 97.7577 44.5195 103.213 44.5195 103.213" stroke="#4C4C4C" stroke-linecap="round" stroke-linejoin="round"/>
<path d="M39.1836 97.7577C39.1836 97.7577 38.6593 95.7557 37.4051 95.8586C36.151 95.9614 35.0436 100.065 36.5617 103.749" stroke="#4C4C4C" stroke-linecap="round" stroke-linejoin="round"/>
<path d="M39.4922 96.8099C39.5564 96.5623 39.6977 96.3417 39.8955 96.1799C40.0932 96.0181 40.3373 95.9235 40.5923 95.9099C40.8397 95.9154 41.0771 96.009 41.2619 96.174C41.4467 96.3389 41.5668 96.5643 41.6007 96.8099" stroke="#4C4C4C" stroke-linecap="round" stroke-linejoin="round"/>
<path d="M37.892 96.8356L43.2422 96.7438V97.9707C43.2422 97.9707 45.6001 103.396 44.9584 104.583C44.3166 105.769 36.6049 106.096 36.2822 104.374C35.9595 102.651 38.0313 98.2242 38.0313 98.2242L37.892 96.8356Z" fill="#FF4B65" stroke="#4C4C4C" stroke-linecap="round" stroke-linejoin="round"/>
<path d="M38.0311 98.2205C38.0311 98.2205 37.8917 100.425 38.6765 100.847C39.4612 101.269 42.4242 101.306 42.8055 100.663C43.1869 100.02 43.2419 97.9707 43.2419 97.9707" stroke="#4C4C4C" stroke-linecap="round" stroke-linejoin="round"/>
<path d="M38.0248 101.754C38.0248 101.754 39.7226 102.214 40.5917 102.078C40.5917 102.078 40.39 104.612 39.9757 104.612C39.5613 104.612 37.5848 104.689 37.4454 104.245C37.3061 103.801 37.6764 102.177 37.6764 102.177" stroke="#4C4C4C" stroke-linecap="round" stroke-linejoin="round"/>
<path d="M43.6746 101.754C42.897 101.969 42.0971 102.093 41.291 102.122C41.291 102.122 41.291 103.958 41.6101 104.363C41.9291 104.767 43.7369 104.546 44.012 104.116C44.287 103.687 43.6746 102.261 43.6746 102.261" stroke="#4C4C4C" stroke-linecap="round" stroke-linejoin="round"/>
<path d="M41.1451 100.215C41.1459 100.298 41.1221 100.378 41.0768 100.447C41.0316 100.516 40.9669 100.57 40.891 100.602C40.8152 100.634 40.7316 100.642 40.6508 100.626C40.5701 100.61 40.4959 100.571 40.4378 100.512C40.3796 100.454 40.3401 100.38 40.3242 100.299C40.3083 100.218 40.3168 100.134 40.3486 100.058C40.3805 99.9824 40.4341 99.9176 40.5028 99.8723C40.5716 99.8269 40.6522 99.8031 40.7344 99.8038C40.7884 99.8038 40.8418 99.8145 40.8916 99.8352C40.9414 99.8558 40.9867 99.8861 41.0248 99.9244C41.063 99.9626 41.0932 100.008 41.1139 100.058C41.1345 100.108 41.1451 100.161 41.1451 100.215Z" stroke="#4C4C4C" stroke-linecap="round" stroke-linejoin="round"/>
<path d="M74.7599 46.7957H15.6106C15.0091 46.7957 14.5215 47.2841 14.5215 47.8867V70.3095C14.5215 70.9121 15.0091 71.4005 15.6106 71.4005H74.7599C75.3614 71.4005 75.849 70.9121 75.849 70.3095V47.8867C75.849 47.2841 75.3614 46.7957 74.7599 46.7957Z" fill="white" stroke="#4C4C4C" stroke-linecap="round" stroke-linejoin="round"/>
<path d="M37.4413 49.661H17.5V68.5316H37.4413V49.661Z" fill="white" stroke="#4C4C4C" stroke-linecap="round" stroke-linejoin="round"/>
<path d="M41.6293 50.161H59.7702C59.8699 50.161 59.9522 50.2422 59.9522 50.3443V50.6382C59.9522 50.7402 59.8699 50.8214 59.7702 50.8214H41.6293C41.5296 50.8214 41.4473 50.7402 41.4473 50.6382V50.3443C41.4473 50.2422 41.5296 50.161 41.6293 50.161Z" fill="#263238" stroke="#4C4C4C"/>
<path d="M41.4814 53.8694C41.5032 53.8476 41.5299 53.8319 41.5588 53.8234H41.6135H49.2482C49.272 53.8234 49.2956 53.8281 49.3176 53.8372L49.5089 53.3764L49.3176 53.8372C49.3397 53.8464 49.3597 53.8598 49.3767 53.8768C49.3936 53.8937 49.4071 53.9139 49.4163 53.9362C49.4255 53.9585 49.4303 53.9825 49.4303 54.0067V54.2969C49.4303 54.3467 49.4105 54.3944 49.3756 54.4294L49.7295 54.7826L49.3756 54.4294C49.3407 54.4643 49.2936 54.4838 49.2446 54.4838H41.6135C41.5892 54.4838 41.5651 54.479 41.5427 54.4697L41.3559 54.9199L41.5427 54.4697C41.5202 54.4604 41.4997 54.4467 41.4824 54.4294C41.4652 54.412 41.4514 54.3914 41.442 54.3687C41.4326 54.346 41.4277 54.3215 41.4277 54.2969V53.9993C41.4277 53.9504 41.4471 53.9037 41.4814 53.8694Z" fill="#263238" stroke="#4C4C4C"/>
<path d="M24.3319 52.4785H30.5109L30.6576 53.7679L35.3477 62.7495C35.3477 62.7495 34.937 65.0271 33.8222 64.241C32.7074 63.4548 32.1244 66.243 30.5989 65.5524C29.0734 64.8618 28.307 66.4708 26.5651 66.0189C24.8233 65.5671 24.3136 65.6957 23.4335 66.0997C22.5534 66.5038 21.7943 64.421 21.0903 64.5532C20.3862 64.6854 19.6895 63.4512 19.6895 63.4512L24.0202 54.2969L24.3319 52.4785Z" fill="#FF4B65" stroke="#4C4C4C" stroke-linecap="round" stroke-linejoin="round"/>
<path d="M24.8008 53.7679H29.898" stroke="#4C4C4C" stroke-linecap="round" stroke-linejoin="round"/>
<path d="M27.3459 53.0956H27.1407C27.1407 53.1509 27.1625 53.204 27.2014 53.2432C27.2015 53.2434 27.2017 53.2435 27.2019 53.2437C27.2393 53.2812 27.2894 53.303 27.3421 53.3049C27.3446 53.305 27.3472 53.305 27.3497 53.305M27.3459 53.0956L27.3527 53.0921M27.3459 53.0956H27.3461M27.3459 53.0956H27.3461M27.3497 53.305C27.3761 53.3046 27.402 53.2992 27.4261 53.2894C27.4522 53.2788 27.4762 53.263 27.4964 53.2427C27.4966 53.2425 27.4968 53.2423 27.497 53.2421C27.5172 53.2217 27.533 53.1975 27.5435 53.1713C27.553 53.1474 27.5583 53.1218 27.5587 53.0956M27.3497 53.305L27.3462 53.0997M27.3497 53.305V53.1004V53.0962L27.3462 53.0997M27.5587 53.0956C27.5587 53.0931 27.5587 53.0906 27.5586 53.0881C27.5567 53.0356 27.5351 52.9855 27.498 52.9481C27.4978 52.9479 27.4977 52.9478 27.4975 52.9476C27.4583 52.9083 27.4051 52.8863 27.3497 52.8863V53.0919V53.0921L27.3527 53.0921M27.5587 53.0956L27.3537 53.0921L27.3527 53.0921M27.5587 53.0956H27.3558H27.3502L27.3527 53.0921M27.3461 53.0956L27.3461 53.0987M27.3461 53.0956L27.3458 53.099L27.3461 53.0987M27.3461 53.0987L27.3462 53.0997M27.3461 53.0987L27.3462 53.0997M27.346 53.092L27.346 53.092L27.346 53.092L27.3455 53.092L27.3442 53.092L27.1407 53.0885C27.1411 53.0633 27.1461 53.0384 27.1556 53.0149C27.1658 52.9895 27.181 52.9664 27.2003 52.947C27.2004 52.9468 27.2006 52.9467 27.2008 52.9465C27.2203 52.9269 27.2435 52.9115 27.2691 52.9012C27.2925 52.8917 27.3174 52.8867 27.3425 52.8863L27.346 53.0901L27.346 53.0914L27.346 53.0915L27.346 53.0917L27.346 53.092Z" fill="#263238" stroke="#4C4C4C"/>
<path d="M21.9219 63.3556C21.9219 63.3556 23.4584 59.3956 23.7004 58.4919" stroke="#4C4C4C" stroke-linecap="round" stroke-linejoin="round"/>
<path d="M26.762 62.3382C26.784 60.7953 26.7987 59.1312 26.7987 59.1312L26.7363 62.3345L26.762 62.3382Z" fill="white" stroke="#4C4C4C" stroke-linecap="round" stroke-linejoin="round"/>
<path d="M26.7188 63.3188L26.6895 64.8984C26.7115 64.7515 26.7298 64.1197 26.7445 63.3225L26.7188 63.3188Z" fill="white" stroke="#4C4C4C" stroke-linecap="round" stroke-linejoin="round"/>
<path d="M31.0391 64.1491C31.0391 64.0609 29.6126 59.087 29.5723 58.4919L31.0391 64.1491Z" fill="white"/>
<path d="M31.0391 64.1491C31.0391 64.0609 29.6126 59.087 29.5723 58.4919" stroke="#4C4C4C" stroke-linecap="round" stroke-linejoin="round"/>
<path d="M32.0385 58.492L31.5215 57.2394L32.0385 58.492Z" fill="white"/>
<path d="M32.0385 58.492L31.5215 57.2394" stroke="#4C4C4C" stroke-linecap="round" stroke-linejoin="round"/>
<path d="M33.8519 62.8745C33.3972 61.77 32.9401 60.668 32.4805 59.5684L33.8519 62.8745Z" fill="white"/>
<path d="M33.8519 62.8745C33.3972 61.77 32.9401 60.668 32.4805 59.5684" stroke="#4C4C4C" stroke-linecap="round" stroke-linejoin="round"/>
<path d="M24.0312 57.6361L24.3173 56.9749" stroke="#4C4C4C" stroke-linecap="round" stroke-linejoin="round"/>
<path d="M81.8106 32.2157H81.8106L81.8105 32.2127C81.8105 32.1967 81.8135 32.1809 81.8195 32.1661C81.8255 32.1514 81.8343 32.138 81.8454 32.1268C81.8565 32.1155 81.8697 32.1066 81.8841 32.1005C81.8976 32.0948 81.912 32.0917 81.9266 32.0912C81.9569 32.0922 81.9859 32.1047 82.0076 32.1265C82.0299 32.1491 82.0427 32.1798 82.0427 32.212V32.212V109.834C82.0423 109.865 82.0298 109.894 82.0081 109.916C81.9863 109.937 81.957 109.95 81.9266 109.95C81.8961 109.95 81.8667 109.937 81.8449 109.916L81.4912 110.269L81.8449 109.915C81.823 109.894 81.8106 109.864 81.8106 109.832V32.2157Z" fill="#263238" stroke="#4C4C4C"/>
<path d="M81.9252 37.7112C81.5981 37.7112 81.2843 37.5812 81.0527 37.3499C80.821 37.1185 80.6904 36.8046 80.6895 36.4769V31.2605C80.6895 30.9322 80.8197 30.6173 81.0514 30.3852C81.2832 30.153 81.5975 30.0226 81.9252 30.0226C82.2524 30.0236 82.5657 30.1544 82.7967 30.3865C83.0277 30.6185 83.1574 30.9328 83.1574 31.2605V36.4769C83.1564 36.8039 83.0263 37.1173 82.7954 37.3486C82.5646 37.5798 82.2517 37.7102 81.9252 37.7112Z" fill="white" stroke="#4C4C4C" stroke-linecap="round" stroke-linejoin="round"/>
</svg>
