<svg width="394" height="394" viewBox="0 0 394 394" fill="none" xmlns="http://www.w3.org/2000/svg">
<path d="M321.93 164.54V137.676C321.93 133.965 318.922 130.96 315.214 130.96C311.507 130.96 308.499 133.965 308.499 137.676V164.54H277.158V137.676C277.158 133.965 274.149 130.96 270.442 130.96C266.735 130.96 263.726 133.965 263.726 137.676V164.54H252.533V193.642C252.533 213.57 267.084 230.118 286.112 233.329V323.483C286.112 354.958 260.502 380.568 229.027 380.568H175.3C157.4 380.568 142.839 366.008 142.839 348.108V304.114C180.435 300.707 209.999 269.048 209.999 230.58V78.3523H62.2485V230.58C62.2485 269.048 91.812 300.707 129.408 304.114V348.108C129.408 373.414 149.994 394 175.3 394H229.027C267.912 394 299.544 362.368 299.544 323.483V233.329C318.572 230.118 333.124 213.57 333.124 193.642V164.54H321.93ZM96.9474 114.17C96.9474 110.463 99.9561 107.455 103.663 107.455H170.822C174.53 107.455 177.538 110.463 177.538 114.17C177.538 117.878 174.53 120.886 170.822 120.886H103.663C99.9561 120.886 96.9474 117.878 96.9474 114.17ZM112.618 219.386V174.614C112.618 164.737 120.65 156.705 130.527 156.705H141.72C151.597 156.705 159.629 164.737 159.629 174.614V219.386C159.629 229.263 151.597 237.296 141.72 237.296H130.527C120.65 237.296 112.618 229.263 112.618 219.386Z" fill="#546DFE"/>
<path d="M146.198 174.613C146.198 172.146 144.187 170.136 141.72 170.136H130.527C128.06 170.136 126.05 172.146 126.05 174.613V179.091H146.198V174.613Z" fill="#546DFE"/>
<path d="M141.72 223.864C144.187 223.864 146.198 221.858 146.198 219.386V192.523H126.05V219.386C126.05 221.858 128.06 223.864 130.527 223.864H141.72Z" fill="#546DFE"/>
<path d="M79.0385 69.3977H190.97C200.843 69.3977 208.879 61.361 208.879 51.4886V17.9091C208.879 8.03671 200.843 0 190.97 0H187.612V31.3409C187.612 35.0481 184.604 38.0568 180.896 38.0568C177.189 38.0568 174.181 35.0481 174.181 31.3409V0H165.226V31.3409C165.226 35.0481 162.217 38.0568 158.51 38.0568C154.803 38.0568 151.794 35.0481 151.794 31.3409V0H141.72V31.3409C141.72 35.0481 138.712 38.0568 135.004 38.0568C131.297 38.0568 128.288 35.0481 128.288 31.3409V0H120.453V31.3409C120.453 35.0481 117.445 38.0568 113.737 38.0568C110.03 38.0568 107.021 35.0481 107.021 31.3409V0H98.0669V31.3409C98.0669 35.0481 95.0582 38.0568 91.351 38.0568C87.6438 38.0568 84.6351 35.0481 84.6351 31.3409V0H79.0385C69.1661 0 61.1294 8.03671 61.1294 17.9091V51.4886C61.1294 61.361 69.1661 69.3977 79.0385 69.3977Z" fill="#546DFE"/>
</svg>
