<svg width="394" height="394" viewBox="0 0 394 394" fill="none" xmlns="http://www.w3.org/2000/svg">
<path d="M42.7965 49.2801C42.7965 47.4143 43.5377 45.6249 44.8571 44.3056C46.1764 42.9862 47.9658 42.245 49.8316 42.245H51.6523C53.2421 42.2241 54.779 41.6705 56.0171 40.6729C57.2551 39.6753 58.1228 38.2912 58.4813 36.7422C60.6845 28.3591 65.0605 20.7057 71.1675 14.5547C77.2745 8.40366 84.8963 3.97277 93.2633 1.70933C101.63 -0.554099 110.446 -0.569939 118.822 1.66342C127.197 3.89677 134.834 8.30026 140.963 14.4293C147.092 20.5583 151.496 28.196 153.729 36.5711C155.963 44.9462 155.947 53.7623 153.683 62.1293C151.42 70.4963 146.989 78.1181 140.838 84.225C134.687 90.332 127.033 94.708 118.65 96.9113C117.101 97.2698 115.717 98.1374 114.72 99.3755C113.722 100.614 113.168 102.15 113.148 103.74V141.448C121.091 143.07 128.23 147.387 133.357 153.667C138.485 159.947 141.285 167.805 141.285 175.913C141.285 184.02 138.485 191.878 133.357 198.159C128.23 204.439 121.091 208.755 113.148 210.377V243.35L141.288 271.491L106.112 306.666L70.9369 271.491L99.0773 243.35V210.377C91.1339 208.755 83.9947 204.439 78.8675 198.159C73.7402 191.878 70.9397 184.02 70.9397 175.913C70.9397 167.805 73.7402 159.947 78.8675 153.667C83.9947 147.387 91.1339 143.07 99.0773 141.448V103.74C99.1145 99.0459 100.704 94.4959 103.599 90.7999C106.493 87.1038 110.529 84.4697 115.078 83.3082C123.849 80.9443 131.377 75.3015 136.106 67.5457C140.836 59.7899 142.405 50.5137 140.491 41.6337C139.068 35.0832 135.791 29.0801 131.051 24.3402C126.311 19.6002 120.308 16.3234 113.757 14.9003C104.878 12.9958 95.6067 14.5697 87.8534 19.2977C80.1 24.0256 74.4555 31.5474 72.0829 40.3132C70.9218 44.8618 68.288 48.8982 64.5922 51.7929C60.8965 54.6875 56.3466 56.2776 51.6523 56.3152H49.8316C47.9658 56.3152 46.1764 55.574 44.8571 54.2547C43.5377 52.9354 42.7965 51.146 42.7965 49.2801ZM151.236 281.438L111.086 321.588C110.433 322.241 109.658 322.76 108.804 323.113C107.951 323.467 107.036 323.649 106.112 323.649C105.189 323.649 104.274 323.467 103.42 323.113C102.567 322.76 101.792 322.241 101.139 321.588L60.9886 281.438L30.7876 311.64C30.1341 312.293 29.6156 313.068 29.2619 313.922C28.9081 314.775 28.7261 315.69 28.7261 316.614C28.7261 317.538 28.9081 318.453 29.2619 319.306C29.6156 320.159 30.1341 320.935 30.7876 321.588L101.139 391.939C101.792 392.592 102.567 393.111 103.42 393.464C104.274 393.818 105.189 394 106.112 394C107.036 394 107.951 393.818 108.804 393.464C109.658 393.111 110.433 392.592 111.086 391.939L181.437 321.588C182.091 320.935 182.609 320.159 182.963 319.306C183.317 318.453 183.499 317.538 183.499 316.614C183.499 315.69 183.317 314.775 182.963 313.922C182.609 313.068 182.091 312.293 181.437 311.64L151.236 281.438ZM232.744 56.3152H234.565C239.259 56.278 243.809 54.6882 247.505 51.7938C251.201 48.8994 253.836 44.8632 254.997 40.3146C257.37 31.5488 263.014 24.027 270.767 19.2991C278.521 14.5711 287.792 12.9972 296.671 14.9017C303.222 16.3248 309.225 19.6016 313.965 24.3416C318.705 29.0815 321.982 35.0846 323.405 41.6351C325.32 50.5151 323.75 59.7913 319.021 67.5471C314.291 75.3029 306.763 80.9457 297.992 83.3096C293.443 84.4707 289.407 87.1046 286.512 90.8003C283.618 94.4961 282.028 99.046 281.99 103.74V141.448C274.047 143.07 266.907 147.387 261.78 153.667C256.653 159.947 253.852 167.805 253.852 175.913C253.852 184.02 256.653 191.878 261.78 198.159C266.907 204.439 274.047 208.755 281.99 210.377V243.35L253.85 271.491L289.025 306.666L324.201 271.491L296.06 243.35V210.377C304.004 208.755 311.143 204.439 316.27 198.159C321.397 191.878 324.198 184.02 324.198 175.913C324.198 167.805 321.397 159.947 316.27 153.667C311.143 147.387 304.004 143.07 296.06 141.448V103.74C296.081 102.15 296.635 100.614 297.632 99.3755C298.63 98.1374 300.014 97.2698 301.563 96.9113C309.946 94.7085 317.6 90.3329 323.751 84.2262C329.902 78.1195 334.334 70.498 336.597 62.1311C338.861 53.7642 338.877 44.9481 336.644 36.5729C334.411 28.1978 330.008 20.56 323.879 14.4308C317.75 8.3016 310.113 3.89792 301.738 1.66438C293.363 -0.569163 284.547 -0.553498 276.18 1.70979C267.813 3.97308 260.191 8.40388 254.084 14.5548C247.977 20.7058 243.601 28.3591 241.397 36.7422C241.039 38.2918 240.171 39.6763 238.932 40.674C237.693 41.6717 236.155 42.2249 234.565 42.245H232.744C230.878 42.245 229.089 42.9862 227.77 44.3056C226.45 45.6249 225.709 47.4143 225.709 49.2801C225.709 51.146 226.45 52.9354 227.77 54.2547C229.089 55.574 230.878 56.3152 232.744 56.3152ZM364.35 311.64L334.149 281.438L293.999 321.588C293.346 322.241 292.57 322.76 291.717 323.113C290.864 323.467 289.949 323.649 289.025 323.649C288.101 323.649 287.186 323.467 286.333 323.113C285.48 322.76 284.704 322.241 284.051 321.588L243.901 281.438L213.7 311.64C213.047 312.293 212.528 313.068 212.174 313.922C211.821 314.775 211.639 315.69 211.639 316.614C211.639 317.538 211.821 318.453 212.174 319.306C212.528 320.159 213.047 320.935 213.7 321.588L284.051 391.939C284.704 392.592 285.48 393.111 286.333 393.464C287.186 393.818 288.101 394 289.025 394C289.949 394 290.864 393.818 291.717 393.464C292.57 393.111 293.346 392.592 293.999 391.939L364.35 321.588C365.003 320.935 365.522 320.159 365.876 319.306C366.229 318.453 366.411 317.538 366.411 316.614C366.411 315.69 366.229 314.775 365.876 313.922C365.522 313.068 365.003 312.293 364.35 311.64Z" fill="#546DFE"/>
</svg>
