<svg width="394" height="394" viewBox="0 0 394 394" fill="none" xmlns="http://www.w3.org/2000/svg">
<g clip-path="url(#clip0_288_689)">
<path d="M232.706 160.907C232.706 165.771 230.613 171.804 227.412 178.145C217.562 176.298 207.343 175.374 197.001 175.374C186.658 175.374 176.438 176.298 166.527 178.145C163.325 171.804 161.232 165.771 161.232 160.907C161.232 141.207 177.239 125.201 197.001 125.201C216.7 125.201 232.706 141.207 232.706 160.907Z" fill="#546DFE"/>
<path d="M359.278 338.207H34.6593C40.9388 253.989 111.182 187.686 197 187.686C282.756 187.686 352.999 253.989 359.278 338.207Z" fill="#546DFE"/>
<path d="M21.6084 393.737C9.66531 393.737 0 384.071 0 372.128C0 366.157 2.40094 360.739 6.34094 356.861C10.2194 352.921 15.6369 350.52 21.6084 350.52H372.33C384.273 350.52 394 360.185 394 372.128C394 384.071 384.273 393.737 372.33 393.737H21.6084Z" fill="#546DFE"/>
<path d="M196.969 -0.236755L212.676 31.5893L247.798 36.6928L222.384 61.4659L228.383 96.4461L196.969 79.9307L165.555 96.4461L171.555 61.4659L146.14 36.6928L181.262 31.5893L196.969 -0.236755Z" fill="#546DFE"/>
<path d="M328.468 74.9578L344.175 106.784L379.297 111.887L353.882 136.66L359.882 171.641L328.468 155.125L297.053 171.641L303.053 136.66L277.638 111.887L312.761 106.784L328.468 74.9578Z" fill="#546DFE"/>
<path d="M65.4726 74.9578L81.1797 106.784L116.302 111.887L90.8872 136.66L96.8868 171.641L65.4726 155.125L34.0584 171.641L40.058 136.66L14.6434 111.887L49.7655 106.784L65.4726 74.9578Z" fill="#546DFE"/>
</g>
<defs>
<clipPath id="clip0_288_689">
<rect width="394" height="394" fill="white"/>
</clipPath>
</defs>
</svg>
