<svg width="394" height="394" viewBox="0 0 394 394" fill="none" xmlns="http://www.w3.org/2000/svg">
<g clip-path="url(#clip0_288_713)">
<path d="M288.667 227.781H311.629L272.722 288.482L288.667 227.781ZM226.304 27.4567C224.295 21.2661 220.378 15.8705 215.114 12.0438C209.849 8.2172 203.508 6.15606 197 6.15606C190.492 6.15606 184.151 8.2172 178.886 12.0438C173.622 15.8705 169.705 21.2661 167.696 27.4567C187.05 23.6807 206.95 23.6807 226.304 27.4567ZM350.906 184.687H43.0937C41.4624 184.692 39.8994 185.342 38.7459 186.496C37.5925 187.649 36.9423 189.212 36.9374 190.844V215.469H357.063V190.844C357.058 189.212 356.408 187.649 355.254 186.496C354.101 185.342 352.538 184.692 350.906 184.687ZM264.719 141.594C266.352 141.594 267.917 142.242 269.072 143.397C270.226 144.551 270.875 146.117 270.875 147.75C270.875 149.383 270.226 150.948 269.072 152.103C267.917 153.258 266.352 153.906 264.719 153.906H57.6224C56.5069 160.006 55.828 166.178 55.5909 172.375H338.409C338.172 166.178 337.493 160.006 336.378 153.906H289.344C287.711 153.906 286.145 153.258 284.991 152.103C283.836 150.948 283.188 149.383 283.188 147.75C283.188 146.117 283.836 144.551 284.991 143.397C286.145 142.242 287.711 141.594 289.344 141.594H333.607C325.51 111.558 307.739 85.0274 283.044 66.1087C258.35 47.19 228.108 36.9374 197 36.9374C165.892 36.9374 135.65 47.19 110.956 66.1087C86.2612 85.0274 68.4903 111.558 60.3928 141.594H264.719ZM390.6 37.5899L388.676 36.625C382.348 33.4654 376.778 28.9722 372.352 23.4546C367.926 17.9369 364.747 11.5258 363.036 4.66231C362.702 3.33052 361.934 2.14832 360.851 1.30357C359.769 0.458828 358.436 0 357.063 0C355.69 0 354.357 0.458828 353.274 1.30357C352.192 2.14832 351.423 3.33052 351.09 4.66231C349.378 11.5264 346.199 17.9381 341.772 23.4563C337.345 28.9744 331.775 33.468 325.446 36.628L323.525 37.5899C322.503 38.1014 321.644 38.8871 321.044 39.8592C320.443 40.8312 320.125 41.9513 320.125 43.0938C320.125 44.2364 320.443 45.3564 321.044 46.3285C321.644 47.3005 322.503 48.0863 323.525 48.5978L325.449 49.5627C331.778 52.7222 337.347 57.2154 341.773 62.7331C346.2 68.2508 349.378 74.6619 351.09 81.5253C351.423 82.8571 352.192 84.0393 353.274 84.8841C354.356 85.7288 355.69 86.1876 357.063 86.1876C358.436 86.1876 359.769 85.7288 360.851 84.8841C361.933 84.0393 362.702 82.8571 363.035 81.5253C364.748 74.6612 367.927 68.2496 372.353 62.7314C376.78 57.2132 382.35 52.7196 388.68 49.5597L390.6 48.5978C391.622 48.0863 392.481 47.3005 393.082 46.3285C393.682 45.3564 394 44.2364 394 43.0938C394 41.9513 393.682 40.8312 393.082 39.8592C392.481 38.8871 391.622 38.1014 390.6 37.5899ZM42.9103 112.306C44.6225 105.442 47.8014 99.0306 52.2282 93.5124C56.6551 87.9943 62.2249 83.5006 68.5544 80.3407L70.4751 79.3788C71.4968 78.8673 72.356 78.0816 72.9564 77.1095C73.5569 76.1374 73.8749 75.0174 73.8749 73.8748C73.8749 72.7323 73.5569 71.6123 72.9564 70.6402C72.356 69.6681 71.4968 68.8824 70.4751 68.3709L68.5513 67.406C62.2224 64.2464 56.6532 59.7532 52.2269 54.2356C47.8006 48.7179 44.6222 42.3068 42.9105 35.4433C42.5772 34.1115 41.8084 32.9293 40.7262 32.0846C39.644 31.2398 38.3105 30.781 36.9376 30.781C35.5648 30.781 34.2313 31.2398 33.1491 32.0846C32.0669 32.9293 31.2981 34.1115 30.9648 35.4433C29.2526 42.3074 26.0737 48.7191 21.6467 54.2373C17.2198 59.7555 11.65 64.2491 5.32052 67.409L3.39977 68.3709C2.37808 68.8824 1.51892 69.6681 0.918471 70.6402C0.318025 71.6123 0 72.7323 0 73.8748C0 75.0174 0.318025 76.1374 0.918471 77.1095C1.51892 78.0816 2.37808 78.8673 3.39977 79.3788L5.3236 80.3437C11.6524 83.5033 17.2216 87.9965 21.648 93.5141C26.0743 99.0318 29.2527 105.443 30.9644 112.306C31.2977 113.638 32.0665 114.82 33.1487 115.665C34.2309 116.51 35.5644 116.969 36.9373 116.969C38.3101 116.969 39.6436 116.51 40.7258 115.665C41.808 114.82 42.577 113.638 42.9103 112.306ZM61.5625 357.305V387.844C61.5625 389.476 62.2111 391.042 63.3656 392.197C64.5201 393.351 66.086 394 67.7187 394H190.844C192.477 394 194.042 393.351 195.197 392.197C196.351 391.042 197 389.476 197 387.844V376.883L68.926 351.268C68.0329 351.09 67.1112 351.112 66.2275 351.332C65.3438 351.553 64.5201 351.967 63.8157 352.544C63.1113 353.122 62.5438 353.848 62.1542 354.672C61.7645 355.495 61.5624 356.394 61.5625 357.305ZM232.029 227.781C230.71 229.648 229.635 231.676 228.828 233.814L206.604 291.56C206.151 292.713 205.364 293.703 204.344 294.406C203.324 295.108 202.117 295.489 200.878 295.5H182.656C181.323 295.507 180.024 295.074 178.962 294.269L161.355 281.094C160.132 280.18 159.297 278.84 159.016 277.339L152.552 245.142C151.266 238.669 148.244 232.668 143.81 227.781H93.6981C93.6884 228.588 93.7711 229.394 93.9443 230.182L103.917 279.986C96.5921 284.522 90.5506 290.858 86.3692 298.391C82.1877 305.924 80.0057 314.403 80.0312 323.018V324.804L72.7169 339.471L196.185 364.164L249.882 325.112C251.043 324.247 251.87 323.007 252.221 321.602L275.677 227.781H232.029Z" fill="#546DFE"/>
</g>
<defs>
<clipPath id="clip0_288_713">
<rect width="394" height="394" fill="white"/>
</clipPath>
</defs>
</svg>
