<svg width="394" height="394" viewBox="0 0 394 394" fill="none" xmlns="http://www.w3.org/2000/svg">
<path d="M393.534 118.339C391.206 119.27 341.374 136.036 305.047 159.322C289.213 141.159 266.858 122.996 239.846 109.956C221.683 81.5468 247.298 55.9322 247.298 55.9322C195.137 42.4263 156.017 73.1639 135.525 94.587C58.6808 111.353 0 189.128 0 204.497C0 216.606 68.461 310.216 155.085 316.736C166.728 329.776 190.48 348.405 221.683 340.488C221.683 340.488 206.78 326.05 216.56 309.75C255.681 298.107 287.816 275.287 307.842 251.069C343.702 273.424 391.206 289.724 394 290.656C393.069 287.861 372.577 226.386 372.577 204.497C372.111 172.362 393.069 120.202 393.534 118.339ZM91.2813 212.414C77.3097 212.414 65.6667 200.771 65.6667 186.8C65.6667 172.828 77.3097 161.185 91.2813 161.185C105.253 161.185 116.896 172.828 116.896 186.8C116.896 201.237 105.253 212.414 91.2813 212.414Z" fill="#546DFE"/>
</svg>
