<svg width="394" height="394" viewBox="0 0 394 394" fill="none" xmlns="http://www.w3.org/2000/svg">
<path d="M390.335 246.718L388.319 243.694L386.65 246.931C375.756 268.033 339.54 280.645 310.82 280.645C274.249 280.645 93.6938 275.041 70.1881 273.676C65.5414 273.395 60.688 273.264 54.913 273.264C51.3308 273.264 48.0045 273.31 44.7876 273.353C41.9935 273.391 39.3571 273.427 36.88 273.427C29.1507 273.427 22.7952 271.318 18.1554 269.778C15.1486 268.78 12.7731 267.992 10.8059 267.992C9.28917 267.992 8.0601 268.468 7.15316 269.408C5.96543 270.637 5.43228 272.545 5.47449 275.413C5.83451 300.226 18.7187 302.144 36.8809 302.144C39.3752 302.144 42.0306 302.108 44.8453 302.07C48.0476 302.026 51.3593 301.981 54.913 301.981C60.601 301.981 65.3743 302.109 69.9383 302.385C93.4724 303.752 274.212 309.361 310.82 309.361C329.401 309.361 349.941 304.33 365.764 295.905C383.973 286.208 394 273.161 394 259.163C394 254.552 392.767 250.364 390.335 246.718Z" fill="#546DFE"/>
<path d="M31.8923 263.889C34.3844 263.889 37.0351 263.853 39.8462 263.815C43.0439 263.772 46.3517 263.727 49.9004 263.727C55.5911 263.727 60.3559 263.855 64.9032 264.128C88.4017 265.486 268.886 271.056 305.448 271.056C324.008 271.056 344.524 266.059 360.329 257.688C378.513 248.057 388.528 235.099 388.528 221.201C388.528 201.044 365.673 194.535 341.476 187.642C328.283 183.884 314.641 179.999 303.114 173.781C297.921 170.974 290.005 166.906 280.357 162.044C280.373 161.763 280.4 161.484 280.4 161.2C280.4 152.9 273.69 146.15 265.443 146.15C261.74 146.15 258.356 147.517 255.741 149.767C252.247 148.039 248.665 146.27 245.02 144.474C244.695 136.464 238.134 130.043 230.095 130.043C226.848 130.043 223.848 131.101 221.394 132.877C218.126 131.278 214.853 129.679 211.589 128.085C211.658 127.499 211.704 126.906 211.704 126.301C211.704 118.003 204.995 111.252 196.748 111.252C192.609 111.252 188.86 112.954 186.149 115.696C154.268 100.205 128.131 87.6236 125.789 86.4967C124.362 85.5172 122.772 85 121.175 85C118.601 85 116.126 86.2595 114.553 88.3737L96.9425 112.136C94.583 115.352 93.6564 118.594 94.1877 121.773C95.24 128.072 101.698 132.534 106.887 136.119C108.952 137.547 112.024 139.669 112.517 140.699L112.496 140.721C109.626 143.544 100.414 147.747 86.7964 147.747C78.9248 147.747 70.6303 146.233 62.809 143.368C53.2385 139.862 49.2841 130.241 46.1072 122.511C43.4504 116.045 41.1551 110.462 36.0556 110.462C32.187 110.462 27.7108 113.954 21.0658 122.167C-1.52079 151.055 -0.465008 195.193 0.306457 227.422C0.388804 230.873 0.468551 234.19 0.514493 237.338C0.873354 261.985 13.7456 263.889 31.8923 263.889ZM221.199 174.339C221.199 174.339 224.096 171.453 227.676 172.532C230.793 173.471 238.161 175.468 242.67 176.595C246.524 177.559 243.044 180.608 243.044 180.608L184.518 234.512C184.471 234.546 182.091 236.731 178.479 236.731C172.647 236.731 161.343 236.687 156.737 236.687C152.908 236.687 156.085 233.436 156.085 233.436L221.199 174.339ZM176.636 161.616C176.636 161.616 181.153 157.134 186.573 158.86C189.321 159.735 195.77 161.346 199.883 162.504C203.4 163.494 199.669 167.149 199.669 167.149L127.221 233.241C127.171 233.279 125.495 236.326 119.849 236.326C113.477 236.326 101.318 236.619 96.3435 236.619C93.5315 236.619 96.0288 233.577 96.0288 233.577L176.636 161.616Z" fill="#546DFE"/>
</svg>
