<svg width="394" height="394" viewBox="0 0 394 394" fill="none" xmlns="http://www.w3.org/2000/svg">
<g clip-path="url(#clip0_273_317)">
<path d="M383.712 334.996L226.834 180.501L43.5479 0H29.224L26.2992 7.319C18.5797 26.6373 15.2814 46.3957 16.7621 64.4558C18.45 85.0423 26.3914 102.865 39.7292 116.001L182.812 256.909L201.684 238.324L333.964 383.99C347.123 396.949 369.772 397.719 383.712 383.99C397.429 370.482 397.429 348.504 383.712 334.996Z" fill="#546DFE"/>
<path d="M116.71 229.833L9.81239 336.781C-3.2708 349.87 -3.2708 371.169 9.81239 384.258C22.2411 396.693 43.7421 397.79 57.268 384.258L164.167 277.31L116.71 229.833Z" fill="#546DFE"/>
<path d="M377.837 64.6476L315.883 126.601L299.721 110.439L361.675 48.4849L345.513 32.323L283.56 94.2762L267.398 78.1143L329.352 16.1611L313.191 0L232.381 80.8094C222.495 90.6953 216.592 103.822 215.758 117.772C215.547 121.306 214.746 124.783 213.417 128.09L265.91 180.583C269.217 179.253 272.694 178.452 276.228 178.242C290.178 177.409 303.305 171.505 313.191 161.619L394 80.8102L377.837 64.6476Z" fill="#546DFE"/>
</g>
<defs>
<clipPath id="clip0_273_317">
<rect width="394" height="394" fill="white"/>
</clipPath>
</defs>
</svg>
