<svg width="394" height="394" viewBox="0 0 394 394" fill="none" xmlns="http://www.w3.org/2000/svg">
<path d="M344.129 79.672C333.942 63.3137 282.377 55.241 272.406 58.856C266.407 61.0332 261.003 63.9747 255.28 67.0885C241.581 74.5377 226.059 82.9863 196.998 82.9863C167.953 82.9863 152.425 74.5409 138.726 67.0916C133.003 63.9778 127.593 61.0332 121.591 58.856C111.607 55.2285 60.0545 63.3106 49.8705 79.672C8.28554 146.437 -15.45 299.106 11.3899 327.183C16.9628 333.01 23.7385 336.042 31.144 336.042C32.0336 336.042 32.9264 336.001 33.838 335.911C48.4671 334.492 64.1551 321.78 78.0543 300.052L81.8949 293.712C106.58 252.806 108.603 249.464 196.998 249.464C285.409 249.464 287.42 252.806 312.111 293.715L315.974 300.112C329.838 321.776 345.533 334.488 360.159 335.908C368.632 336.735 376.373 333.712 382.61 327.183C409.453 299.106 385.708 146.437 344.129 79.672ZM280.391 89.1825H298.958C300.655 89.1825 302.034 90.5922 302.034 92.2963L302.04 110.735C302.04 111.787 301.504 112.774 300.618 113.341L291.333 119.283C290.832 119.609 290.249 119.775 289.676 119.775C289.093 119.775 288.52 119.612 288.015 119.29L278.627 113.35C277.744 112.783 277.111 111.806 277.111 110.753V92.3276C277.111 90.6266 278.683 89.1825 280.391 89.1825ZM223.666 124.856C225.975 122.544 230.103 122.544 232.415 124.856C233.549 125.997 234.201 127.597 234.201 129.204C234.201 130.836 233.549 132.437 232.415 133.577C231.241 134.718 229.668 135.366 228.042 135.366C226.435 135.366 224.838 134.718 223.697 133.577C222.523 132.406 221.88 130.836 221.88 129.204C221.877 127.597 222.519 125.997 223.666 124.856ZM161.854 124.856C164.163 122.544 168.263 122.544 170.572 124.856C171.74 125.997 172.392 127.597 172.392 129.204C172.392 130.836 171.74 132.406 170.572 133.543C169.432 134.718 167.828 135.366 166.227 135.366C164.595 135.366 163.019 134.718 161.854 133.543C160.711 132.406 160.068 130.836 160.068 129.204C160.068 127.597 160.711 125.997 161.854 124.856ZM95.4527 153.857C81.8635 153.857 70.8055 142.799 70.8055 129.21C70.8055 115.614 81.8635 104.56 95.4527 104.56C109.048 104.56 120.103 115.611 120.103 129.21C120.103 142.797 109.048 153.857 95.4527 153.857ZM184.678 196.987C184.678 198.685 183.434 200.104 181.73 200.104H163.11V218.774C163.11 220.478 162.023 221.672 160.319 221.672H141.677C139.976 221.672 138.463 220.478 138.463 218.774V200.104H120.125C118.421 200.104 116.898 198.688 116.898 196.987V178.452C116.898 176.754 118.421 175.454 120.125 175.454H138.463V156.931C138.463 155.233 139.976 153.883 141.677 153.883H160.319C162.023 153.883 163.11 155.23 163.11 156.931V175.454H181.73C183.434 175.454 184.678 176.751 184.678 178.452V196.987ZM196.998 144.714C188.45 144.714 181.489 137.756 181.489 129.207C181.489 120.659 188.45 113.701 196.998 113.701C205.557 113.701 212.508 120.659 212.508 129.207C212.508 137.759 205.557 144.714 196.998 144.714ZM243.025 212.822C229.433 212.822 218.375 201.767 218.375 188.172C218.375 174.577 229.433 163.522 243.025 163.522C256.614 163.522 267.672 174.577 267.672 188.172C267.672 201.767 256.614 212.822 243.025 212.822ZM271.209 141.562H252.786C251.085 141.562 249.378 140.197 249.378 138.496V119.926C249.378 118.222 251.085 116.912 252.786 116.912H271.209C272.265 116.912 273.233 117.413 273.809 118.297L279.749 127.563C280.403 128.578 280.403 129.865 279.749 130.883L273.809 140.153C273.236 141.033 272.265 141.562 271.209 141.562ZM298.961 169.292H280.391C278.683 169.292 277.108 167.791 277.108 166.094V147.671C277.108 146.618 277.741 145.641 278.624 145.074L287.962 139.131C288.968 138.486 290.296 138.486 291.305 139.131L300.464 145.074C301.345 145.638 301.755 146.615 301.755 147.671V166.094C301.755 167.791 300.658 169.292 298.961 169.292ZM329.488 138.496C329.488 140.197 328.263 141.562 326.556 141.562H308.136C307.077 141.562 306.103 141.036 305.533 140.15L299.593 130.868C298.948 129.853 298.948 128.559 299.593 127.544L305.533 118.297C306.103 117.413 307.077 116.915 308.136 116.915H326.556C328.263 116.915 329.488 118.225 329.488 119.929V138.496Z" fill="#546DFE"/>
</svg>
