<svg width="394" height="394" viewBox="0 0 394 394" fill="none" xmlns="http://www.w3.org/2000/svg">
<path d="M385.244 178.078H372.82C363.995 146.587 334.125 123.314 298.626 123.314C264.308 123.314 235.183 145.043 225.315 174.942C223.989 174.235 222.641 173.566 221.262 172.951C214.161 169.777 206.574 167.963 198.716 167.462C198.523 167.428 198.322 167.428 198.125 167.407C197.889 167.395 197.661 167.352 197.425 167.344C197.324 167.34 197.232 167.361 197.136 167.357C197.035 167.357 196.943 167.336 196.842 167.344C196.597 167.357 196.361 167.395 196.12 167.411C195.923 167.432 195.717 167.432 195.525 167.466C187.675 167.971 180.097 169.781 173.005 172.955C171.626 173.57 170.278 174.239 168.952 174.946C159.08 145.047 129.959 123.318 95.6369 123.318C59.2576 123.318 28.7708 147.754 20.812 180.435H8.75556C3.92249 180.435 0 184.207 0 188.854C0 193.501 3.92249 197.273 8.75556 197.273H18.7238C18.7238 238.054 53.225 271.228 95.6369 271.228C138.049 271.228 172.55 238.054 172.55 197.273C172.55 195.829 172.41 194.419 172.322 192.996C174.857 191.169 177.51 189.507 180.386 188.223C185.644 185.87 191.278 184.539 197.131 184.215C202.984 184.539 208.619 185.87 213.876 188.223C216.748 189.507 219.401 191.169 221.94 192.996C221.857 194.419 221.713 195.829 221.713 197.273C221.713 238.054 256.214 271.228 298.626 271.228C341.038 271.228 375.539 238.054 375.539 197.273C375.539 196.477 375.443 195.707 375.416 194.916H385.244C390.077 194.916 394 191.144 394 186.497C394 181.85 390.077 178.078 385.244 178.078Z" fill="#546DFE"/>
</svg>
