<svg width="394" height="394" viewBox="0 0 394 394" fill="none" xmlns="http://www.w3.org/2000/svg">
<path d="M200.641 28.6378C197.936 25.8338 193.959 24.5276 190.049 25.1543C186.14 25.7802 182.811 28.257 181.178 31.7559L74.1949 256.903C69.4018 255.686 64.4632 254.833 59.282 254.833C26.5955 254.833 0 280.611 0 312.292C0 343.973 26.5955 369.75 59.282 369.75C91.9685 369.75 118.564 343.973 118.564 312.292C118.564 302.839 115.971 294.044 111.779 286.17L208.384 80.59C217.52 62.8799 213.793 42.2715 200.641 28.6378ZM49.25 336.917C31.145 336.917 16.4167 322.188 16.4167 304.083C16.4167 285.978 31.145 271.25 49.25 271.25C67.355 271.25 82.0833 285.978 82.0833 304.083C82.0833 322.188 67.355 336.917 49.25 336.917Z" fill="#546DFE"/>
<path d="M188.792 256.519C183.77 256.519 178.983 257.36 174.337 258.558L157.25 222L132.469 275.621L137.91 287.395C133.847 295.154 131.333 303.82 131.333 313.135C131.333 344.351 157.111 369.75 188.792 369.75C220.473 369.75 246.25 344.351 246.25 313.135C246.25 281.919 220.473 256.519 188.792 256.519ZM180.583 336.917C162.478 336.917 147.75 322.188 147.75 304.083C147.75 285.978 162.478 271.25 180.583 271.25C198.688 271.25 213.417 285.978 213.417 304.083C213.417 322.188 198.688 336.917 180.583 336.917Z" fill="#546DFE"/>
<path d="M359.978 25C350.004 25 346.388 25 345.228 25C344.872 25 344.74 25 344.74 25C342.625 25 332.364 25 290.424 25C284.155 25 279.083 30.1398 279.083 36.4917C279.083 42.8435 284.155 47.9833 290.424 47.9833H325.957V70.9667H290.424C284.155 70.9667 279.083 76.1065 279.083 82.4583C279.083 88.8102 284.155 93.95 290.424 93.95H325.957V116.933H290.424C284.155 116.933 279.083 122.073 279.083 128.425C279.083 134.777 284.155 139.917 290.424 139.917H325.957V162.9H290.424C284.155 162.9 279.083 168.04 279.083 174.392C279.083 180.743 284.155 185.883 290.424 185.883H325.957V208.867H290.424C284.155 208.867 279.083 214.006 279.083 220.358C279.083 226.71 284.155 231.85 290.424 231.85H325.957V254.833H290.424C284.155 254.833 279.083 259.973 279.083 266.325C279.083 272.677 284.155 277.817 290.424 277.817H325.957V300.8H290.424C284.155 300.8 279.083 305.94 279.083 312.292C279.083 318.643 284.155 323.783 290.424 323.783H325.957V346.767H290.424C284.155 346.767 279.083 351.906 279.083 358.258C279.083 364.61 284.155 369.75 290.424 369.75C332.298 369.75 342.602 369.75 344.738 369.75C345.114 369.75 345.235 369.75 345.235 369.75C346.405 369.75 350.031 369.75 359.978 369.75C378.739 369.75 394 354.285 394 335.275V59.475C394 40.4647 378.739 25 359.978 25Z" fill="#546DFE"/>
<path d="M79.5172 32.1488C77.984 28.4469 74.859 25.8249 71.1886 25.1633C67.5182 24.5001 63.7847 25.8817 61.2445 28.8498C48.8968 43.2779 45.3978 65.0871 53.9749 83.8293L91.0449 172.75L114.917 116.124L79.5172 32.1488Z" fill="#546DFE"/>
</svg>
