<svg width="394" height="394" viewBox="0 0 394 394" fill="none" xmlns="http://www.w3.org/2000/svg">
<g clip-path="url(#clip0_288_110)">
<path d="M197 115.93C228.875 115.93 254.715 90.0899 254.715 58.2148C254.715 26.3398 228.875 0.5 197 0.5C165.125 0.5 139.285 26.3398 139.285 58.2148C139.285 90.0899 165.125 115.93 197 115.93Z" fill="#546DFE"/>
<path d="M393.723 332.938H0.277031C0.0948197 334.212 0.00224867 335.498 0 336.785V367.566C0 374.71 2.83764 381.56 7.88867 386.611C12.9397 391.662 19.7904 394.5 26.9336 394.5H367.066C374.21 394.5 381.06 391.662 386.111 386.611C391.162 381.56 394 374.71 394 367.566V336.785C393.998 335.498 393.905 334.212 393.723 332.938Z" fill="#546DFE"/>
<path d="M293.191 242.179V309.852H358.602V242.179C358.621 210.395 351.028 179.068 336.459 150.819C321.891 122.57 300.769 98.2209 274.861 79.8079C272.221 89.2918 267.865 98.2116 262.01 106.126C264.195 110.138 266.289 114.306 268.289 118.631C284.349 153.552 293.191 197.423 293.191 242.179Z" fill="#546DFE"/>
<path d="M100.809 242.179C100.809 197.423 109.651 153.552 125.711 118.654C127.701 114.324 129.794 110.156 131.99 106.149C126.135 98.2347 121.779 89.3148 119.139 79.831C93.2343 98.2417 72.1146 122.587 57.5458 150.832C42.9771 179.076 35.3829 210.399 35.3984 242.179V309.852H100.809V242.179Z" fill="#546DFE"/>
<path d="M244.896 123.248C231.027 133.49 214.241 139.016 197 139.016C179.759 139.016 162.973 133.49 149.104 123.248C148.284 124.905 147.476 126.59 146.68 128.304C131.99 160.239 123.895 200.686 123.895 242.194V309.852H270.105V242.179C270.105 200.686 262.01 160.239 247.32 128.288C246.53 126.58 245.722 124.9 244.896 123.248Z" fill="#546DFE"/>
</g>
<defs>
<clipPath id="clip0_288_110">
<rect width="394" height="394" fill="white"/>
</clipPath>
</defs>
</svg>
