<svg width="394" height="394" viewBox="0 0 394 394" fill="none" xmlns="http://www.w3.org/2000/svg">
<g clip-path="url(#clip0_273_343)">
<path d="M50.1223 377.169H103.773C104.518 381.842 108.392 385.498 113.284 385.498H235.261C240.172 385.498 244.027 381.861 244.773 377.169H298.423C307.498 377.169 314.846 369.821 314.846 360.746H33.718C33.718 369.821 41.0654 377.169 50.1223 377.169Z" fill="#546DFE"/>
<path d="M379.462 208.379C365.786 197.304 346.526 197.122 333.85 198.522C334.214 189.684 334.414 180.645 334.414 171.242H0C0 261.63 13.6763 326.847 100.226 351.18H234.188C268.47 341.559 291.203 325.392 306.28 303.895C339.124 303.259 391.956 290.328 393.939 244.971C394.793 225.111 386.537 214.09 379.462 208.379ZM320.047 277.961C326.339 261.793 330.068 243.607 332.123 223.62C340.998 222.165 356.293 221.237 364.022 227.53C365.44 228.694 369.86 232.295 369.351 243.916C368.314 267.413 339.143 275.306 320.047 277.961Z" fill="#546DFE"/>
<path d="M136.235 158.548C136.235 158.548 199.888 153.874 170.717 100.206C147.293 57.1216 152.64 31.8423 182.611 9C182.611 9 84.44 34.0065 141.691 111.39C162.697 145.108 136.235 158.548 136.235 158.548Z" fill="#546DFE"/>
<path d="M179.137 154.256C179.137 154.256 230.133 143.508 202.38 102.497C192.305 84.7106 206.199 78.3635 206.199 78.3635C206.199 78.3635 173.372 79.4002 187.23 107.607C198.324 130.286 195.032 143.162 179.137 154.256Z" fill="#546DFE"/>
</g>
<defs>
<clipPath id="clip0_273_343">
<rect width="394" height="394" fill="white"/>
</clipPath>
</defs>
</svg>
