<svg width="394" height="394" viewBox="0 0 394 394" fill="none" xmlns="http://www.w3.org/2000/svg">
<path d="M292.915 66.675C290.175 66.675 287.412 67.5928 284.699 69.4016L269.745 79.3725C262.734 84.0467 257.441 93.9325 257.441 102.359V147.131C257.441 155.557 262.734 165.443 269.745 170.122L284.699 180.093C287.408 181.902 290.175 182.819 292.915 182.819C298.471 182.819 304.453 178.656 304.453 169.522V79.9769C304.453 70.8344 298.471 66.675 292.915 66.675Z" fill="#546DFE"/>
<path d="M73.8747 97.881C59.0595 97.881 47.0112 109.929 47.0112 124.745C47.0112 139.56 59.0595 151.608 73.8747 151.608C88.69 151.608 100.738 139.56 100.738 124.745C100.738 109.929 88.69 97.881 73.8747 97.881Z" fill="#546DFE"/>
<path d="M230.578 84.4494H143.169C138.777 84.4494 131.962 81.6064 128.873 78.4857C127.754 77.3575 101.204 50.87 73.8746 50.87C33.1406 50.87 0 84.0107 0 124.745C0 152.074 26.4874 178.624 27.6157 179.743C30.7363 182.828 33.5794 189.642 33.5794 194.035V326.221C33.5794 336.098 41.6116 344.13 51.4884 344.13H96.2609C106.138 344.13 114.17 336.098 114.17 326.221V254.585H85.0677C81.3561 254.585 78.3519 251.576 78.3519 247.869C78.3519 244.162 81.3561 241.153 85.0677 241.153H114.17V232.199H85.0677C81.3561 232.199 78.3519 229.19 78.3519 225.483C78.3519 221.776 81.3561 218.767 85.0677 218.767H114.17V194.061C114.17 190.005 117.205 183.826 120.42 181.346L129.898 171.935L130.463 171.286C132.939 168.071 139.113 165.035 143.169 165.035H230.578C240.455 165.035 248.487 157.003 248.487 147.126V102.354C248.487 92.4816 240.455 84.4494 230.578 84.4494ZM73.8746 165.04C51.6585 165.04 33.5794 146.961 33.5794 124.745C33.5794 102.529 51.6585 84.4494 73.8746 84.4494C96.0907 84.4494 114.17 102.529 114.17 124.745C114.17 146.961 96.0907 165.04 73.8746 165.04Z" fill="#546DFE"/>
<path d="M390.286 118.736L377.911 112.549C369.87 108.533 358.592 110.359 352.234 116.717L345.675 123.276C343.36 125.586 338.413 126.383 335.502 124.924L323.127 118.736C319.81 117.084 315.776 118.427 314.115 121.74C312.458 125.058 313.801 129.092 317.119 130.753L329.494 136.941C332.377 138.382 335.673 139.072 339.008 139.072C344.985 139.072 351.092 136.856 355.171 132.777L361.73 126.218C364.04 123.903 368.979 123.111 371.903 124.57L384.278 130.758C387.6 132.41 391.634 131.071 393.29 127.753C394.947 124.436 393.604 120.397 390.286 118.736Z" fill="#546DFE"/>
<path d="M317.119 100.738L329.494 106.926C332.377 108.367 335.673 109.057 339.008 109.057C344.99 109.057 351.097 106.841 355.171 102.762L361.735 96.2026C364.036 93.8924 368.979 93.0954 371.903 94.555L384.278 100.743C387.6 102.399 391.634 101.056 393.29 97.7383C394.947 94.4207 393.604 90.3867 390.286 88.7256L377.911 82.5381C369.861 78.513 358.578 80.3442 352.234 86.7064L345.67 93.2656C343.365 95.5758 338.413 96.3683 335.502 94.9132L323.127 88.7256C319.81 87.078 315.776 88.4167 314.115 91.7299C312.458 95.043 313.801 99.077 317.119 100.738Z" fill="#546DFE"/>
<path d="M390.286 148.752L377.911 142.564C369.861 138.539 358.578 140.37 352.234 146.732L345.67 153.292C343.365 155.597 338.413 156.399 335.502 154.939L323.127 148.752C319.81 147.104 315.776 148.443 314.115 151.756C312.458 155.074 313.801 159.108 317.119 160.769L329.494 166.956C332.377 168.398 335.673 169.087 339.008 169.087C344.99 169.087 351.097 166.871 355.171 162.792L361.735 156.233C364.036 153.923 368.979 153.121 371.903 154.586L384.278 160.773C387.6 162.43 391.634 161.091 393.29 157.769C394.947 154.447 393.604 150.413 390.286 148.752Z" fill="#546DFE"/>
</svg>
