<svg width="394" height="394" viewBox="0 0 394 394" fill="none" xmlns="http://www.w3.org/2000/svg">
<g clip-path="url(#clip0_288_203)">
<path d="M235.675 149.499L186.26 188.367C184.018 190.111 181.526 191.44 178.869 192.353L325.37 378.802C331.931 387.19 341.316 392.423 351.863 393.751C353.441 393.917 355.102 394 356.68 394C365.566 394 374.038 391.093 381.097 385.529C398.371 371.992 401.361 346.91 387.824 329.719L241.322 143.271C239.828 145.596 237.918 147.672 235.675 149.499Z" fill="#546DFE"/>
<path d="M70.1553 88.0418C70.0722 87.9587 70.0722 87.9587 69.9895 88.0418C68.3284 87.3773 66.501 87.3773 64.7573 87.8756C64.7573 87.8756 64.6742 87.8756 64.591 87.9587C64.0928 88.125 63.6776 88.2907 63.2624 88.5401C63.013 88.6233 62.7636 88.789 62.5148 88.9553C62.3485 89.0384 62.1827 89.2047 62.0996 89.2878L0.891348 137.457C-2.7629 140.281 -3.34432 145.43 -0.520877 149.084L48.8943 212.036C50.5555 214.113 52.9637 215.192 55.4557 215.192C57.2825 215.192 59.0268 214.611 60.6048 213.448L117.993 168.352C118.242 168.186 118.408 167.936 118.657 167.687C119.404 167.023 119.903 166.192 120.318 165.362C120.567 164.781 120.816 164.199 120.899 163.535C121.148 162.787 121.148 162.123 121.148 161.376C120.982 157.721 122.56 154.316 125.384 152.074C127.792 150.247 130.782 149.416 133.772 149.748C136.762 150.08 139.503 151.576 141.33 153.984C142.576 155.562 143.323 157.306 143.572 159.216C143.904 161.874 145.482 164.199 147.808 165.528L166.743 176.075C169.733 177.653 173.305 177.404 175.962 175.328L225.377 136.46C228.201 134.218 229.281 130.481 228.035 127.076L216.989 96.5958L302.78 78.1588C310.919 76.4146 317.979 71.3486 322.131 64.1232C326.284 56.981 327.28 48.3434 324.789 40.5366C323.709 37.0486 322.048 33.8095 319.805 31.0692C314.407 24.1759 306.351 20.1065 297.631 19.774L171.062 0.0910184C168.819 -0.241001 166.494 0.340414 164.667 1.75213L86.9317 62.8773C83.942 65.2029 82.9454 69.3555 84.5234 72.8434C86.6823 77.5774 85.2705 83.1416 81.2011 86.3807C78.0452 88.8721 73.8927 89.4536 70.1553 88.0418Z" fill="#546DFE"/>
</g>
<defs>
<clipPath id="clip0_288_203">
<rect width="394" height="394" fill="white"/>
</clipPath>
</defs>
</svg>
