<svg width="394" height="394" viewBox="0 0 394 394" fill="none" xmlns="http://www.w3.org/2000/svg">
<path d="M393.223 300.047C392.388 296.534 390.86 293.223 388.729 290.308C386.599 287.392 383.908 284.931 380.814 283.069L256.453 208.115C253.345 206.228 250.774 203.575 248.987 200.41C247.199 197.245 246.254 193.673 246.242 190.038V168.856C246.236 163.26 244.01 157.895 240.053 153.938C236.096 149.98 230.731 147.755 225.135 147.749H204.028V132.969C210.55 131.638 216.56 128.484 221.361 123.873C226.161 119.263 229.555 113.384 231.148 106.922C232.742 100.459 232.469 93.677 230.361 87.3633C228.254 81.0496 224.398 75.4633 219.242 71.2534C214.087 67.0434 207.842 64.3826 201.235 63.5798C194.627 62.7771 187.928 63.8655 181.914 66.7185C175.9 69.5715 170.819 74.0721 167.261 79.6976C163.703 85.3231 161.814 91.8425 161.814 98.4987C161.814 100.365 162.555 102.154 163.875 103.474C165.194 104.793 166.984 105.534 168.85 105.534C170.716 105.534 172.505 104.793 173.825 103.474C175.144 102.154 175.885 100.365 175.885 98.4987C175.885 94.3241 177.123 90.2432 179.442 86.7722C181.762 83.3011 185.058 80.5958 188.915 78.9982C192.772 77.4007 197.016 76.9827 201.11 77.7971C205.205 78.6115 208.966 80.6218 211.917 83.5737C214.869 86.5255 216.88 90.2865 217.694 94.3809C218.508 98.4752 218.09 102.719 216.493 106.576C214.895 110.433 212.19 113.729 208.719 116.049C205.248 118.368 201.167 119.606 196.992 119.606C195.126 119.606 193.337 120.347 192.017 121.666C190.698 122.986 189.957 124.775 189.957 126.641V147.749H168.85C163.254 147.755 157.888 149.98 153.931 153.938C149.974 157.895 147.749 163.26 147.742 168.856V190.038C147.732 193.673 146.787 197.245 144.999 200.41C143.211 203.576 140.64 206.229 137.532 208.115L13.1641 283.076C10.0812 284.945 7.39849 287.405 5.27037 290.315C3.14224 293.225 1.61081 296.527 0.764255 300.031C-0.0822974 303.535 -0.227239 307.172 0.337775 310.732C0.90279 314.293 2.1666 317.706 4.05642 320.776L8.06677 327.32C8.69619 328.347 9.5789 329.195 10.6303 329.783C11.6817 330.371 12.8665 330.679 14.071 330.677C15.3478 330.679 16.6004 330.329 17.6916 329.667L39.3926 316.606H354.592L376.292 329.667C377.882 330.624 379.785 330.914 381.588 330.474C383.391 330.034 384.947 328.899 385.917 327.317L389.916 320.797C391.821 317.732 393.095 314.318 393.662 310.755C394.23 307.192 394.081 303.552 393.223 300.047ZM62.768 302.534L196.992 221.74L331.217 302.534H62.768Z" fill="#546DFE"/>
</svg>
