<svg width="394" height="394" viewBox="0 0 394 394" fill="none" xmlns="http://www.w3.org/2000/svg">
<path d="M138.147 30.0043C130.336 35.3158 123.15 40.9398 116.276 47.1887L20.3565 26.255C15.9823 25.3177 11.9205 28.1297 10.9832 32.1914C10.0459 36.5656 12.8579 40.6274 16.9196 41.5647L103.154 60.3112C51.9132 119.05 44.1021 206.847 89.4063 274.647L382.79 78.1205C328.737 -2.80216 219.07 -24.3607 138.147 30.0043Z" fill="#546DFE"/>
<path d="M344.672 154.669C341.548 145.608 340.923 135.922 340.61 125.924L143.771 257.775C146.583 263.087 150.02 268.086 154.082 272.772C158.456 277.771 163.768 282.146 170.017 284.333C175.953 286.52 182.514 286.207 188.763 286.207C195.949 285.895 203.135 285.895 210.322 285.582C216.258 285.582 223.444 285.895 226.881 290.894C228.131 292.769 228.756 295.268 229.068 297.768C231.88 321.826 216.258 347.134 193.137 354.945C245.315 359.944 299.68 365.568 343.735 394C341.235 383.377 331.237 376.816 323.738 369.005C308.116 352.758 302.18 328.075 308.429 306.516C309.053 304.954 309.366 303.392 310.616 302.142C312.178 300.58 314.677 299.955 316.865 299.33C322.801 297.768 329.05 296.518 334.986 294.956C339.985 293.706 344.984 292.456 349.046 289.644C353.108 286.52 356.232 281.521 354.983 276.522C354.045 273.085 351.546 270.273 349.671 267.148C347.796 264.024 347.171 259.65 349.671 257.15C350.921 255.9 352.483 255.588 353.42 254.026C354.358 252.776 354.358 250.901 354.045 249.027C353.108 239.028 352.171 228.718 350.921 218.72C357.482 222.469 366.23 216.533 367.793 209.346C369.355 202.16 366.23 194.662 362.794 188.1C356.857 176.852 348.734 166.542 344.672 154.669Z" fill="#546DFE"/>
</svg>
