<svg width="394" height="394" viewBox="0 0 394 394" fill="none" xmlns="http://www.w3.org/2000/svg">
<g clip-path="url(#clip0_288_623)">
<g clip-path="url(#clip1_288_623)">
<path d="M370.455 164.896L229.131 23.5283C214.418 8.84902 194.602 0.42342 173.823 0.0122454C153.044 -0.398929 132.91 7.23614 117.629 21.3219C104.17 15.98 89.4411 14.6951 75.2603 17.6257C61.0794 20.5563 48.0668 27.5743 37.8277 37.8138C27.5887 48.0532 20.5712 61.0662 17.6412 75.2472C14.7111 89.4281 15.9966 104.157 21.3392 117.616C7.24512 132.893 -0.395448 153.029 0.0157785 173.81C0.427005 194.592 8.85817 214.41 23.5456 229.118L164.873 370.485C179.583 385.153 199.39 393.572 220.159 393.983C240.929 394.394 261.054 386.766 276.332 372.691C289.8 378.022 304.534 379.297 318.717 376.357C332.901 373.418 345.915 366.393 356.155 356.148C366.395 345.904 373.415 332.887 376.348 318.703C379.282 304.518 378.002 289.785 372.665 276.319C386.759 261.057 394.4 240.933 393.989 220.163C393.577 199.393 385.141 179.588 370.455 164.896ZM339.447 339.438C333.772 345.1 326.834 349.335 319.204 351.794C311.574 354.253 303.469 354.866 295.555 353.582C287.066 352.225 279.072 348.696 272.349 343.338C270.796 342.134 269.322 340.831 267.936 339.438L54.5534 126.047C53.1803 124.642 51.8784 123.17 50.6528 121.634C45.2972 114.914 41.7807 106.917 40.4482 98.4277C38.8197 88.3755 40.2648 78.0658 44.5942 68.8486C48.9236 59.6314 55.9354 51.9365 64.7115 46.7713C73.4876 41.6061 83.619 39.2115 93.7789 39.901C103.939 40.5905 113.654 44.332 121.652 50.6355C123.182 51.8518 124.642 53.1541 126.025 54.5361L339.407 267.966C340.811 269.328 342.115 270.79 343.308 272.339C348.676 279.072 352.206 287.081 353.552 295.585C354.853 303.49 354.252 311.59 351.799 319.216C349.346 326.842 345.112 333.774 339.447 339.438Z" fill="#546DFE"/>
<path d="M265.809 248.488C255.435 248.547 248.583 248.586 241.057 241.061C233.532 233.535 233.571 226.68 233.635 216.31C233.705 204.233 233.792 189.202 219.281 174.695C204.774 160.184 189.747 160.275 177.675 160.346C167.301 160.409 160.449 160.448 152.924 152.923C145.398 145.397 145.445 138.55 145.505 128.176C145.576 116.1 145.662 101.072 131.159 86.5693L114.438 103.287C121.963 110.812 121.92 117.664 121.861 128.038C121.786 140.11 121.699 155.137 136.202 169.644C150.713 184.155 165.74 184.065 177.809 183.994C188.187 183.935 195.038 183.891 202.56 191.417C210.085 198.942 210.046 205.798 209.987 216.172C209.916 228.248 209.829 243.275 224.336 257.782C238.843 272.289 253.87 272.202 265.946 272.135C276.32 272.072 283.172 272.033 290.701 279.562L307.419 262.837C292.912 248.33 277.885 248.417 265.809 248.488Z" fill="#546DFE"/>
</g>
</g>
<defs>
<clipPath id="clip0_288_623">
<rect width="394" height="394" fill="white"/>
</clipPath>
<clipPath id="clip1_288_623">
<rect width="394" height="394" fill="white"/>
</clipPath>
</defs>
</svg>
