<svg width="394" height="394" viewBox="0 0 394 394" fill="none" xmlns="http://www.w3.org/2000/svg">
<path d="M55.6187 372.287C57.1452 373.814 59.2349 374.618 61.3246 374.618C62.6111 374.618 63.9773 374.296 65.1822 373.653L295.693 247.468C298.184 246.101 299.792 243.529 299.872 240.716L300.757 211.621L252.452 209.692C246.102 209.451 240.235 206.799 236.056 202.378L171.837 138.16L2.33114 307.667C0.883759 309.194 0 311.204 0 313.373C0 315.463 0.883759 317.553 2.33114 319.08L55.6187 372.287ZM47.8222 307.667L180.679 174.81C183.894 171.676 188.957 171.676 192.092 174.81C195.227 177.945 195.227 183.008 192.092 186.143L59.2349 319.08C57.6277 320.607 55.538 321.41 53.5285 321.41C51.4389 321.41 49.4299 320.607 47.8222 319.08C44.6874 315.945 44.6874 310.802 47.8222 307.667Z" fill="#546DFE"/>
<path d="M269.161 22.6729L179.786 112.048C176.651 115.182 176.651 120.246 179.786 123.38L247.7 191.295C249.067 192.742 250.996 193.546 253.086 193.627L336.272 196.922H336.593C338.683 196.922 340.773 196.038 342.3 194.511L391.649 145.162C394.784 142.027 394.784 136.963 391.649 133.829L280.493 22.6729C277.439 19.6188 272.135 19.6188 269.161 22.6729ZM346.158 145.162L320.841 170.48C319.394 172.007 317.304 172.81 315.214 172.81C315.134 172.81 315.134 172.81 315.134 172.81C312.964 172.81 310.874 171.926 309.428 170.399L244.807 103.609C241.753 100.474 241.834 95.4106 244.888 92.3566L269.161 68.1639C272.135 65.1098 277.519 65.1098 280.493 68.1639L346.158 133.829C349.292 136.963 349.292 142.027 346.158 145.162Z" fill="#546DFE"/>
</svg>
