<svg width="394" height="394" viewBox="0 0 394 394" fill="none" xmlns="http://www.w3.org/2000/svg">
<g clip-path="url(#clip0_288_70)">
<path d="M397.484 341.074C379.843 355.356 347.079 365.437 291.634 374.678C264.751 378.878 241.228 381.399 221.066 381.399C184.102 381.399 158.9 373.838 142.098 359.556V369.637C142.098 383.079 153.019 394 166.461 394H374.802C381.523 394 387.403 391.48 392.444 386.439C396.644 381.399 399.165 375.518 399.165 368.797L397.484 341.074Z" fill="#546DFE"/>
<path d="M24.4863 367.117V384.759C24.4863 389.799 27.8467 393.16 32.8872 393.16H73.2114C75.7316 393.16 77.4118 392.32 79.092 390.639C80.7721 388.959 81.6122 386.439 81.6122 384.759L80.7721 367.117H24.4863Z" fill="#546DFE"/>
<path d="M150.499 344.436C163.1 357.877 186.623 364.598 221.066 364.598C240.388 364.598 263.071 362.077 289.113 357.877C379.843 342.755 394.124 326.794 396.645 313.352C398.325 302.431 389.924 294.03 384.043 290.67C384.043 290.67 383.203 290.67 383.203 289.83L344.559 275.549C316.836 265.467 289.954 261.267 264.751 264.627C260.55 265.467 253.83 264.627 247.949 263.787C220.226 259.587 200.904 227.664 195.864 213.382C195.024 212.542 195.024 210.022 193.344 206.661C145.459 69.7272 102.614 0 63.9702 0C61.4499 0 58.9297 0.840088 57.2495 2.52026L8.52447 59.6462L7.68438 60.4863C-1.55657 75.6078 -13.3178 106.691 6.00421 126.853C30.3667 146.175 30.3667 270.508 25.3262 350.316H80.7719C78.2517 313.352 72.3711 206.661 70.6909 198.26C70.6909 197.42 70.6909 194.06 73.2112 191.54C76.5715 189.02 83.2922 190.7 86.6525 191.54C87.4926 191.54 88.3327 192.38 89.1728 192.38C95.8935 199.101 100.934 204.981 105.134 211.702C108.495 217.582 111.855 224.303 114.375 230.184C127.817 265.467 140.418 317.553 142.098 325.114C142.098 329.314 143.778 336.875 150.499 344.436Z" fill="#546DFE"/>
</g>
<defs>
<clipPath id="clip0_288_70">
<rect width="394" height="394" fill="white"/>
</clipPath>
</defs>
</svg>
