<svg width="394" height="394" viewBox="0 0 394 394" fill="none" xmlns="http://www.w3.org/2000/svg">
<path d="M100.095 31.2122C27.7714 49.175 -10.9904 86.5187 3.19076 123.862C6.97241 133.317 6.4997 141.825 3.19076 152.698C-1.06359 164.515 -1.06359 173.024 3.19076 184.841C6.4997 195.714 6.97241 204.222 3.19076 213.677C-0.118176 223.131 -0.118176 231.167 3.19076 242.039C6.4997 252.911 6.4997 260.947 3.19076 270.401C-6.26335 295.927 12.6449 327.126 49.5159 345.561C119.476 381.014 274.524 381.014 344.484 345.561C381.355 327.126 400.263 295.927 390.809 270.401C387.5 260.947 387.5 252.911 390.809 242.039C394.118 231.167 394.118 223.131 390.809 213.677C387.028 204.222 387.5 195.714 390.809 184.841C395.064 173.024 395.064 164.515 390.809 152.698C387.5 141.825 387.028 133.317 390.809 123.862C400.736 97.391 380.882 66.6651 341.175 46.8115C290.596 21.7581 169.11 13.7221 100.095 31.2122ZM273.578 67.1378C319.431 76.5919 350.629 93.1366 350.629 107.79C350.629 115.826 345.902 121.499 334.085 128.117C323.212 133.789 313.758 144.189 308.086 156.479C303.359 166.879 298.159 177.278 297.214 179.169C293.905 185.787 312.34 182.951 333.139 173.497C348.738 166.406 352.993 165.933 352.993 171.133C352.993 178.696 327.939 194.768 309.504 199.495C297.686 202.804 296.268 204.695 296.268 224.076C296.268 247.239 296.268 247.239 333.612 232.112C367.647 217.931 354.884 238.73 319.431 254.329C297.686 264.256 296.268 266.147 296.268 283.164C296.268 304.436 301.941 305.854 333.139 291.673C348.266 285.055 352.993 284.11 352.993 288.837C352.993 297.345 337.394 307.272 308.086 317.199C295.323 321.926 280.669 327.599 276.415 329.962C263.651 336.58 155.875 334.689 120.422 327.126C81.6599 319.09 43.8434 301.127 41.9526 289.782C40.5345 282.219 41.4799 282.219 53.7702 288.364C78.3509 301.127 123.258 310.581 172.892 313.89C218.744 316.726 222.053 316.254 219.217 308.69C217.326 303.963 215.908 295.455 215.908 289.782C215.908 279.855 213.072 278.91 165.329 273.71C136.966 270.874 103.404 265.201 90.1686 260.474C66.5333 252.911 36.2801 233.53 41.0072 228.803C42.4253 227.385 58.97 231.639 78.3509 238.257C97.2591 244.402 128.458 251.02 146.893 252.438L180.455 255.275L170.056 243.457C163.911 237.312 159.184 228.33 159.184 224.549C159.184 218.876 151.62 215.095 132.239 211.313C90.6413 203.277 62.7516 193.35 51.4067 182.478C36.7528 169.242 38.6437 162.624 54.243 170.66C72.6785 180.114 121.84 192.405 142.166 192.405H159.184L137.439 171.606C123.731 158.37 106.713 147.498 91.5867 142.771C61.3335 132.844 41.0072 118.663 41.0072 107.318C41.0072 95.9728 60.3881 84.1552 100.095 71.3922C139.803 58.1564 222.999 56.2656 273.578 67.1378Z" fill="#546DFE"/>
<path d="M120.421 86.5193C90.1679 99.2823 92.0588 120.081 123.73 131.426C132.711 134.735 140.747 140.88 141.693 145.607C143.111 150.334 151.147 158.37 159.656 163.57C174.31 172.552 175.728 175.861 178.091 199.969C180.927 230.222 190.382 241.567 205.508 232.113C211.181 228.331 214.017 219.349 214.962 202.332C216.38 182.006 217.798 178.224 225.834 178.224C234.343 178.224 234.816 182.006 234.816 239.203C234.816 288.364 236.234 302.073 242.379 307.745C251.833 317.2 260.342 317.2 269.796 307.745C275.941 301.6 277.359 287.892 277.359 232.113C277.359 170.188 278.305 163.098 286.813 154.589C292.013 149.389 296.268 141.826 296.268 138.044C296.268 124.336 272.632 107.791 245.215 102.119C230.089 99.2823 209.762 92.6644 198.89 87.9374C176.2 77.0651 144.529 76.5924 120.421 86.5193Z" fill="#546DFE"/>
</svg>
