<svg width="394" height="394" viewBox="0 0 394 394" fill="none" xmlns="http://www.w3.org/2000/svg">
<path d="M264.975 115.57C260.569 101.095 251.628 88.4189 239.47 79.4112C227.313 70.4035 212.583 65.541 197.452 65.541C182.321 65.541 167.591 70.4035 155.433 79.4112C143.276 88.4189 134.335 101.095 129.929 115.57C117.132 120.463 106.445 129.67 99.7121 141.602C92.9789 153.533 90.6221 167.441 93.0483 180.925C95.4745 194.408 102.532 206.622 113.002 215.458C123.472 224.294 136.698 229.198 150.398 229.324H244.506C258.206 229.198 271.432 224.294 281.902 215.458C292.372 206.622 299.429 194.408 301.855 180.925C304.281 167.441 301.925 153.533 295.191 141.602C288.458 129.67 277.771 120.463 264.975 115.57Z" fill="#546DFE"/>
<path d="M138.634 252.851L186.276 386.25C187.101 388.521 188.604 390.483 190.583 391.87C192.561 393.256 194.918 394 197.334 394C199.75 394 202.107 393.256 204.086 391.87C206.064 390.483 207.568 388.521 208.392 386.25L256.27 252.851H138.634Z" fill="#546DFE"/>
<path d="M205.07 22.7909C210.241 12.2225 220.738 6.15088 231.905 0L240.479 2.09646C238.732 3.16827 237.099 4.13397 235.723 4.89062C225.07 10.7467 215.572 15.9975 210.835 24.581C210.888 24.5827 210.941 24.5857 210.994 24.5887C211.078 24.5934 211.162 24.5981 211.247 24.5978C225.826 24.5396 236.048 38.7894 230.309 53.0367C223.805 69.1844 204.794 85.5912 193.475 79.1688C190.267 77.3459 186.803 76.0583 183.201 75.3493C170.498 72.8419 166.165 47.7569 171.271 31.0892C175.786 16.3479 192.552 12.072 203.701 21.7763C204.134 22.1485 204.591 22.4876 205.07 22.7909Z" fill="#546DFE"/>
</svg>
