<svg width="394" height="394" viewBox="0 0 394 394" fill="none" xmlns="http://www.w3.org/2000/svg">
<path d="M324.585 301.699H393.732L373.202 95.7488C372.275 88.6115 369.228 81.9163 364.455 76.529C359.683 71.1417 353.403 67.3101 346.429 65.5296L324.585 60.7668C325.029 53.0014 323.894 45.2265 321.246 37.9129C318.598 30.5992 314.493 23.899 309.18 18.2178C303.867 12.5367 297.456 7.99288 290.336 4.86145C283.216 1.73003 275.534 0.0761622 267.755 0H127.489C119.71 0.0761622 112.029 1.73003 104.908 4.86145C97.7876 7.99288 91.3768 12.5367 86.0638 18.2178C80.7508 23.899 76.6461 30.5992 73.9983 37.9129C71.3505 45.2265 70.2146 53.0014 70.6595 60.7668L48.8147 66.1865C42.0142 67.9566 35.8964 71.7152 31.2442 76.9815C26.592 82.2478 23.6169 88.7822 22.6995 95.7488L1.51172 301.699H70.6595V149.946C70.6595 146.897 71.8708 143.973 74.027 141.817C76.1831 139.661 79.1075 138.45 82.1567 138.45C85.206 138.45 88.1304 139.661 90.2865 141.817C92.4427 143.973 93.654 146.897 93.654 149.946V382.502C93.6538 384.026 93.9566 385.535 94.5446 386.94C95.1327 388.346 95.9942 389.621 97.0793 390.69C98.1644 391.76 99.4513 392.603 100.865 393.171C102.279 393.739 103.792 394.021 105.315 393.999H289.929C291.452 394.021 292.965 393.739 294.379 393.171C295.793 392.603 297.08 391.76 298.165 390.69C299.25 389.621 300.111 388.346 300.699 386.94C301.287 385.535 301.59 384.026 301.59 382.502V149.946C301.59 146.897 302.801 143.973 304.958 141.817C307.114 139.661 310.038 138.45 313.087 138.45C316.137 138.45 319.061 139.661 321.217 141.817C323.373 143.973 324.585 146.897 324.585 149.946V301.699ZM93.654 55.8398C93.9672 47.9554 96.9493 40.4111 102.112 34.4434C107.274 28.4756 114.311 24.4382 122.069 22.9928L164.773 93.6137L109.914 60.7668C104.963 57.8555 99.3887 56.1665 93.654 55.8398ZM285.33 60.7668L231.293 93.6137L273.175 23.4855C280.933 24.9309 287.97 28.9683 293.132 34.9361C298.295 40.9038 301.277 48.4481 301.59 56.3325C295.896 56.5083 290.324 58.0277 285.33 60.7668Z" fill="#546DFE"/>
</svg>
