<svg width="394" height="394" viewBox="0 0 394 394" fill="none" xmlns="http://www.w3.org/2000/svg">
<g clip-path="url(#clip0_273_367)">
<path d="M124.16 32.4861C123.725 31.4601 123.684 31.3698 124.16 32.4861Z" fill="#546DFE"/>
<path d="M123.851 31.7578L106.482 49.1261C101.84 53.7679 102.028 61.247 106.686 65.651L160.145 116.443C159.188 114.21 125.012 34.4673 123.851 31.7578Z" fill="#546DFE"/>
<path d="M287.946 49.5533L270.15 31.7571C268.704 35.1292 230.212 124.942 231.213 122.61L287.946 65.8758C292.444 61.3779 292.444 54.0512 287.946 49.5533Z" fill="#546DFE"/>
<path d="M312.43 277.031H231.629V300.117H312.43V277.031Z" fill="#546DFE"/>
<path d="M165.037 69.2578L197 143.836L228.963 69.2578H165.037Z" fill="#546DFE"/>
<path d="M208.543 277.031H185.457V300.117H208.543V277.031Z" fill="#546DFE"/>
<path d="M162.371 277.031H81.5703V300.117H162.371V277.031Z" fill="#546DFE"/>
<path d="M185.457 323.203V394H300.887C307.262 394 312.43 388.832 312.43 382.457V323.203C307.578 323.203 189.684 323.203 185.457 323.203Z" fill="#546DFE"/>
<path d="M81.5703 323.203V382.457C81.5703 388.832 86.7385 394 93.1133 394H162.371V323.203H81.5703Z" fill="#546DFE"/>
<path d="M135.354 0L155.143 46.1719H238.857L258.646 0H135.354Z" fill="#546DFE"/>
<path d="M302.871 0H283.764L279.945 8.90809L304.269 33.2314C317.79 46.7529 317.79 68.6776 304.269 82.199L195.603 190.865C189.106 197.361 185.457 206.171 185.457 215.357V253.945H220.086H312.43V150.059C312.43 143.684 317.598 138.516 323.973 138.516C330.347 138.516 335.516 143.684 335.516 150.059V334.746C335.516 341.121 340.684 346.289 347.059 346.289H382.457C388.832 346.289 394 341.121 394 334.746V90.3599C394 40.5712 352.72 0 302.871 0ZM220.086 230.859C213.711 230.859 208.543 225.691 208.543 219.316C208.543 212.942 213.711 207.773 220.086 207.773C226.461 207.773 231.629 212.942 231.629 219.316C231.629 225.691 226.461 230.859 220.086 230.859Z" fill="#546DFE"/>
<path d="M183.156 170.135L90.7908 82.3899C76.6584 68.98 76.3721 46.5897 90.1598 32.8028L114.055 8.90809L110.236 0H91.1294C41.3408 0 0 40.5104 0 90.3599V334.746C0 341.121 5.16817 346.289 11.543 346.289H46.9414C53.3162 346.289 58.4844 341.121 58.4844 334.746V150.059C58.4844 143.684 63.6526 138.516 70.0273 138.516C76.4021 138.516 81.5703 143.684 81.5703 150.059V253.945H162.371V215.359C162.371 200.051 168.453 185.369 179.277 174.545L183.315 170.507L183.156 170.135Z" fill="#546DFE"/>
</g>
<defs>
<clipPath id="clip0_273_367">
<rect width="394" height="394" fill="white"/>
</clipPath>
</defs>
</svg>
