<svg width="394" height="394" viewBox="0 0 394 394" fill="none" xmlns="http://www.w3.org/2000/svg">
<g clip-path="url(#clip0_273_384)">
<path d="M351.115 0H42.8849C30.5916 0 20.2791 10.2279 20.2791 22.5196V75.3234H373.721V22.5196C373.721 10.2279 363.408 0 351.115 0ZM131.333 53.1132H67.5976C62.2648 53.1132 57.9408 48.7899 57.9408 43.4563C57.9408 38.1227 62.2648 33.7994 67.5976 33.7994H131.333C136.666 33.7994 140.99 38.1227 140.99 43.4563C140.99 48.7892 136.666 53.1132 131.333 53.1132ZM274.078 59.6157C264.82 59.6157 257.314 52.1105 257.314 42.8522C257.314 33.594 264.82 26.0887 274.078 26.0887C283.336 26.0887 290.841 33.594 290.841 42.8522C290.841 52.1112 283.336 59.6157 274.078 59.6157ZM320.857 59.6157C311.599 59.6157 304.094 52.1105 304.094 42.8522C304.094 33.594 311.599 26.0887 320.857 26.0887C330.115 26.0887 337.621 33.594 337.621 42.8522C337.62 52.1112 330.115 59.6157 320.857 59.6157Z" fill="#546DFE"/>
<path d="M20.2791 94.6375V371.481C20.2791 383.773 30.5916 394 42.8849 394H351.116C363.408 394 373.721 383.772 373.721 371.481V94.6375H20.2791ZM319.643 257.84C319.643 263.174 315.319 267.497 309.986 267.497C308.125 267.497 306.392 266.961 304.918 266.049C292.961 314.823 248.878 351.123 196.469 351.123C134.903 351.123 84.8144 301.035 84.8144 239.468C84.8144 177.902 134.902 127.812 196.468 127.812C248.893 127.812 292.986 164.132 304.928 212.929C306.401 212.02 308.128 211.486 309.986 211.486C315.319 211.486 319.643 215.81 319.643 221.143V257.84Z" fill="#546DFE"/>
<path d="M196.468 147.125C145.551 147.125 104.127 188.548 104.127 239.466C104.127 290.383 145.551 331.807 196.468 331.807C247.386 331.807 288.809 290.383 288.809 239.466C288.809 188.548 247.385 147.125 196.468 147.125ZM196.468 298.656C163.831 298.656 137.279 272.103 137.279 239.467C137.279 206.831 163.831 180.277 196.468 180.277C229.105 180.277 255.658 206.829 255.658 239.467C255.658 272.104 229.105 298.656 196.468 298.656Z" fill="#546DFE"/>
</g>
<defs>
<clipPath id="clip0_273_384">
<rect width="394" height="394" fill="white"/>
</clipPath>
</defs>
</svg>
