<svg width="394" height="394" viewBox="0 0 394 394" fill="none" xmlns="http://www.w3.org/2000/svg">
<path d="M197 147.848C217.451 147.848 234.036 131.276 234.036 110.812C234.036 90.3613 217.464 73.7765 197 73.7765C176.549 73.7765 159.964 90.3613 159.964 110.812C159.964 131.264 176.549 147.848 197 147.848ZM197 221.625C163.005 221.625 135.437 249.193 135.437 283.187C135.437 317.194 163.005 344.75 197 344.75C230.995 344.75 258.562 317.182 258.562 283.187C258.562 249.193 230.995 221.625 197 221.625ZM295.5 0H98.5C71.3016 0 49.25 22.0516 49.25 49.25V344.75C49.25 371.948 71.3016 394 98.5 394H295.5C322.698 394 344.75 371.948 344.75 344.75V49.25C344.75 22.0516 322.698 0 295.5 0ZM197 49.25C230.995 49.25 258.562 76.8176 258.562 110.812C258.562 144.819 230.995 172.375 197 172.375C163.005 172.375 135.437 144.807 135.437 110.812C135.437 76.8176 163.005 49.25 197 49.25ZM197 369.375C149.4 369.375 110.812 330.788 110.812 283.187C110.812 235.587 149.4 197 197 197C244.6 197 283.187 235.587 283.187 283.187C283.187 330.788 244.6 369.375 197 369.375Z" fill="#546DFE"/>
</svg>
