<svg width="394" height="394" viewBox="0 0 394 394" fill="none" xmlns="http://www.w3.org/2000/svg">
<path d="M366.086 31H27.9989C12.6039 31 0.0782268 43.5225 0.0782268 58.9176L0 289.261C0 304.653 12.5194 317.225 27.9144 317.225H138.527V344.924H116.927C115.228 344.924 113.904 346.37 113.904 348.069V360.219C113.904 361.918 115.225 363.395 116.927 363.395H276.51C278.203 363.395 280.096 361.918 280.096 360.219V348.069C280.096 346.37 278.203 344.924 276.51 344.924H255.473V317.225H366.01C381.393 317.225 393.928 304.653 393.928 289.261L394 58.9426C394.003 43.5444 381.481 31 366.086 31ZM196.615 295.522C191.512 295.522 187.381 291.389 187.381 286.288C187.381 281.191 191.512 277.058 196.615 277.058C201.716 277.058 205.849 281.191 205.849 286.288C205.849 291.389 201.719 295.522 196.615 295.522ZM369.349 255.67H24.6508V55.6195H369.349V255.67Z" fill="#546DFE"/>
</svg>
