<svg width="394" height="394" viewBox="0 0 394 394" fill="none" xmlns="http://www.w3.org/2000/svg">
<g clip-path="url(#clip0_288_164)">
<path d="M360.82 279.24L232.927 227.644V178.551C260.132 163.229 278.893 131.021 278.893 94.1222C278.893 42.2143 241.995 0 196.654 0C151.313 0 114.414 42.2143 114.414 94.1222C114.414 131.333 133.176 163.229 160.381 178.551V227.644L32.4871 279.24C12.7871 287.37 -0.346191 306.757 -0.346191 328.646V386.183C-0.346191 390.56 3.09349 394 7.47127 394H385.524C389.901 394 393.341 390.56 393.341 386.183V328.646C393.654 306.757 380.52 287.37 360.82 279.24Z" fill="#546DFE"/>
</g>
<defs>
<clipPath id="clip0_288_164">
<rect width="394" height="394" fill="white"/>
</clipPath>
</defs>
</svg>
