<svg width="394" height="394" viewBox="0 0 394 394" fill="none" xmlns="http://www.w3.org/2000/svg">
<g clip-path="url(#clip0_273_391)">
<path d="M295.623 0H98.6252C85.0125 0 74 11.0263 74 24.626V369.375C74 382.987 85.015 394 98.626 394H295.624C309.237 394 320.25 382.987 320.25 369.375V24.626C320.249 11.0263 309.237 0 295.623 0ZM154.031 24.626H240.218C243.632 24.626 246.372 27.3795 246.372 30.7802C246.372 34.1834 243.632 36.9385 240.218 36.9385H154.031C150.617 36.9385 147.875 34.1834 147.875 30.7802C147.875 27.3787 150.617 24.626 154.031 24.626ZM197.124 381.687C186.928 381.687 178.655 373.417 178.655 363.22C178.655 353.021 186.928 344.748 197.124 344.748C207.322 344.748 215.591 353.021 215.591 363.22C215.592 373.418 207.322 381.687 197.124 381.687ZM295.623 332.436H98.6252V61.5637H295.623V332.436Z" fill="#546DFE"/>
</g>
<defs>
<clipPath id="clip0_273_391">
<rect width="394" height="394" fill="white"/>
</clipPath>
</defs>
</svg>
