<svg width="394" height="394" viewBox="0 0 394 394" fill="none" xmlns="http://www.w3.org/2000/svg">
<g clip-path="url(#clip0_288_641)">
<path d="M209.165 325.924L206.593 328.496C206.85 328.238 207.707 327.295 209.165 325.924Z" fill="#546DFE"/>
<path d="M126.013 254.174C126.013 306.894 155.159 354.127 199.135 378.73C186.791 381.816 173.932 383.359 160.902 383.359C72.1785 383.359 0 311.18 0 222.457C0 157.65 46.4617 94.8147 105.011 69.3548C102.525 49.2954 97.81 30.436 90.6094 26.1503C86.5806 23.7501 85.2943 18.435 87.6947 14.4062C90.0947 10.2912 95.3236 9.00574 99.4394 11.4059C107.582 16.2926 113.069 27.1788 116.755 39.8661C134.414 32.4086 174.018 17.9211 216.793 17.9211C234.624 17.9211 251.255 20.4929 266.17 25.6356C268.656 26.4934 270.628 28.4651 271.485 31.0361C272.343 33.5225 272 36.2658 270.457 38.4945C269.6 39.9515 247.226 72.7836 209.765 85.4708C178.819 95.7571 150.101 89.1573 122.584 71.3265C123.441 79.1272 123.87 86.414 124.127 92.1568C146.758 104.758 173.075 110.673 198.363 105.873C199.05 107.759 200.42 109.474 202.392 110.502C213.108 116.073 244.997 135.876 250.398 152.164C251.769 156.192 255.884 159.107 261.284 157.65C265.741 156.107 268.228 151.307 266.685 146.763C260.17 127.047 233.424 108.874 219.108 100.215C229.224 96.5295 238.225 91.4714 246.111 85.9855C292.488 114.874 321.719 165.879 321.719 222.457C321.719 230.171 321.205 237.973 320.005 245.602H134.586C129.785 245.602 126.013 249.459 126.013 254.174Z" fill="#546DFE"/>
<path d="M382.754 262.739C378.404 320.446 330.055 368.466 268.736 368.466C207.992 368.466 159.069 320.938 154.8 262.739H143.39C147.905 327.259 201.508 379.794 268.736 379.794C335.144 379.794 389.567 327.998 394 262.739H382.754ZM172.039 262.739C173.844 282.85 181.643 301.402 194.366 316.506C196.829 313.961 247.23 263.642 248.051 262.739H172.039ZM209.142 325.946L206.515 328.572C222.686 342.034 241.319 349.258 260.199 350.982V274.888C260.199 274.888 219.895 315.11 209.142 325.946ZM277.355 274.888V350.9C296.481 349.258 315.115 342.034 331.04 328.572C331.04 328.572 284.415 281.947 277.355 274.888ZM289.422 262.739C289.422 262.739 342.039 315.438 343.189 316.506C355.666 301.648 363.71 283.096 365.516 262.739H289.422Z" fill="#546DFE"/>
</g>
<defs>
<clipPath id="clip0_288_641">
<rect width="394" height="394" fill="white"/>
</clipPath>
</defs>
</svg>
