<svg width="394" height="394" viewBox="0 0 394 394" fill="none" xmlns="http://www.w3.org/2000/svg">
<path d="M367.733 313.099C367.733 254.432 362.638 202.037 351.198 143.219C342.984 100.976 331.873 71.0973 317.439 52.5333H328.333C331.958 52.5333 334.9 49.598 334.9 45.9667V26.2667C334.9 11.7806 323.119 0 308.633 0H302.067H111.633C97.1473 0 85.3667 11.7806 85.3667 26.2667V43.0051C66.5663 59.9537 52.6121 92.7607 42.8081 143.212C31.369 202.03 26.2667 254.432 26.2667 313.092V387.433C26.2667 391.065 29.2085 394 32.8333 394H242.967H361.167C361.981 394 362.743 393.81 363.472 393.534C363.701 393.448 363.898 393.33 364.115 393.219C364.594 392.976 365.034 392.68 365.442 392.326C365.632 392.161 365.816 392.004 365.987 391.82C366.387 391.386 366.702 390.894 366.978 390.355C367.057 390.191 367.175 390.06 367.241 389.889C367.254 389.843 367.293 389.817 367.306 389.771C367.576 389.062 367.687 388.326 367.701 387.591C367.701 387.538 367.733 387.492 367.733 387.433V313.099ZM354.6 313.099V372.816L308.633 331.958V62.8036C320.913 79.8113 330.875 107.523 338.308 145.727C349.576 203.685 354.6 255.305 354.6 313.099ZM249.533 313.099C249.533 255.305 254.563 203.685 265.832 145.721C266.85 140.487 267.92 135.49 269.036 130.644C269.155 130.145 269.26 129.626 269.378 129.133C270.442 124.576 271.558 120.229 272.701 116.02C272.878 115.357 273.062 114.687 273.239 114.037C274.375 109.985 275.55 106.117 276.765 102.407C276.982 101.751 277.192 101.094 277.415 100.45C278.643 96.8058 279.898 93.3255 281.204 90.0224C281.421 89.4708 281.638 88.9455 281.861 88.407C283.201 85.0974 284.573 81.9389 285.998 78.9839C286.169 78.6227 286.346 78.2944 286.523 77.9398C288.021 74.8928 289.551 72.0035 291.14 69.344C291.179 69.2718 291.225 69.2061 291.271 69.1339C292.643 66.8421 294.075 64.7867 295.513 62.7905V331.945L249.546 372.803V313.099H249.533ZM321.767 26.2667V39.4H308.633V13.1333C315.876 13.1333 321.767 19.0236 321.767 26.2667ZM98.5 26.2667C98.5 19.0236 104.39 13.1333 111.633 13.1333H295.5V39.4H98.5V26.2667ZM157.836 292.814C142.681 296.905 126.047 295.671 111.745 287.128C99.2158 279.641 90.4099 267.966 86.9558 254.235C79.4764 224.541 99.1895 193.841 130.893 185.804C133.362 185.18 135.851 184.747 138.333 184.425C141.288 161.914 160.555 144.46 183.86 144.46C187.485 144.46 190.427 147.395 190.427 151.027C190.427 166.708 182.52 180.564 170.497 188.864C174.082 190.427 177.543 192.298 180.774 194.57L183.945 196.974C193.04 204.466 199.206 214.132 201.971 225.112C210.225 257.88 186.717 285.02 157.836 292.814ZM260.237 380.867L302.067 343.686L343.896 380.867H260.237Z" fill="#546DFE"/>
</svg>
