<svg width="394" height="394" viewBox="0 0 394 394" fill="none" xmlns="http://www.w3.org/2000/svg">
<path d="M60.2701 46.4961C60.2595 46.4961 60.2476 46.4961 60.237 46.4961C56.5106 46.4961 53.0057 47.9488 50.3591 50.5887C47.6833 53.2578 46.2095 56.8118 46.2095 60.5953V272.01C46.2095 279.762 52.5414 286.085 60.3259 286.105C93.1434 286.183 148.126 293.023 186.056 332.716V111.465C186.056 108.837 185.385 106.368 184.118 104.325C152.986 54.1904 93.162 46.5731 60.2701 46.4961Z" fill="#546DFE"/>
<path d="M347.792 272.009V60.594C347.792 56.8105 346.318 53.2565 343.642 50.5874C340.996 47.9474 337.488 46.4948 333.766 46.4948C333.754 46.4948 333.742 46.4948 333.731 46.4948C300.841 46.5731 241.016 54.1904 209.883 104.325C208.616 106.368 207.947 108.837 207.947 111.465V332.715C245.877 293.022 300.859 286.182 333.677 286.103C341.46 286.083 347.792 279.761 347.792 272.009Z" fill="#546DFE"/>
<path d="M379.903 95.2515H369.681V272.009C369.681 291.804 353.553 307.945 333.728 307.994C305.892 308.06 259.994 313.503 227.489 344.268C283.707 330.503 342.972 339.451 376.747 347.148C380.965 348.109 385.323 347.116 388.702 344.423C392.068 341.737 394 337.721 394 333.411V109.348C394.001 101.575 387.676 95.2515 379.903 95.2515Z" fill="#546DFE"/>
<path d="M24.3193 272.009V95.2515H14.0965C6.32525 95.2515 0 101.575 0 109.348V333.407C0 337.719 1.93153 341.733 5.29846 344.42C8.67466 347.111 13.0286 348.107 17.2525 347.144C51.0278 339.446 110.294 330.499 166.51 344.264C134.006 313.5 88.1077 308.059 60.2716 307.992C40.4481 307.945 24.3193 291.804 24.3193 272.009Z" fill="#546DFE"/>
</svg>
