<svg width="394" height="394" viewBox="0 0 394 394" fill="none" xmlns="http://www.w3.org/2000/svg">
<g clip-path="url(#clip0_273_429)">
<path d="M392.962 301.656L372.53 95.8074C370.914 81.2633 359.755 69.2578 345.673 65.5648L323.973 60.2543C325.112 26.0963 298.418 0.679496 267.154 0.18084C266.843 0.154676 266.576 0 266.258 0H127.742C127.424 0 127.157 0.154676 126.846 0.18007C95.5904 0.679496 68.8877 26.0886 70.0273 60.2543L48.3265 65.5648C34.2441 69.2578 23.8555 81.2633 22.2394 95.8074L1.03809 301.656H70.0273V150.059C70.0273 143.678 75.1901 138.516 81.5703 138.516C87.9505 138.516 93.1133 143.678 93.1133 150.059C93.1133 239.222 93.1133 295.135 93.1133 382.457C93.1133 388.832 98.2814 394 104.656 394H289.344C295.719 394 300.887 388.832 300.887 382.457C300.887 332.557 300.887 199.73 300.887 150.059C300.887 143.678 306.049 138.516 312.43 138.516C318.81 138.516 323.973 143.678 323.973 150.059V301.656H392.962ZM161.154 295.276L138.068 341.448C135.231 347.106 128.341 349.471 122.579 346.611C116.876 343.759 114.565 336.826 117.417 331.122L140.503 284.95C143.354 279.247 150.298 276.958 155.991 279.788C161.695 282.64 164.006 289.572 161.154 295.276ZM109.273 60.9469C104.194 57.9457 98.8848 56.3297 93.1133 55.8672C94.2337 38.5289 106.525 26.545 121.508 23.5484L163.294 93.2672L109.273 60.9469ZM197 104.58L175.84 69.2578H218.16L197 104.58ZM271.421 346.611C265.659 349.471 258.769 347.106 255.932 341.448L232.846 295.276C229.994 289.572 232.305 282.64 238.009 279.788C243.724 276.958 250.634 279.247 253.497 284.95L276.583 331.122C279.435 336.826 277.124 343.759 271.421 346.611ZM284.727 60.9476L230.706 93.2672L272.492 23.5484C287.475 26.5457 299.767 38.5297 300.887 55.868C295.115 56.3305 289.806 57.9465 284.727 60.9476Z" fill="#546DFE"/>
<path d="M0 324.742V359.371C0 365.751 5.16279 370.914 11.543 370.914H70.0273C70.0273 354.544 70.0273 341.603 70.0273 324.742H0Z" fill="#546DFE"/>
<path d="M323.973 324.742C323.973 341.603 323.973 354.544 323.973 370.914H382.457C388.837 370.914 394 365.751 394 359.371V324.742H323.973Z" fill="#546DFE"/>
</g>
<defs>
<clipPath id="clip0_273_429">
<rect width="394" height="394" fill="white"/>
</clipPath>
</defs>
</svg>
