<svg width="394" height="394" viewBox="0 0 394 394" fill="none" xmlns="http://www.w3.org/2000/svg">
<g clip-path="url(#clip0_273_501)">
<path d="M34.9056 158.112L78.9416 57.3106L85.9791 60.3637L78.8899 57.2589C80.3905 53.7919 84.168 51.9808 87.7385 52.8605L103.107 55.2408L103.159 55.603C101.71 61.2434 100.002 65.4865 98.3982 70.4024L90.6363 68.9018L50.2742 161.372L168.359 375.809C170.222 374.774 172.965 370.893 173.844 372.756L180.468 386.727C182.279 390.608 172.913 390.919 169.032 393.04C165.306 395.11 160.597 393.713 158.579 389.987L34.9573 165.46C33.6636 163.08 33.7154 160.337 34.9056 158.112Z" fill="#546DFE"/>
<path d="M69.1616 82.4075C69.8343 84.4257 72.0593 85.5123 74.0774 84.7879C76.0956 84.1152 77.1822 81.8901 76.4578 79.872C67.0917 52.4982 69.472 32.0067 76.4578 21.14C79.6143 16.1723 83.7023 13.4298 87.7902 13.2228C91.8782 13.0158 96.2766 15.2926 100.209 20.4673L106.367 15.8618C100.779 8.46212 93.9998 5.20211 87.428 5.56433C80.8045 5.92656 74.5949 9.91102 70.0412 17.0003C61.9171 29.5229 58.9158 52.4982 69.1616 82.4075Z" fill="#546DFE"/>
<path d="M103.418 44.6328C102.642 31.6962 105.125 21.7092 109.265 15.2409C112.37 10.4285 116.303 7.7377 120.339 7.53072C124.323 7.32373 128.618 9.54882 132.447 14.62C141.71 26.8838 147.454 54.0506 140.468 100.053C140.158 102.123 141.555 103.986 143.625 104.296C145.695 104.607 147.557 103.21 147.868 101.14C155.216 52.8087 148.696 23.6756 138.398 10.0663C132.965 2.87355 126.341 -0.334717 119.873 0.0275067C113.405 0.389731 107.351 4.2707 102.9 11.2047C98.1914 18.5527 95.2419 29.5746 95.8111 43.4944L103.418 44.6328Z" fill="#546DFE"/>
<path d="M165.358 187.504C164.219 191.334 164.789 195.318 167.169 199.509C169.756 204.063 173.689 206.599 178.967 207.064C181.917 207.323 185.901 206.857 190.972 205.615L174.879 177.155C169.705 180.208 166.548 183.675 165.358 187.504Z" fill="#546DFE"/>
<path d="M226.936 224.089C223.986 223.675 219.536 224.089 213.585 225.227L231.541 256.948C235.94 253.74 238.786 250.842 240.131 248.254C242.46 243.649 241.891 238.267 238.475 232.161C235.836 227.504 232.007 224.813 226.936 224.089Z" fill="#546DFE"/>
<path d="M359.355 294.36L235.733 69.885C234.595 67.8669 232.628 66.3663 230.144 66.004L161.218 55.3961C161.787 69.4193 160.753 85.2537 158.165 102.537C157.13 109.367 151.128 114.542 144.246 114.542C143.573 114.542 142.848 114.49 142.176 114.387C138.45 113.818 135.19 111.851 132.913 108.85C130.688 105.797 129.757 102.123 130.326 98.3455C133.431 78.0092 133.793 62.6405 132.913 51.1011L121.529 49.3417C117.958 48.5138 114.233 50.2732 112.68 53.7402L119.718 56.845L112.68 53.7919L68.6442 154.594C67.454 156.819 67.4023 159.561 68.696 161.942L192.318 386.417C194.388 390.143 199.045 391.488 202.771 389.47L356.354 304.865C360.079 302.743 361.425 298.086 359.355 294.36ZM262.175 254.723C257.518 262.329 250.739 269.108 241.787 275.059L250.998 291.359L242.253 296.327L233.146 280.182C220.623 285.667 210.481 288.358 202.719 288.203C188.903 287.789 177.881 280.078 169.601 264.968L193.922 251.204C198.631 257.517 202.357 261.45 205.203 262.899C209.601 265.175 215.5 264.968 223.003 262.174L203.392 227.556L195.009 229.729C181.813 233.196 171.361 233.558 163.547 230.816C155.785 228.073 149.731 222.899 145.436 215.292C142.59 210.273 140.934 205.202 140.416 200.027C139.951 194.904 140.468 189.885 142.124 185.02C144.246 178.759 147.454 173.429 151.852 169.031C154.543 166.288 158.786 162.977 164.685 159.096L158.579 148.332L167.324 143.365L173.534 154.335C183.676 149.523 192.577 147.349 200.183 147.815C213.586 147.867 224.09 154.283 231.8 167.065L208.1 180.467C204.892 175.913 202.046 172.912 199.459 171.463C195.009 168.876 189.73 169.134 183.573 172.084L201.063 202.976C217.829 199.354 229.575 197.854 236.457 198.475C247.738 199.561 256.328 205.305 262.124 215.603C269.73 229.212 269.782 242.252 262.175 254.723Z" fill="#546DFE"/>
</g>
<defs>
<clipPath id="clip0_273_501">
<rect width="394" height="394" fill="white"/>
</clipPath>
</defs>
</svg>
