<svg width="394" height="394" viewBox="0 0 394 394" fill="none" xmlns="http://www.w3.org/2000/svg">
<path d="M284.738 71.9827V99.9972L330.127 130.304V71.9827H284.738Z" fill="#546DFE"/>
<path d="M318.779 0H76.7054C70.4384 0 65.3584 5.08886 65.3584 11.3651V49.2495H330.126V11.3651C330.126 5.08886 325.046 0 318.779 0Z" fill="#546DFE"/>
<path d="M65.3584 71.9827V130.304L110.747 99.9972V71.9827H65.3584Z" fill="#546DFE"/>
<path d="M267.096 115.535C263.94 113.427 262.043 109.879 262.043 106.079V71.9827H133.441V106.079C133.441 109.879 131.546 113.428 128.388 115.535L65.3584 157.621V382.633C65.3584 388.91 70.4392 393.998 76.7054 393.998H152.354C157.777 393.998 162.441 390.156 163.488 384.827L197.742 210.421L231.997 384.829C233.044 390.158 237.708 394 243.131 394H318.779C325.046 394 330.126 388.911 330.126 382.635V157.623L267.096 115.535Z" fill="#546DFE"/>
</svg>
