<svg width="394" height="394" viewBox="0 0 394 394" fill="none" xmlns="http://www.w3.org/2000/svg">
<path d="M258.565 209.786C258.565 244.025 231.003 271.777 197.001 271.777C162.998 271.777 135.441 244.025 135.441 209.786C135.441 175.542 162.998 147.79 197.001 147.79C231.002 147.79 258.565 175.542 258.565 209.786ZM394 110.595V308.975C394 322.679 382.987 333.769 369.378 333.769H24.6261C11.0126 333.77 0 322.679 0 308.975V110.595C0 96.8883 11.0142 85.7969 24.6261 85.7969H49.2497C49.2497 72.0905 60.2761 61 73.8758 61H98.5018C112.1 61 123.125 72.0897 123.125 85.7969H369.378C382.986 85.7969 394 96.8883 394 110.595ZM283.187 209.786C283.187 161.933 244.52 122.991 197 122.991C149.48 122.991 110.812 161.933 110.812 209.786C110.812 257.634 149.481 296.572 197 296.572C244.52 296.572 283.187 257.634 283.187 209.786ZM344.752 110.595H295.501V135.393H344.752V110.595Z" fill="#546DFE"/>
</svg>
