<svg width="394" height="394" viewBox="0 0 394 394" fill="none" xmlns="http://www.w3.org/2000/svg">
<g clip-path="url(#clip0_288_233)">
<path d="M347.803 46.1398C347.721 46.2099 347.616 46.2956 347.533 46.3663C344.713 18.107 288.911 0 203.419 0C126.507 0 48.6099 16.088 45.9832 46.9514C45.903 47.4324 45.8269 47.994 45.8229 48.5551L45.8189 117.446C25.7389 121.291 10.4971 138.938 10.4971 160.121C10.4971 260.448 92.1155 342.067 192.443 342.067H201.132C301.46 342.067 383.078 260.448 383.078 160.121C383.078 138.954 367.861 121.313 347.803 117.45V46.1398ZM223.858 151.936C222.462 151.936 221.149 152.51 220.082 153.495C219.097 154.563 218.522 155.876 218.522 157.271V182.635C218.522 194.209 210.56 204.141 199.643 206.275C192.666 207.589 185.607 205.782 180.189 201.35C174.772 196.836 171.653 190.269 171.653 183.292V177.053C171.653 174.837 170.175 172.867 168.287 172.703C167.302 172.621 166.235 173.031 165.497 173.77C164.758 174.509 164.347 175.412 164.347 176.397V210.543C164.347 221.953 156.549 231.803 145.714 234.019C144.155 234.266 142.513 234.43 140.954 234.43C135.536 234.43 130.365 232.624 126.097 229.177C120.679 224.744 117.56 218.177 117.56 211.118V89.8808C122.813 90.8658 128.313 91.6869 133.976 92.5076C155.729 95.5446 179.615 97.1042 203.419 97.1042C224.022 97.1042 242.819 96.0371 259.646 94.0672C265.392 93.4104 270.809 92.5897 276.063 91.6869V210.543C276.063 221.953 268.265 231.803 257.43 233.937C250.453 235.415 243.229 233.691 237.812 229.177C232.394 224.744 229.193 218.177 229.193 211.118V157.271C229.193 154.317 226.813 151.936 223.858 151.936ZM69.0486 40.3849C85.5474 29.5498 131.678 16.4167 203.419 16.4167C270.973 16.4167 313 28.647 326.544 40.3849C329.745 43.2576 331.387 45.9665 331.387 48.5932C331.387 62.055 286.898 80.6876 203.419 80.6876C112.06 80.6876 62.2355 59.5104 62.2355 48.5932C62.2355 46.2125 64.5341 43.4219 69.0486 40.3849ZM366.662 160.121C366.662 251.39 292.402 325.65 201.132 325.65H192.443C101.174 325.65 26.9137 251.39 26.9137 160.121C26.9137 148.057 34.8976 137.928 45.8189 134.435V186.903C58.4595 256.346 119.366 309.208 192.42 309.208H201.12C274.175 309.208 335.163 256.346 347.803 186.903V134.45C358.701 137.957 366.662 148.074 366.662 160.121Z" fill="#546DFE"/>
<path d="M347.803 345.406V293.53C311.523 333.34 259.236 358.458 201.12 358.458H192.42C134.387 358.458 82.0996 333.34 45.8189 293.53V345.406C45.8189 377.337 125.111 394 203.419 394C291.166 394 347.803 374.957 347.803 345.406Z" fill="#546DFE"/>
</g>
<defs>
<clipPath id="clip0_288_233">
<rect width="394" height="394" fill="white"/>
</clipPath>
</defs>
</svg>
