<svg width="394" height="394" viewBox="0 0 394 394" fill="none" xmlns="http://www.w3.org/2000/svg">
<g clip-path="url(#clip0_273_441)">
<path d="M51.4171 342.635C51.3393 342.557 51.2339 342.537 51.1639 342.467C47.5687 339.026 44.1004 335.339 40.6953 331.548C39.6896 330.444 38.7046 329.318 37.7265 328.192C35.7773 325.92 33.8781 323.584 31.9997 321.199C28.8409 317.245 25.8505 313.171 22.9802 308.992C22.6916 308.577 22.3961 308.19 22.1075 307.774C22.0868 307.739 22.0791 307.697 22.0583 307.662C18.8571 302.934 15.8667 298.073 13.0603 293.084L2.28162 297.544C21.2772 338.913 55.0623 372.704 96.4379 391.701L102.01 378.242C83.4922 368.87 66.3819 356.911 51.4171 342.635Z" fill="#546DFE"/>
<path d="M132.241 243.759L122.103 247.952L115.764 250.576C116.01 253.095 116.137 255.592 116.137 258.048C116.137 263.416 115.609 268.657 114.568 273.737C125.226 271.268 133.198 261.686 133.198 250.274C133.198 248.071 132.882 245.89 132.241 243.759Z" fill="#546DFE"/>
<path d="M145.215 238.398C146.524 242.246 147.269 246.207 147.269 250.28C147.269 271.331 130.145 288.448 109.102 288.448C107.484 288.448 105.901 288.321 104.332 288.124C102.221 287.857 100.342 286.646 99.2235 284.831C98.1047 283.016 97.873 280.793 98.5902 278.787C100.898 272.315 102.065 265.335 102.065 258.068C102.065 257.484 102.002 256.879 101.988 256.295L26.0114 287.737C27.9321 291.086 30.0144 294.329 32.1321 297.558C36.403 298.572 40.7785 299.24 45.2109 299.352C57.6002 299.605 69.5962 296.411 78.1156 290.445C79.9171 289.185 82.2033 288.84 84.2995 289.509C86.3887 290.178 88.0493 291.788 88.7812 293.864C90.3502 298.296 91.089 302.89 90.9766 307.499C90.6249 321.774 82.281 334.248 70.1095 340.446C81.5354 350.099 93.9947 358.513 107.341 365.358L162.901 231.086L145.215 238.398Z" fill="#546DFE"/>
<path d="M44.853 313.403C44.4521 313.396 44.0443 313.382 43.6426 313.367C43.9381 313.733 44.2405 314.064 44.536 314.422C46.6252 316.976 48.7083 319.537 50.9246 321.978C51.2901 322.386 51.6771 322.759 52.0504 323.167C54.1473 325.446 56.3351 327.635 58.5297 329.816C68.9213 327.283 76.5965 318.094 76.8997 307.232C67.4369 311.532 56.3982 313.727 44.853 313.403Z" fill="#546DFE"/>
<path d="M157.322 87.7046C157.315 82.3433 157.836 77.1021 158.884 72.0225C148.219 74.5058 140.254 84.0886 140.254 95.4929C140.254 108.755 151.025 119.547 164.28 119.59C159.75 110.239 157.322 99.2428 157.322 87.7046Z" fill="#546DFE"/>
<path d="M316.423 77.6085C281.788 42.9585 233.763 25.0671 184.648 28.5784C105.619 34.1929 40.4768 95.1836 29.755 173.594C26.5046 197.416 28.179 220.964 34.75 243.716L187.878 180.355C195.384 177.245 203.623 178.884 209.371 184.633C212.98 188.242 214.957 192.829 215.176 197.606C215.323 200.469 214.831 203.396 213.67 206.225L150.611 359.324C173.251 365.818 196.679 367.471 220.381 364.242C298.785 353.541 359.782 288.42 365.418 209.397C368.922 160.297 351.066 112.258 316.423 77.6085ZM79.4676 107.587L93.5383 93.516C96.2824 90.765 100.743 90.765 103.487 93.516C106.238 96.267 106.238 100.713 103.487 103.464L89.416 117.535C88.0439 118.907 86.2432 119.597 84.4418 119.597C82.6403 119.597 80.8396 118.907 79.4676 117.535C76.7243 114.784 76.7243 110.331 79.4676 107.587ZM132.157 156.455C131.636 177.196 114.61 193.701 93.9961 193.708C93.6799 193.708 93.3698 193.708 93.0535 193.695C72.0102 193.181 55.3154 175.642 55.8287 154.598C55.871 152.987 56.0326 151.404 56.265 149.85C56.5813 147.739 57.841 145.889 59.684 144.819C61.5201 143.736 63.7578 143.553 65.7486 144.327C72.1648 146.789 79.1021 148.133 86.384 148.309C98.8226 148.576 110.769 145.368 119.289 139.402C121.097 138.135 123.376 137.79 125.473 138.466C127.57 139.135 129.229 140.745 129.961 142.821C131.53 147.253 132.269 151.847 132.157 156.455ZM182.179 126.548C181.559 128.658 179.983 130.361 177.929 131.142C173.532 132.816 168.959 133.667 164.343 133.667C143.3 133.667 126.176 116.543 126.176 95.4998C126.176 74.4565 143.3 57.3324 164.343 57.3324C165.955 57.3324 167.538 57.4593 169.092 57.6563C171.21 57.9164 173.095 59.1269 174.214 60.9422C175.333 62.7575 175.572 64.9806 174.854 66.9929C172.547 73.4654 171.379 80.4449 171.379 87.7123C171.379 100.116 174.918 112.027 181.088 120.392C182.397 122.158 182.798 124.437 182.179 126.548ZM304.603 135.729L318.674 121.658C321.418 118.907 325.878 118.907 328.622 121.658C331.373 124.409 331.373 128.855 328.622 131.606L314.552 145.677C313.18 147.049 311.379 147.739 309.577 147.739C307.776 147.739 305.975 147.049 304.603 145.677C301.86 142.926 301.86 138.473 304.603 135.729ZM221.507 84.7781C223.35 83.7015 225.573 83.5184 227.572 84.2925C233.988 86.755 240.925 88.0986 248.2 88.2748C260.582 88.5495 272.585 85.3337 281.104 79.3753C282.906 78.1156 285.199 77.7708 287.281 78.4395C289.371 79.1083 291.038 80.7189 291.77 82.7943C293.339 87.2267 294.078 91.8207 293.965 96.4363C293.712 106.631 289.512 116.115 282.125 123.143C274.97 129.954 265.669 133.668 255.833 133.668C255.509 133.668 255.193 133.668 254.869 133.654C244.681 133.401 235.198 129.201 228.162 121.814C221.133 114.433 217.398 104.753 217.651 94.5579C217.687 92.9465 217.855 91.3636 218.088 89.8092C218.411 87.7046 219.664 85.8539 221.507 84.7781ZM197.01 70.348C195.208 70.348 193.407 69.6585 192.035 68.2865C189.284 65.5354 189.284 61.0892 192.035 58.3381L206.106 44.2674C208.85 41.5164 213.31 41.5164 216.054 44.2674C218.805 47.0185 218.805 51.4648 216.054 54.2158L201.984 68.2865C200.612 69.6585 198.811 70.348 197.01 70.348ZM216.055 314.528L201.985 328.599C200.612 329.971 198.812 330.661 197.01 330.661C195.209 330.661 193.408 329.971 192.036 328.599C189.285 325.848 189.285 321.402 192.036 318.651L206.107 304.58C208.851 301.829 213.311 301.829 216.055 304.58C218.805 307.331 218.805 311.778 216.055 314.528ZM216.055 166.784C214.683 168.156 212.882 168.845 211.081 168.845C209.28 168.845 207.479 168.156 206.107 166.784C203.356 164.033 203.356 159.586 206.107 156.835L220.178 142.765C222.922 140.014 227.382 140.014 230.126 142.765C232.877 145.516 232.877 149.962 230.126 152.713L216.055 166.784ZM227.213 227.19L241.284 213.12C244.028 210.368 248.488 210.368 251.232 213.12C253.983 215.871 253.983 220.317 251.232 223.068L237.162 237.139C235.79 238.511 233.989 239.2 232.187 239.2C230.386 239.2 228.585 238.511 227.213 237.139C224.469 234.388 224.469 229.934 227.213 227.19ZM249.825 330.661C248.213 330.661 246.637 330.535 245.076 330.338C242.958 330.077 241.073 328.867 239.954 327.052C238.835 325.236 238.604 323.013 239.314 321.001C241.622 314.529 242.789 307.549 242.789 300.282C242.789 287.878 239.25 275.967 233.087 267.602C231.778 265.836 231.377 263.556 231.997 261.445C232.616 259.335 234.191 257.632 236.246 256.851C240.643 255.177 245.216 254.326 249.832 254.326C270.882 254.326 287.999 271.45 287.999 292.493C287.999 313.537 270.875 330.661 249.825 330.661ZM328.623 244.174L314.552 258.244C313.18 259.616 311.38 260.306 309.578 260.306C307.777 260.306 305.976 259.616 304.604 258.244C301.853 255.493 301.853 251.047 304.604 248.296L318.675 234.225C321.419 231.474 325.879 231.474 328.623 234.225C331.373 236.969 331.373 241.423 328.623 244.174ZM343.215 180.137C342.708 200.856 325.682 217.369 305.068 217.369C304.752 217.369 304.442 217.369 304.125 217.355C283.082 216.842 266.387 199.302 266.901 178.259C266.936 176.647 267.104 175.071 267.337 173.51C267.653 171.399 268.913 169.549 270.756 168.48C272.592 167.403 274.83 167.22 276.82 167.987C283.237 170.45 290.174 171.793 297.455 171.969C309.873 172.187 321.84 169.035 330.353 163.077C332.154 161.817 334.448 161.465 336.53 162.141C338.619 162.81 340.287 164.42 341.018 166.496C342.588 170.927 343.327 175.521 343.215 180.137Z" fill="#546DFE"/>
<path d="M86.0317 162.372C80.6635 162.245 75.4292 161.591 70.385 160.423C72.6012 171.144 81.9863 179.348 93.3983 179.63C106.548 179.798 117.706 169.45 118.079 156.202C108.616 160.5 97.5699 162.647 86.0317 162.372Z" fill="#546DFE"/>
<path d="M249.903 268.39C254.434 277.741 256.861 288.737 256.861 300.275C256.861 305.644 256.333 310.885 255.292 315.964C265.957 313.481 273.922 303.898 273.922 292.494C273.922 279.224 263.158 268.432 249.903 268.39Z" fill="#546DFE"/>
<path d="M297.111 186.039C291.743 185.905 286.516 185.251 281.464 184.083C283.681 194.82 293.066 203.016 304.471 203.297C317.578 203.564 328.785 193.117 329.152 179.869C319.695 184.168 308.642 186.356 297.111 186.039Z" fill="#546DFE"/>
<path d="M247.863 102.339C242.494 102.205 237.26 101.557 232.209 100.389C233.102 104.766 235.206 108.804 238.365 112.118C242.798 116.775 248.784 119.427 255.222 119.59C261.667 119.702 267.774 117.394 272.431 112.948C277.074 108.529 279.727 102.57 279.903 96.1685C270.446 100.46 259.372 102.619 247.863 102.339Z" fill="#546DFE"/>
<path d="M336.137 57.5155C293.023 14.507 233.32 -5.91685 172.323 1.49133C83.7808 12.2346 13.6721 81.5692 1.82455 170.097C-2.07307 199.196 0.297819 227.844 8.86028 255.368L21.9883 249.873C14.3123 224.525 12.1877 198.254 15.8252 171.681C27.4404 86.7057 98.0277 20.6208 183.656 14.5355C236.838 10.7717 288.851 30.119 326.378 67.6532C363.906 105.187 383.246 157.215 379.454 210.396C373.34 296.018 307.241 366.584 222.281 378.179C213.782 379.34 205.304 379.923 196.896 379.923C179.399 379.923 162.148 377.271 145.277 372.283L139.839 385.502C167.292 393.861 195.806 396.062 224.708 392.066C313.039 379.845 382.064 309.568 392.568 221.167C399.815 160.17 379.251 100.523 336.137 57.5155Z" fill="#546DFE"/>
</g>
<defs>
<clipPath id="clip0_273_441">
<rect width="394" height="394" fill="white"/>
</clipPath>
</defs>
</svg>
