<svg width="394" height="394" viewBox="0 0 394 394" fill="none" xmlns="http://www.w3.org/2000/svg">
<g clip-path="url(#clip0_273_492)">
<path d="M340.681 70.1258L285.798 47.8541L265.103 6.46483C263.058 2.62949 258.636 0 254.715 0H139.285C135.364 0 130.942 2.62949 128.896 6.46483L107.81 48.6367L53.4316 70.0804C48.0656 72.222 45.1122 78.0051 46.522 83.5957L69.2578 174.565V382.457C69.2578 388.837 74.4205 394 80.8007 394H312.43C318.81 394 323.973 388.837 323.973 382.457L324.742 171.656L347.456 83.6865C348.899 78.1066 346.002 72.3236 340.681 70.1258ZM154.06 107.58L129.127 57.7148L141.799 32.5997C162.839 57.8487 154.459 47.771 181.302 80.1074L154.06 107.58ZM208.543 173.145C208.543 179.608 203.465 184.687 197 184.687C190.535 184.687 185.457 179.608 185.457 173.145V108.504L197 96.9609L208.543 108.504V173.145ZM239.94 107.58L212.698 80.1074C239.541 47.771 231.159 57.8503 252.202 32.5997L264.873 57.7148L239.94 107.58Z" fill="#546DFE"/>
<path d="M361.745 120.694L349.119 169.589L375.15 160.908L361.745 120.694Z" fill="#546DFE"/>
<path d="M393.403 215.664L382.449 182.801L347.828 194.347V243.023L386.109 230.262C392.152 228.256 395.421 221.717 393.403 215.664Z" fill="#546DFE"/>
<path d="M32.1064 121.136L18.8489 160.91L44.158 169.35L32.1064 121.136Z" fill="#546DFE"/>
<path d="M11.5513 182.804L0.597066 215.664C-1.42065 221.717 1.84832 228.255 7.89068 230.262L46.1718 243.023V194.348L11.5513 182.804Z" fill="#546DFE"/>
</g>
<defs>
<clipPath id="clip0_273_492">
<rect width="394" height="394" fill="white"/>
</clipPath>
</defs>
</svg>
