<svg width="394" height="394" viewBox="0 0 394 394" fill="none" xmlns="http://www.w3.org/2000/svg">
<g clip-path="url(#clip0_288_169)">
<path d="M322.267 0C285.368 0 255.975 17.5111 250.659 41.2762H211.259V19.7C211.259 15.6349 207.819 12.1952 203.754 12.1952H151.221C147.156 12.1952 143.716 15.6349 143.716 19.7V81.3016H211.571V56.2857H250.659C255.975 79.7381 285.368 97.5619 322.267 97.5619C362.917 97.5619 394.5 75.9857 394.5 48.7809C394.5 21.5762 362.605 0 322.267 0Z" fill="#546DFE"/>
<path d="M239.089 96.9365H115.26V133.835H239.089V96.9365Z" fill="#546DFE"/>
<path d="M272.235 149.157H82.427C32.0825 175.111 0.5 220.452 0.5 270.484C0.5 320.829 31.7698 366.483 84.3032 393.062C85.2413 393.687 86.4921 394 87.7429 394H266.606C267.857 394 269.108 393.687 270.046 393.062C322.579 366.483 353.849 320.829 353.849 270.484C354.162 220.452 322.267 175.111 272.235 149.157Z" fill="#546DFE"/>
</g>
<defs>
<clipPath id="clip0_288_169">
<rect width="394" height="394" fill="white"/>
</clipPath>
</defs>
</svg>
