<svg width="394" height="394" viewBox="0 0 394 394" fill="none" xmlns="http://www.w3.org/2000/svg">
<g clip-path="url(#clip0_288_629)">
<path d="M343.754 239.282C339.971 179.379 285.876 167.899 272.235 166.008C272.301 164.656 272.301 163.374 272.301 161.954C272.427 153.226 271.034 144.542 268.183 136.292C284.448 139.342 300.114 144.998 314.577 153.04C356.787 178.567 368.809 225.709 371.445 239.282H343.754ZM336.866 239.282C333.151 185.119 285.607 174.583 272.167 172.762C271.965 181.812 271.424 189.712 270.681 196.738C279.505 200.684 287.334 206.552 293.597 213.913C299.861 221.275 304.399 229.943 306.881 239.284L336.866 239.282ZM269.871 203.895C268.698 216.065 265.716 227.992 261.025 239.282H299.925C297.596 231.645 293.728 224.565 288.559 218.479C283.391 212.393 277.031 207.43 269.871 203.895ZM265.548 161.954C265.548 143.855 260.416 130.144 250.286 121.231C240.551 113.491 228.482 109.278 216.045 109.28C216.788 110.09 217.599 110.9 218.344 111.779C224.876 119.331 229.725 128.188 232.567 137.76C235.409 147.332 236.179 157.4 234.826 167.293C231.003 192.261 223.492 216.524 212.539 239.285H253.533C256.297 234.352 265.548 214.093 265.548 161.954ZM228.133 166.413C229.346 157.448 228.642 148.328 226.069 139.654C223.496 130.981 219.113 122.953 213.208 116.099C200.98 101.941 183.951 92.8009 165.394 90.4345C137.637 86.6528 128.25 103.402 125.211 112.181C133.428 110.77 141.817 110.679 150.063 111.911C163.516 113.129 175.989 119.462 184.911 129.604C184.918 129.654 184.941 129.7 184.976 129.735C186.985 132.295 188.685 135.083 190.041 138.042C194.44 149.837 195.217 162.677 192.273 174.917C192.28 175.077 192.258 175.237 192.208 175.389C186.877 198.015 177.84 219.602 165.464 239.278H204.971C216.35 216.308 224.16 191.737 228.133 166.413ZM375.496 246.035H0L23.5697 290.61C25.5644 294.414 28.5653 297.597 32.2451 299.812C35.9249 302.027 40.1423 303.189 44.4373 303.171H349.563C353.858 303.189 358.075 302.027 361.755 299.812C365.435 297.597 368.436 294.414 370.43 290.61L394 246.035H375.496ZM184.709 178.298C168.852 180.18 154.028 187.134 142.443 198.122C130.858 209.111 123.132 223.548 120.415 239.282H157.492C169.564 220.431 178.739 199.874 184.709 178.298ZM183.831 140.748C182.957 138.859 181.917 137.052 180.725 135.346C140.001 143.45 89.2134 168.303 70.9798 239.282H113.593C116.023 226.519 129.127 177.758 186.194 171.274C188.33 161.081 187.51 150.491 183.831 140.748ZM175.527 129.538C167.927 123.439 158.74 119.643 149.052 118.598C75.034 107.319 32.2837 215.982 24.0458 239.284H63.958C82.1227 165.872 133.247 138.929 175.527 129.538Z" fill="#546DFE"/>
</g>
<defs>
<clipPath id="clip0_288_629">
<rect width="394" height="394" fill="white"/>
</clipPath>
</defs>
</svg>
