<svg width="394" height="394" viewBox="0 0 394 394" fill="none" xmlns="http://www.w3.org/2000/svg">
<g clip-path="url(#clip0_288_677)">
<path d="M364.568 240.457C359.761 239.203 355.46 236.766 352.137 233.417C332.313 213.435 277.52 166.95 197 166.95C116.48 166.95 61.6873 213.435 41.8625 233.417C38.5398 236.766 34.2452 239.203 29.4318 240.457C12.1024 244.975 0 260.656 0 278.583C0 282.707 0.636966 286.785 1.89777 290.685C5.39123 301.514 12.608 309.223 22.2216 312.388C31.8812 315.573 42.8409 313.623 52.5333 307.181V311.403C52.5333 344 79.0561 370.516 111.646 370.516H282.354C314.95 370.516 341.467 344 341.467 311.403V307.174C351.179 313.629 362.132 315.566 371.785 312.388C381.399 309.223 388.615 301.514 392.109 290.685C393.363 286.785 394 282.713 394 278.583C394.007 260.656 381.904 244.975 364.568 240.457ZM297.431 234.54L303.997 227.974C306.558 225.406 310.722 225.406 313.283 227.974C315.85 230.541 315.85 234.691 313.283 237.259L306.716 243.826C305.435 245.106 303.754 245.75 302.073 245.75C300.392 245.75 298.711 245.106 297.431 243.826C294.863 241.258 294.863 237.108 297.431 234.54ZM251.464 254.24C254.025 251.673 258.188 251.673 260.749 254.24L267.316 260.807C269.883 263.375 269.883 267.525 267.316 270.092C266.035 271.373 264.354 272.016 262.673 272.016C260.992 272.016 259.311 271.373 258.031 270.092L251.464 263.526C248.896 260.958 248.896 256.808 251.464 254.24ZM218.631 214.84L225.197 208.274C227.758 205.706 231.922 205.706 234.483 208.274C237.05 210.841 237.05 214.991 234.483 217.559L227.916 224.126C226.635 225.406 224.954 226.05 223.273 226.05C221.592 226.05 219.911 225.406 218.631 224.126C216.063 221.558 216.063 217.408 218.631 214.84ZM179.231 241.107C181.792 238.539 185.955 238.539 188.516 241.107L195.083 247.674C197.65 250.241 197.65 254.391 195.083 256.959C193.802 258.239 192.121 258.883 190.44 258.883C188.759 258.883 187.078 258.239 185.797 256.959L179.231 250.392C176.663 247.825 176.663 243.675 179.231 241.107ZM139.831 214.84L146.397 208.274C148.958 205.706 153.122 205.706 155.683 208.274C158.25 210.841 158.25 214.991 155.683 217.559L149.116 224.126C147.835 225.406 146.154 226.05 144.473 226.05C142.792 226.05 141.111 225.406 139.831 224.126C137.263 221.558 137.263 217.408 139.831 214.84ZM120.131 254.24C122.692 251.673 126.855 251.673 129.416 254.24L135.983 260.807C138.55 263.375 138.55 267.525 135.983 270.092C134.702 271.373 133.021 272.016 131.34 272.016C129.659 272.016 127.978 271.373 126.697 270.092L120.131 263.526C117.563 260.958 117.563 256.808 120.131 254.24ZM67.5973 247.674L74.1639 241.107C76.7249 238.539 80.8882 238.539 83.4492 241.107C86.0168 243.675 86.0168 247.825 83.4492 250.392L76.8825 256.959C75.602 258.239 73.921 258.883 72.2399 258.883C70.5588 258.883 68.8778 258.239 67.5973 256.959C65.0297 254.391 65.0297 250.241 67.5973 247.674ZM328.34 311.403C328.34 336.757 307.714 357.383 282.36 357.383H111.653C86.2991 357.383 65.6732 336.757 65.6732 311.403V302.216C65.6732 300.936 76.8431 304.173 77.8019 304.633C81.7353 306.518 84.2963 309.676 87.7438 312.171C94.9671 317.392 104.2 319.021 112.927 317.878C123.25 316.532 132.226 311.534 135.799 305.145C137.191 302.656 139.555 300.995 142.832 300.207C148.269 298.9 155.38 300.319 160.522 303.746C171.081 310.786 183.67 317.983 196.993 317.983C210.317 317.983 222.912 310.786 233.471 303.746C238.613 300.319 245.725 298.9 251.162 300.207C254.439 300.995 256.803 302.656 258.195 305.145C262.148 312.224 270.724 315.855 278.282 317.418C286.885 319.198 297.043 318.219 304.483 313.281C307.747 311.114 310.472 308.212 313.749 306.071C318.043 303.267 323.205 301.882 328.327 302.216V311.403H328.34Z" fill="#546DFE"/>
<path d="M197.007 88.15C200.632 88.15 203.574 85.2081 203.574 81.5833V29.05C203.574 25.4252 200.632 22.4833 197.007 22.4833C193.382 22.4833 190.44 25.4252 190.44 29.05V81.5833C190.44 85.2081 193.382 88.15 197.007 88.15Z" fill="#546DFE"/>
<path d="M197.007 134.117C200.632 134.117 203.574 131.175 203.574 127.55V107.85C203.574 104.225 200.632 101.284 197.007 101.284C193.382 101.284 190.44 104.225 190.44 107.85V127.55C190.44 131.175 193.382 134.117 197.007 134.117Z" fill="#546DFE"/>
<path d="M242.974 61.8836C246.598 61.8836 249.54 58.9417 249.54 55.3169V42.1836C249.54 38.5588 246.598 35.6169 242.974 35.6169C239.349 35.6169 236.407 38.5588 236.407 42.1836V55.3169C236.407 58.9417 239.349 61.8836 242.974 61.8836Z" fill="#546DFE"/>
<path d="M242.974 153.817C246.598 153.817 249.54 150.875 249.54 147.25V81.5834C249.54 77.9586 246.598 75.0167 242.974 75.0167C239.349 75.0167 236.407 77.9586 236.407 81.5834V147.25C236.407 150.875 239.349 153.817 242.974 153.817Z" fill="#546DFE"/>
<path d="M151.04 61.8836C154.665 61.8836 157.607 58.9417 157.607 55.3169V42.1836C157.607 38.5588 154.665 35.6169 151.04 35.6169C147.415 35.6169 144.474 38.5588 144.474 42.1836V55.3169C144.474 58.9417 147.415 61.8836 151.04 61.8836Z" fill="#546DFE"/>
<path d="M151.04 153.817C154.665 153.817 157.607 150.875 157.607 147.25V81.5834C157.607 77.9586 154.665 75.0167 151.04 75.0167C147.415 75.0167 144.474 77.9586 144.474 81.5834V147.25C144.474 150.875 147.415 153.817 151.04 153.817Z" fill="#546DFE"/>
</g>
<defs>
<clipPath id="clip0_288_677">
<rect width="394" height="394" fill="#546DFE"/>
</clipPath>
</defs>
</svg>
