<svg width="394" height="394" viewBox="0 0 394 394" fill="none" xmlns="http://www.w3.org/2000/svg">
<g clip-path="url(#clip0_288_725)">
<path d="M358.182 53.2955C338.303 47.0273 316.454 44.3409 295.5 44.3409C260.577 44.3409 222.968 51.5045 197 71.2045C171.032 51.5045 133.423 44.3409 98.5 44.3409C63.5773 44.3409 25.9682 51.5045 0 71.2045V333.573C0 338.05 4.47727 342.527 8.95455 342.527C10.7455 342.527 11.6409 341.632 13.4318 341.632C37.6091 329.991 72.5318 321.932 98.5 321.932C133.423 321.932 171.032 329.095 197 348.795C221.177 333.573 265.055 321.932 295.5 321.932C325.05 321.932 355.495 327.305 380.568 340.736C382.359 341.632 383.255 341.632 385.045 341.632C389.523 341.632 394 337.155 394 332.677V71.2045C383.255 63.1455 371.614 57.7727 358.182 53.2955ZM358.182 295.068C338.482 288.8 316.991 286.114 295.5 286.114C265.055 286.114 221.177 297.755 197 312.977V107.023C221.177 91.8 265.055 80.1591 295.5 80.1591C316.991 80.1591 338.482 82.8455 358.182 89.1136V295.068Z" fill="#546DFE"/>
<path d="M295.5 151.795C311.26 151.795 326.483 153.407 340.273 156.452V129.23C326.125 126.544 310.902 124.932 295.5 124.932C265.055 124.932 237.475 130.125 214.909 139.796V169.525C235.146 158.064 263.264 151.795 295.5 151.795ZM214.909 187.435V217.164C235.146 205.702 263.264 199.434 295.5 199.434C311.26 199.434 326.483 201.045 340.273 204.09V176.868C326.125 174.182 310.902 172.57 295.5 172.57C265.055 172.57 237.475 177.943 214.909 187.435ZM295.5 220.387C265.055 220.387 237.475 225.581 214.909 235.252V264.981C235.146 253.519 263.264 247.251 295.5 247.251C311.26 247.251 326.483 248.863 340.273 251.907V224.685C326.125 221.82 310.902 220.387 295.5 220.387Z" fill="#546DFE"/>
</g>
<defs>
<clipPath id="clip0_288_725">
<rect width="394" height="394" fill="white"/>
</clipPath>
</defs>
</svg>
