<svg width="394" height="394" viewBox="0 0 394 394" fill="none" xmlns="http://www.w3.org/2000/svg">
<path d="M277.514 23.2529L224.933 69.9938L207.368 52.4159L264.892 6.3939L277.514 23.2529ZM246.423 3.45618L197 42.9944L147.577 3.45618H246.423ZM129.128 6.35933L186.632 52.4159L169.047 69.9938L116.486 23.2529L129.128 6.35933ZM390.544 335.246H335.246V134.79H321.421V390.544H72.579V134.79H58.7545V335.246H3.45628V72.7863C3.40011 67.2781 6.67653 62.2814 11.751 60.1369L100.449 31.4025C101.092 31.196 101.764 31.0958 102.44 31.1053H104.514L164.761 84.6616C167.498 87.0939 171.658 86.9695 174.245 84.3782L197 61.6161L219.762 84.3782C222.349 86.9695 226.509 87.0939 229.246 84.6616L289.493 31.1053H291.567C292.3 31.0993 293.03 31.2185 293.724 31.4578L381.855 59.9986C387.114 62.0594 390.565 67.139 390.544 72.7863V335.246Z" fill="#546DFE"/>
</svg>
