<svg width="394" height="394" viewBox="0 0 394 394" fill="none" xmlns="http://www.w3.org/2000/svg">
<g clip-path="url(#clip0_273_572)">
<path d="M336.301 57.7002C299.092 20.4911 249.621 0 197 0C144.379 0 94.9086 20.4911 57.6995 57.7002C20.4911 94.9086 0 144.379 0 197C0 249.621 20.4911 299.091 57.6995 336.3C94.9086 373.509 144.379 394 197 394C249.621 394 299.091 373.509 336.301 336.3C373.509 299.092 394 249.621 394 197C394 144.379 373.509 94.9086 336.301 57.7002ZM197 44.0657C274.555 44.0657 338.806 102.095 348.628 177.014L253.829 167.781C243.2 147.192 221.724 133.073 197 133.073C172.276 133.073 150.8 147.192 140.171 167.781L45.3716 177.014C55.1939 102.095 119.445 44.0657 197 44.0657ZM45.3169 216.527L138.993 223.825C144.91 236.561 154.898 247.039 167.281 253.571L173.42 348.115C106.59 337.728 53.9434 283.913 45.3169 216.527ZM197 216.861C186.048 216.861 177.139 207.951 177.139 197C177.139 186.049 186.05 177.139 197 177.139C207.95 177.139 216.861 186.05 216.861 197C216.861 207.95 207.952 216.861 197 216.861ZM220.582 348.115L226.721 253.571C239.103 247.04 249.09 236.561 255.009 223.825L348.685 216.527C340.057 283.913 287.41 337.728 220.582 348.115Z" fill="#546DFE"/>
</g>
<defs>
<clipPath id="clip0_273_572">
<rect width="394" height="394" fill="white"/>
</clipPath>
</defs>
</svg>
