<svg width="394" height="394" viewBox="0 0 394 394" fill="none" xmlns="http://www.w3.org/2000/svg">
<path d="M263.476 367.321C261.506 368.06 259.535 368.717 257.565 369.292C220.068 380.83 177.446 381.614 137.226 369.292C135.256 368.717 133.286 368.06 131.316 367.321L130.166 372.493C127.95 383.575 136.241 394 147.651 394H247.222C258.222 394 267.087 383.903 264.625 372.411L263.476 367.321Z" fill="#546DFE"/>
<path d="M383.076 61.7117C390.464 51.1224 386.442 35.8543 374.785 27.9739C363.54 20.0115 347.779 21.1607 340.391 31.9141L266.677 137.888H330.048L383.076 61.7117Z" fill="#546DFE"/>
<path d="M381.927 159.888C378.561 156.359 373.882 154.306 368.957 154.306H25.9155C20.9903 154.306 16.2293 156.359 12.8637 159.888C9.58022 163.418 7.85639 168.015 8.10266 172.858C12.4533 255.273 68.847 331.286 142.069 353.614C177.694 364.531 217.096 364.531 252.804 353.614C326.026 331.286 382.419 255.273 386.77 172.858C387.016 168.015 385.293 163.418 381.927 159.888ZM132.547 308.466C131.151 312.816 126.554 315.279 122.286 313.966C104.719 308.63 89.8613 296.809 79.4363 282.034C76.8095 278.258 77.7124 273.168 81.4064 270.542C85.1003 267.915 90.1897 268.818 92.8165 272.512C101.271 284.496 113.174 294.018 127.047 298.205C131.397 299.518 133.86 304.115 132.547 308.466Z" fill="#546DFE"/>
<path d="M71.0022 119.27C67.7959 122.476 67.7959 127.675 70.9989 130.882C74.2036 134.087 79.3997 134.088 82.6101 130.886C93.7584 119.737 93.774 101.667 82.6101 90.5115C77.8844 85.7817 77.8844 78.086 82.6101 73.357L89.8568 66.1095C93.0632 62.9032 93.0632 57.7087 89.8568 54.5024C86.6505 51.2961 81.4561 51.2961 78.2497 54.5024L70.9989 61.749C59.872 72.8833 59.8761 90.9925 71.0022 102.119C75.7501 106.867 75.7321 114.549 71.0022 119.27Z" fill="#546DFE"/>
<path d="M147.53 119.271C144.324 122.477 144.324 127.675 147.526 130.883C150.731 134.087 155.927 134.089 159.138 130.887C170.286 119.738 170.302 101.668 159.138 90.5123C147.948 79.3131 165.374 67.7799 166.389 66.1143C169.595 62.908 169.595 57.7095 166.392 54.5031C163.186 51.2968 157.987 51.3001 154.781 54.499L147.526 61.7498C136.399 72.8841 136.403 90.9933 147.53 102.12C152.278 106.868 152.259 114.55 147.53 119.271Z" fill="#546DFE"/>
<path d="M109.268 67.1763C106.061 70.3826 106.061 75.5779 109.268 78.7842C110.871 80.3874 112.971 81.1894 115.072 81.1894C117.173 81.1894 119.272 80.3874 120.875 78.7842C132.025 67.6434 132.04 49.5695 120.875 38.4138C116.183 33.7209 116.094 26.0409 120.875 21.2593L128.122 14.0127C131.329 10.8055 131.329 5.61106 128.122 2.40474C124.916 -0.80158 119.721 -0.80158 116.515 2.40474L109.268 9.64728C98.1201 20.7955 98.1037 38.8653 109.268 50.0218C113.997 54.7516 113.997 62.4473 109.268 67.1763Z" fill="#546DFE"/>
</svg>
