<svg width="394" height="394" viewBox="0 0 394 394" fill="none" xmlns="http://www.w3.org/2000/svg">
<path d="M210.886 128.361C210.886 127.422 209.948 126.484 209.009 126.484H151.125C150.187 126.484 149.248 127.422 149.248 128.361V149.95H210.886V128.361Z" fill="#546DFE"/>
<path d="M215.893 190.312C209.009 184.054 205.254 174.981 205.254 165.907H154.567C154.567 175.294 150.813 184.054 143.929 190.312L111.389 220.662C104.506 226.92 100.751 235.993 100.751 245.067V382.423C100.751 388.994 106.07 394 112.328 394H247.494C254.064 394 259.071 388.681 259.071 382.423V245.067C259.071 235.68 255.316 226.92 248.433 220.662L215.893 190.312Z" fill="#546DFE"/>
<path d="M257.193 13.8451C258.132 12.9065 258.132 11.655 257.193 10.7163L248.12 0.70399C247.181 -0.234663 245.929 -0.234663 244.991 0.70399L240.61 4.77149L253.439 17.5998L257.193 13.8451Z" fill="#546DFE"/>
<path d="M292.236 138.686C271.586 121.79 259.696 107.085 250.31 96.7596C245.929 91.7534 242.175 86.4344 239.672 80.4896C230.598 58.2748 239.985 40.4403 245.929 31.9925L224.653 10.7163C182.101 28.2378 148.309 61.0907 135.168 74.8577C132.665 77.3607 134.23 81.7411 137.984 82.3669L150.813 83.9313C156.132 84.5571 160.199 89.2504 160.199 94.5694V110.527H199.935V98.6369C199.935 94.5694 202.751 91.1277 206.819 90.8148L216.518 89.5632C219.647 89.2504 222.776 90.8148 224.34 93.3178C241.862 121.165 275.654 139.312 287.23 146.195C288.795 147.134 290.985 146.821 292.549 145.57C294.739 144.005 294.427 140.563 292.236 138.686Z" fill="#546DFE"/>
</svg>
