<svg width="394" height="394" viewBox="0 0 394 394" fill="none" xmlns="http://www.w3.org/2000/svg">
<g clip-path="url(#clip0_273_518)">
<path d="M197 0C88.6615 0 0 90.503 0 197.77C0 305.973 88.7962 394 197 394C302.834 394 394 307.118 394 197.77C394 91.8151 306.589 0 197 0ZM208.543 70.8661L256.759 35.4746C287.962 47.0037 314.9 67.2062 334.705 93.2356L315.143 149.334L259.488 166.41L208.543 127.765V70.8661ZM137.224 35.48L185.534 70.8784V127.68L132.622 163.492L81.0717 146L63.02 88.2575C82.4114 64.5775 108.005 46.2796 137.224 35.48ZM51.921 291.972C34.9321 265.895 24.0625 235.006 23.2906 201.81L73.1416 167.695L125.363 185.415L145.377 247.821L112.13 292.424L51.921 291.972ZM241.258 364.966C227.103 368.719 212.319 370.914 197 370.914C180.089 370.914 163.78 368.368 148.319 363.827L130.683 306.164L163.749 261.596H228.198L260.742 307.504L241.258 364.966ZM280.132 294.951L246.767 247.729L265.938 188.577L321.922 171.402L370.448 206.952C368.702 240.02 357.013 270.661 339.21 296.282L280.132 294.951Z" fill="#546DFE"/>
</g>
<defs>
<clipPath id="clip0_273_518">
<rect width="394" height="394" fill="white"/>
</clipPath>
</defs>
</svg>
