<svg width="394" height="394" viewBox="0 0 394 394" fill="none" xmlns="http://www.w3.org/2000/svg">
<path d="M217.645 106.772V170.752C217.645 174.853 220.926 178.955 225.847 178.955H274.242V98.5692H225.847C220.926 98.5692 217.645 101.85 217.645 106.772Z" fill="#546DFE"/>
<path d="M338.223 98.5692H289.828V178.955H338.223V98.5692Z" fill="#546DFE"/>
<path d="M385.797 98.5692H353.807V178.955H385.797C389.899 178.955 394 175.674 394 170.752V106.772C394 101.85 390.719 98.5692 385.797 98.5692Z" fill="#546DFE"/>
<path d="M309.514 330.702L334.942 320.039C361.19 312.656 374.314 278.205 380.056 244.575C362.01 250.317 314.435 273.284 309.514 330.702Z" fill="#546DFE"/>
<path d="M223.386 194.54C219.285 210.125 208.622 224.069 193.037 230.631L147.102 251.138C137.259 255.239 129.057 260.981 121.674 267.543L195.498 379.098L290.648 338.085C291.468 247.036 381.696 224.069 382.517 224.069C382.517 224.069 382.517 224.069 383.337 224.069C384.977 213.406 384.977 202.743 385.798 194.54H225.847C225.027 194.54 224.207 194.54 223.386 194.54Z" fill="#546DFE"/>
<path d="M95.4256 333.984C97.8863 359.412 111.01 377.458 133.157 385.66C140.54 388.121 148.742 389.762 156.125 389.762C163.507 389.762 171.71 388.941 179.092 386.48L109.37 280.667C99.5268 295.432 93.785 314.298 95.4256 333.984Z" fill="#546DFE"/>
<path d="M130.697 84.6254H179.092V5.0603H130.697C126.595 5.0603 122.494 8.34134 122.494 13.2629V77.2431C122.494 81.3444 125.775 84.6254 130.697 84.6254Z" fill="#546DFE"/>
<path d="M243.073 5.0603H194.678V85.4457H243.073V5.0603Z" fill="#546DFE"/>
<path d="M298.85 76.4225V12.4423C298.85 8.34104 295.569 4.23975 290.647 4.23975H258.657V84.6251H290.647C295.569 84.6251 298.85 81.3441 298.85 76.4225Z" fill="#546DFE"/>
<path d="M101.168 265.903L102.808 263.442L112.652 254.419C120.854 247.037 129.877 241.295 140.54 236.373L186.475 215.867C197.138 210.945 204.521 201.922 207.802 190.439L208.622 187.158C204.521 183.056 202.06 177.315 202.06 170.753V106.772C202.06 105.132 202.06 102.671 202.88 101.031H130.697C129.877 101.031 129.057 101.031 128.237 101.031C124.135 116.615 113.472 130.56 97.8869 137.122L51.9524 157.628C42.1093 161.73 33.9067 167.472 26.5244 174.034L93.7856 276.566C94.6059 274.925 96.2464 272.465 97.0667 270.824L101.168 265.903Z" fill="#546DFE"/>
<path d="M0.275713 239.654C2.73649 265.082 15.8606 283.128 38.0076 291.33C46.2102 293.791 53.5925 295.431 61.7951 295.431C69.1775 295.431 77.3801 294.611 84.7624 292.15L15.8606 186.337C4.37701 201.922 -1.36481 220.788 0.275713 239.654Z" fill="#546DFE"/>
</svg>
