<svg width="394" height="394" viewBox="0 0 394 394" fill="none" xmlns="http://www.w3.org/2000/svg">
<g clip-path="url(#clip0_273_523)">
<path d="M257.013 17.088V50.7139L280.802 26.9456C274.081 21.6298 265.934 18.1063 257.013 17.088Z" fill="#546DFE"/>
<path d="M246.3 50.7139V17.088C237.379 18.1063 229.232 21.6502 222.532 26.966L246.3 50.7139Z" fill="#546DFE"/>
<path d="M298.236 58.2904C297.218 49.3697 293.674 41.2228 288.358 34.5221L264.61 58.2904H298.236Z" fill="#546DFE"/>
<path d="M288.358 92.7921C293.694 86.1117 297.238 77.9446 298.236 69.0238H264.61L288.358 92.7921Z" fill="#546DFE"/>
<path d="M251.677 0C218.357 0 191.024 25.7032 188.254 58.2904H166.523L161.349 32.6687C160.127 22.2204 152.225 7.57653 134.852 9.06332C118.823 10.4075 79.9831 14.7254 78.313 14.9087L80.0849 30.8968C80.4923 30.856 120.371 26.416 136.155 25.1125C143.61 24.4812 145.076 32.3428 145.361 34.7054L150.107 58.3108H135.524C129.597 58.3108 124.811 63.1174 124.811 69.0238V383.307C124.811 389.234 129.618 394 135.524 394H246.321C252.247 394 257.013 389.193 257.013 383.307V127.049C289.641 124.32 315.324 96.947 315.324 63.6673C315.324 28.5546 286.769 0 251.677 0ZM246.3 116.336V127.049V361.881H135.504V69.0238H152.286L162.612 120.288H142.713V353.999H239.07V120.288H178.987L168.681 69.0238H188.295H199.008H246.321L246.3 116.336ZM257.013 116.336V110.247C265.934 109.228 274.081 105.684 280.802 100.369L257.013 76.6004V69.0238C257.013 63.097 252.227 58.3108 246.321 58.3108H238.724L214.955 34.5425C209.64 41.2229 206.096 49.3697 205.118 58.2904H199.008C201.696 31.5689 224.243 10.7131 251.697 10.7131C280.944 10.7131 304.611 34.4203 304.611 63.6469C304.591 91.0813 283.735 113.648 257.013 116.336Z" fill="#546DFE"/>
</g>
<defs>
<clipPath id="clip0_273_523">
<rect width="394" height="394" fill="white"/>
</clipPath>
</defs>
</svg>
