<svg width="394" height="394" viewBox="0 0 394 394" fill="none" xmlns="http://www.w3.org/2000/svg">
<path d="M393.56 215.331L382.538 183.86L347.17 81.1065C346.06 78.3768 343.875 76.173 341.083 74.9696L285.81 54.3559L264.918 14.7021C263.881 12.9183 262.385 11.4179 260.571 10.3437C258.757 9.26951 256.685 8.65725 254.554 8.56519L139.401 8.56519C137.269 8.65725 135.198 9.26951 133.384 10.3437C131.57 11.4179 130.073 12.9183 129.037 14.7021L107.322 55.7721L52.8711 75.7563C51.4484 76.3202 50.1605 77.155 49.0859 78.21C48.0112 79.265 47.1722 80.5182 46.6199 81.8932L9.44187 189.682L0.558606 215.331C-0.379568 218.128 -0.128809 221.165 1.25661 223.786C2.64204 226.407 5.0507 228.401 7.96133 229.336L39.3817 239.25L69.3216 248.534V374.419C69.3214 375.879 69.6246 377.324 70.2136 378.671C70.8026 380.017 71.6655 381.239 72.7523 382.264C73.8391 383.289 75.128 384.097 76.5441 384.641C77.9603 385.185 79.4754 385.454 81.0014 385.434H313.117C316.172 385.434 319.101 384.273 321.26 382.207C323.42 380.142 324.633 377.34 324.633 374.419V248.534L347.992 241.295L354.244 239.407L386.322 228.864C389.091 227.898 391.376 225.967 392.718 223.457C394.061 220.947 394.361 218.045 393.56 215.331ZM153.712 111.634L128.708 64.4267L141.375 40.0365C162.596 64.112 154.041 54.5132 181.02 85.5124L153.712 111.634ZM208.328 174.576C207.989 177.291 206.622 179.792 204.485 181.607C202.347 183.422 199.588 184.425 196.73 184.425C193.872 184.425 191.113 183.422 188.976 181.607C186.839 179.792 185.471 177.291 185.133 174.576V112.578L196.813 101.563L208.328 112.578V174.576ZM239.748 111.634L212.441 85.3551L252.086 40.0365L264.753 64.112L239.748 111.634Z" fill="#546DFE"/>
</svg>
