<svg width="394" height="394" viewBox="0 0 394 394" fill="none" xmlns="http://www.w3.org/2000/svg">
<g clip-path="url(#clip0_273_548)">
<path d="M302.213 325.425C267.758 325.425 228.561 312.828 185.741 288.001C151.328 268.042 115.761 261.685 84.376 256.072C52.3136 250.317 19.6155 244.378 0.092041 222.195C2.15815 311.849 100.47 271.514 194.691 326.128C310.653 393.356 381.704 356.392 392.503 277.511C373.732 307.792 342.289 325.425 302.213 325.425Z" fill="#546DFE"/>
<path d="M99.1817 209.815C129.036 214.65 162.863 220.12 196.874 237.962C232.316 256.541 264.203 265.968 291.656 265.976C316.09 265.976 336.207 258.172 349.85 243.433C363.067 229.146 370.043 208.711 370.043 184.319C370.043 110.725 291.481 50.8496 194.925 50.8496C86.2664 50.8496 23.9568 88.7423 23.9568 154.816C23.9484 197.627 53.8778 202.487 99.1817 209.815ZM123.783 90.3065C151.002 90.3065 173.068 107.387 173.068 128.442C173.068 149.504 151.002 166.585 123.783 166.585C96.5718 166.585 74.5054 149.504 74.5054 128.442C74.5054 107.387 96.5718 90.3065 123.783 90.3065Z" fill="#546DFE"/>
<path d="M194.691 272.551C320.917 345.727 394 295.487 394 202.052C394 108.617 304.781 32.8569 194.691 32.8569C84.6102 32.8653 0 72.3556 0 165.799C0 259.243 99.4578 217.352 194.691 272.551ZM194.926 42.4765C296.106 42.4765 378.416 106.099 378.416 184.31C378.416 210.844 370.654 233.253 355.999 249.113C340.724 265.617 318.491 274.349 291.665 274.349C262.848 274.349 229.648 264.596 192.993 245.374C160.195 228.184 127.078 222.822 97.8517 218.088C51.8954 210.635 15.6004 204.754 15.6004 154.824C15.5837 83.4223 80.9548 42.4765 194.926 42.4765Z" fill="#546DFE"/>
<path d="M123.783 147.355C137.272 147.355 148.208 138.891 148.208 128.45C148.208 118.009 137.272 109.546 123.783 109.546C110.293 109.546 99.3574 118.009 99.3574 128.45C99.3574 138.891 110.293 147.355 123.783 147.355Z" fill="#546DFE"/>
</g>
<defs>
<clipPath id="clip0_273_548">
<rect width="394" height="393.992" fill="white"/>
</clipPath>
</defs>
</svg>
