<svg width="394" height="394" viewBox="0 0 394 394" fill="none" xmlns="http://www.w3.org/2000/svg">
<g clip-path="url(#clip0_288_189)">
<path d="M123.519 62.773L62.773 123.437L101.355 144.944L170.72 214.309L214.391 170.72L144.944 101.273L123.519 62.773Z" fill="#546DFE"/>
<path d="M1.78127 51.6912L50.2954 112.683H50.3775L112.765 50.2954H112.683L51.6912 1.78127C48.4897 -0.845629 43.7284 -0.517454 40.7733 2.43811L2.43811 40.7733C-0.517454 43.7284 -0.845629 48.4075 1.78127 51.6912Z" fill="#546DFE"/>
<path d="M238.278 169.981L170.063 238.278C168.503 239.838 167.6 241.89 167.6 244.107C167.6 246.241 168.503 248.375 170.063 249.935L191.98 271.852L271.886 191.946L249.935 169.981C246.734 166.779 241.562 166.779 238.278 169.981Z" fill="#546DFE"/>
<path d="M319.054 348.851C316.919 348.851 314.785 348.031 313.225 346.389L226.95 260.114L203.596 283.468L297.628 377.501C308.628 388.5 323.076 394 337.524 394C351.971 394 366.501 388.5 377.501 377.501C388.172 366.747 394 352.628 394 337.523C394 322.419 388.172 308.218 377.501 297.628L283.511 203.578L260.196 226.95L346.471 313.225C349.672 316.427 349.672 321.598 346.471 324.799C344.829 326.359 342.695 327.18 340.642 327.18C338.509 327.18 336.456 326.359 334.814 324.799L248.539 238.524L238.525 248.539L324.799 334.814C328.001 338.016 328.001 343.187 324.799 346.389C323.24 348.031 321.106 348.851 319.054 348.851Z" fill="#546DFE"/>
</g>
<defs>
<clipPath id="clip0_288_189">
<rect width="394" height="394" fill="white"/>
</clipPath>
</defs>
</svg>
