<svg width="394" height="394" viewBox="0 0 394 394" fill="none" xmlns="http://www.w3.org/2000/svg">
<path d="M284.335 71.9803V99.995L329.796 130.302V71.9803H284.335Z" fill="#546DFE"/>
<path d="M318.43 0H75.9699C69.6929 0 64.6047 5.0889 64.6047 11.3652V49.2499H329.796V11.3652C329.796 5.0889 324.707 0 318.43 0Z" fill="#546DFE"/>
<path d="M64.604 71.9803V130.302L110.066 99.995V71.9803H64.604Z" fill="#546DFE"/>
<path d="M266.666 115.533C263.504 113.425 261.604 109.877 261.604 106.077V71.9803H132.797V106.077C132.797 109.877 130.898 113.426 127.735 115.533L64.6047 157.62V382.633C64.6047 388.91 69.6936 393.998 75.9699 393.998H151.739C157.171 393.998 161.843 390.156 162.891 384.827L197.2 210.419L231.51 384.829C232.558 390.158 237.23 394 242.662 394H318.431C324.708 394 329.796 388.911 329.796 382.635V157.621L266.666 115.533Z" fill="#546DFE"/>
</svg>
