<svg width="394" height="394" viewBox="0 0 394 394" fill="none" xmlns="http://www.w3.org/2000/svg">
<path d="M99.4453 22.9669C73.3867 44.3721 37.0909 92.3012 21.2696 125.805C2.65634 165.824 -3.8583 201.654 2.19101 234.227C7.77498 264.939 13.359 276.107 31.5069 295.651L45.4668 310.076L33.3682 336.135C26.8536 350.095 21.2696 366.847 21.2696 373.361C21.2696 384.064 23.1309 385.46 38.9522 385.46C55.7041 385.46 56.6348 384.529 64.5454 362.659C86.8813 299.374 153.424 241.207 215.778 230.039L230.669 227.247V248.187C230.669 267.731 229.738 269.127 219.035 269.127C192.977 269.127 143.652 304.492 123.177 337.066C117.593 346.372 114.801 354.748 116.663 356.609C118.524 358.471 149.236 359.867 185.532 359.867C248.351 359.867 253.005 359.401 278.133 346.837C310.706 331.016 337.695 304.958 369.803 259.821L394 224.921L380.971 214.218C333.507 174.665 281.39 152.794 234.391 152.794C195.769 152.794 164.592 164.428 136.672 189.09L114.336 209.565V181.18V152.794H96.6533H78.9707L73.3867 209.565C70.1294 240.742 65.9414 268.196 63.6147 270.523C61.2881 272.85 55.2388 264.939 49.1895 252.841C40.8135 235.623 39.4175 225.386 40.8135 200.258C42.6748 163.497 56.6348 131.389 89.208 90.4399L110.613 63.4507L118.989 76.0146C123.642 83.4599 131.088 98.8159 135.741 110.449C139.929 122.082 144.117 132.32 144.582 133.25C145.048 133.716 153.424 130.924 162.73 127.201C177.156 121.152 179.482 118.36 176.69 109.518C168.78 83.9253 125.504 8.07626 118.989 8.5416C117.593 9.00693 108.752 15.0562 99.4453 22.9669Z" fill="#546DFE"/>
</svg>
