<svg width="394" height="394" viewBox="0 0 394 394" fill="none" xmlns="http://www.w3.org/2000/svg">
<path d="M261.667 275.612L224.675 83.4166H169.188L133 275.612C133 277.221 133 279.633 133.804 281.242L189.292 384.979C189.292 384.979 189.292 385.783 190.096 385.783C190.096 385.783 190.096 386.587 190.9 386.587C191.704 387.392 192.508 388.196 193.313 388.196C193.313 388.196 194.117 388.196 194.117 389H194.921C195.725 389 196.529 389 197.333 389C198.138 389 198.942 389 198.942 389H199.746C199.746 389 200.55 389 200.55 388.196C201.354 387.392 202.158 387.392 202.963 386.587C202.963 386.587 202.962 386.587 203.767 385.783L204.571 384.979L261.667 281.242C261.667 279.633 261.667 277.221 261.667 275.612ZM230.304 280.437L203.767 328.687C202.158 331.1 199.746 332.708 196.529 332.708C193.312 332.708 190.9 331.1 189.292 328.687L164.362 280.437C161.95 276.417 163.558 271.592 167.579 269.983C171.6 267.571 176.425 269.179 178.033 273.2L196.529 308.583L215.829 273.2C218.242 269.179 223.067 267.571 227.088 269.983C231.108 271.592 232.717 276.417 230.304 280.437Z" fill="#546DFE"/>
<path d="M149.888 56.8787C152.3 63.312 157.929 67.3328 165.167 67.3328H229.5C236.738 67.3328 243.171 63.312 244.779 56.8787L256.842 20.6912C258.45 16.6703 257.646 12.6495 255.233 9.43285C252.017 5.41201 247.192 2.99951 241.563 2.99951H153.104C147.475 2.99951 142.65 5.41201 139.433 9.43285C137.021 12.6495 136.217 17.4745 137.825 20.6912L149.888 56.8787Z" fill="#546DFE"/>
</svg>
