<svg width="394" height="394" viewBox="0 0 394 394" fill="none" xmlns="http://www.w3.org/2000/svg">
<g clip-path="url(#clip0_273_590)">
<path d="M341.617 76.9882H298.029V22.9234C298.029 15.6908 292.166 9.82776 284.933 9.82776H154.265V67.3046H184.109L214.986 106.808V243.94H81.2173V106.808L112.094 67.3046H141.938V9.82776H13.0957C5.86302 9.82776 0 15.6908 0 22.9234V371.077C0 378.309 5.86302 384.172 13.0957 384.172H284.909C292.166 384.172 298.005 378.309 298.005 371.077V293.031H341.617C370.476 293.031 393.976 269.531 393.976 240.672V129.323C393.976 100.464 370.5 76.9882 341.617 76.9882ZM359.062 240.672C359.062 250.284 351.277 258.117 341.617 258.117H298.005V111.878H341.617C351.253 111.878 359.062 119.687 359.062 129.323V240.672Z" fill="#546DFE"/>
<path d="M129.659 65.4063C136.852 65.4063 142.683 59.5755 142.683 52.3827C142.683 45.19 136.852 39.3591 129.659 39.3591C122.467 39.3591 116.636 45.19 116.636 52.3827C116.636 59.5755 122.467 65.4063 129.659 65.4063Z" fill="#546DFE"/>
</g>
<defs>
<clipPath id="clip0_273_590">
<rect width="393.976" height="394" fill="white"/>
</clipPath>
</defs>
</svg>
