<svg width="394" height="394" viewBox="0 0 394 394" fill="none" xmlns="http://www.w3.org/2000/svg">
<path d="M196.539 256.94C217.264 256.94 234.117 240.086 234.117 219.362C234.117 198.637 217.264 181.863 196.539 181.863C175.895 181.863 159.04 198.637 159.04 219.362C159.04 240.086 175.895 256.94 196.539 256.94Z" fill="#546DFE"/>
<path d="M357.821 83.7231H263.068V65.2565C263.068 47.5153 248.633 33 230.811 33H162.266C144.525 33 130.01 47.5153 130.01 65.2565V83.7231H35.2565C17.5153 83.7231 3 98.2384 3 115.98V211.304H98.1067V206.434C98.1067 202.512 100.934 199.157 104.793 198.488L126.709 194.696C127.575 192.207 128.576 189.758 129.71 187.372L116.944 169.267C114.684 166.066 115.062 161.699 117.826 158.927L136.112 140.594C138.892 137.806 143.27 137.44 146.484 139.704L164.368 152.367C166.841 151.162 169.369 150.099 171.944 149.185L175.684 127.592C176.354 123.729 179.709 120.906 183.63 120.906H209.555C213.477 120.906 216.832 123.729 217.501 127.596L221.242 149.225C223.841 150.134 226.369 151.186 228.81 152.371L246.718 139.704C249.915 137.44 254.31 137.806 257.082 140.594L275.36 158.927C278.132 161.703 278.502 166.066 276.242 169.267L263.484 187.364C264.618 189.754 265.618 192.203 266.484 194.7L288.346 198.488C292.212 199.157 295.032 202.512 295.032 206.434V211.304H390.077V115.98C390.077 98.2384 375.643 83.7231 357.821 83.7231ZM246.939 83.7231H146.138V65.2565C146.138 56.3856 153.396 49.1282 162.266 49.1282H230.811C239.762 49.1282 246.939 56.3856 246.939 65.2565V83.7231Z" fill="#546DFE"/>
<path d="M295.032 232.358C295.032 236.284 292.205 239.639 288.338 240.304L266.209 244.112C265.35 246.498 264.374 248.841 263.279 251.129L276.242 269.525C278.502 272.734 278.124 277.101 275.352 279.873L257.074 298.155C254.294 300.935 249.923 301.301 246.726 299.041L228.188 285.96C225.951 287.016 223.667 287.957 221.352 288.776L217.501 311.141C216.832 315.008 213.477 317.835 209.555 317.835H183.63C179.709 317.835 176.354 315.008 175.684 311.141L171.834 288.784C169.502 287.957 167.211 287.016 164.99 285.968L146.476 299.041C143.263 301.301 138.892 300.935 136.12 298.155L117.834 279.873C115.062 277.101 114.684 272.734 116.944 269.525L129.906 251.129C128.812 248.841 127.835 246.498 126.977 244.112L104.808 240.304C100.934 239.643 98.1067 236.284 98.1067 232.358V227.433H3V322.744C3 340.565 17.5153 355 35.2565 355H357.821C375.643 355 390.077 340.565 390.077 322.744V227.433H295.032V232.358Z" fill="#546DFE"/>
</svg>
