<svg width="394" height="394" viewBox="0 0 394 394" fill="none" xmlns="http://www.w3.org/2000/svg">
<g clip-path="url(#clip0_288_208)">
<path d="M71.4153 394C103.756 394 133.142 373.726 144.88 343.929H340.32C348.036 343.929 355.26 340.974 360.841 335.475C366.259 329.975 369.214 322.752 369.214 315.036C369.214 299.112 356.245 286.143 340.32 286.143H144.88C133.142 256.347 103.756 235.99 71.4153 235.99C38.5819 235.99 8.86782 256.675 -2.54138 287.292C-3.52684 289.836 -3.19819 292.627 -1.63859 294.844C-0.0789826 297.06 2.46558 298.373 5.09231 298.373H41.7833C46.2161 298.373 50.402 300.097 53.6033 303.298C56.7225 306.417 58.4465 310.604 58.4465 315.036C58.4465 324.229 50.9766 331.699 41.7833 331.699H5.09231C2.46558 331.699 -0.0789826 333.012 -1.63859 335.146C-3.19819 337.363 -3.52684 340.236 -2.54138 342.698C8.86782 373.397 38.5819 394 71.4153 394Z" fill="#546DFE"/>
<path d="M368.065 43.5862H281.795V20.1927C281.795 9.11163 272.766 0 261.603 0H189.451C178.37 0 169.259 9.11163 169.259 20.1927V43.5862H83.0715C79.2133 43.5862 75.8481 46.2951 75.027 50.0711L53.9315 150.869H397.204L376.027 50.0711C375.288 46.2951 371.923 43.5862 368.065 43.5862ZM265.378 43.5862H185.676V20.1927C185.676 18.1406 187.399 16.4167 189.451 16.4167H261.603C263.737 16.4167 265.378 18.1406 265.378 20.1927V43.5862Z" fill="#546DFE"/>
<path d="M330.142 187.479C330.142 192.075 326.53 195.687 321.934 195.687C317.419 195.687 313.725 192.075 313.725 187.479V167.286H137.328V187.479C137.328 192.075 133.635 195.687 129.12 195.687C124.606 195.687 120.912 192.075 120.912 187.479V167.286H55.8197L86.847 220.969C115.74 225.729 141.268 243.87 155.305 269.726H340.32C347.544 269.726 354.357 271.45 360.431 274.487H368.065C371.923 274.487 375.288 271.778 376.109 267.92L397.204 167.286H330.142V187.479Z" fill="#546DFE"/>
</g>
<defs>
<clipPath id="clip0_288_208">
<rect width="394" height="394" fill="white"/>
</clipPath>
</defs>
</svg>
