<svg width="394" height="394" viewBox="0 0 394 394" fill="none" xmlns="http://www.w3.org/2000/svg">
<g clip-path="url(#clip0_288_223)">
<path d="M266.234 72.413L65.1391 232.14H176.521L158.135 208.993L199.339 176.244L240.379 227.871L235.043 232.14H298.901L356.603 186.339C360.215 183.467 360.789 178.296 357.916 174.766L277.725 73.7266C274.934 70.1967 269.763 69.6226 266.234 72.413ZM307.191 174.848L265.988 207.516L224.948 155.888L266.234 123.138L307.191 174.848Z" fill="#546DFE"/>
<path d="M7.4375 256.764V385.792C7.4375 390.306 11.049 394 15.6454 394H378.354C382.869 394 386.562 390.306 386.562 385.792V256.764C386.562 252.249 382.869 248.556 378.354 248.556H15.6454C11.049 248.556 7.4375 252.249 7.4375 256.764ZM294.141 288.282H346.753V354.274H294.141V288.282ZM208.778 288.282H261.391V354.274H208.778V288.282ZM123.416 288.282H176.028V354.274H123.416V288.282ZM69.6533 304.862C78.7645 304.862 86.0692 312.249 86.0692 321.278C86.0692 330.388 78.7645 337.694 69.6533 337.694C60.6248 337.694 53.2374 330.388 53.2374 321.278C53.2374 312.249 60.6248 304.862 69.6533 304.862Z" fill="#546DFE"/>
<path d="M38.7919 232.14L100.187 183.302L86.3978 178.213L104.619 128.802L148.45 144.971L237.342 74.3828L244.236 55.7512C245.796 51.4829 243.662 46.8043 239.394 45.2448L118.408 0.511394C114.305 -1.04813 109.626 1.08601 107.985 5.18998L16.7125 232.14H38.7919ZM134.25 48.7741L196.056 71.5924L177.834 121.004L115.946 98.1039L134.25 48.7741Z" fill="#546DFE"/>
</g>
<defs>
<clipPath id="clip0_288_223">
<rect width="394" height="394" fill="white"/>
</clipPath>
</defs>
</svg>
