<svg width="394" height="394" viewBox="0 0 394 394" fill="none" xmlns="http://www.w3.org/2000/svg">
<g clip-path="url(#clip0_273_577)">
<path d="M131.451 194.235H49.1946L22.4854 106.134C20.666 100.134 14.3565 96.7659 8.35656 98.5853C2.35665 100.405 -1.01104 106.714 0.808291 112.714L32.3949 216.88H131.451C137.722 216.88 142.793 211.809 142.793 205.538C142.793 199.306 137.722 194.235 131.451 194.235Z" fill="#546DFE"/>
<path d="M386.273 98.5853C380.273 96.7659 373.964 100.134 372.145 106.134L345.435 194.235H263.178C256.908 194.235 251.837 199.306 251.837 205.577C251.837 211.848 256.908 216.919 263.178 216.919H362.235L393.822 112.753C395.641 106.714 392.273 100.405 386.273 98.5853Z" fill="#546DFE"/>
<path d="M264.727 296.311C265.733 296.582 266.74 296.698 267.746 296.698C272.74 296.698 277.269 293.602 278.662 288.879L296.817 226.867H273.32L256.83 283.266C255.166 288.918 258.688 294.724 264.727 296.311Z" fill="#546DFE"/>
<path d="M357.048 296.66C358.054 296.66 359.061 296.544 360.067 296.273C366.106 294.724 369.667 288.879 368.003 283.228L351.513 226.828H328.016L346.171 288.84C347.525 293.563 352.093 296.66 357.048 296.66Z" fill="#546DFE"/>
<path d="M36.9238 296.311C37.9302 296.582 38.9366 296.698 39.9431 296.698C44.9366 296.698 49.4655 293.602 50.859 288.879L69.0136 226.867H45.5172L29.0271 283.266C27.3626 288.918 30.8852 294.724 36.9238 296.311Z" fill="#546DFE"/>
<path d="M129.245 296.66C130.252 296.66 131.258 296.544 132.264 296.273C138.303 294.724 141.864 288.879 140.2 283.228L123.71 226.828H100.213L118.368 288.84C119.723 293.563 124.29 296.66 129.245 296.66Z" fill="#546DFE"/>
<path d="M111.129 164.778H284.855C291.126 164.778 296.197 159.707 296.197 153.436C296.197 147.165 291.126 142.094 284.855 142.094H111.129C104.858 142.094 99.7874 147.165 99.7874 153.436C99.8261 159.707 104.897 164.778 111.129 164.778Z" fill="#546DFE"/>
<path d="M224.741 273.937H170.045C163.774 273.937 158.703 279.008 158.703 285.279C158.703 291.55 163.774 296.621 170.045 296.621H224.702C230.973 296.621 236.044 291.55 236.044 285.279C236.044 279.008 230.973 273.937 224.741 273.937Z" fill="#546DFE"/>
<path d="M209.025 171.32H186.38V266.738H209.025V171.32Z" fill="#546DFE"/>
</g>
<defs>
<clipPath id="clip0_273_577">
<rect width="394" height="394" fill="white"/>
</clipPath>
</defs>
</svg>
