<svg width="394" height="394" viewBox="0 0 394 394" fill="none" xmlns="http://www.w3.org/2000/svg">
<g clip-path="url(#clip0_273_611)">
<path d="M334.582 334.539C331.286 322.513 323.355 312.273 312.513 306.11L287.878 292.058C292.375 280.255 294.856 267.379 294.856 253.903C294.856 244.512 293.637 235.43 291.406 226.777L302.462 223.765C311.303 221.352 318.831 215.541 323.389 207.592C327.904 199.644 329.132 190.21 326.737 181.352C321.707 162.939 302.719 152.089 284.324 157.102L254.426 165.24C275.482 150.072 288.959 126.75 288.959 100.594C288.959 100.122 288.95 99.6588 288.942 99.1867C309.646 92.8003 324.737 73.4866 324.737 50.7221C324.737 22.7559 301.998 0.00858388 274.032 0.00858388C255.98 0.00858388 240.125 9.48518 231.138 23.7173C220.571 19.9146 209.052 17.8201 197 17.8201C184.94 17.8201 173.42 19.9146 162.862 23.7087C153.875 9.4766 138.003 0 119.968 0C92.002 0 69.2547 22.7473 69.2547 50.7135C69.2547 73.4866 84.3452 92.7917 105.049 99.1781C105.041 99.6502 105.032 100.114 105.032 100.586C105.032 126.741 118.518 150.063 139.574 165.231L109.685 157.094C91.2724 152.081 72.302 162.939 67.2804 181.343C64.8855 190.184 66.0787 199.618 70.6195 207.575C75.169 215.524 82.6971 221.344 91.5385 223.756L102.594 226.769C100.337 235.413 99.1352 244.495 99.1352 253.903C99.1352 267.379 101.625 280.255 106.122 292.058L81.4867 306.11C70.6453 312.29 62.7138 322.522 59.4262 334.539C56.1214 346.574 57.7523 359.424 63.9241 370.248C76.7828 392.833 105.504 400.695 128.071 387.82L184.399 355.733C188.528 356.282 192.742 356.583 197.017 356.583C201.292 356.583 205.498 356.291 209.627 355.733L265.954 387.82C288.538 400.695 317.252 392.833 330.093 370.248C336.265 359.424 337.879 346.574 334.582 334.539ZM158.956 87.195C164.313 87.195 168.673 91.5471 168.673 96.9034C168.673 102.26 164.313 106.62 158.956 106.62C153.591 106.62 149.239 102.268 149.239 96.9034C149.239 91.5385 153.591 87.195 158.956 87.195ZM235.044 87.9075C240.409 87.9075 244.761 92.2595 244.761 97.6244C244.761 102.989 240.409 107.333 235.044 107.333C229.679 107.333 225.327 102.989 225.327 97.6244C225.327 92.2595 229.679 87.9075 235.044 87.9075ZM192.957 317.509C181.892 306.505 151.866 276.607 151.248 275.997C138.587 263.328 138.587 242.812 151.248 230.151C163.892 217.524 184.33 217.49 197 230.065C209.67 217.49 230.108 217.524 242.752 230.151C255.422 242.812 255.422 263.328 242.752 275.997C242.125 276.607 212.099 306.505 201.043 317.509C198.803 319.732 195.189 319.732 192.957 317.509ZM274.023 25.6057C287.852 25.6057 299.131 36.8763 299.131 50.7135C299.131 61.0056 292.882 69.8642 284.015 73.7355C278.221 58.5592 267.688 45.3744 253.988 35.6317C258.564 29.5457 265.843 25.6057 274.023 25.6057ZM197 107.59C213.902 107.59 227.593 119.925 227.593 135.127C227.593 150.329 213.884 162.664 197 162.664C180.107 162.664 166.407 150.338 166.407 135.127C166.407 119.925 180.09 107.59 197 107.59ZM94.869 50.7135C94.869 36.8763 106.14 25.6057 119.977 25.6057C128.157 25.6057 135.436 29.5457 140.012 35.6231C126.312 45.3744 115.771 58.5592 109.985 73.7183C101.101 69.8642 94.869 61.0056 94.869 50.7135Z" fill="#546DFE"/>
<path d="M197 136.758C204.557 136.758 210.683 131.243 210.683 124.44C210.683 117.638 204.557 112.123 197 112.123C189.443 112.123 183.317 117.638 183.317 124.44C183.317 131.243 189.443 136.758 197 136.758Z" fill="#546DFE"/>
</g>
<defs>
<clipPath id="clip0_273_611">
<rect width="394" height="394" fill="white"/>
</clipPath>
</defs>
</svg>
