<svg width="394" height="394" viewBox="0 0 394 394" fill="none" xmlns="http://www.w3.org/2000/svg">
<path d="M0 107.529C1.64167 222.445 19.7 339.004 154.317 358.704C154.317 242.966 114.096 109.17 0 107.529Z" fill="#546DFE"/>
<path d="M385.792 32.8333H8.20833C4.10417 32.8333 0 36.9374 0 41.0416V82.0833H394V41.0416C394 36.9374 389.896 32.8333 385.792 32.8333Z" fill="#546DFE"/>
<path d="M354.6 99.3214H48.4292C124.767 128.051 172.375 224.088 172.375 359.526V360.346C180.583 361.167 188.792 361.167 197 361.167C206.029 361.167 213.417 361.167 221.625 360.346V359.526C221.625 224.088 272.517 128.051 354.6 99.3214Z" fill="#546DFE"/>
<path d="M240.504 358.705C375.121 339.825 392.358 231.475 394 108.35C281.546 119.021 240.504 247.071 240.504 358.705Z" fill="#546DFE"/>
</svg>
