<svg width="394" height="394" viewBox="0 0 394 394" fill="none" xmlns="http://www.w3.org/2000/svg">
<g clip-path="url(#clip0_273_639)">
<path d="M197 197C197 143.273 241.773 98.5 295.5 98.5C349.227 98.5 394 143.273 394 197H197ZM197 197C197 250.727 152.227 295.5 98.5 295.5C44.7727 295.5 0 250.727 0 197H197ZM197 197C143.273 197 98.5 152.227 98.5 98.5C98.5 44.7727 143.273 0 197 0V197ZM197 197C250.727 197 295.5 241.773 295.5 295.5C295.5 349.227 250.727 394 197 394V197Z" fill="#546DFE"/>
</g>
<defs>
<clipPath id="clip0_273_639">
<rect width="394" height="394" fill="white"/>
</clipPath>
</defs>
</svg>
