<svg width="394" height="394" viewBox="0 0 394 394" fill="none" xmlns="http://www.w3.org/2000/svg">
<g clip-path="url(#clip0_273_664)">
<path d="M386.165 70.0257C384.721 66.3835 381.541 63.7132 377.705 62.9198C373.864 62.1249 369.89 63.3169 367.119 66.0872L307.101 126.106L274.833 119.168L267.895 86.9L327.914 26.8804C330.684 24.1101 331.874 20.1316 331.082 16.2955C330.288 12.4586 327.617 9.27966 323.976 7.83448C282.77 -8.50574 235.894 1.18342 204.555 32.5203C189.469 47.6062 179.11 66.5543 174.597 87.3155C170.737 105.078 171.279 123.43 176.13 140.832L15.9562 301.005C5.66606 311.294 0 324.974 0 339.525C0 354.076 5.66606 367.756 15.9555 378.044C26.2449 388.334 39.924 394 54.4751 394C69.0254 394 82.7061 388.334 92.9948 378.044L253.168 217.871C270.57 222.721 288.922 223.262 306.684 219.402C327.446 214.89 346.394 204.531 361.48 189.445C392.817 158.108 402.506 111.232 386.165 70.0257Z" fill="#546DFE"/>
</g>
<defs>
<clipPath id="clip0_273_664">
<rect width="394" height="394" fill="white"/>
</clipPath>
</defs>
</svg>
