<svg width="394" height="394" viewBox="0 0 394 394" fill="none" xmlns="http://www.w3.org/2000/svg">
<g clip-path="url(#clip0_288_159)">
<path d="M357.696 269.447L239.715 221.566V192.462C258.492 190.585 276.955 187.768 295.106 183.387C297.297 182.761 299.175 181.509 300.114 179.631C301.052 177.754 301.365 175.25 300.426 173.373L296.984 163.671C287.596 138.948 283.214 112.974 283.214 86.3733C282.901 38.8054 244.409 0 197.154 0C149.899 0 111.407 38.8054 111.407 86.3733C111.407 112.974 106.712 138.948 97.637 163.671L93.8816 173.373C93.2557 175.563 93.2557 177.754 94.1945 179.631C95.1334 181.509 97.0111 183.074 99.2017 183.387C117.353 187.455 135.816 190.585 154.593 192.462V221.566L36.6123 269.447C14.3931 278.21 -0.00244141 299.49 -0.00244141 323.587V386.489C-0.00244141 390.558 3.43997 394 7.50828 394H386.487C390.555 394 393.998 390.558 393.998 386.489V323.587C394.31 299.49 379.915 278.21 357.696 269.447Z" fill="#546DFE"/>
</g>
<defs>
<clipPath id="clip0_288_159">
<rect width="394" height="394" fill="white"/>
</clipPath>
</defs>
</svg>
