<svg width="394" height="394" viewBox="0 0 394 394" fill="none" xmlns="http://www.w3.org/2000/svg">
<g clip-path="url(#clip0_288_743)">
<path d="M326.485 112.086C365.885 102.576 392.378 65.8931 393.737 18.3414C394.416 2.71724 391.699 0 376.075 0C349.582 0 302.709 24.4551 292.519 43.4759C272.14 82.1965 291.161 120.238 326.485 112.086Z" fill="#546DFE"/>
<path d="M217.795 151.486C239.533 127.71 251.761 91.7069 251.761 52.3069C251.761 36.6827 248.364 27.1724 242.93 27.1724C226.626 27.1724 185.868 60.4586 177.037 81.5172C166.847 105.972 172.282 147.41 187.226 162.355C197.416 172.545 200.133 171.186 217.795 151.486Z" fill="#546DFE"/>
<path d="M115.219 251.345C150.544 251.345 168.206 184.093 147.147 132.466C141.713 119.559 134.24 108.69 130.164 108.69C118.616 108.69 90.085 152.166 85.3298 177.3C79.216 209.228 96.1988 251.345 115.219 251.345Z" fill="#546DFE"/>
<path d="M244.968 213.983C293.199 239.117 345.506 213.983 363.168 157.6C367.923 143.334 366.564 142.655 331.919 143.334C289.123 143.334 268.064 150.807 243.609 174.583C219.833 197 219.833 201.076 244.968 213.983Z" fill="#546DFE"/>
<path d="M71.7436 287.348C73.7815 275.8 73.1022 254.062 69.0264 239.797C64.9505 225.531 58.1574 207.869 52.7229 201.755C44.5712 190.207 43.2126 190.207 29.6264 205.152C7.88843 229.607 0.416016 247.948 0.416016 279.876C0.416016 310.445 14.6815 339.655 30.3057 339.655C43.8919 339.655 66.3091 311.124 71.7436 287.348Z" fill="#546DFE"/>
<path d="M285.726 264.252C285.726 260.176 274.857 252.703 261.951 247.269C210.323 226.21 143.071 243.872 143.071 279.197C143.071 298.217 185.188 315.2 217.116 309.086C242.251 304.331 285.726 275.8 285.726 264.252Z" fill="#546DFE"/>
<path d="M192.661 361.393C204.888 347.807 204.888 347.128 185.188 336.938C162.092 325.39 119.295 318.597 98.916 324.031C81.9332 328.107 54.7608 353.241 54.7608 364.11C54.7608 379.055 83.9712 394 114.54 394C146.468 394 173.64 382.452 192.661 361.393Z" fill="#546DFE"/>
</g>
<defs>
<clipPath id="clip0_288_743">
<rect width="394" height="394" fill="white"/>
</clipPath>
</defs>
</svg>
