<svg width="394" height="394" viewBox="0 0 394 394" fill="none" xmlns="http://www.w3.org/2000/svg">
<g clip-path="url(#clip0_273_644)">
<path d="M299.838 112.87C299.838 81.8785 288.76 38.5277 271.597 2.43035L270.448 0H123.552L122.403 2.43035C105.24 38.5277 94.1621 81.8785 94.1621 112.87C94.1621 166.413 128.112 206.9 177.284 215.473C177.058 216.245 176.794 217.017 176.794 217.865V237.798C176.794 241.378 179.036 244.448 182.182 245.673C182.164 246.125 182.107 246.54 182.107 247.011C182.107 255.394 186.403 308.391 190.378 355.661C190.359 355.736 190.359 355.793 190.34 355.868C190.397 356.094 190.415 356.301 190.453 356.546C190.736 359.805 190.999 363.046 191.263 366.211C190.604 376.611 183.294 376.517 177.812 385.484H139.02C134.329 385.484 130.504 389.29 130.504 394H263.458C263.458 389.309 259.671 385.484 254.961 385.484H216.17C210.687 376.498 203.377 376.592 202.737 366.211C203.001 363.008 203.283 359.805 203.547 356.546C203.585 356.301 203.622 356.094 203.66 355.868C203.641 355.774 203.641 355.717 203.622 355.661C207.597 308.391 211.893 255.413 211.893 247.011C211.893 246.54 211.818 246.125 211.818 245.673C214.964 244.448 217.206 241.378 217.206 237.798V217.865C217.206 217.017 216.942 216.245 216.716 215.473C265.888 206.9 299.838 166.413 299.838 112.87ZM128.96 8.51566H265.041C272.105 23.776 278.002 40.5059 282.505 56.9532H125.625C112.117 100.455 107.727 139.359 133.575 181.052C110.967 163.455 103.714 136.571 102.697 112.06C102.885 83.4233 113.322 42.2769 128.96 8.51566Z" fill="#546DFE"/>
</g>
<defs>
<clipPath id="clip0_273_644">
<rect width="394" height="394" fill="white"/>
</clipPath>
</defs>
</svg>
