<svg width="36" height="36" viewBox="0 0 36 36" fill="none" xmlns="http://www.w3.org/2000/svg">
<rect width="36" height="36" rx="5.08179" fill="#FFF7F8"/>
<path d="M21.1678 14.9647C21.0145 14.8122 20.8071 14.7268 20.591 14.7268C20.3748 14.7268 20.1675 14.8122 20.0142 14.9647L18.1323 16.8465L16.2586 14.9647C16.0511 14.7572 15.7486 14.6761 15.4652 14.7521C15.1816 14.828 14.9601 15.0495 14.8843 15.333C14.8082 15.6164 14.8893 15.919 15.0968 16.1265L16.9787 18.0001L15.0968 19.8738C14.9237 20.022 14.8203 20.2358 14.8114 20.4636C14.8026 20.6914 14.8893 20.9126 15.0506 21.0738C15.2116 21.235 15.4328 21.3216 15.6606 21.3128C15.8884 21.3041 16.1022 21.2005 16.2504 21.0274L18.1323 19.1537L20.006 21.0274C20.2166 21.2078 20.5043 21.2693 20.7701 21.1905C21.0361 21.1119 21.2441 20.904 21.3227 20.638C21.4014 20.3721 21.3399 20.0844 21.1596 19.8738L19.2859 18.0001L21.1596 16.1264C21.3156 15.9738 21.4042 15.7654 21.4057 15.5472C21.4072 15.3291 21.3216 15.1193 21.1678 14.9646L21.1678 14.9647Z" fill="#FF5876"/>
<path d="M18.1321 9C15.7452 9 13.4558 9.94827 11.7681 11.6361C10.0803 13.324 9.13208 15.6131 9.13208 18C9.13208 20.3869 10.0803 22.6763 11.7681 24.364C13.4561 26.0518 15.7452 27.0001 18.1321 27.0001C20.519 27.0001 22.8084 26.0518 24.4961 24.364C26.1839 22.6761 27.1321 20.3869 27.1321 18C27.1321 15.6131 26.1839 13.3237 24.4961 11.6361C22.8081 9.94827 20.519 9 18.1321 9ZM18.1321 25.3638C16.1792 25.3638 14.3061 24.588 12.9253 23.2071C11.5443 21.8261 10.7685 19.9531 10.7685 18.0002C10.7685 16.0474 11.5443 14.1743 12.9253 12.7934C14.3063 11.4124 16.1792 10.6366 18.1321 10.6366C20.085 10.6366 21.9581 11.4124 23.3389 12.7934C24.7199 14.1744 25.4957 16.0474 25.4957 18.0002C25.4957 19.9531 24.7199 21.8262 23.3389 23.2071C21.958 24.588 20.085 25.3638 18.1321 25.3638Z" fill="#FF5876"/>
</svg>
