<svg width="36" height="36" viewBox="0 0 36 36" fill="none" xmlns="http://www.w3.org/2000/svg">
<rect width="36" height="36" rx="5.08179" fill="#E7F9F3"/>
<g clip-path="url(#clip0_1357_2150)">
<path d="M27.2535 16.0805C27.4507 16.078 27.6391 15.9997 27.7786 15.8624C27.918 15.725 27.9975 15.5394 28 15.3452V11.7353C28 11.5403 27.9214 11.3533 27.7814 11.2154C27.6414 11.0775 27.4515 11 27.2535 11H7.74656C7.54856 11 7.35868 11.0775 7.21867 11.2154C7.07867 11.3533 7.00002 11.5403 7.00002 11.7353V15.3452C7.00253 15.5394 7.08199 15.725 7.22145 15.8624C7.36091 15.9997 7.54934 16.078 7.74656 16.0805C8.00243 16.0803 8.25581 16.13 8.49209 16.2267C8.72838 16.3234 8.9429 16.4652 9.12329 16.6439C9.3065 16.8216 9.45199 17.0335 9.55131 17.2671C9.65062 17.5007 9.70176 17.7515 9.70176 18.0048C9.70176 18.2581 9.65062 18.5088 9.55131 18.7424C9.45199 18.9761 9.3065 19.1879 9.12329 19.3656C8.9429 19.5444 8.72838 19.6862 8.49209 19.7829C8.25581 19.8796 8.00243 19.9293 7.74656 19.9291C7.54856 19.9291 7.35868 20.0065 7.21867 20.1444C7.07867 20.2823 7.00002 20.4694 7.00002 20.6644V24.2647C6.99933 24.3625 7.01873 24.4595 7.05705 24.5497C7.09537 24.64 7.15182 24.7217 7.22301 24.7899C7.29194 24.8571 7.37367 24.9103 7.46351 24.9464C7.55336 24.9824 7.64954 25.0007 7.74656 25H27.2632C27.3611 25.0013 27.4583 24.9831 27.549 24.9465C27.6396 24.9099 27.7218 24.8556 27.7907 24.787C27.8595 24.7183 27.9135 24.6366 27.9495 24.5469C27.9854 24.4571 28.0026 24.3611 28 24.2647V20.6644C28.0013 20.5675 27.9829 20.4713 27.9458 20.3815C27.9088 20.2917 27.8538 20.2101 27.7843 20.1416C27.7147 20.073 27.6319 20.0189 27.5407 19.9824C27.4495 19.9459 27.3519 19.9278 27.2535 19.9291C26.9976 19.9293 26.7442 19.8796 26.5079 19.7829C26.2717 19.6862 26.0571 19.5444 25.8767 19.3656C25.6935 19.1879 25.548 18.9761 25.4487 18.7424C25.3494 18.5088 25.2983 18.2581 25.2983 18.0048C25.2983 17.7515 25.3494 17.5007 25.4487 17.2671C25.548 17.0335 25.6935 16.8216 25.8767 16.6439C26.0571 16.4652 26.2717 16.3234 26.5079 16.2267C26.7442 16.13 26.9976 16.0803 27.2535 16.0805ZM23.8117 17.9905C23.805 18.4332 23.8872 18.8729 24.0536 19.2842C24.22 19.6956 24.4673 20.0705 24.7812 20.3874C25.2339 20.8648 25.8215 21.1974 26.4682 21.3424V23.558H22.5125C22.0277 23.558 22.0277 23.558 21.7659 23.558C21.0582 23.558 21.5429 23.5293 21.0194 23.5293H8.49309V21.3138C9.13972 21.1688 9.72735 20.8361 10.1801 20.3588C10.8219 19.7251 11.1823 18.8665 11.1823 17.9714C11.1823 17.0762 10.8219 16.2176 10.1801 15.5839C9.72202 15.1132 9.13656 14.7818 8.49309 14.6289V12.4707H21C21.5429 12.4707 21.2172 12.4707 21.702 12.4707C22.0277 12.4707 22.0277 12.4707 22.5125 12.4707H26.5263V14.6862C25.8829 14.8391 25.2974 15.1705 24.8394 15.6412C24.1935 16.2626 23.824 17.1108 23.8117 18V17.9905Z" fill="#47D1A0"/>
<line x1="21.2735" y1="11.955" x2="21.2735" y2="24.3697" stroke="#47D1A0" stroke-width="1.4"/>
<line x1="13.5171" y1="16.0299" x2="16.9648" y2="16.0299" stroke="#47D1A0" stroke-width="1.4" stroke-linecap="round"/>
<line x1="13.5171" y1="19.8498" x2="17.9343" y2="19.8498" stroke="#47D1A0" stroke-width="1.4" stroke-linecap="round"/>
</g>
<defs>
<clipPath id="clip0_1357_2150">
<rect width="21" height="14" fill="white" transform="translate(7 11)"/>
</clipPath>
</defs>
</svg>
