<svg width="172" height="119" viewBox="0 0 172 119" fill="none" xmlns="http://www.w3.org/2000/svg">
<path d="M125.877 0C132.157 0 137.293 4.53441 137.293 10.0916C137.293 15.6488 132.174 20.1832 125.877 20.1832H122.669C116.407 20.1832 111.271 24.5642 111.271 29.8999C111.271 35.2355 116.39 39.6335 122.669 39.6335H160.602C166.881 39.6335 172 44.1679 172 49.7251C172 55.2823 166.881 59.8167 160.602 59.8167H144.75C138.47 59.8167 133.351 64.3512 133.351 69.9084C133.351 75.4656 128.232 80 121.936 80H11.3984C5.13612 80 0 75.4656 0 69.9084C0 64.3512 5.11906 59.8167 11.3984 59.8167H85.7953C92.0576 59.8167 97.1937 55.4358 97.1937 50.1002C97.1937 44.7645 92.0746 40.3665 85.7953 40.3665H77.2635C71.0012 40.3665 65.8651 35.8321 65.8651 30.2749C65.7583 27.5136 64.5663 24.9057 62.5476 23.0165C60.5288 21.1274 57.8461 20.1094 55.081 20.1832C52.3134 20.2661 49.6256 19.2511 47.6048 17.3601C45.5841 15.4691 44.3948 12.856 44.2968 10.0916C44.2968 4.53441 49.4159 0 55.6952 0H125.877Z" fill="#E7F9F3"/>
<path d="M126.928 107.384H47.4473V10.0928H105.355L126.928 31.6219V107.384Z" fill="#E8EBFF"/>
<path d="M106.444 42.8096L68.5007 78.1176L97.7676 107.384H126.928V63.2932L106.444 42.8096Z" fill="#D7DDFF"/>
<path d="M86.9685 33.5684C93.0094 33.5688 98.8632 35.6638 103.533 39.4963C108.202 43.3288 111.398 48.6618 112.577 54.5866C113.755 60.5114 112.843 66.6615 109.995 71.9891C107.147 77.3166 102.541 81.492 96.9595 83.8038C91.3786 86.1157 85.1686 86.421 79.3878 84.6676C73.607 82.9143 68.613 79.2109 65.2565 74.1884C61.9 69.1658 60.3888 63.1349 60.9804 57.123C61.572 51.1112 64.2296 45.4905 68.5007 41.2185C70.9228 38.789 73.8014 36.8624 76.9708 35.5495C80.1402 34.2366 83.5379 33.5633 86.9685 33.5684Z" fill="white"/>
<path d="M100.397 46.2207C97.7397 43.5634 94.3542 41.7537 90.6685 41.0205C86.9829 40.2872 83.1626 40.6634 79.6907 42.1015C76.2188 43.5395 73.2514 45.9748 71.1636 49.0993C69.0758 52.2239 67.9614 55.8974 67.9614 59.6552C67.9614 63.4131 69.0758 67.0866 71.1636 70.2112C73.2514 73.3357 76.2188 75.771 79.6907 77.209C83.1626 78.6471 86.9829 79.0233 90.6685 78.29C94.3542 77.5568 97.7397 75.7471 100.397 73.0898C102.176 71.334 103.589 69.2423 104.553 66.936C105.517 64.6298 106.014 62.1549 106.014 59.6552C106.014 57.1555 105.517 54.6807 104.553 52.3745C103.589 50.0682 102.176 47.9765 100.397 46.2207Z" fill="#F2E4FF"/>
<path d="M84.1764 43.9736H83.9198C80.6127 44.478 77.5743 46.0884 75.3003 48.542C73.0264 50.9956 71.6512 54.1475 71.3992 57.4833V57.6148C71.392 58.2686 71.6292 58.9016 72.0644 59.3896C72.4996 59.8777 73.1014 60.1856 73.7518 60.253C74.4022 60.3203 75.0543 60.1424 75.5803 59.7539C76.1063 59.3655 76.4683 58.7946 76.5952 58.1532H76.6265C76.733 55.9476 77.6031 53.8477 79.0879 52.2133C80.5727 50.5789 82.5797 49.5117 84.7649 49.1947H84.8025C85.4285 49.0484 85.979 48.6772 86.3494 48.1518C86.7198 47.6263 86.8843 46.9831 86.8117 46.3443C86.7391 45.7055 86.4344 45.1156 85.9555 44.6866C85.4767 44.2577 84.8569 44.0196 84.214 44.0175L84.1764 43.9736Z" fill="white"/>
<path d="M105.28 31.7408H126.928L105.28 10.0928V31.7408Z" fill="#546DFE"/>
<path d="M126.928 107.384V106.132H48.6994V11.3449H104.835L125.676 32.1416V107.384H126.928V106.132V107.384H128.18V31.1086L105.868 8.84082H46.1953V108.636H128.18V107.384H126.928Z" fill="#546DFE"/>
<path d="M86.9685 33.5685V34.8205C92.7216 34.8202 98.2968 36.8147 102.744 40.4642C107.191 44.1137 110.236 49.1924 111.358 54.8349C112.481 60.4774 111.612 66.3345 108.9 71.4083C106.188 76.482 101.8 80.4583 96.4851 82.6597C91.1699 84.8612 85.2558 85.1514 79.7506 83.4811C74.2453 81.8107 69.4896 78.2831 66.2938 73.4994C63.098 68.7156 61.6598 62.9717 62.2243 57.2464C62.7888 51.5211 65.3211 46.1687 69.3897 42.1012C71.6959 39.7898 74.4361 37.9567 77.4528 36.7073C80.4695 35.4578 83.7033 34.8166 86.9685 34.8205V32.3164C80.6392 32.3163 74.5057 34.5107 69.613 38.5258C64.7203 42.541 61.3711 48.1284 60.1362 54.336C58.9013 60.5437 59.8569 66.9875 62.8404 72.5695C65.8239 78.1515 70.6506 82.5264 76.498 84.9486C82.3455 87.3709 88.8519 87.6906 94.9087 85.8535C100.966 84.0163 106.198 80.1358 109.714 74.8733C113.231 69.6108 114.814 63.2917 114.194 56.9929C113.573 50.6941 110.788 44.8052 106.313 40.3296C103.775 37.7859 100.76 35.7685 97.44 34.3934C94.1203 33.0182 90.5617 32.3124 86.9685 32.3164V33.5685Z" fill="#546DFE"/>
<path d="M112.426 77.5896L105.064 84.9512L128.761 108.647L136.122 101.286L112.426 77.5896Z" fill="#F2E4FF"/>
<path d="M128.762 108.655L129.651 107.772L106.839 84.9537L112.429 79.3695L134.353 101.293L127.879 107.772L128.762 108.655L129.651 107.772L128.762 108.655L129.651 109.538L137.896 101.293L112.429 75.8262L103.295 84.9537L128.762 110.427L129.651 109.538L128.762 108.655Z" fill="#546DFE"/>
<path d="M104.028 10.0928V32.9929H126.928V30.4888H106.532V10.0928H104.028Z" fill="#546DFE"/>
<path d="M69.327 49.6952C67.1385 53.5698 66.2871 58.0573 66.9043 62.4642C67.5214 66.8711 69.5729 70.952 72.7416 74.0763C75.9102 77.2006 80.0197 79.1943 84.4349 79.7492C88.8501 80.3042 93.3251 79.3895 97.1684 77.1466C101.012 74.9036 104.009 71.4573 105.698 67.3402C107.386 63.2231 107.672 58.6645 106.51 54.3689C105.349 50.0732 102.805 46.2797 99.2714 43.5747C95.7381 40.8697 91.4122 39.4037 86.9623 39.4033V41.9074C90.8583 41.9088 94.6455 43.193 97.7387 45.5618C100.832 47.9305 103.059 51.2518 104.076 55.0127C105.093 58.7737 104.844 62.7649 103.366 66.3698C101.888 69.9747 99.2647 72.9927 95.9004 74.9575C92.5362 76.9224 88.6185 77.7248 84.7526 77.2408C80.8868 76.7568 77.2879 75.0133 74.5119 72.2796C71.7359 69.5459 69.9373 65.9743 69.3939 62.1163C68.8506 58.2584 69.5927 54.3288 71.5056 50.9348L69.327 49.6827V49.6952Z" fill="#546DFE"/>
<path d="M86.9622 39.4033C86.0746 39.4048 85.188 39.4633 84.3079 39.5786L84.6271 42.0827C85.4013 41.9804 86.1813 41.9281 86.9622 41.9262V39.4221V39.4033Z" fill="#546DFE"/>
<path d="M75.6561 42.8534C74.5746 43.5872 73.568 44.426 72.6512 45.3575L72.4822 45.5203L74.2726 47.2731L74.4166 47.1292C75.2249 46.3176 76.1096 45.5859 77.0584 44.9443L75.6561 42.8722V42.8534ZM81.7662 40.0801C80.4265 40.4306 79.1276 40.9216 77.8911 41.545L79.0117 43.7799C80.0955 43.2364 81.2325 42.8063 82.4047 42.4965L81.7787 40.0801H81.7662Z" fill="#546DFE"/>
<path d="M70.7921 47.4668C70.2564 48.1774 69.767 48.9219 69.3271 49.6955L71.5057 50.9475C71.8873 50.2672 72.3161 49.6145 72.7891 48.9943L70.7921 47.4793V47.4668Z" fill="#546DFE"/>
<path d="M32.0972 106.113H127.998V108.617H32.0972V106.113ZM132.888 108.617H142.278V106.113H132.888V108.617ZM124.887 115.616H83.5692V118.12H124.887V115.616ZM78.0163 118.12H60.6315V115.616H78.0038L78.0163 118.12ZM56.9192 118.12H49.5008V115.616H56.9067L56.9192 118.12Z" fill="#546DFE"/>
<path fill-rule="evenodd" clip-rule="evenodd" d="M83.7071 55.2929C83.3166 54.9024 82.6834 54.9024 82.2929 55.2929C81.9024 55.6834 81.9024 56.3166 82.2929 56.7071L85.7622 60.1764L82.2929 63.6458C81.9024 64.0363 81.9024 64.6695 82.2929 65.06C82.6834 65.4505 83.3166 65.4505 83.7071 65.06L87.1764 61.5906L90.6458 65.06C91.0363 65.4505 91.6695 65.4505 92.06 65.06C92.4505 64.6695 92.4505 64.0363 92.06 63.6458L88.5906 60.1764L92.06 56.7071C92.4505 56.3166 92.4505 55.6834 92.06 55.2929C91.6695 54.9024 91.0363 54.9024 90.6458 55.2929L87.1764 58.7622L83.7071 55.2929Z" fill="#546DFE"/>
<path d="M20.3188 32.3938C19.7938 31.8687 18.9188 31.8687 18.3938 32.3938C17.8687 32.9188 17.8687 33.7938 18.3938 34.3188L21.1938 37.1188C21.3688 37.2938 21.7188 37.4688 22.0688 37.4688C22.4188 37.4688 22.7688 37.2938 22.9438 37.1188C23.4688 36.5938 23.4688 35.7188 22.9438 35.1938L20.3188 32.3938Z" fill="#546DFE"/>
<path d="M29.2465 41.3176C28.7215 40.7926 27.8465 40.7926 27.3215 41.3176C26.7965 41.8426 26.7965 42.7176 27.3215 43.2426L30.1215 46.0426C30.2965 46.2176 30.6465 46.3926 30.9965 46.3926C31.3465 46.3926 31.6965 46.2176 31.8715 46.0426C32.3965 45.5176 32.3965 44.6426 31.8715 44.1176L29.2465 41.3176Z" fill="#546DFE"/>
<path d="M21.1947 41.3176L18.3947 44.1176C17.8697 44.6426 17.8697 45.5176 18.3947 46.0426C18.5697 46.2176 18.9197 46.3926 19.2697 46.3926C19.6197 46.3926 19.9697 46.2176 20.1447 46.0426L22.9447 43.2426C23.4697 42.7176 23.4697 41.8426 22.9447 41.3176C22.5947 40.7926 21.7197 40.7926 21.1947 41.3176Z" fill="#546DFE"/>
<path d="M30.1186 32.3938L27.3186 35.1938C26.7936 35.7188 26.7936 36.5938 27.3186 37.1188C27.4936 37.2938 27.8436 37.4688 28.1936 37.4688C28.5436 37.4688 28.8936 37.2938 29.0686 37.1188L31.8686 34.3188C32.3936 33.7938 32.3936 32.9188 31.8686 32.3938C31.5186 31.8687 30.6436 31.8687 30.1186 32.3938Z" fill="#546DFE"/>
<path d="M142.257 14.2135C141.973 13.9288 141.498 13.9288 141.213 14.2135C140.929 14.4982 140.929 14.9726 141.213 15.2573L142.732 16.7754C142.827 16.8703 143.016 16.9652 143.206 16.9652C143.396 16.9652 143.586 16.8703 143.681 16.7754C143.965 16.4908 143.965 16.0163 143.681 15.7317L142.257 14.2135Z" fill="#546DFE"/>
<path d="M147.098 19.0524C146.813 18.7677 146.339 18.7677 146.054 19.0524C145.77 19.337 145.77 19.8115 146.054 20.0961L147.572 21.6143C147.667 21.7092 147.857 21.8041 148.047 21.8041C148.237 21.8041 148.426 21.7092 148.521 21.6143C148.806 21.3296 148.806 20.8552 148.521 20.5706L147.098 19.0524Z" fill="#546DFE"/>
<path d="M142.732 19.0524L141.214 20.5706C140.929 20.8552 140.929 21.3296 141.214 21.6143C141.309 21.7092 141.499 21.8041 141.688 21.8041C141.878 21.8041 142.068 21.7092 142.163 21.6143L143.681 20.0961C143.966 19.8115 143.966 19.337 143.681 19.0524C143.491 18.7677 143.017 18.7677 142.732 19.0524Z" fill="#546DFE"/>
<path d="M147.571 14.2135L146.053 15.7317C145.768 16.0163 145.768 16.4908 146.053 16.7754C146.147 16.8703 146.337 16.9652 146.527 16.9652C146.717 16.9652 146.907 16.8703 147.001 16.7754L148.52 15.2573C148.804 14.9726 148.804 14.4982 148.52 14.2135C148.33 13.9288 147.855 13.9288 147.571 14.2135Z" fill="#546DFE"/>
<path d="M149.319 75.3938C148.794 74.8687 147.919 74.8687 147.394 75.3938C146.869 75.9188 146.869 76.7938 147.394 77.3188L150.194 80.1188C150.369 80.2938 150.719 80.4688 151.069 80.4688C151.419 80.4688 151.769 80.2938 151.944 80.1188C152.469 79.5938 152.469 78.7188 151.944 78.1938L149.319 75.3938Z" fill="#546DFE"/>
<path d="M158.246 84.3176C157.721 83.7926 156.846 83.7926 156.321 84.3176C155.796 84.8426 155.796 85.7176 156.321 86.2426L159.121 89.0426C159.296 89.2176 159.646 89.3926 159.996 89.3926C160.346 89.3926 160.696 89.2176 160.871 89.0426C161.396 88.5176 161.396 87.6426 160.871 87.1176L158.246 84.3176Z" fill="#546DFE"/>
<path d="M150.195 84.3176L147.395 87.1176C146.87 87.6426 146.87 88.5176 147.395 89.0426C147.57 89.2176 147.92 89.3926 148.27 89.3926C148.62 89.3926 148.97 89.2176 149.145 89.0426L151.945 86.2426C152.47 85.7176 152.47 84.8426 151.945 84.3176C151.595 83.7926 150.72 83.7926 150.195 84.3176Z" fill="#546DFE"/>
<path d="M159.119 75.3938L156.319 78.1938C155.794 78.7188 155.794 79.5938 156.319 80.1188C156.494 80.2938 156.844 80.4688 157.194 80.4688C157.544 80.4688 157.894 80.2938 158.069 80.1188L160.869 77.3188C161.394 76.7938 161.394 75.9188 160.869 75.3938C160.519 74.8687 159.644 74.8687 159.119 75.3938Z" fill="#546DFE"/>
</svg>
