<svg width="36" height="36" viewBox="0 0 36 36" fill="none" xmlns="http://www.w3.org/2000/svg">
<rect width="36" height="36" rx="5.08179" fill="#EDF0FF"/>
<path d="M9.86193 10C8.29192 10 7 11.2911 7 12.8534V22.347C7 23.9095 8.29192 25.2023 9.86193 25.2023H12.7501L12.7221 28.0409C12.7154 28.8944 13.7556 29.3227 14.3573 28.7144L17.8608 25.2023H25.1398C26.7098 25.2023 28 23.9093 28 22.347V12.8534C28 11.2911 26.71 10 25.1398 10H9.86193ZM9.86193 11.8999H25.1397C25.6852 11.8999 26.0906 12.3108 26.0906 12.8535V22.3472C26.0906 22.8899 25.6852 23.3026 25.1397 23.3026H17.4581C17.204 23.3026 16.9604 23.4034 16.7813 23.5827L14.6538 25.72L14.6669 24.2561C14.6689 23.7287 14.2386 23.3005 13.7085 23.3025H9.86214C9.3167 23.3025 8.90934 22.8896 8.90934 22.347V12.8534C8.90934 12.3106 9.3167 11.8997 9.86214 11.8997L9.86193 11.8999ZM23.2304 16.6548C24.5044 16.6548 24.5044 14.7532 23.2304 14.7532L11.7778 14.7531C10.4527 14.7531 10.4972 16.7203 11.7711 16.6547L23.2304 16.6548ZM11.7705 18.5547C10.5382 18.5569 10.5883 20.4223 11.7714 20.4471H21.3195C22.6284 20.5613 22.6909 18.5676 21.3243 18.538L11.7705 18.5547Z" fill="#546DFE" stroke="#EDF0FF" stroke-width="0.3"/>
</svg>
