<svg width="14" height="18" viewBox="0 0 14 18" fill="none" xmlns="http://www.w3.org/2000/svg">
<path d="M12.2501 1.78066H9.93581L9.40534 1.2286C9.2633 1.08162 9.07307 0.999601 8.87517 1H5.12573C4.92761 0.999366 4.73712 1.08141 4.59496 1.2286L4.06434 1.78066H1.74989C1.3358 1.78066 1 2.12988 1 2.56116V5.29267C1 5.72459 1.3358 6.07317 1.74989 6.07317V16.2195C1.74989 16.6505 2.08554 17 2.49978 17H11.5002C11.9146 17 12.2501 16.6505 12.2501 16.2195V6.07317C12.6645 6.07317 13 5.72395 13 5.29267V2.56116C13.0003 2.12988 12.6645 1.78066 12.2501 1.78066ZM10.7503 15.4392H3.24966V6.07333H10.7502L10.7503 15.4392ZM2.49978 3.3415H4.37449C4.57239 3.3419 4.76262 3.25988 4.90466 3.1129L5.43513 2.56116H8.56367L9.09414 3.1129C9.23614 3.25994 9.42639 3.34197 9.62431 3.3415H11.499V4.51233H2.49978V3.3415Z" fill="#FF5876" stroke="#EFF7FE" stroke-width="0.2"/>
</svg>
