
<svg width="16" height="16" viewBox="0 0 16 16" fill="none" xmlns="http://www.w3.org/2000/svg">
<path d="M7.60005 0C5.58437 0 3.65131 0.800714 2.22604 2.22604C0.800714 3.65126 0 5.58443 0 7.60005C0 9.61568 0.800714 11.5488 2.22604 12.9741C3.65126 14.3994 5.58443 15.2001 7.60005 15.2001C9.61568 15.2001 11.5488 14.3994 12.9741 12.9741C14.3994 11.5489 15.2001 9.61568 15.2001 7.60005C15.2001 5.58443 14.3994 3.65131 12.9741 2.22604C11.5489 0.800714 9.61568 0 7.60005 0ZM7.60005 13.9332C5.92037 13.9332 4.30953 13.266 3.12175 12.0783C1.93404 10.8906 1.26681 9.2796 1.26681 7.6C1.26681 5.9204 1.93404 4.30947 3.12175 3.1217C4.30947 1.93398 5.92045 1.26676 7.60005 1.26676C9.27966 1.26676 10.8906 1.93398 12.0784 3.1217C13.2661 4.30942 13.9333 5.9204 13.9333 7.6C13.9315 9.27914 13.2636 10.8889 12.0763 12.0764C10.889 13.2637 9.27927 13.9316 7.59995 13.9334L7.60005 13.9332Z" fill="#546DFE"/>
<path d="M6.96875 6.33325H8.23545V11.4H6.96875V6.33325Z" fill="#546DFE"/>
<path d="M6.96875 3.79999H8.23545V5.06669H6.96875V3.79999Z" fill="#546DFE"/>
</svg>