<svg width="17" height="15" viewBox="0 0 17 15" fill="none" xmlns="http://www.w3.org/2000/svg">
<path d="M2.83333 2.90267H4.25V11.4027H2.83333V2.90267ZM4.95833 2.90267H5.66667V11.4027H4.95833V2.90267ZM6.375 2.90267H8.5V11.4027H6.375V2.90267ZM9.20833 2.90267H9.91667V11.4027H9.20833V2.90267ZM11.3333 2.90267H12.75V11.4027H11.3333V2.90267ZM13.4583 2.90267H14.1667V11.4027H13.4583V2.90267ZM1.41667 1.486V4.31934H0V1.486C0 1.11028 0.149256 0.749945 0.414932 0.484268C0.680609 0.218591 1.04094 0.0693359 1.41667 0.0693359H4.25V1.486H1.41667ZM15.5833 0.0693359C15.9591 0.0693359 16.3194 0.218591 16.5851 0.484268C16.8507 0.749945 17 1.11028 17 1.486V4.31934H15.5833V1.486H12.75V0.0693359H15.5833ZM1.41667 9.986V12.8193H4.25V14.236H1.41667C1.04094 14.236 0.680609 14.0867 0.414932 13.8211C0.149256 13.5554 0 13.1951 0 12.8193V9.986H1.41667ZM15.5833 12.8193V9.986H17V12.8193C17 13.1951 16.8507 13.5554 16.5851 13.8211C16.3194 14.0867 15.9591 14.236 15.5833 14.236H12.75V12.8193H15.5833Z" fill="#A1A9C7"/>
</svg>
