<svg width="14" height="15" viewBox="0 0 14 15" fill="none" xmlns="http://www.w3.org/2000/svg">
<path fill-rule="evenodd" clip-rule="evenodd" d="M5.24999 1.99998C3.31699 1.99998 1.74998 3.56699 1.74998 5.49999C1.74998 7.43296 3.31699 9 5.24999 9C7.18296 9 8.75 7.43296 8.75 5.49999C8.75 3.56699 7.18296 1.99998 5.24999 1.99998ZM0 5.50002C0 2.60051 2.35051 0.25 5.25002 0.25C8.14951 0.25 10.5 2.60051 10.5 5.50002C10.5 6.63387 10.1406 7.68376 9.52939 8.54196L13.7438 12.7563C14.0854 13.098 14.0854 13.6521 13.7438 13.9938C13.4021 14.3354 12.848 14.3354 12.5063 13.9938L8.29196 9.77939C7.43376 10.3906 6.38387 10.75 5.25002 10.75C2.35051 10.75 0 8.39951 0 5.50002Z" fill="#A1A9C7"/>
</svg>
