<svg width="21" height="20" viewBox="0 0 21 20" fill="none" xmlns="http://www.w3.org/2000/svg">
<path fill-rule="evenodd" clip-rule="evenodd" d="M19.1852 19.6189L14.6742 15.1079C11.1559 17.8809 6.08603 17.4314 3.11044 14.0826C0.134979 10.7339 0.284881 5.64629 3.45248 2.47858C6.62009 -0.689133 11.7077 -0.839249 15.0565 2.13618C18.4054 5.1116 18.8551 10.1815 16.0822 13.6999L20.5931 18.2119C20.8856 18.4541 21.0157 18.841 20.9289 19.2107C20.8423 19.5804 20.5536 19.8691 20.1839 19.9558C19.8142 20.0426 19.4272 19.9125 19.1852 19.6199V19.6189ZM2.9631 8.46093C2.9631 11.0613 4.5206 13.4098 6.91696 14.422C9.3132 15.4341 12.0826 14.9132 13.9475 13.0996C13.9671 13.0769 13.987 13.0549 14.007 13.0339C14.0271 13.0129 14.05 12.9929 14.072 12.9749C16.1074 10.8835 16.4913 7.68861 15.0094 5.17448C13.5274 2.66036 10.5462 1.44907 7.73068 2.21711C4.91513 2.98515 2.96201 5.5425 2.96188 8.4609L2.9631 8.46093Z" fill="#99B2C6"/>
</svg>
