<svg width="27" height="23" viewBox="0 0 27 23" fill="none" xmlns="http://www.w3.org/2000/svg">
<path d="M7.69263 0C6.15431 0 4.84641 1.03853 4.42326 2.46154H0.923186C0.384737 2.46154 0.000244141 2.88463 0.000244141 3.42308C0.000244141 3.96153 0.423336 4.38462 0.961784 4.38462H4.46186C4.84659 5.80763 6.19256 6.84617 7.73123 6.84617C9.30823 6.84617 10.6159 5.80763 11.0389 4.38462H25.2313C25.7697 4.38462 26.1928 3.96153 26.1928 3.42308C26.1928 2.88463 25.7697 2.46154 25.2313 2.46154H11.0389C10.5772 1.03853 9.26929 0 7.69257 0H7.69263ZM7.731 1.92308C8.53883 1.92308 9.231 2.57689 9.231 3.42308C9.231 4.26924 8.53883 4.92309 7.731 4.92309C6.92317 4.92309 6.231 4.26927 6.231 3.42308C6.231 2.57693 6.92317 1.92308 7.731 1.92308Z" fill="#546DFE"/>
<path d="M19.2694 7.69238C17.7311 7.69238 16.4232 8.73091 16 10.1539H0.96154C0.384458 10.1539 0 10.577 0 11.1155C0 11.6539 0.423091 12.077 0.96154 12.077H16C16.3848 13.5 17.7307 14.5385 19.2694 14.5385C20.8464 14.5385 22.154 13.5 22.5771 12.077H25.231C25.7695 12.077 26.1926 11.6539 26.1926 11.1155C26.1926 10.577 25.7695 10.1539 25.231 10.1539H22.5771C22.1537 8.73091 20.8461 7.69238 19.2691 7.69238H19.2694ZM19.3078 9.61546C20.1156 9.61546 20.8078 10.2693 20.8078 11.1155C20.8078 11.9616 20.1156 12.6155 19.3078 12.6155C18.4999 12.6155 17.8078 11.9617 17.8078 11.1155C17.8078 10.2693 18.4616 9.61546 19.3078 9.61546Z" fill="#546DFE"/>
<path d="M12.3078 16.1538C10.7695 16.1538 9.46162 17.1923 9.03848 18.6154H0.96154C0.384458 18.6154 0 19.0384 0 19.5769C0 20.1153 0.423091 20.5384 0.96154 20.5384H9.07694C9.46166 21.9614 10.8076 23 12.3463 23C13.9233 23 15.2309 21.9614 15.654 20.5384H25.231C25.7694 20.5384 26.1925 20.1153 26.1925 19.5769C26.1925 19.0384 25.7694 18.6154 25.231 18.6154H15.6155C15.1925 17.1921 13.8848 16.1538 12.3078 16.1538ZM12.3462 18.0769C13.154 18.0769 13.8462 18.7307 13.8462 19.5769C13.8462 20.423 13.154 21.0769 12.3462 21.0769C11.5384 21.0769 10.8462 20.4231 10.8462 19.5769C10.8846 18.7307 11.5387 18.0769 12.3462 18.0769Z" fill="#546DFE"/>
</svg>
